  0
SECTION
  2
BLOCKS
  0
ENDSEC
  0
SECTION
  2
ENTITIES
  0
LINE
  8
0
 10
-3
 20
0
 11
-2.99408
 21
-0.188371
  0
LINE
  8
0
 10
-2.99408
 20
-0.188371
 11
-2.97634
 21
-0.375999
  0
LINE
  8
0
 10
-2.97634
 20
-0.375999
 11
-2.94686
 21
-0.562143
  0
LINE
  8
0
 10
-2.94686
 20
-0.562143
 11
-2.90575
 21
-0.746069
  0
LINE
  8
0
 10
-2.90575
 20
-0.746069
 11
-2.85317
 21
-0.927051
  0
LINE
  8
0
 10
-2.85317
 20
-0.927051
 11
-2.78933
 21
-1.10437
  0
LINE
  8
0
 10
-2.78933
 20
-1.10437
 11
-2.71448
 21
-1.27734
  0
LINE
  8
0
 10
-2.71448
 20
-1.27734
 11
-2.62892
 21
-1.44526
  0
LINE
  8
0
 10
-2.62892
 20
-1.44526
 11
-2.53298
 21
-1.60748
  0
LINE
  8
0
 10
-2.53298
 20
-1.60748
 11
-2.42705
 21
-1.76336
  0
LINE
  8
0
 10
-2.42705
 20
-1.76336
 11
-2.31154
 21
-1.91227
  0
LINE
  8
0
 10
-2.31154
 20
-1.91227
 11
-2.18691
 21
-2.05364
  0
LINE
  8
0
 10
-2.18691
 20
-2.05364
 11
-2.05364
 21
-2.18691
  0
LINE
  8
0
 10
-2.05364
 20
-2.18691
 11
-1.91227
 21
-2.31154
  0
LINE
  8
0
 10
-1.91227
 20
-2.31154
 11
-1.76336
 21
-2.42705
  0
LINE
  8
0
 10
-1.76336
 20
-2.42705
 11
-1.60748
 21
-2.53298
  0
LINE
  8
0
 10
-1.60748
 20
-2.53298
 11
-1.44526
 21
-2.62892
  0
LINE
  8
0
 10
-1.44526
 20
-2.62892
 11
-1.27734
 21
-2.71448
  0
LINE
  8
0
 10
-1.27734
 20
-2.71448
 11
-1.10437
 21
-2.78933
  0
LINE
  8
0
 10
-1.10437
 20
-2.78933
 11
-0.927051
 21
-2.85317
  0
LINE
  8
0
 10
-0.927051
 20
-2.85317
 11
-0.746069
 21
-2.90575
  0
LINE
  8
0
 10
-0.746069
 20
-2.90575
 11
-0.562143
 21
-2.94686
  0
LINE
  8
0
 10
-0.562143
 20
-2.94686
 11
-0.375999
 21
-2.97634
  0
LINE
  8
0
 10
-0.375999
 20
-2.97634
 11
-0.188371
 21
-2.99408
  0
LINE
  8
0
 10
-0.188371
 20
-2.99408
 11
0
 21
-3
  0
LINE
  8
0
 10
0
 20
-3
 11
0.188371
 21
-2.99408
  0
LINE
  8
0
 10
0.188371
 20
-2.99408
 11
0.375999
 21
-2.97634
  0
LINE
  8
0
 10
0.375999
 20
-2.97634
 11
0.562143
 21
-2.94686
  0
LINE
  8
0
 10
0.562143
 20
-2.94686
 11
0.746069
 21
-2.90575
  0
LINE
  8
0
 10
0.746069
 20
-2.90575
 11
0.927051
 21
-2.85317
  0
LINE
  8
0
 10
0.927051
 20
-2.85317
 11
1.10437
 21
-2.78933
  0
LINE
  8
0
 10
1.10437
 20
-2.78933
 11
1.27734
 21
-2.71448
  0
LINE
  8
0
 10
1.27734
 20
-2.71448
 11
1.44526
 21
-2.62892
  0
LINE
  8
0
 10
1.44526
 20
-2.62892
 11
1.60748
 21
-2.53298
  0
LINE
  8
0
 10
1.60748
 20
-2.53298
 11
1.76336
 21
-2.42705
  0
LINE
  8
0
 10
1.76336
 20
-2.42705
 11
1.91227
 21
-2.31154
  0
LINE
  8
0
 10
1.91227
 20
-2.31154
 11
2.05364
 21
-2.18691
  0
LINE
  8
0
 10
2.05364
 20
-2.18691
 11
2.18691
 21
-2.05364
  0
LINE
  8
0
 10
2.18691
 20
-2.05364
 11
2.31154
 21
-1.91227
  0
LINE
  8
0
 10
2.31154
 20
-1.91227
 11
2.42705
 21
-1.76336
  0
LINE
  8
0
 10
2.42705
 20
-1.76336
 11
2.53298
 21
-1.60748
  0
LINE
  8
0
 10
2.53298
 20
-1.60748
 11
2.62892
 21
-1.44526
  0
LINE
  8
0
 10
2.62892
 20
-1.44526
 11
2.71448
 21
-1.27734
  0
LINE
  8
0
 10
2.71448
 20
-1.27734
 11
2.78933
 21
-1.10437
  0
LINE
  8
0
 10
2.78933
 20
-1.10437
 11
2.85317
 21
-0.927051
  0
LINE
  8
0
 10
2.85317
 20
-0.927051
 11
2.90575
 21
-0.746069
  0
LINE
  8
0
 10
2.90575
 20
-0.746069
 11
2.94686
 21
-0.562143
  0
LINE
  8
0
 10
2.94686
 20
-0.562143
 11
2.97634
 21
-0.375999
  0
LINE
  8
0
 10
2.97634
 20
-0.375999
 11
2.99408
 21
-0.188371
  0
LINE
  8
0
 10
2.99408
 20
-0.188371
 11
3
 21
0
  0
LINE
  8
0
 10
3
 20
0
 11
2.99408
 21
0.188371
  0
LINE
  8
0
 10
2.99408
 20
0.188371
 11
2.97634
 21
0.375999
  0
LINE
  8
0
 10
2.97634
 20
0.375999
 11
2.94686
 21
0.562143
  0
LINE
  8
0
 10
2.94686
 20
0.562143
 11
2.90575
 21
0.746069
  0
LINE
  8
0
 10
2.90575
 20
0.746069
 11
2.85317
 21
0.927051
  0
LINE
  8
0
 10
2.85317
 20
0.927051
 11
2.78933
 21
1.10437
  0
LINE
  8
0
 10
2.78933
 20
1.10437
 11
2.71448
 21
1.27734
  0
LINE
  8
0
 10
2.71448
 20
1.27734
 11
2.62892
 21
1.44526
  0
LINE
  8
0
 10
2.62892
 20
1.44526
 11
2.53298
 21
1.60748
  0
LINE
  8
0
 10
2.53298
 20
1.60748
 11
2.42705
 21
1.76336
  0
LINE
  8
0
 10
2.42705
 20
1.76336
 11
2.31154
 21
1.91227
  0
LINE
  8
0
 10
2.31154
 20
1.91227
 11
2.18691
 21
2.05364
  0
LINE
  8
0
 10
2.18691
 20
2.05364
 11
2.05364
 21
2.18691
  0
LINE
  8
0
 10
2.05364
 20
2.18691
 11
1.91227
 21
2.31154
  0
LINE
  8
0
 10
1.91227
 20
2.31154
 11
1.76336
 21
2.42705
  0
LINE
  8
0
 10
1.76336
 20
2.42705
 11
1.60748
 21
2.53298
  0
LINE
  8
0
 10
1.60748
 20
2.53298
 11
1.44526
 21
2.62892
  0
LINE
  8
0
 10
1.44526
 20
2.62892
 11
1.27734
 21
2.71448
  0
LINE
  8
0
 10
1.27734
 20
2.71448
 11
1.10437
 21
2.78933
  0
LINE
  8
0
 10
1.10437
 20
2.78933
 11
0.927051
 21
2.85317
  0
LINE
  8
0
 10
0.927051
 20
2.85317
 11
0.746069
 21
2.90575
  0
LINE
  8
0
 10
0.746069
 20
2.90575
 11
0.562143
 21
2.94686
  0
LINE
  8
0
 10
0.562143
 20
2.94686
 11
0.375999
 21
2.97634
  0
LINE
  8
0
 10
0.375999
 20
2.97634
 11
0.188371
 21
2.99408
  0
LINE
  8
0
 10
0.188371
 20
2.99408
 11
0
 21
3
  0
LINE
  8
0
 10
0
 20
3
 11
-0.188371
 21
2.99408
  0
LINE
  8
0
 10
-0.188371
 20
2.99408
 11
-0.375999
 21
2.97634
  0
LINE
  8
0
 10
-0.375999
 20
2.97634
 11
-0.562143
 21
2.94686
  0
LINE
  8
0
 10
-0.562143
 20
2.94686
 11
-0.746069
 21
2.90575
  0
LINE
  8
0
 10
-0.746069
 20
2.90575
 11
-0.927051
 21
2.85317
  0
LINE
  8
0
 10
-0.927051
 20
2.85317
 11
-1.10437
 21
2.78933
  0
LINE
  8
0
 10
-1.10437
 20
2.78933
 11
-1.27734
 21
2.71448
  0
LINE
  8
0
 10
-1.27734
 20
2.71448
 11
-1.44526
 21
2.62892
  0
LINE
  8
0
 10
-1.44526
 20
2.62892
 11
-1.60748
 21
2.53298
  0
LINE
  8
0
 10
-1.60748
 20
2.53298
 11
-1.76336
 21
2.42705
  0
LINE
  8
0
 10
-1.76336
 20
2.42705
 11
-1.91227
 21
2.31154
  0
LINE
  8
0
 10
-1.91227
 20
2.31154
 11
-2.05364
 21
2.18691
  0
LINE
  8
0
 10
-2.05364
 20
2.18691
 11
-2.18691
 21
2.05364
  0
LINE
  8
0
 10
-2.18691
 20
2.05364
 11
-2.31154
 21
1.91227
  0
LINE
  8
0
 10
-2.31154
 20
1.91227
 11
-2.42705
 21
1.76336
  0
LINE
  8
0
 10
-2.42705
 20
1.76336
 11
-2.53298
 21
1.60748
  0
LINE
  8
0
 10
-2.53298
 20
1.60748
 11
-2.62892
 21
1.44526
  0
LINE
  8
0
 10
-2.62892
 20
1.44526
 11
-2.71448
 21
1.27734
  0
LINE
  8
0
 10
-2.71448
 20
1.27734
 11
-2.78933
 21
1.10437
  0
LINE
  8
0
 10
-2.78933
 20
1.10437
 11
-2.85317
 21
0.927051
  0
LINE
  8
0
 10
-2.85317
 20
0.927051
 11
-2.90575
 21
0.746069
  0
LINE
  8
0
 10
-2.90575
 20
0.746069
 11
-2.94686
 21
0.562143
  0
LINE
  8
0
 10
-2.94686
 20
0.562143
 11
-2.97634
 21
0.375999
  0
LINE
  8
0
 10
-2.97634
 20
0.375999
 11
-2.99408
 21
0.188371
  0
LINE
  8
0
 10
-2.99408
 20
0.188371
 11
-3
 21
0
  0
LINE
  8
0
 10
-1.5
 20
-11.95
 11
1.5
 21
-11.95
  0
LINE
  8
0
 10
1.5
 20
-11.95
 11
1.5
 21
-9.71667
  0
LINE
  8
0
 10
1.5
 20
-9.71667
 11
-1.5
 21
-9.71667
  0
LINE
  8
0
 10
-1.5
 20
-9.71667
 11
-1.5
 21
-11.95
  0
LINE
  8
0
 10
-1.5
 20
-7.61667
 11
1.5
 21
-7.61667
  0
LINE
  8
0
 10
1.5
 20
-7.61667
 11
1.5
 21
-3.05
  0
LINE
  8
0
 10
1.5
 20
-3.05
 11
-1.5
 21
-3.05
  0
LINE
  8
0
 10
-1.5
 20
-3.05
 11
-1.5
 21
-7.61667
  0
LINE
  8
0
 10
-1.5
 20
3.05
 11
1.5
 21
3.05
  0
LINE
  8
0
 10
1.5
 20
3.05
 11
1.5
 21
7.61667
  0
LINE
  8
0
 10
1.5
 20
7.61667
 11
-1.5
 21
7.61667
  0
LINE
  8
0
 10
-1.5
 20
7.61667
 11
-1.5
 21
3.05
  0
LINE
  8
0
 10
-1.5
 20
9.71667
 11
1.5
 21
9.71667
  0
LINE
  8
0
 10
1.5
 20
9.71667
 11
1.5
 21
12
  0
LINE
  8
0
 10
1.5
 20
12
 11
-1.5
 21
12
  0
LINE
  8
0
 10
-1.5
 20
12
 11
-1.5
 21
9.71667
  0
LINE
  8
0
 10
-1
 20
-8.66667
 11
-0.998026
 21
-8.72946
  0
LINE
  8
0
 10
-0.998026
 20
-8.72946
 11
-0.992114
 21
-8.792
  0
LINE
  8
0
 10
-0.992114
 20
-8.792
 11
-0.982286
 21
-8.85405
  0
LINE
  8
0
 10
-0.982286
 20
-8.85405
 11
-0.968583
 21
-8.91536
  0
LINE
  8
0
 10
-0.968583
 20
-8.91536
 11
-0.951056
 21
-8.97568
  0
LINE
  8
0
 10
-0.951056
 20
-8.97568
 11
-0.929776
 21
-9.03479
  0
LINE
  8
0
 10
-0.929776
 20
-9.03479
 11
-0.904826
 21
-9.09245
  0
LINE
  8
0
 10
-0.904826
 20
-9.09245
 11
-0.876307
 21
-9.14842
  0
LINE
  8
0
 10
-0.876307
 20
-9.14842
 11
-0.844327
 21
-9.20249
  0
LINE
  8
0
 10
-0.844327
 20
-9.20249
 11
-0.809016
 21
-9.25445
  0
LINE
  8
0
 10
-0.809016
 20
-9.25445
 11
-0.770513
 21
-9.30409
  0
LINE
  8
0
 10
-0.770513
 20
-9.30409
 11
-0.728969
 21
-9.35121
  0
LINE
  8
0
 10
-0.728969
 20
-9.35121
 11
-0.684546
 21
-9.39563
  0
LINE
  8
0
 10
-0.684546
 20
-9.39563
 11
-0.637424
 21
-9.43718
  0
LINE
  8
0
 10
-0.637424
 20
-9.43718
 11
-0.587785
 21
-9.47568
  0
LINE
  8
0
 10
-0.587785
 20
-9.47568
 11
-0.535827
 21
-9.51099
  0
LINE
  8
0
 10
-0.535827
 20
-9.51099
 11
-0.481753
 21
-9.54297
  0
LINE
  8
0
 10
-0.481753
 20
-9.54297
 11
-0.425778
 21
-9.57149
  0
LINE
  8
0
 10
-0.425778
 20
-9.57149
 11
-0.368124
 21
-9.59644
  0
LINE
  8
0
 10
-0.368124
 20
-9.59644
 11
-0.309016
 21
-9.61772
  0
LINE
  8
0
 10
-0.309016
 20
-9.61772
 11
-0.24869
 21
-9.63525
  0
LINE
  8
0
 10
-0.24869
 20
-9.63525
 11
-0.187381
 21
-9.64895
  0
LINE
  8
0
 10
-0.187381
 20
-9.64895
 11
-0.125333
 21
-9.65878
  0
LINE
  8
0
 10
-0.125333
 20
-9.65878
 11
-0.0627899
 21
-9.66469
  0
LINE
  8
0
 10
-0.0627899
 20
-9.66469
 11
0
 21
-9.66667
  0
LINE
  8
0
 10
0
 20
-9.66667
 11
0.0627899
 21
-9.66469
  0
LINE
  8
0
 10
0.0627899
 20
-9.66469
 11
0.125333
 21
-9.65878
  0
LINE
  8
0
 10
0.125333
 20
-9.65878
 11
0.187381
 21
-9.64895
  0
LINE
  8
0
 10
0.187381
 20
-9.64895
 11
0.24869
 21
-9.63525
  0
LINE
  8
0
 10
0.24869
 20
-9.63525
 11
0.309016
 21
-9.61772
  0
LINE
  8
0
 10
0.309016
 20
-9.61772
 11
0.368124
 21
-9.59644
  0
LINE
  8
0
 10
0.368124
 20
-9.59644
 11
0.425778
 21
-9.57149
  0
LINE
  8
0
 10
0.425778
 20
-9.57149
 11
0.481753
 21
-9.54297
  0
LINE
  8
0
 10
0.481753
 20
-9.54297
 11
0.535827
 21
-9.51099
  0
LINE
  8
0
 10
0.535827
 20
-9.51099
 11
0.587785
 21
-9.47568
  0
LINE
  8
0
 10
0.587785
 20
-9.47568
 11
0.637424
 21
-9.43718
  0
LINE
  8
0
 10
0.637424
 20
-9.43718
 11
0.684546
 21
-9.39563
  0
LINE
  8
0
 10
0.684546
 20
-9.39563
 11
0.728969
 21
-9.35121
  0
LINE
  8
0
 10
0.728969
 20
-9.35121
 11
0.770513
 21
-9.30409
  0
LINE
  8
0
 10
0.770513
 20
-9.30409
 11
0.809016
 21
-9.25445
  0
LINE
  8
0
 10
0.809016
 20
-9.25445
 11
0.844327
 21
-9.20249
  0
LINE
  8
0
 10
0.844327
 20
-9.20249
 11
0.876307
 21
-9.14842
  0
LINE
  8
0
 10
0.876307
 20
-9.14842
 11
0.904826
 21
-9.09245
  0
LINE
  8
0
 10
0.904826
 20
-9.09245
 11
0.929776
 21
-9.03479
  0
LINE
  8
0
 10
0.929776
 20
-9.03479
 11
0.951056
 21
-8.97568
  0
LINE
  8
0
 10
0.951056
 20
-8.97568
 11
0.968583
 21
-8.91536
  0
LINE
  8
0
 10
0.968583
 20
-8.91536
 11
0.982286
 21
-8.85405
  0
LINE
  8
0
 10
0.982286
 20
-8.85405
 11
0.992114
 21
-8.792
  0
LINE
  8
0
 10
0.992114
 20
-8.792
 11
0.998026
 21
-8.72946
  0
LINE
  8
0
 10
0.998026
 20
-8.72946
 11
1
 21
-8.66667
  0
LINE
  8
0
 10
1
 20
-8.66667
 11
0.998026
 21
-8.60388
  0
LINE
  8
0
 10
0.998026
 20
-8.60388
 11
0.992114
 21
-8.54133
  0
LINE
  8
0
 10
0.992114
 20
-8.54133
 11
0.982286
 21
-8.47929
  0
LINE
  8
0
 10
0.982286
 20
-8.47929
 11
0.968583
 21
-8.41798
  0
LINE
  8
0
 10
0.968583
 20
-8.41798
 11
0.951056
 21
-8.35765
  0
LINE
  8
0
 10
0.951056
 20
-8.35765
 11
0.929776
 21
-8.29854
  0
LINE
  8
0
 10
0.929776
 20
-8.29854
 11
0.904826
 21
-8.24089
  0
LINE
  8
0
 10
0.904826
 20
-8.24089
 11
0.876307
 21
-8.18491
  0
LINE
  8
0
 10
0.876307
 20
-8.18491
 11
0.844327
 21
-8.13084
  0
LINE
  8
0
 10
0.844327
 20
-8.13084
 11
0.809016
 21
-8.07888
  0
LINE
  8
0
 10
0.809016
 20
-8.07888
 11
0.770513
 21
-8.02924
  0
LINE
  8
0
 10
0.770513
 20
-8.02924
 11
0.728969
 21
-7.98212
  0
LINE
  8
0
 10
0.728969
 20
-7.98212
 11
0.684546
 21
-7.9377
  0
LINE
  8
0
 10
0.684546
 20
-7.9377
 11
0.637424
 21
-7.89615
  0
LINE
  8
0
 10
0.637424
 20
-7.89615
 11
0.587785
 21
-7.85765
  0
LINE
  8
0
 10
0.587785
 20
-7.85765
 11
0.535827
 21
-7.82234
  0
LINE
  8
0
 10
0.535827
 20
-7.82234
 11
0.481753
 21
-7.79036
  0
LINE
  8
0
 10
0.481753
 20
-7.79036
 11
0.425778
 21
-7.76184
  0
LINE
  8
0
 10
0.425778
 20
-7.76184
 11
0.368124
 21
-7.73689
  0
LINE
  8
0
 10
0.368124
 20
-7.73689
 11
0.309016
 21
-7.71561
  0
LINE
  8
0
 10
0.309016
 20
-7.71561
 11
0.24869
 21
-7.69808
  0
LINE
  8
0
 10
0.24869
 20
-7.69808
 11
0.187381
 21
-7.68438
  0
LINE
  8
0
 10
0.187381
 20
-7.68438
 11
0.125333
 21
-7.67455
  0
LINE
  8
0
 10
0.125333
 20
-7.67455
 11
0.0627899
 21
-7.66864
  0
LINE
  8
0
 10
0.0627899
 20
-7.66864
 11
0
 21
-7.66667
  0
LINE
  8
0
 10
0
 20
-7.66667
 11
-0.0627899
 21
-7.66864
  0
LINE
  8
0
 10
-0.0627899
 20
-7.66864
 11
-0.125333
 21
-7.67455
  0
LINE
  8
0
 10
-0.125333
 20
-7.67455
 11
-0.187381
 21
-7.68438
  0
LINE
  8
0
 10
-0.187381
 20
-7.68438
 11
-0.24869
 21
-7.69808
  0
LINE
  8
0
 10
-0.24869
 20
-7.69808
 11
-0.309016
 21
-7.71561
  0
LINE
  8
0
 10
-0.309016
 20
-7.71561
 11
-0.368124
 21
-7.73689
  0
LINE
  8
0
 10
-0.368124
 20
-7.73689
 11
-0.425778
 21
-7.76184
  0
LINE
  8
0
 10
-0.425778
 20
-7.76184
 11
-0.481753
 21
-7.79036
  0
LINE
  8
0
 10
-0.481753
 20
-7.79036
 11
-0.535827
 21
-7.82234
  0
LINE
  8
0
 10
-0.535827
 20
-7.82234
 11
-0.587785
 21
-7.85765
  0
LINE
  8
0
 10
-0.587785
 20
-7.85765
 11
-0.637424
 21
-7.89615
  0
LINE
  8
0
 10
-0.637424
 20
-7.89615
 11
-0.684546
 21
-7.9377
  0
LINE
  8
0
 10
-0.684546
 20
-7.9377
 11
-0.728969
 21
-7.98212
  0
LINE
  8
0
 10
-0.728969
 20
-7.98212
 11
-0.770513
 21
-8.02924
  0
LINE
  8
0
 10
-0.770513
 20
-8.02924
 11
-0.809016
 21
-8.07888
  0
LINE
  8
0
 10
-0.809016
 20
-8.07888
 11
-0.844327
 21
-8.13084
  0
LINE
  8
0
 10
-0.844327
 20
-8.13084
 11
-0.876307
 21
-8.18491
  0
LINE
  8
0
 10
-0.876307
 20
-8.18491
 11
-0.904826
 21
-8.24089
  0
LINE
  8
0
 10
-0.904826
 20
-8.24089
 11
-0.929776
 21
-8.29854
  0
LINE
  8
0
 10
-0.929776
 20
-8.29854
 11
-0.951056
 21
-8.35765
  0
LINE
  8
0
 10
-0.951056
 20
-8.35765
 11
-0.968583
 21
-8.41798
  0
LINE
  8
0
 10
-0.968583
 20
-8.41798
 11
-0.982286
 21
-8.47929
  0
LINE
  8
0
 10
-0.982286
 20
-8.47929
 11
-0.992114
 21
-8.54133
  0
LINE
  8
0
 10
-0.992114
 20
-8.54133
 11
-0.998026
 21
-8.60388
  0
LINE
  8
0
 10
-0.998026
 20
-8.60388
 11
-1
 21
-8.66667
  0
LINE
  8
0
 10
-1
 20
8.66667
 11
-0.998026
 21
8.60388
  0
LINE
  8
0
 10
-0.998026
 20
8.60388
 11
-0.992114
 21
8.54133
  0
LINE
  8
0
 10
-0.992114
 20
8.54133
 11
-0.982286
 21
8.47929
  0
LINE
  8
0
 10
-0.982286
 20
8.47929
 11
-0.968583
 21
8.41798
  0
LINE
  8
0
 10
-0.968583
 20
8.41798
 11
-0.951056
 21
8.35765
  0
LINE
  8
0
 10
-0.951056
 20
8.35765
 11
-0.929776
 21
8.29854
  0
LINE
  8
0
 10
-0.929776
 20
8.29854
 11
-0.904826
 21
8.24089
  0
LINE
  8
0
 10
-0.904826
 20
8.24089
 11
-0.876307
 21
8.18491
  0
LINE
  8
0
 10
-0.876307
 20
8.18491
 11
-0.844327
 21
8.13084
  0
LINE
  8
0
 10
-0.844327
 20
8.13084
 11
-0.809016
 21
8.07888
  0
LINE
  8
0
 10
-0.809016
 20
8.07888
 11
-0.770513
 21
8.02924
  0
LINE
  8
0
 10
-0.770513
 20
8.02924
 11
-0.728969
 21
7.98212
  0
LINE
  8
0
 10
-0.728969
 20
7.98212
 11
-0.684546
 21
7.9377
  0
LINE
  8
0
 10
-0.684546
 20
7.9377
 11
-0.637424
 21
7.89615
  0
LINE
  8
0
 10
-0.637424
 20
7.89615
 11
-0.587785
 21
7.85765
  0
LINE
  8
0
 10
-0.587785
 20
7.85765
 11
-0.535827
 21
7.82234
  0
LINE
  8
0
 10
-0.535827
 20
7.82234
 11
-0.481753
 21
7.79036
  0
LINE
  8
0
 10
-0.481753
 20
7.79036
 11
-0.425778
 21
7.76184
  0
LINE
  8
0
 10
-0.425778
 20
7.76184
 11
-0.368124
 21
7.73689
  0
LINE
  8
0
 10
-0.368124
 20
7.73689
 11
-0.309016
 21
7.71561
  0
LINE
  8
0
 10
-0.309016
 20
7.71561
 11
-0.24869
 21
7.69808
  0
LINE
  8
0
 10
-0.24869
 20
7.69808
 11
-0.187381
 21
7.68438
  0
LINE
  8
0
 10
-0.187381
 20
7.68438
 11
-0.125333
 21
7.67455
  0
LINE
  8
0
 10
-0.125333
 20
7.67455
 11
-0.0627899
 21
7.66864
  0
LINE
  8
0
 10
-0.0627899
 20
7.66864
 11
0
 21
7.66667
  0
LINE
  8
0
 10
0
 20
7.66667
 11
0.0627899
 21
7.66864
  0
LINE
  8
0
 10
0.0627899
 20
7.66864
 11
0.125333
 21
7.67455
  0
LINE
  8
0
 10
0.125333
 20
7.67455
 11
0.187381
 21
7.68438
  0
LINE
  8
0
 10
0.187381
 20
7.68438
 11
0.24869
 21
7.69808
  0
LINE
  8
0
 10
0.24869
 20
7.69808
 11
0.309016
 21
7.71561
  0
LINE
  8
0
 10
0.309016
 20
7.71561
 11
0.368124
 21
7.73689
  0
LINE
  8
0
 10
0.368124
 20
7.73689
 11
0.425778
 21
7.76184
  0
LINE
  8
0
 10
0.425778
 20
7.76184
 11
0.481753
 21
7.79036
  0
LINE
  8
0
 10
0.481753
 20
7.79036
 11
0.535827
 21
7.82234
  0
LINE
  8
0
 10
0.535827
 20
7.82234
 11
0.587785
 21
7.85765
  0
LINE
  8
0
 10
0.587785
 20
7.85765
 11
0.637424
 21
7.89615
  0
LINE
  8
0
 10
0.637424
 20
7.89615
 11
0.684546
 21
7.9377
  0
LINE
  8
0
 10
0.684546
 20
7.9377
 11
0.728969
 21
7.98212
  0
LINE
  8
0
 10
0.728969
 20
7.98212
 11
0.770513
 21
8.02924
  0
LINE
  8
0
 10
0.770513
 20
8.02924
 11
0.809016
 21
8.07888
  0
LINE
  8
0
 10
0.809016
 20
8.07888
 11
0.844327
 21
8.13084
  0
LINE
  8
0
 10
0.844327
 20
8.13084
 11
0.876307
 21
8.18491
  0
LINE
  8
0
 10
0.876307
 20
8.18491
 11
0.904826
 21
8.24089
  0
LINE
  8
0
 10
0.904826
 20
8.24089
 11
0.929776
 21
8.29854
  0
LINE
  8
0
 10
0.929776
 20
8.29854
 11
0.951056
 21
8.35765
  0
LINE
  8
0
 10
0.951056
 20
8.35765
 11
0.968583
 21
8.41798
  0
LINE
  8
0
 10
0.968583
 20
8.41798
 11
0.982286
 21
8.47929
  0
LINE
  8
0
 10
0.982286
 20
8.47929
 11
0.992114
 21
8.54133
  0
LINE
  8
0
 10
0.992114
 20
8.54133
 11
0.998026
 21
8.60388
  0
LINE
  8
0
 10
0.998026
 20
8.60388
 11
1
 21
8.66667
  0
LINE
  8
0
 10
1
 20
8.66667
 11
0.998026
 21
8.72946
  0
LINE
  8
0
 10
0.998026
 20
8.72946
 11
0.992114
 21
8.792
  0
LINE
  8
0
 10
0.992114
 20
8.792
 11
0.982286
 21
8.85405
  0
LINE
  8
0
 10
0.982286
 20
8.85405
 11
0.968583
 21
8.91536
  0
LINE
  8
0
 10
0.968583
 20
8.91536
 11
0.951056
 21
8.97568
  0
LINE
  8
0
 10
0.951056
 20
8.97568
 11
0.929776
 21
9.03479
  0
LINE
  8
0
 10
0.929776
 20
9.03479
 11
0.904826
 21
9.09245
  0
LINE
  8
0
 10
0.904826
 20
9.09245
 11
0.876307
 21
9.14842
  0
LINE
  8
0
 10
0.876307
 20
9.14842
 11
0.844327
 21
9.20249
  0
LINE
  8
0
 10
0.844327
 20
9.20249
 11
0.809016
 21
9.25445
  0
LINE
  8
0
 10
0.809016
 20
9.25445
 11
0.770513
 21
9.30409
  0
LINE
  8
0
 10
0.770513
 20
9.30409
 11
0.728969
 21
9.35121
  0
LINE
  8
0
 10
0.728969
 20
9.35121
 11
0.684546
 21
9.39563
  0
LINE
  8
0
 10
0.684546
 20
9.39563
 11
0.637424
 21
9.43718
  0
LINE
  8
0
 10
0.637424
 20
9.43718
 11
0.587785
 21
9.47568
  0
LINE
  8
0
 10
0.587785
 20
9.47568
 11
0.535827
 21
9.51099
  0
LINE
  8
0
 10
0.535827
 20
9.51099
 11
0.481753
 21
9.54297
  0
LINE
  8
0
 10
0.481753
 20
9.54297
 11
0.425778
 21
9.57149
  0
LINE
  8
0
 10
0.425778
 20
9.57149
 11
0.368124
 21
9.59644
  0
LINE
  8
0
 10
0.368124
 20
9.59644
 11
0.309016
 21
9.61772
  0
LINE
  8
0
 10
0.309016
 20
9.61772
 11
0.24869
 21
9.63525
  0
LINE
  8
0
 10
0.24869
 20
9.63525
 11
0.187381
 21
9.64895
  0
LINE
  8
0
 10
0.187381
 20
9.64895
 11
0.125333
 21
9.65878
  0
LINE
  8
0
 10
0.125333
 20
9.65878
 11
0.0627899
 21
9.66469
  0
LINE
  8
0
 10
0.0627899
 20
9.66469
 11
0
 21
9.66667
  0
LINE
  8
0
 10
0
 20
9.66667
 11
-0.0627899
 21
9.66469
  0
LINE
  8
0
 10
-0.0627899
 20
9.66469
 11
-0.125333
 21
9.65878
  0
LINE
  8
0
 10
-0.125333
 20
9.65878
 11
-0.187381
 21
9.64895
  0
LINE
  8
0
 10
-0.187381
 20
9.64895
 11
-0.24869
 21
9.63525
  0
LINE
  8
0
 10
-0.24869
 20
9.63525
 11
-0.309016
 21
9.61772
  0
LINE
  8
0
 10
-0.309016
 20
9.61772
 11
-0.368124
 21
9.59644
  0
LINE
  8
0
 10
-0.368124
 20
9.59644
 11
-0.425778
 21
9.57149
  0
LINE
  8
0
 10
-0.425778
 20
9.57149
 11
-0.481753
 21
9.54297
  0
LINE
  8
0
 10
-0.481753
 20
9.54297
 11
-0.535827
 21
9.51099
  0
LINE
  8
0
 10
-0.535827
 20
9.51099
 11
-0.587785
 21
9.47568
  0
LINE
  8
0
 10
-0.587785
 20
9.47568
 11
-0.637424
 21
9.43718
  0
LINE
  8
0
 10
-0.637424
 20
9.43718
 11
-0.684546
 21
9.39563
  0
LINE
  8
0
 10
-0.684546
 20
9.39563
 11
-0.728969
 21
9.35121
  0
LINE
  8
0
 10
-0.728969
 20
9.35121
 11
-0.770513
 21
9.30409
  0
LINE
  8
0
 10
-0.770513
 20
9.30409
 11
-0.809016
 21
9.25445
  0
LINE
  8
0
 10
-0.809016
 20
9.25445
 11
-0.844327
 21
9.20249
  0
LINE
  8
0
 10
-0.844327
 20
9.20249
 11
-0.876307
 21
9.14842
  0
LINE
  8
0
 10
-0.876307
 20
9.14842
 11
-0.904826
 21
9.09245
  0
LINE
  8
0
 10
-0.904826
 20
9.09245
 11
-0.929776
 21
9.03479
  0
LINE
  8
0
 10
-0.929776
 20
9.03479
 11
-0.951056
 21
8.97568
  0
LINE
  8
0
 10
-0.951056
 20
8.97568
 11
-0.968583
 21
8.91536
  0
LINE
  8
0
 10
-0.968583
 20
8.91536
 11
-0.982286
 21
8.85405
  0
LINE
  8
0
 10
-0.982286
 20
8.85405
 11
-0.992114
 21
8.792
  0
LINE
  8
0
 10
-0.992114
 20
8.792
 11
-0.998026
 21
8.72946
  0
LINE
  8
0
 10
-0.998026
 20
8.72946
 11
-1
 21
8.66667
  0
ENDSEC
  0
SECTION
  2
OBJECTS
  0
DICTIONARY
  0
ENDSEC
  0
EOF
