<?xml version="1.0" standalone="no"?>
<!DOCTYPE svg PUBLIC "-//W3C//DTD SVG 1.1//EN" "http://www.w3.org/Graphics/SVG/1.1/DTD/svg11.dtd">
<svg width="167" height="26" viewBox="-163 -13 167 26" xmlns="http://www.w3.org/2000/svg" version="1.1">
<title>OpenSCAD Model</title>
<path d="
M -162.5,10.5 L -162.498,10.5628 L -162.495,10.657 L -162.48,10.8133 L -162.456,10.9685 L -162.421,11.1217
 L -162.378,11.2725 L -162.324,11.4203 L -162.262,11.5644 L -162.191,11.7044 L -162.111,11.8396 L -162.023,11.9695
 L -161.926,12.0936 L -161.822,12.2114 L -161.711,12.3224 L -161.594,12.4263 L -161.469,12.5225 L -161.34,12.6108
 L -161.204,12.6908 L -161.064,12.7621 L -160.92,12.8244 L -160.773,12.8776 L -160.622,12.9215 L -160.468,12.9557
 L -160.313,12.9803 L -160.157,12.9951 L -160,13 L 0,13 L 0,10.5 L 3.05,10.5
 L 3.05,4.5 L 0,4.5 L 0,2.05 L -99.95,2.05 L -99.95,3.05 L -150.05,3.05
 L -150.05,-3.05 L -99.95,-3.05 L -99.95,-2.05 L 0,-2.05 L 0,-5.95 L -7.5999,-5.95
 L -7.5999,-4.72863 L -10,-4.72863 L -10,-5.95 L -12.5,-5.95 L -12.5,-9.05 L -10,-9.05
 L -10,-10.2714 L -7.5999,-10.2714 L -7.5999,-9.05 L 0,-9.05 L 0,-13 L -160,-13
 L -160.157,-12.9951 L -160.313,-12.9803 L -160.468,-12.9557 L -160.622,-12.9215 L -160.773,-12.8776 L -160.92,-12.8244
 L -161.064,-12.7621 L -161.204,-12.6908 L -161.34,-12.6108 L -161.469,-12.5225 L -161.594,-12.4263 L -161.711,-12.3224
 L -161.822,-12.2114 L -161.926,-12.0936 L -162.023,-11.9695 L -162.111,-11.8396 L -162.191,-11.7044 L -162.262,-11.5644
 L -162.324,-11.4203 L -162.378,-11.2725 L -162.421,-11.1217 L -162.456,-10.9685 L -162.48,-10.8133 L -162.495,-10.657
 L -162.498,-10.5628 L -162.5,-10.5 z
M -150,3 L -100,3 L -100,2 L 0,2 L 3.1,2 L 3.1,-2
 L 0,-2 L -100,-2 L -100,-3 L -150,-3 z
" stroke="black" fill="lightgray" stroke-width="0.5"/></svg>
