<?xml version="1.0" encoding="UTF-8" standalone="no"?>
<svg
   xmlns:dc="http://purl.org/dc/elements/1.1/"
   xmlns:cc="http://creativecommons.org/ns#"
   xmlns:rdf="http://www.w3.org/1999/02/22-rdf-syntax-ns#"
   xmlns:svg="http://www.w3.org/2000/svg"
   xmlns="http://www.w3.org/2000/svg"
   xmlns:sodipodi="http://sodipodi.sourceforge.net/DTD/sodipodi-0.dtd"
   xmlns:inkscape="http://www.inkscape.org/namespaces/inkscape"
   width="588.56573"
   height="93.859207"
   viewBox="-163 -16 588.56573 93.859205"
   version="1.1"
   id="svg4152"
   inkscape:version="0.91 r13725"
   sodipodi:docname="AQCoverTempSens.svg">
  <metadata
     id="metadata4162">
    <rdf:RDF>
      <cc:Work
         rdf:about="">
        <dc:format>image/svg+xml</dc:format>
        <dc:type
           rdf:resource="http://purl.org/dc/dcmitype/StillImage" />
        <dc:title>OpenSCAD Model</dc:title>
      </cc:Work>
    </rdf:RDF>
  </metadata>
  <defs
     id="defs4160" />
  <sodipodi:namedview
     pagecolor="#ffffff"
     bordercolor="#666666"
     borderopacity="1"
     objecttolerance="10"
     gridtolerance="10"
     guidetolerance="10"
     inkscape:pageopacity="0"
     inkscape:pageshadow="2"
     inkscape:window-width="1920"
     inkscape:window-height="1138"
     id="namedview4158"
     showgrid="false"
     inkscape:document-units="mm"
     fit-margin-top="0.1"
     fit-margin-left="0.1"
     fit-margin-right="0.1"
     fit-margin-bottom="0.1"
     inkscape:zoom="5.1656903"
     inkscape:cx="264.1887"
     inkscape:cy="21.917022"
     inkscape:window-x="-8"
     inkscape:window-y="-8"
     inkscape:window-maximized="1"
     inkscape:current-layer="svg4152" />
  <title
     id="title4154">OpenSCAD Model</title>
  <path
     style="fill:none;stroke:#ff0000;stroke-width:0.17716535;stroke-miterlimit:4;stroke-dasharray:none"
     d="m -162.65,68.551587 0.007,0.225015 0.0107,0.337523 0.0533,0.560031 0.0852,0.556088 0.12428,0.548923 0.15269,0.540323 0.19176,0.529575 0.22016,0.516317 0.25212,0.501626 0.28408,0.484428 0.31248,0.465438 0.34445,0.444656 0.3693,0.422083 0.39416,0.397718 0.41547,0.372278 0.44387,0.344689 0.45808,0.316383 0.48293,0.286644 0.49714,0.255471 0.51134,0.223224 0.522,0.190618 0.53619,0.157296 0.54686,0.12254 0.5504,0.08814 0.55395,0.05303 0.55751,0.01756 118.780486,0 0,-3.762199 11.008058,0 0,3.762199 438.369246,0 0,-8.957616 10.83051,0 0,-21.498278 -10.83051,0 0,-8.778463 -277.15447,0 0,0.895761 -77.411502,0 0,3.583047 -60.7218641,0 0,-0.895762 -117.5376439,0 0,-21.856582 117.5376439,0 0,-0.895762 60.7218641,0 0,3.583047 77.411502,0 0,0.895761 277.15447,0 0,-13.97388 -26.98714,0 0,4.376225 -8.52272,0 0,-4.376225 -8.87747,0 0,-11.107444 8.87747,0 0,-4.376333 8.52272,0 0,4.376333 26.98714,0 0,-3.403894 10.83051,0 0,-10.749139 -449.199756,0 0,3.583046 -11.008058,0 0,-3.583046 -118.780486,0 -0.55751,0.01756 -0.55395,0.05303 -0.5504,0.08814 -0.54686,0.12254 -0.53619,0.157296 -0.522,0.190618 -0.51134,0.223224 -0.49714,0.255471 -0.48293,0.286644 -0.45808,0.316383 -0.44387,0.344689 -0.41547,0.372278 -0.39416,0.397718 -0.3693,0.422083 -0.34445,0.444656 -0.31248,0.465438 -0.28408,0.484428 -0.25212,0.501626 -0.22016,0.516317 -0.19176,0.529575 -0.15269,0.540323 -0.12428,0.548923 -0.0852,0.556088 -0.0533,0.560031 -0.0107,0.337523 -0.007,0.225015 z"
     id="path4714"
     inkscape:connector-curvature="0" />
</svg>
