<?xml version="1.0" encoding="UTF-8" standalone="no"?>
<svg
   xmlns:dc="http://purl.org/dc/elements/1.1/"
   xmlns:cc="http://creativecommons.org/ns#"
   xmlns:rdf="http://www.w3.org/1999/02/22-rdf-syntax-ns#"
   xmlns:svg="http://www.w3.org/2000/svg"
   xmlns="http://www.w3.org/2000/svg"
   xmlns:sodipodi="http://sodipodi.sourceforge.net/DTD/sodipodi-0.dtd"
   xmlns:inkscape="http://www.inkscape.org/namespaces/inkscape"
   width="338mm"
   height="45mm"
   viewBox="-169 -47 338 45"
   version="1.1"
   id="svg5835"
   inkscape:version="0.91 r13725"
   sodipodi:docname="AQCover-LitTest.svg">
  <metadata
     id="metadata5845">
    <rdf:RDF>
      <cc:Work
         rdf:about="">
        <dc:format>image/svg+xml</dc:format>
        <dc:type
           rdf:resource="http://purl.org/dc/dcmitype/StillImage" />
      </cc:Work>
    </rdf:RDF>
  </metadata>
  <defs
     id="defs5843" />
  <sodipodi:namedview
     pagecolor="#ffffff"
     bordercolor="#666666"
     borderopacity="1"
     objecttolerance="10"
     gridtolerance="10"
     guidetolerance="10"
     inkscape:pageopacity="0"
     inkscape:pageshadow="2"
     inkscape:window-width="1680"
     inkscape:window-height="1028"
     id="namedview5841"
     showgrid="false"
     inkscape:zoom="0.72030983"
     inkscape:cx="696.55544"
     inkscape:cy="263.80417"
     inkscape:window-x="1912"
     inkscape:window-y="-8"
     inkscape:window-maximized="1"
     inkscape:current-layer="layer1" />
  <title
     id="title5837">OpenSCAD Model</title>
  <path
     d=" M 167.563,-3.00197 L 167.625,-3.00787 L 167.687,-3.0177 L 167.749,-3.0314 L 167.809,-3.04893 L 167.868,-3.07022  L 167.926,-3.09517 L 167.982,-3.12369 L 168.036,-3.15567 L 168.088,-3.19098 L 168.137,-3.22948 L 168.185,-3.27103  L 168.229,-3.31544 L 168.271,-3.36256 L 168.309,-3.4122 L 168.344,-3.46417 L 168.376,-3.51823 L 168.405,-3.57422  L 168.43,-3.63187 L 168.451,-3.69098 L 168.469,-3.7513 L 168.482,-3.81261 L 168.492,-3.87466 L 168.498,-3.93719  L 168.5,-3.99998 L 168.498,-4.06279 L 168.492,-4.12532 L 168.482,-4.18738 L 168.469,-4.24869 L 168.451,-4.30901  L 168.43,-4.36812 L 168.405,-4.42577 L 168.376,-4.48175 L 168.344,-4.53581 L 168.309,-4.58778 L 168.271,-4.63742  L 168.229,-4.68454 L 168.185,-4.72896 L 168.137,-4.77051 L 120.383,-43.0689 L 119.533,-43.7285 L 118.643,-44.3333  L 117.716,-44.8811 L 116.758,-45.3697 L 115.77,-45.7971 L 114.758,-46.1616 L 113.724,-46.4618 L 112.674,-46.6966  L 111.611,-46.8649 L 110.54,-46.9662 L 109.464,-47 L -109.464,-47 L -110.54,-46.9662 L -111.611,-46.8649  L -112.674,-46.6966 L -113.724,-46.4618 L -114.758,-46.1616 L -115.77,-45.7971 L -116.758,-45.3697 L -117.716,-44.8811  L -118.643,-44.3333 L -119.533,-43.7285 L -120.383,-43.0689 L -168.137,-4.77051 L -168.185,-4.72896 L -168.229,-4.68454  L -168.271,-4.63742 L -168.309,-4.58778 L -168.344,-4.53581 L -168.376,-4.48175 L -168.405,-4.42577 L -168.43,-4.36812  L -168.451,-4.30901 L -168.469,-4.24869 L -168.482,-4.18738 L -168.492,-4.12532 L -168.498,-4.06279 L -168.5,-3.99998  L -168.498,-3.93719 L -168.492,-3.87466 L -168.482,-3.81261 L -168.469,-3.7513 L -168.451,-3.69098 L -168.43,-3.63187  L -168.405,-3.57422 L -168.376,-3.51823 L -168.344,-3.46417 L -168.309,-3.4122 L -168.271,-3.36256 L -168.229,-3.31544  L -168.185,-3.27103 L -168.137,-3.22948 L -168.088,-3.19098 L -168.036,-3.15567 L -167.982,-3.12369 L -167.926,-3.09517  L -167.868,-3.07022 L -167.809,-3.04893 L -167.749,-3.0314 L -167.687,-3.0177 L -167.625,-3.00787 L -167.563,-3.00197  L -167.5,-2.99998 L 167.5,-2.99998 z "
     stroke="black"
     fill="lightgray"
     stroke-width="0.5"
     id="path5839"
     style="fill:none;stroke:#ff0000;stroke-width:0.1;stroke-miterlimit:4;stroke-dasharray:none" />
  <g
     inkscape:groupmode="layer"
     id="layer1"
     inkscape:label="sideWall">
    <path
       style="fill:none;stroke:#ff0000;stroke-width:0.1;stroke-miterlimit:4;stroke-dasharray:none"
       d="m 129.80093,48.055147 0,-13.000001 0.002,0 0,-0.039 0.009,-0.077 0.02,-0.076 0.028,-0.072 0.038,-0.069 0.046,-0.063 0.053,-0.057 0.06,-0.05 0.066,-0.041 0.071,-0.034 0.074,-0.024 0.077,-0.014 0.078,-0.005 0.077,0.005 0.077,0.014 0.074,0.024 0.071,0.034 0.066,0.041 0.06,0.05 0.053,0.057 0.046,0.063 0.038,0.069 0.028,0.072 0.02,0.076 0.01,0.077 0,0.039 10e-4,0 0,13.000001 3.742,0 0,-13.000001 0.001,0 0,-0.039 0.01,-0.077 0.02,-0.076 0.028,-0.072 0.038,-0.069 0.046,-0.063 0.053,-0.057 0.06,-0.05 0.066,-0.041 0.071,-0.034 0.074,-0.024 0.076,-0.014 0.078,-0.005 0.078,0.005 0.077,0.014 0.074,0.024 0.071,0.034 0.065,0.041 0.061,0.05 0.053,0.057 0.046,0.063 0.037,0.069 0.029,0.072 0.019,0.076 0.01,0.077 0,0.039 0.001,0 0,13.000001 3.743,0 0,-13.000001 0.001,0 0,-0.039 0.01,-0.077 0.019,-0.076 0.029,-0.072 0.038,-0.069 0.045,-0.063 0.054,-0.057 0.06,-0.05 0.066,-0.041 0.07,-0.034 0.075,-0.024 0.076,-0.014 0.078,-0.005 0.078,0.005 0.077,0.014 0.074,0.024 0.07,0.034 0.066,0.041 0.06,0.05 0.054,0.057 0.046,0.063 0.037,0.069 0.029,0.072 0.019,0.076 0.01,0.077 0,0.039 0.001,0 0,13.000001 3.743,0 0,-13.000001 0.001,0 0,-0.039 0.01,-0.077 0.019,-0.076 0.029,-0.072 0.037,-0.069 0.046,-0.063 0.054,-0.057 0.06,-0.05 0.066,-0.041 0.07,-0.034 0.074,-0.024 0.077,-0.014 0.078,-0.005 0.078,0.005 0.076,0.014 0.074,0.024 0.071,0.034 0.066,0.041 0.06,0.05 0.053,0.057 0.046,0.063 0.038,0.069 0.029,0.072 0.019,0.076 0.01,0.077 0,0.039 0.001,0 0,13.000001 61.232,0 0,-48.000001 -63.724,0 0,13 -0.002,0 0,0.039 -0.009,0.077 -0.02,0.076 -0.029,0.072 -0.037,0.069 -0.046,0.063 -0.053,0.057 -0.06,0.05 -0.066,0.041 -0.071,0.034 -0.074,0.024 -0.077,0.014 -0.078,0.005 -0.077,-0.005 -0.077,-0.014 -0.074,-0.024 -0.071,-0.034 -0.066,-0.041 -0.06,-0.05 -0.053,-0.057 -0.046,-0.063 -0.038,-0.069 -0.028,-0.072 -0.02,-0.076 -0.01,-0.077 0,-0.039 -10e-4,0 0,-13 -3.742,0 0,13 -0.001,0 0,0.039 -0.01,0.077 -0.02,0.076 -0.028,0.072 -0.038,0.069 -0.046,0.063 -0.053,0.057 -0.06,0.05 -0.066,0.041 -0.071,0.034 -0.074,0.024 -0.076,0.014 -0.078,0.005 -0.078,-0.005 -0.077,-0.014 -0.074,-0.024 -0.071,-0.034 -0.065,-0.041 -0.061,-0.05 -0.053,-0.057 -0.046,-0.063 -0.037,-0.069 -0.029,-0.072 -0.02,-0.076 -0.009,-0.077 0,-0.039 -0.002,0 0,-13 -3.742,0 0,13 -0.001,0 0,0.039 -0.01,0.077 -0.019,0.076 -0.029,0.072 -0.038,0.069 -0.045,0.063 -0.054,0.057 -0.06,0.05 -0.066,0.041 -0.07,0.034 -0.075,0.024 -0.076,0.014 -0.078,0.005 -0.078,-0.005 -0.077,-0.014 -0.074,-0.024 -0.07,-0.034 -0.066,-0.041 -0.06,-0.05 -0.054,-0.057 -0.046,-0.063 -0.037,-0.069 -0.029,-0.072 -0.019,-0.076 -0.01,-0.077 0,-0.039 -0.001,0 0,-13 -223.973989,0 0,13 -0.001,0 0,0.039 -0.01,0.077 -0.02,0.076 -0.028,0.072 -0.038,0.069 -0.046,0.063 -0.053,0.057 -0.06,0.05 -0.066,0.041 -0.071,0.034 -0.074,0.024 -0.077,0.014 -0.077,0.005 -0.078,-0.005 -0.077,-0.014 -0.074,-0.024 -0.071,-0.034 -0.066,-0.041 -0.06,-0.05 -0.053,-0.057 -0.046,-0.063 -0.037,-0.069 -0.029,-0.072 -0.02,-0.076 -0.009,-0.077 0,-0.039 -0.002,0 0,-13 -3.742,0 0,13 -0.001,0 0,0.039 -0.01,0.077 -0.019,0.076 -0.029,0.072 -0.038,0.069 -0.046,0.063 -0.053,0.057 -0.06,0.05 -0.066,0.041 -0.071,0.034 -0.074,0.024 -0.076,0.014 -0.078,0.005 -0.078,-0.005 -0.077,-0.014 -0.074,-0.024 -0.07,-0.034 -0.066,-0.041 -0.06,-0.05 -0.054,-0.057 -0.046,-0.063 -0.037,-0.069 -0.029,-0.072 -0.019,-0.076 -0.01,-0.077 0,-0.039 -0.001,0 0,-13 -3.743001,0 0,13 -0.001,0 0,0.039 -0.01,0.077 -0.019,0.076 -0.029,0.072 -0.037,0.069 -0.046,0.063 -0.054,0.057 -0.06,0.05 -0.066,0.041 -0.07,0.034 -0.074,0.024 -0.077,0.014 -0.078,0.005 -0.078,-0.005 -0.076,-0.014 -0.075,-0.024 -0.07,-0.034 -0.066,-0.041 -0.06,-0.05 -0.054,-0.057 -0.045,-0.063 -0.038,-0.069 -0.029,-0.072 -0.019,-0.076 -0.01,-0.077 0,-0.039 -0.001,0 0,-13 -65.028,0 0,48.000001 62.535,0 0,-13.000001 0.002,0 0,-0.039 0.009,-0.077 0.02,-0.076 0.029,-0.072 0.037,-0.069 0.046,-0.063 0.053,-0.057 0.061,-0.05 0.065,-0.041 0.071,-0.034 0.074,-0.024 0.077,-0.014 0.078,-0.005 0.078,0.005 0.076,0.014 0.074,0.024 0.071,0.034 0.066,0.041 0.06,0.05 0.053,0.057 0.046,0.063 0.038,0.069 0.028,0.072 0.02,0.076 0.01,0.077 0,0.039 0.001,0 0,13.000001 3.742,0 0,-13.000001 10e-4,0 0,-0.039 0.01,-0.077 0.02,-0.076 0.028,-0.072 0.038,-0.069 0.046,-0.063 0.053,-0.057 0.06,-0.05 0.066,-0.041 0.071,-0.034 0.074,-0.024 0.077,-0.014 0.077,-0.005 0.078,0.005 0.077,0.014 0.074,0.024 0.071,0.034 0.066,0.041 0.06,0.05 0.053,0.057 0.046,0.063 0.038,0.069 0.028,0.072 0.02,0.076 0.009,0.077 0,0.039 0.002,0 0,13.000001 3.742,0 0,-13.000001 0.001,0 0,-0.039 0.01,-0.077 0.019,-0.076 0.029,-0.072 0.038,-0.069 0.046,-0.063 0.053,-0.057 0.06,-0.05 0.066,-0.041 0.071,-0.034 0.074,-0.024 0.076,-0.014 0.078,-0.005 0.078,0.005 0.077,0.014 0.074,0.024 0.07,0.034 0.066,0.041 0.06,0.05 0.054,0.057 0.046,0.063 0.037,0.069 0.029,0.072 0.019,0.076 0.01,0.077 0,0.039 0.001,0 0,13.000001 3.743,0 0,-13.000001 0.001,0 0,-0.039 0.01,-0.077 0.019,-0.076 0.029,-0.072 0.037,-0.069 0.046,-0.063 0.054,-0.057 0.06,-0.05 0.066,-0.041 0.07,-0.034 0.074,-0.024 0.077,-0.014 0.078,-0.005 0.078,0.005 0.076,0.014 0.075,0.024 0.07,0.034 0.066,0.041 0.06,0.05 0.054,0.057 0.045,0.063 0.038,0.069 0.029,0.072 0.019,0.076 0.01,0.077 0,0.039 0.001,0 0,13.000001 z"
       id="path6442"
       inkscape:connector-curvature="0" />
    <path
       style="fill:none;stroke:#0000ff;stroke-width:0.1;stroke-miterlimit:4;stroke-dasharray:none"
       d="m -99.856063,29.671146 -0.077,-0.014 -0.074,-0.024 -0.071,-0.034 -0.066,-0.041 -0.06,-0.05 -0.053,-0.057 -0.046,-0.063 -0.038,-0.069 -0.028,-0.072 -0.02,-0.076 -0.01,-0.077 0,-0.039 -10e-4,0 0,-26 10e-4,0 0,-0.039 0.01,-0.077 0.02,-0.076 0.028,-0.072 0.038,-0.069 0.046,-0.063 0.053,-0.057 0.06,-0.05 0.066,-0.041 0.071,-0.034 0.074,-0.024 0.077,-0.014 0.077,-0.005 0.078,0.005 0.077,0.014 0.074,0.024 0.071,0.034 0.066,0.041 0.06,0.05 0.053,0.057 0.046,0.063 0.038,0.069 0.028,0.072 0.02,0.076 0.009,0.077 0,0.039 0.002,0 0,26 -0.002,0 0,0.039 -0.009,0.077 -0.02,0.076 -0.028,0.072 -0.038,0.069 -0.046,0.063 -0.053,0.057 -0.06,0.05 -0.066,0.041 -0.071,0.034 -0.074,0.024 -0.077,0.014 -0.078,0.005 z"
       id="path6440"
       inkscape:connector-curvature="0" />
    <path
       style="fill:none;stroke:#0000ff;stroke-width:0.1;stroke-miterlimit:4;stroke-dasharray:none"
       d="m -94.872063,29.671146 -0.076,-0.014 -0.074,-0.024 -0.071,-0.034 -0.066,-0.041 -0.06,-0.05 -0.053,-0.057 -0.046,-0.063 -0.038,-0.069 -0.029,-0.072 -0.019,-0.076 -0.01,-0.077 0,-0.039 -0.001,0 0,-26 0.001,0 0,-0.039 0.01,-0.077 0.019,-0.076 0.029,-0.072 0.038,-0.069 0.046,-0.063 0.053,-0.057 0.06,-0.05 0.066,-0.041 0.071,-0.034 0.074,-0.024 0.076,-0.014 0.078,-0.005 0.078,0.005 0.077,0.014 0.074,0.024 0.07,0.034 0.066,0.041 0.06,0.05 0.054,0.057 0.046,0.063 0.037,0.069 0.029,0.072 0.019,0.076 0.01,0.077 0,0.039 0.001,0 0,26 -0.001,0 0,0.039 -0.01,0.077 -0.019,0.076 -0.029,0.072 -0.037,0.069 -0.046,0.063 -0.054,0.057 -0.06,0.05 -0.066,0.041 -0.07,0.034 -0.074,0.024 -0.077,0.014 -0.078,0.005 z"
       id="path6438"
       inkscape:connector-curvature="0" />
    <path
       style="fill:none;stroke:#0000ff;stroke-width:0.1;stroke-miterlimit:4;stroke-dasharray:none"
       d="m 135.32893,29.671146 -0.076,-0.014 -0.074,-0.024 -0.071,-0.034 -0.066,-0.041 -0.06,-0.05 -0.053,-0.057 -0.046,-0.063 -0.038,-0.069 -0.028,-0.072 -0.02,-0.076 -0.01,-0.077 0,-0.039 -0.001,0 0,-26 0.001,0 0,-0.039 0.01,-0.077 0.02,-0.076 0.028,-0.072 0.038,-0.069 0.046,-0.063 0.053,-0.057 0.06,-0.05 0.066,-0.041 0.071,-0.034 0.074,-0.024 0.076,-0.014 0.078,-0.005 0.078,0.005 0.077,0.014 0.074,0.024 0.071,0.034 0.065,0.041 0.061,0.05 0.053,0.057 0.046,0.063 0.037,0.069 0.029,0.072 0.019,0.076 0.01,0.077 0,0.039 0.001,0 0,26 -0.001,0 0,0.039 -0.01,0.077 -0.019,0.076 -0.029,0.072 -0.037,0.069 -0.046,0.063 -0.053,0.057 -0.061,0.05 -0.065,0.041 -0.071,0.034 -0.074,0.024 -0.077,0.014 -0.078,0.005 z"
       id="path6436"
       inkscape:connector-curvature="0" />
    <path
       style="fill:none;stroke:#0000ff;stroke-width:0.1;stroke-miterlimit:4;stroke-dasharray:none"
       d="m 140.31393,29.671146 -0.076,-0.014 -0.075,-0.024 -0.07,-0.034 -0.066,-0.041 -0.06,-0.05 -0.054,-0.057 -0.045,-0.063 -0.038,-0.069 -0.029,-0.072 -0.019,-0.076 -0.01,-0.077 0,-0.039 -0.001,0 0,-26 0.001,0 0,-0.039 0.01,-0.077 0.019,-0.076 0.029,-0.072 0.038,-0.069 0.045,-0.063 0.054,-0.057 0.06,-0.05 0.066,-0.041 0.07,-0.034 0.075,-0.024 0.076,-0.014 0.078,-0.005 0.078,0.005 0.077,0.014 0.074,0.024 0.07,0.034 0.066,0.041 0.06,0.05 0.054,0.057 0.046,0.063 0.037,0.069 0.029,0.072 0.019,0.076 0.01,0.077 0,0.039 0.001,0 0,26 -0.001,0 0,0.039 -0.01,0.077 -0.019,0.076 -0.029,0.072 -0.037,0.069 -0.046,0.063 -0.054,0.057 -0.06,0.05 -0.066,0.041 -0.07,0.034 -0.074,0.024 -0.077,0.014 -0.078,0.005 z"
       id="path6434"
       inkscape:connector-curvature="0" />
    <path
       style="fill:none;stroke:#0000ff;stroke-width:0.1;stroke-miterlimit:4;stroke-dasharray:none"
       d="m 145.29893,29.671146 -0.077,-0.014 -0.074,-0.024 -0.07,-0.034 -0.066,-0.041 -0.06,-0.05 -0.054,-0.057 -0.046,-0.063 -0.037,-0.069 -0.029,-0.072 -0.019,-0.076 -0.01,-0.077 0,-0.039 -0.001,0 0,-26 0.001,0 0,-0.039 0.01,-0.077 0.019,-0.076 0.029,-0.072 0.037,-0.069 0.046,-0.063 0.054,-0.057 0.06,-0.05 0.066,-0.041 0.07,-0.034 0.074,-0.024 0.077,-0.014 0.078,-0.005 0.078,0.005 0.076,0.014 0.074,0.024 0.071,0.034 0.066,0.041 0.06,0.05 0.053,0.057 0.046,0.063 0.038,0.069 0.029,0.072 0.019,0.076 0.01,0.077 0,0.039 0.001,0 0,26 -0.001,0 0,0.039 -0.01,0.077 -0.019,0.076 -0.029,0.072 -0.038,0.069 -0.046,0.063 -0.053,0.057 -0.06,0.05 -0.066,0.041 -0.071,0.034 -0.074,0.024 -0.076,0.014 -0.078,0.005 z"
       id="path6432"
       inkscape:connector-curvature="0" />
    <path
       style="fill:none;stroke:#0000ff;stroke-width:0.1;stroke-miterlimit:4;stroke-dasharray:none"
       d="m -104.84106,29.671146 -0.077,-0.014 -0.074,-0.024 -0.071,-0.034 -0.065,-0.041 -0.061,-0.05 -0.053,-0.057 -0.046,-0.063 -0.037,-0.069 -0.029,-0.072 -0.02,-0.076 -0.009,-0.077 0,-0.039 -0.002,0 0,-26 0.002,0 0,-0.039 0.009,-0.077 0.02,-0.076 0.029,-0.072 0.037,-0.069 0.046,-0.063 0.053,-0.057 0.061,-0.05 0.065,-0.041 0.071,-0.034 0.074,-0.024 0.077,-0.014 0.078,-0.005 0.078,0.005 0.076,0.014 0.074,0.024 0.071,0.034 0.066,0.041 0.06,0.05 0.053,0.057 0.046,0.063 0.038,0.069 0.028,0.072 0.02,0.076 0.01,0.077 0,0.039 0.001,0 0,26 -0.001,0 0,0.039 -0.01,0.077 -0.02,0.076 -0.028,0.072 -0.038,0.069 -0.046,0.063 -0.053,0.057 -0.06,0.05 -0.066,0.041 -0.071,0.034 -0.074,0.024 -0.076,0.014 -0.078,0.005 z"
       id="path6430"
       inkscape:connector-curvature="0" />
    <path
       style="fill:none;stroke:#0000ff;stroke-width:0.1;stroke-miterlimit:4;stroke-dasharray:none"
       d="m -89.887063,29.671146 -0.077,-0.014 -0.074,-0.024 -0.07,-0.034 -0.066,-0.041 -0.06,-0.05 -0.054,-0.057 -0.046,-0.063 -0.037,-0.069 -0.029,-0.072 -0.019,-0.076 -0.01,-0.077 0,-0.039 -0.001,0 0,-26 0.001,0 0,-0.039 0.01,-0.077 0.019,-0.076 0.029,-0.072 0.037,-0.069 0.046,-0.063 0.054,-0.057 0.06,-0.05 0.066,-0.041 0.07,-0.034 0.074,-0.024 0.077,-0.014 0.078,-0.005 0.078,0.005 0.076,0.014 0.075,0.024 0.07,0.034 0.066,0.041 0.06,0.05 0.054,0.057 0.045,0.063 0.038,0.069 0.029,0.072 0.019,0.076 0.01,0.077 0,0.039 0.001,0 0,26 -0.001,0 0,0.039 -0.01,0.077 -0.019,0.076 -0.029,0.072 -0.038,0.069 -0.045,0.063 -0.054,0.057 -0.06,0.05 -0.066,0.041 -0.07,0.034 -0.075,0.024 -0.076,0.014 -0.078,0.005 z"
       id="path6428"
       inkscape:connector-curvature="0" />
    <path
       style="fill:none;stroke:#0000ff;stroke-width:0.1;stroke-miterlimit:4;stroke-dasharray:none"
       d="m 130.34493,29.671146 -0.077,-0.014 -0.074,-0.024 -0.071,-0.034 -0.066,-0.041 -0.06,-0.05 -0.053,-0.057 -0.046,-0.063 -0.038,-0.069 -0.028,-0.072 -0.02,-0.076 -0.009,-0.077 0,-0.039 -0.002,0 0,-26 0.002,0 0,-0.039 0.009,-0.077 0.02,-0.076 0.028,-0.072 0.038,-0.069 0.046,-0.063 0.053,-0.057 0.06,-0.05 0.066,-0.041 0.071,-0.034 0.074,-0.024 0.077,-0.014 0.078,-0.005 0.077,0.005 0.077,0.014 0.074,0.024 0.071,0.034 0.066,0.041 0.06,0.05 0.053,0.057 0.046,0.063 0.038,0.069 0.028,0.072 0.02,0.076 0.01,0.077 0,0.039 10e-4,0 0,26 -10e-4,0 0,0.039 -0.01,0.077 -0.02,0.076 -0.028,0.072 -0.038,0.069 -0.046,0.063 -0.053,0.057 -0.06,0.05 -0.066,0.041 -0.071,0.034 -0.074,0.024 -0.077,0.014 -0.077,0.005 z"
       id="path6426"
       inkscape:connector-curvature="0" />
    <path
       style="fill:none;stroke:#0000ff;stroke-width:0.1;stroke-miterlimit:4;stroke-dasharray:none"
       d="m 132.83693,45.671147 -0.077,-0.014 -0.074,-0.024 -0.07,-0.034 -0.066,-0.041 -0.06,-0.05 -0.054,-0.057 -0.046,-0.063 -0.037,-0.069 -0.029,-0.072 -0.019,-0.076 -0.01,-0.077 0,-0.039 -0.001,0 0,-26.000001 0.001,0 0,-0.039 0.01,-0.077 0.019,-0.076 0.029,-0.072 0.037,-0.069 0.046,-0.063 0.054,-0.057 0.06,-0.05 0.066,-0.041 0.07,-0.034 0.074,-0.024 0.077,-0.014 0.078,-0.005 0.078,0.005 0.076,0.014 0.075,0.024 0.07,0.034 0.066,0.041 0.06,0.05 0.054,0.057 0.045,0.063 0.038,0.069 0.029,0.072 0.019,0.076 0.01,0.077 0,0.039 0.001,0 0,26.000001 -0.001,0 0,0.039 -0.01,0.077 -0.019,0.076 -0.029,0.072 -0.038,0.069 -0.045,0.063 -0.054,0.057 -0.06,0.05 -0.066,0.041 -0.07,0.034 -0.075,0.024 -0.076,0.014 -0.078,0.005 z"
       id="path6424"
       inkscape:connector-curvature="0" />
    <path
       style="fill:none;stroke:#0000ff;stroke-width:0.1;stroke-miterlimit:4;stroke-dasharray:none"
       d="m 142.80693,45.671147 -0.077,-0.014 -0.074,-0.024 -0.071,-0.034 -0.066,-0.041 -0.06,-0.05 -0.053,-0.057 -0.046,-0.063 -0.038,-0.069 -0.028,-0.072 -0.02,-0.076 -0.01,-0.077 0,-0.039 -10e-4,0 0,-26.000001 10e-4,0 0,-0.039 0.01,-0.077 0.02,-0.076 0.028,-0.072 0.038,-0.069 0.046,-0.063 0.053,-0.057 0.06,-0.05 0.066,-0.041 0.071,-0.034 0.074,-0.024 0.077,-0.014 0.077,-0.005 0.078,0.005 0.077,0.014 0.074,0.024 0.071,0.034 0.066,0.041 0.06,0.05 0.053,0.057 0.046,0.063 0.037,0.069 0.029,0.072 0.02,0.076 0.009,0.077 0,0.039 0.002,0 0,26.000001 -0.002,0 0,0.039 -0.009,0.077 -0.02,0.076 -0.029,0.072 -0.037,0.069 -0.046,0.063 -0.053,0.057 -0.06,0.05 -0.066,0.041 -0.071,0.034 -0.074,0.024 -0.077,0.014 -0.078,0.005 z"
       id="path6422"
       inkscape:connector-curvature="0" />
    <path
       style="fill:none;stroke:#0000ff;stroke-width:0.1;stroke-miterlimit:4;stroke-dasharray:none"
       d="m 137.82193,45.671147 -0.077,-0.014 -0.074,-0.024 -0.071,-0.034 -0.065,-0.041 -0.061,-0.05 -0.053,-0.057 -0.046,-0.063 -0.037,-0.069 -0.029,-0.072 -0.02,-0.076 -0.009,-0.077 0,-0.039 -0.002,0 0,-26.000001 0.002,0 0,-0.039 0.009,-0.077 0.02,-0.076 0.029,-0.072 0.037,-0.069 0.046,-0.063 0.053,-0.057 0.061,-0.05 0.065,-0.041 0.071,-0.034 0.074,-0.024 0.077,-0.014 0.078,-0.005 0.078,0.005 0.076,0.014 0.074,0.024 0.071,0.034 0.066,0.041 0.06,0.05 0.053,0.057 0.046,0.063 0.038,0.069 0.028,0.072 0.02,0.076 0.01,0.077 0,0.039 0.001,0 0,26.000001 -0.001,0 0,0.039 -0.01,0.077 -0.02,0.076 -0.028,0.072 -0.038,0.069 -0.046,0.063 -0.053,0.057 -0.06,0.05 -0.066,0.041 -0.071,0.034 -0.074,0.024 -0.076,0.014 -0.078,0.005 z"
       id="path6420"
       inkscape:connector-curvature="0" />
    <path
       style="fill:none;stroke:#0000ff;stroke-width:0.1;stroke-miterlimit:4;stroke-dasharray:none"
       d="m -97.364063,45.671147 -0.077,-0.014 -0.074,-0.024 -0.07,-0.034 -0.066,-0.041 -0.06,-0.05 -0.054,-0.057 -0.046,-0.063 -0.037,-0.069 -0.029,-0.072 -0.019,-0.076 -0.01,-0.077 0,-0.039 -10e-4,0 0,-26.000001 10e-4,0 0,-0.039 0.01,-0.077 0.019,-0.076 0.029,-0.072 0.037,-0.069 0.046,-0.063 0.054,-0.057 0.06,-0.05 0.066,-0.041 0.07,-0.034 0.074,-0.024 0.077,-0.014 0.078,-0.005 0.078,0.005 0.076,0.014 0.074,0.024 0.071,0.034 0.066,0.041 0.06,0.05 0.053,0.057 0.046,0.063 0.038,0.069 0.029,0.072 0.019,0.076 0.01,0.077 0,0.039 10e-4,0 0,26.000001 -10e-4,0 0,0.039 -0.01,0.077 -0.019,0.076 -0.029,0.072 -0.038,0.069 -0.046,0.063 -0.053,0.057 -0.06,0.05 -0.066,0.041 -0.071,0.034 -0.074,0.024 -0.076,0.014 -0.078,0.005 z"
       id="path6418"
       inkscape:connector-curvature="0" />
    <path
       style="fill:none;stroke:#0000ff;stroke-width:0.1;stroke-miterlimit:4;stroke-dasharray:none"
       d="m -102.34906,45.671147 -0.076,-0.014 -0.075,-0.024 -0.07,-0.034 -0.066,-0.041 -0.06,-0.05 -0.054,-0.057 -0.045,-0.063 -0.038,-0.069 -0.029,-0.072 -0.019,-0.076 -0.01,-0.077 0,-0.039 -0.001,0 0,-26.000001 0.001,0 0,-0.039 0.01,-0.077 0.019,-0.076 0.029,-0.072 0.038,-0.069 0.045,-0.063 0.054,-0.057 0.06,-0.05 0.066,-0.041 0.07,-0.034 0.075,-0.024 0.076,-0.014 0.078,-0.005 0.078,0.005 0.077,0.014 0.074,0.024 0.07,0.034 0.066,0.041 0.06,0.05 0.054,0.057 0.046,0.063 0.037,0.069 0.029,0.072 0.019,0.076 0.01,0.077 0,0.039 0.001,0 0,26.000001 -0.001,0 0,0.039 -0.01,0.077 -0.019,0.076 -0.029,0.072 -0.037,0.069 -0.046,0.063 -0.054,0.057 -0.06,0.05 -0.066,0.041 -0.07,0.034 -0.074,0.024 -0.077,0.014 -0.078,0.005 z"
       id="path6416"
       inkscape:connector-curvature="0" />
    <path
       style="fill:none;stroke:#0000ff;stroke-width:0.1;stroke-miterlimit:4;stroke-dasharray:none"
       d="m -92.379063,45.671147 -0.077,-0.014 -0.074,-0.024 -0.071,-0.034 -0.066,-0.041 -0.06,-0.05 -0.053,-0.057 -0.046,-0.063 -0.037,-0.069 -0.029,-0.072 -0.02,-0.076 -0.009,-0.077 0,-0.039 -0.002,0 0,-26.000001 0.002,0 0,-0.039 0.009,-0.077 0.02,-0.076 0.029,-0.072 0.037,-0.069 0.046,-0.063 0.053,-0.057 0.06,-0.05 0.066,-0.041 0.071,-0.034 0.074,-0.024 0.077,-0.014 0.078,-0.005 0.077,0.005 0.077,0.014 0.074,0.024 0.071,0.034 0.066,0.041 0.06,0.05 0.053,0.057 0.046,0.063 0.038,0.069 0.028,0.072 0.02,0.076 0.01,0.077 0,0.039 10e-4,0 0,26.000001 -10e-4,0 0,0.039 -0.01,0.077 -0.02,0.076 -0.028,0.072 -0.038,0.069 -0.046,0.063 -0.053,0.057 -0.06,0.05 -0.066,0.041 -0.071,0.034 -0.074,0.024 -0.077,0.014 -0.077,0.005 z"
       id="path6405"
       inkscape:connector-curvature="0" />
  </g>
</svg>
