<?xml version="1.0" encoding="UTF-8" standalone="no"?>
<svg
   xmlns:dc="http://purl.org/dc/elements/1.1/"
   xmlns:cc="http://creativecommons.org/ns#"
   xmlns:rdf="http://www.w3.org/1999/02/22-rdf-syntax-ns#"
   xmlns:svg="http://www.w3.org/2000/svg"
   xmlns="http://www.w3.org/2000/svg"
   xmlns:sodipodi="http://sodipodi.sourceforge.net/DTD/sodipodi-0.dtd"
   xmlns:inkscape="http://www.inkscape.org/namespaces/inkscape"
   width="336"
   height="502"
   viewBox="-168 -251 336 502"
   version="1.1"
   id="svg6781"
   inkscape:version="0.91 r13725"
   sodipodi:docname="AQCover.svg">
  <metadata
     id="metadata6791">
    <rdf:RDF>
      <cc:Work
         rdf:about="">
        <dc:format>image/svg+xml</dc:format>
        <dc:type
           rdf:resource="http://purl.org/dc/dcmitype/StillImage" />
        <dc:title>OpenSCAD Model</dc:title>
      </cc:Work>
    </rdf:RDF>
  </metadata>
  <defs
     id="defs6789" />
  <sodipodi:namedview
     pagecolor="#ffffff"
     bordercolor="#666666"
     borderopacity="1"
     objecttolerance="10"
     gridtolerance="10"
     guidetolerance="10"
     inkscape:pageopacity="0"
     inkscape:pageshadow="2"
     inkscape:window-width="1920"
     inkscape:window-height="1138"
     id="namedview6787"
     showgrid="false"
     inkscape:zoom="0.94023904"
     inkscape:cx="984.4607"
     inkscape:cy="1286.1938"
     inkscape:window-x="-8"
     inkscape:window-y="-8"
     inkscape:window-maximized="1"
     inkscape:current-layer="layer1"
     inkscape:object-paths="true"
     inkscape:object-nodes="true" />
  <title
     id="title6783">OpenSCAD Model</title>
  <g
     inkscape:groupmode="layer"
     id="layer1"
     inkscape:label="Layer 1"
     style="display:inline">
    <path
       style="fill:none;stroke:#0000ff;stroke-width:0.35433072;stroke-miterlimit:4;stroke-dasharray:none"
       d="m -167.5,-1526.3574 0,1777.3574 1186.5078,0 0,-1777.3574 -1186.5078,0 z"
       id="path7401"
       inkscape:connector-curvature="0" />
    <path
       style="fill:none;stroke:#ff0000;stroke-width:0.35433072;stroke-miterlimit:4;stroke-dasharray:none"
       d="m 14.30078,-1369.123 0.34375,0.012 0.34375,0.031 0.33984,0.053 0.33594,0.078 0.33399,0.096 0.32617,0.1172 0.31445,0.1386 0.3086,0.1543 0.29687,0.1739 0.2832,0.1953 0.27344,0.2129 0.25781,0.2265 0.24414,0.2442 0.22852,0.2578 0.21094,0.2734 0.19531,0.2832 0.17383,0.2969 0.15625,0.3086 0.13672,0.3145 0.11718,0.3261 0.09571,0.3321 0.07812,0.3359 0.05274,0.3398 0.0332,0.3438 0.0098,0.3437 -0.0098,0.3438 -0.0332,0.3437 -0.05274,0.3399 -0.07812,0.3359 -0.09571,0.332 -0.11718,0.3262 -0.13672,0.3164 -0.15625,0.3067 -0.17383,0.2988 -0.19531,0.2832 -0.21094,0.2715 -0.22852,0.2597 -0.24414,0.2442 -0.25781,0.2266 -0.27344,0.2109 -0.2832,0.1953 -0.29687,0.1738 -0.3086,0.1563 -0.31445,0.1367 -0.32617,0.1172 -0.33399,0.096 -0.33594,0.078 -0.33984,0.053 -0.34375,0.033 -0.34375,0.01 -0.34375,-0.01 -0.34375,-0.033 -0.33984,-0.053 -0.33594,-0.078 -0.33203,-0.096 -0.32617,-0.1172 -0.31641,-0.1367 -0.30664,-0.1563 -0.29883,-0.1738 -0.2832,-0.1953 -0.27149,-0.2109 -0.25976,-0.2266 -0.24414,-0.2442 -0.22656,-0.2597 -0.21289,-0.2715 -0.19336,-0.2832 -0.17383,-0.2988 -0.15625,-0.3067 -0.13867,-0.3164 -0.11719,-0.3262 -0.0957,-0.332 -0.07813,-0.3359 -0.05273,-0.3399 -0.03125,-0.3437 -0.00977,-0.3438 0.00977,-0.3437 0.03125,-0.3438 0.05273,-0.3398 0.07813,-0.3359 0.0957,-0.3321 0.11719,-0.3261 0.13867,-0.3145 0.15625,-0.3086 0.17383,-0.2969 0.19336,-0.2832 0.21289,-0.2734 0.22656,-0.2578 0.24414,-0.2442 0.25976,-0.2265 0.27149,-0.2129 0.2832,-0.1953 0.29883,-0.1739 0.30664,-0.1543 0.31641,-0.1386 0.32617,-0.1172 0.33203,-0.096 0.33594,-0.078 0.33984,-0.053 0.34375,-0.031 0.34375,-0.012 z"
       id="path7399"
       inkscape:connector-curvature="0" />
    <path
       style="fill:none;stroke:#ff0000;stroke-width:0.35433072;stroke-miterlimit:4;stroke-dasharray:none"
       d="m 14.30078,-1344.3379 0.45703,0.014 0.45313,0.043 0.45117,0.07 0.44531,0.1 0.43555,0.1269 0.43164,0.1563 0.41797,0.1797 0.4082,0.2089 0.38867,0.2305 0.37891,0.2578 0.36133,0.2774 0.34179,0.3047 0.32227,0.3222 0.30273,0.3399 0.27735,0.3613 0.25781,0.3769 0.23047,0.3907 0.20898,0.4062 0.18164,0.418 0.1543,0.4316 0.12891,0.4356 0.09765,0.4472 0.07227,0.4493 0.04297,0.4531 0.01367,0.457 -0.01367,0.4571 -0.04297,0.4531 -0.07227,0.4492 -0.09765,0.4453 -0.12891,0.4356 -0.1543,0.4336 -0.18164,0.416 -0.20898,0.4082 -0.23047,0.3886 -0.25781,0.3789 -0.27735,0.3614 -0.30273,0.3398 -0.32227,0.3223 -0.34179,0.3047 -0.36133,0.2754 -0.37891,0.2597 -0.38867,0.2305 -0.4082,0.209 -0.41797,0.1797 -0.43164,0.1562 -0.43555,0.127 -0.44531,0.1 -0.45117,0.07 -0.45313,0.043 -0.45703,0.014 -0.45703,-0.014 -0.45313,-0.043 -0.44921,-0.07 -0.44727,-0.1 -0.43555,-0.127 -0.43164,-0.1562 -0.41797,-0.1797 -0.40625,-0.209 -0.39062,-0.2305 -0.37891,-0.2597 -0.36132,-0.2754 -0.33985,-0.3047 -0.32226,-0.3223 -0.30469,-0.3398 -0.27539,-0.3614 -0.25977,-0.3789 -0.23047,-0.3886 -0.20898,-0.4082 -0.17969,-0.416 -0.15625,-0.4336 -0.12695,-0.4356 -0.09961,-0.4453 -0.07031,-0.4492 -0.04297,-0.4531 -0.01367,-0.4571 0.01367,-0.457 0.04297,-0.4531 0.07031,-0.4493 0.09961,-0.4472 0.12695,-0.4356 0.15625,-0.4316 0.17969,-0.418 0.20898,-0.4062 0.23047,-0.3907 0.25977,-0.3769 0.27539,-0.3613 0.30469,-0.3399 0.32226,-0.3222 0.33985,-0.3047 0.36132,-0.2774 0.37891,-0.2578 0.39062,-0.2305 0.40625,-0.2089 0.41797,-0.1797 0.43164,-0.1563 0.43555,-0.1269 0.44727,-0.1 0.44921,-0.07 0.45313,-0.043 0.45703,-0.014 z"
       id="path7397"
       inkscape:connector-curvature="0" />
    <path
       style="fill:none;stroke:#ff0000;stroke-width:0.35433072;stroke-miterlimit:4;stroke-dasharray:none"
       d="m 8.8125,-1321.3242 10.97852,0 0,21.5976 -10.97852,0 0,-21.5976 z"
       id="path7395"
       inkscape:connector-curvature="0" />
    <path
       style="fill:none;stroke:#ff0000;stroke-width:0.35433072;stroke-miterlimit:4;stroke-dasharray:none"
       d="m 343.35547,-843.03125 164.79687,0 11.85352,5.12695 12.39062,6.3125 11.97071,7.07618 11.5,7.8125 10.98828,8.52148 10.43164,9.19336 9.83398,9.83008 9.19727,10.42773 8.52344,10.98242 7.8164,11.49805 7.07813,11.9668 6.3125,12.38476 5.13086,11.84961 0,164.73828 -5.13086,11.84961 -6.3125,12.38672 -7.07813,11.96484 -7.8164,11.49805 -8.52344,10.98438 -9.19727,10.42773 -9.83398,9.83008 -10.43164,9.19336 -10.98828,8.51953 -11.5,7.81445 -11.97071,7.07618 -12.39062,6.31054 -11.85352,5.12891 -164.79687,0 -11.85352,-5.12891 -12.39062,-6.31054 -11.97071,-7.07618 -11.5,-7.81445 -10.98828,-8.51953 -10.43164,-9.19336 -9.83398,-9.83008 -9.19727,-10.42773 -8.52148,-10.98438 -7.81641,-11.49805 -7.08008,-11.96484 -6.3125,-12.38672 -5.13086,-11.84961 0,-164.73828 5.13086,-11.84961 6.3125,-12.38476 7.08008,-11.9668 7.81641,-11.49805 8.52148,-10.98242 9.19727,-10.42773 9.83398,-9.83008 10.43164,-9.19336 10.98828,-8.52148 11.5,-7.8125 11.97071,-7.07618 12.39062,-6.3125 11.85352,-5.12695 z"
       id="path7393"
       inkscape:connector-curvature="0" />
    <path
       style="fill:none;stroke:#ff0000;stroke-width:0.35433072;stroke-miterlimit:4;stroke-dasharray:none"
       d="m 240.16211,-831.16992 0.50195,0.0156 0.49805,0.0469 0.49414,0.0781 0.48828,0.10938 0.48047,0.13867 0.4707,0.16992 0.46094,0.19922 0.44531,0.22656 0.43164,0.25586 0.41407,0.28125 0.39453,0.30664 0.375,0.33008 0.35547,0.35352 0.33007,0.37695 0.30665,0.39453 0.28124,0.41406 0.25586,0.43164 0.22657,0.44532 0.19922,0.45898 0.16992,0.4707 0.13867,0.48047 0.10937,0.48828 0.0781,0.49415 0.0488,0.49804 0.0156,0.5 -0.0156,0.50196 -0.0488,0.49804 -0.0781,0.49414 -0.10937,0.48828 -0.13867,0.48047 -0.16992,0.47071 -0.19922,0.45898 -0.22657,0.44531 -0.25586,0.43164 -0.28124,0.41407 -0.30665,0.39453 -0.33007,0.375 -0.35547,0.35547 -0.375,0.33007 -0.39453,0.30664 -0.41407,0.28125 -0.43164,0.25586 -0.44531,0.22657 -0.46094,0.19921 -0.4707,0.16993 -0.48047,0.13867 -0.48828,0.10937 -0.49414,0.0781 -0.49805,0.0469 -0.50195,0.0156 -0.5,-0.0156 -0.49805,-0.0469 -0.49414,-0.0781 -0.48828,-0.10937 -0.48047,-0.13867 -0.47265,-0.16993 -0.45899,-0.19921 -0.44531,-0.22657 -0.43164,-0.25586 -0.41406,-0.28125 -0.39454,-0.30664 -0.37695,-0.33007 -0.35351,-0.35547 -0.33204,-0.375 -0.30664,-0.39453 -0.28125,-0.41407 -0.2539,-0.43164 -0.22852,-0.44531 -0.19726,-0.45898 -0.16993,-0.47071 -0.14062,-0.48047 -0.10742,-0.48828 -0.0801,-0.49414 -0.0469,-0.49804 -0.0156,-0.50196 0.0156,-0.5 0.0469,-0.49804 0.0801,-0.49415 0.10742,-0.48828 0.14062,-0.48047 0.16993,-0.4707 0.19726,-0.45898 0.22852,-0.44532 0.2539,-0.43164 0.28125,-0.41406 0.30664,-0.39453 0.33204,-0.37695 0.35351,-0.35352 0.37695,-0.33008 0.39454,-0.30664 0.41406,-0.28125 0.43164,-0.25586 0.44531,-0.22656 0.45899,-0.19922 0.47265,-0.16992 0.48047,-0.13867 0.48828,-0.10938 0.49414,-0.0781 0.49805,-0.0469 0.5,-0.0156 z"
       id="path7391"
       inkscape:connector-curvature="0" />
    <path
       style="fill:none;stroke:#ff0000;stroke-width:0.35433072;stroke-miterlimit:4;stroke-dasharray:none"
       d="m 611.3457,-831.16992 0.5,0.0156 0.49805,0.0469 0.49414,0.0781 0.48828,0.10938 0.48242,0.13867 0.47071,0.16992 0.45898,0.19922 0.44531,0.22656 0.43164,0.25586 0.41407,0.28125 0.39453,0.30664 0.37695,0.33008 0.35352,0.35352 0.33203,0.37695 0.30664,0.39453 0.28125,0.41406 0.2539,0.43164 0.22852,0.44532 0.19727,0.45898 0.16992,0.4707 0.14062,0.48047 0.10743,0.48828 0.0801,0.49415 0.0469,0.49804 0.0156,0.5 -0.0156,0.50196 -0.0469,0.49804 -0.0801,0.49414 -0.10743,0.48828 -0.14062,0.48047 -0.16992,0.47071 -0.19727,0.45898 -0.22852,0.44531 -0.2539,0.43164 -0.28125,0.41407 -0.30664,0.39453 -0.33203,0.375 -0.35352,0.35547 -0.37695,0.33007 -0.39453,0.30664 -0.41407,0.28125 -0.43164,0.25586 -0.44531,0.22657 -0.45898,0.19921 -0.47071,0.16993 -0.48242,0.13867 -0.48828,0.10937 -0.49414,0.0781 -0.49805,0.0469 -0.5,0.0156 -0.50195,-0.0156 -0.49805,-0.0469 -0.49414,-0.0781 -0.48828,-0.10937 -0.48047,-0.13867 -0.4707,-0.16993 -0.46094,-0.19921 -0.44531,-0.22657 -0.43164,-0.25586 -0.41406,-0.28125 -0.39454,-0.30664 -0.375,-0.33007 -0.35546,-0.35547 -0.33008,-0.375 -0.30664,-0.39453 -0.28125,-0.41407 -0.25586,-0.43164 -0.22656,-0.44531 -0.19922,-0.45898 -0.16993,-0.47071 -0.13867,-0.48047 -0.10937,-0.48828 -0.0781,-0.49414 -0.0488,-0.49804 -0.0156,-0.50196 0.0156,-0.5 0.0488,-0.49804 0.0781,-0.49415 0.10937,-0.48828 0.13867,-0.48047 0.16993,-0.4707 0.19922,-0.45898 0.22656,-0.44532 0.25586,-0.43164 0.28125,-0.41406 0.30664,-0.39453 0.33008,-0.37695 0.35546,-0.35352 0.375,-0.33008 0.39454,-0.30664 0.41406,-0.28125 0.43164,-0.25586 0.44531,-0.22656 0.46094,-0.19922 0.4707,-0.16992 0.48047,-0.13867 0.48828,-0.10938 0.49414,-0.0781 0.49805,-0.0469 0.50195,-0.0156 z"
       id="path7389"
       inkscape:connector-curvature="0" />
    <path
       style="fill:none;stroke:#ff0000;stroke-width:0.35433072;stroke-miterlimit:4;stroke-dasharray:none"
       d="m 240.16211,-460.12109 0.50195,0.0156 0.49805,0.0469 0.49414,0.0801 0.48828,0.10938 0.48047,0.13867 0.4707,0.16992 0.46094,0.19727 0.44531,0.22851 0.43164,0.25391 0.41407,0.28125 0.39453,0.30664 0.375,0.33203 0.35547,0.35352 0.33007,0.375 0.30665,0.39648 0.28124,0.41406 0.25586,0.42969 0.22657,0.44531 0.19922,0.46094 0.16992,0.47071 0.13867,0.48046 0.10937,0.48829 0.0781,0.49414 0.0488,0.49804 0.0156,0.5 -0.0156,0.5 -0.0488,0.49805 -0.0781,0.49414 -0.10937,0.49023 -0.13867,0.48047 -0.16992,0.47071 -0.19922,0.45898 -0.22657,0.44531 -0.25586,0.43164 -0.28124,0.41211 -0.30665,0.39649 -0.33007,0.375 -0.35547,0.35351 -0.375,0.33204 -0.39453,0.30664 -0.41407,0.28125 -0.43164,0.2539 -0.44531,0.22852 -0.46094,0.19726 -0.4707,0.16993 -0.48047,0.14062 -0.48828,0.10742 -0.49414,0.0801 -0.49805,0.0469 -0.50195,0.0156 -0.5,-0.0156 -0.49805,-0.0469 -0.49414,-0.0801 -0.48828,-0.10742 -0.48047,-0.14062 -0.47265,-0.16993 -0.45899,-0.19726 -0.44531,-0.22852 -0.43164,-0.2539 -0.41406,-0.28125 -0.39454,-0.30664 -0.37695,-0.33204 -0.35351,-0.35351 -0.33204,-0.375 -0.30664,-0.39649 -0.28125,-0.41211 -0.2539,-0.43164 -0.22852,-0.44531 -0.19726,-0.45898 -0.16993,-0.47071 -0.14062,-0.48047 -0.10742,-0.49023 -0.0801,-0.49414 -0.0469,-0.49805 -0.0156,-0.5 0.0156,-0.5 0.0469,-0.49804 0.0801,-0.49414 0.10742,-0.48829 0.14062,-0.48046 0.16993,-0.47071 0.19726,-0.46094 0.22852,-0.44531 0.2539,-0.42969 0.28125,-0.41406 0.30664,-0.39648 0.33204,-0.375 0.35351,-0.35352 0.37695,-0.33203 0.39454,-0.30664 0.41406,-0.28125 0.43164,-0.25391 0.44531,-0.22851 0.45899,-0.19727 0.47265,-0.16992 0.48047,-0.13867 0.48828,-0.10938 0.49414,-0.0801 0.49805,-0.0469 0.5,-0.0156 z"
       id="path7387"
       inkscape:connector-curvature="0" />
    <path
       style="fill:none;stroke:#ff0000;stroke-width:0.35433072;stroke-miterlimit:4;stroke-dasharray:none"
       d="m 611.3457,-460.12109 0.5,0.0156 0.49805,0.0469 0.49414,0.0801 0.48828,0.10938 0.48242,0.13867 0.47071,0.16992 0.45898,0.19727 0.44531,0.22851 0.43164,0.25391 0.41407,0.28125 0.39453,0.30664 0.37695,0.33203 0.35352,0.35352 0.33203,0.375 0.30664,0.39648 0.28125,0.41406 0.2539,0.42969 0.22852,0.44531 0.19727,0.46094 0.16992,0.47071 0.14062,0.48046 0.10743,0.48829 0.0801,0.49414 0.0469,0.49804 0.0156,0.5 -0.0156,0.5 -0.0469,0.49805 -0.0801,0.49414 -0.10743,0.49023 -0.14062,0.48047 -0.16992,0.47071 -0.19727,0.45898 -0.22852,0.44531 -0.2539,0.43164 -0.28125,0.41211 -0.30664,0.39649 -0.33203,0.375 -0.35352,0.35351 -0.37695,0.33204 -0.39453,0.30664 -0.41407,0.28125 -0.43164,0.2539 -0.44531,0.22852 -0.45898,0.19726 -0.47071,0.16993 -0.48242,0.14062 -0.48828,0.10742 -0.49414,0.0801 -0.49805,0.0469 -0.5,0.0156 -0.50195,-0.0156 -0.49805,-0.0469 -0.49414,-0.0801 -0.48828,-0.10742 -0.48047,-0.14062 -0.4707,-0.16993 -0.46094,-0.19726 -0.44531,-0.22852 -0.43164,-0.2539 -0.41406,-0.28125 -0.39454,-0.30664 -0.375,-0.33204 -0.35546,-0.35351 -0.33008,-0.375 -0.30664,-0.39649 -0.28125,-0.41211 -0.25586,-0.43164 -0.22656,-0.44531 -0.19922,-0.45898 -0.16993,-0.47071 -0.13867,-0.48047 -0.10937,-0.49023 -0.0781,-0.49414 -0.0488,-0.49805 -0.0156,-0.5 0.0156,-0.5 0.0488,-0.49804 0.0781,-0.49414 0.10937,-0.48829 0.13867,-0.48046 0.16993,-0.47071 0.19922,-0.46094 0.22656,-0.44531 0.25586,-0.42969 0.28125,-0.41406 0.30664,-0.39648 0.33008,-0.375 0.35546,-0.35352 0.375,-0.33203 0.39454,-0.30664 0.41406,-0.28125 0.43164,-0.25391 0.44531,-0.22851 0.46094,-0.19727 0.4707,-0.16992 0.48047,-0.13867 0.48828,-0.10938 0.49414,-0.0801 0.49805,-0.0469 0.50195,-0.0156 z"
       id="path7355"
       inkscape:connector-curvature="0" />
  </g>
  <g
     inkscape:groupmode="layer"
     id="layer2"
     inkscape:label="Layer 2"
     style="display:inline">
    <path
       style="fill:none;stroke:#0000ff;stroke-width:0.35433072;stroke-miterlimit:4;stroke-dasharray:none"
       d="m 1122.4425,-928.41028 0.2263,-0.01 0.3376,-0.011 0.5615,-0.053 0.5575,-0.085 0.5503,-0.1242 0.5418,-0.1527 0.5309,-0.1918 0.5176,-0.2202 0.5029,-0.2521 0.4857,-0.2841 0.4666,-0.3124 0.4458,-0.3445 0.4232,-0.3693 0.3987,-0.3941 0.3733,-0.4155 0.3448,-0.4439 0.3161,-0.4581 0.2874,-0.4829 0.255,-0.4971 0.2228,-0.5114 0.1903,-0.522 0.1581,-0.5362 0.1221,-0.5468 0.09,-0.5504 0.054,-0.554 0,-0.5575 0,-568.15772 -8.9805,0 0,-10.8305 -21.5533,0 0,10.8305 -8.8009,0 0,354.921 3.5922,0 0,177.90442 -21.9126,0 0,-177.90442 3.5923,0 0,-354.921 -14.0097,0 0,26.9871 4.3876,0 0,8.5227 -4.3876,0 0,8.8775 -11.1359,0 0,-8.8775 -4.3875,0 0,-8.5227 4.3875,0 0,-26.9871 -14.1892,0 0,568.15772 0.036,0.5575 0.054,0.554 0.09,0.5504 0.1221,0.5468 0.1581,0.5362 0.1904,0.522 0.2227,0.5114 0.255,0.4971 0.2874,0.4829 0.3161,0.4581 0.3449,0.4439 0.3732,0.4155 0.3988,0.3941 0.4231,0.3693 0.4458,0.3445 0.4666,0.3124 0.4857,0.2841 0.5029,0.2521 0.5177,0.2202 0.5309,0.1918 0.5417,0.1527 0.5503,0.1242 0.5575,0.085 0.5615,0.053 0.3377,0.011 0.2263,0.01 z"
       id="path7383"
       inkscape:connector-curvature="0" />
    <path
       inkscape:connector-curvature="0"
       style="display:inline;fill:none;stroke:#ff0000;stroke-width:0.35433072;stroke-miterlimit:4;stroke-dasharray:none"
       d="m 1084.9143,-1099.4096 0.3437,0.012 0.3438,0.031 0.3398,0.053 0.336,0.078 0.334,0.096 0.3261,0.1172 0.3145,0.1386 0.3086,0.1543 0.2968,0.1739 0.2832,0.1953 0.2735,0.2129 0.2578,0.2265 0.2441,0.2442 0.2286,0.2578 0.2109,0.2734 0.1953,0.2832 0.1738,0.2969 0.1563,0.3086 0.1367,0.3145 0.1172,0.3261 0.096,0.3321 0.078,0.3359 0.053,0.3398 0.033,0.3438 0.01,0.3437 -0.01,0.3438 -0.033,0.3437 -0.053,0.3399 -0.078,0.3359 -0.096,0.332 -0.1172,0.3262 -0.1367,0.3164 -0.1563,0.3067 -0.1738,0.2988 -0.1953,0.2832 -0.2109,0.2715 -0.2286,0.2597 -0.2441,0.2442 -0.2578,0.2266 -0.2735,0.2109 -0.2832,0.1953 -0.2968,0.1738 -0.3086,0.1563 -0.3145,0.1367 -0.3261,0.1172 -0.334,0.096 -0.336,0.078 -0.3398,0.053 -0.3438,0.033 -0.3437,0.01 -0.3438,-0.01 -0.3437,-0.033 -0.3399,-0.053 -0.3359,-0.078 -0.332,-0.096 -0.3262,-0.1172 -0.3164,-0.1367 -0.3066,-0.1563 -0.2989,-0.1738 -0.2832,-0.1953 -0.2715,-0.2109 -0.2597,-0.2266 -0.2442,-0.2442 -0.2265,-0.2597 -0.2129,-0.2715 -0.1934,-0.2832 -0.1738,-0.2988 -0.1563,-0.3067 -0.1386,-0.3164 -0.1172,-0.3262 -0.096,-0.332 -0.078,-0.3359 -0.053,-0.3399 -0.031,-0.3437 -0.01,-0.3438 0.01,-0.3437 0.031,-0.3438 0.053,-0.3398 0.078,-0.3359 0.096,-0.3321 0.1172,-0.3261 0.1386,-0.3145 0.1563,-0.3086 0.1738,-0.2969 0.1934,-0.2832 0.2129,-0.2734 0.2265,-0.2578 0.2442,-0.2442 0.2597,-0.2265 0.2715,-0.2129 0.2832,-0.1953 0.2989,-0.1739 0.3066,-0.1543 0.3164,-0.1386 0.3262,-0.1172 0.332,-0.096 0.3359,-0.078 0.3399,-0.053 0.3437,-0.031 0.3438,-0.012 z"
       id="path7399-5" />
    <path
       inkscape:connector-curvature="0"
       style="display:inline;fill:none;stroke:#ff0000;stroke-width:0.35433072;stroke-miterlimit:4;stroke-dasharray:none"
       d="m 1084.9143,-1074.6245 0.457,0.014 0.4531,0.043 0.4512,0.07 0.4453,0.1 0.4356,0.1269 0.4316,0.1563 0.418,0.1797 0.4082,0.2089 0.3887,0.2305 0.3789,0.2578 0.3613,0.2774 0.3418,0.3047 0.3223,0.3222 0.3027,0.3399 0.2773,0.3613 0.2578,0.3769 0.2305,0.3907 0.209,0.4062 0.1816,0.418 0.1543,0.4316 0.1289,0.4356 0.098,0.4472 0.072,0.4493 0.043,0.4531 0.014,0.457 -0.014,0.4571 -0.043,0.4531 -0.072,0.4492 -0.098,0.4453 -0.1289,0.4356 -0.1543,0.4336 -0.1816,0.416 -0.209,0.4082 -0.2305,0.3886 -0.2578,0.3789 -0.2773,0.3614 -0.3027,0.3398 -0.3223,0.3223 -0.3418,0.3047 -0.3613,0.2754 -0.3789,0.2597 -0.3887,0.2305 -0.4082,0.209 -0.418,0.1797 -0.4316,0.1562 -0.4356,0.127 -0.4453,0.1 -0.4512,0.07 -0.4531,0.043 -0.457,0.014 -0.457,-0.014 -0.4532,-0.043 -0.4492,-0.07 -0.4473,-0.1 -0.4355,-0.127 -0.4316,-0.1562 -0.418,-0.1797 -0.4063,-0.209 -0.3906,-0.2305 -0.3789,-0.2597 -0.3613,-0.2754 -0.3399,-0.3047 -0.3222,-0.3223 -0.3047,-0.3398 -0.2754,-0.3614 -0.2598,-0.3789 -0.2304,-0.3886 -0.209,-0.4082 -0.1797,-0.416 -0.1563,-0.4336 -0.1269,-0.4356 -0.1,-0.4453 -0.07,-0.4492 -0.043,-0.4531 -0.014,-0.4571 0.014,-0.457 0.043,-0.4531 0.07,-0.4493 0.1,-0.4472 0.1269,-0.4356 0.1563,-0.4316 0.1797,-0.418 0.209,-0.4062 0.2304,-0.3907 0.2598,-0.3769 0.2754,-0.3613 0.3047,-0.3399 0.3222,-0.3222 0.3399,-0.3047 0.3613,-0.2774 0.3789,-0.2578 0.3906,-0.2305 0.4063,-0.2089 0.418,-0.1797 0.4316,-0.1563 0.4355,-0.1269 0.4473,-0.1 0.4492,-0.07 0.4532,-0.043 0.457,-0.014 z"
       id="path7397-5" />
    <path
       inkscape:connector-curvature="0"
       style="display:inline;fill:none;stroke:#ff0000;stroke-width:0.35433072;stroke-miterlimit:4;stroke-dasharray:none"
       d="m 1079.426,-1051.6108 10.9785,0 0,21.5976 -10.9785,0 0,-21.5976 z"
       id="path7395-9" />
    <path
       style="fill:none;fill-rule:evenodd;stroke:#ff0000;stroke-width:0.35433072;stroke-linecap:butt;stroke-linejoin:miter;stroke-miterlimit:4;stroke-dasharray:none;stroke-opacity:1"
       d="m 1077.34,-1150.5272 14.7281,0"
       id="path7436"
       inkscape:connector-curvature="0"
       sodipodi:nodetypes="cc" />
  </g>
</svg>
