<?xml version="1.0" encoding="UTF-8" standalone="no"?>
<svg
   xmlns:dc="http://purl.org/dc/elements/1.1/"
   xmlns:cc="http://creativecommons.org/ns#"
   xmlns:rdf="http://www.w3.org/1999/02/22-rdf-syntax-ns#"
   xmlns:svg="http://www.w3.org/2000/svg"
   xmlns="http://www.w3.org/2000/svg"
   xmlns:sodipodi="http://sodipodi.sourceforge.net/DTD/sodipodi-0.dtd"
   xmlns:inkscape="http://www.inkscape.org/namespaces/inkscape"
   width="112.26899mm"
   height="70.662498mm"
   viewBox="0 -53 112.26899 70.662498"
   version="1.1"
   id="svg4759"
   inkscape:version="0.91 r13725"
   sodipodi:docname="LatticeHinge_3mm.svg">
  <metadata
     id="metadata4769">
    <rdf:RDF>
      <cc:Work
         rdf:about="">
        <dc:format>image/svg+xml</dc:format>
        <dc:type
           rdf:resource="http://purl.org/dc/dcmitype/StillImage" />
        <dc:title>OpenSCAD Model</dc:title>
      </cc:Work>
    </rdf:RDF>
  </metadata>
  <defs
     id="defs4767" />
  <sodipodi:namedview
     pagecolor="#ffffff"
     bordercolor="#666666"
     borderopacity="1"
     objecttolerance="10"
     gridtolerance="10"
     guidetolerance="10"
     inkscape:pageopacity="0"
     inkscape:pageshadow="2"
     inkscape:window-width="1516"
     inkscape:window-height="940"
     id="namedview4765"
     showgrid="false"
     fit-margin-top="0.1"
     fit-margin-bottom="0.1"
     fit-margin-left="0.1"
     fit-margin-right="0.1"
     inkscape:zoom="1.5371032"
     inkscape:cx="153.03959"
     inkscape:cy="76.560017"
     inkscape:window-x="0"
     inkscape:window-y="0"
     inkscape:window-maximized="0"
     inkscape:current-layer="svg4759" />
  <title
     id="title4761">OpenSCAD Model</title>
  <path
     style="fill:none;stroke:#0000ff;stroke-width:0.1;stroke-miterlimit:4;stroke-dasharray:none;stroke-opacity:1"
     d="m 0.1499957,17.5125 111.9690043,0 0,-21.21178 -12.969004,0 0,-0.00123 -0.039,0 -0.0774,-0.00977 -0.0756,-0.01941 -0.0725,-0.02871 -0.0683,-0.03758 -0.0632,-0.04586 -0.0568,-0.0534 -0.0497,-0.0601 -0.0418,-0.06587 -0.0333,-0.07058 -0.0241,-0.07419 -0.0146,-0.07663 -0.0049,-0.07785 0.0049,-0.07786 0.0146,-0.07662 0.0241,-0.0742 0.0333,-0.07058 0.0418,-0.06586 0.0497,-0.06011 0.0568,-0.0534 0.0632,-0.04585 0.0683,-0.03759 0.0725,-0.02871 0.0756,-0.0194 0.0774,-0.00978 0.039,0 0,-0.00123 12.969004,0 0,-7.24235 -12.969004,0 0,-0.0012 -0.039,0 -0.0774,-0.0098 -0.0756,-0.0194 -0.0725,-0.0287 -0.0683,-0.0376 -0.0632,-0.0459 -0.0568,-0.0534 -0.0497,-0.0601 -0.0418,-0.0658 -0.0333,-0.0706 -0.0241,-0.0742 -0.0146,-0.0766 -0.0049,-0.0779 0.0049,-0.0778 0.0146,-0.0767 0.0241,-0.0742 0.0333,-0.0705 0.0418,-0.0659 0.0497,-0.0601 0.0568,-0.0534 0.0632,-0.0459 0.0683,-0.0376 0.0725,-0.0287 0.0756,-0.0194 0.0774,-0.0097 0.039,0 0,-0.0013 12.969004,0 0,-7.2423 -12.969004,0 0,-0.0013 -0.039,0 -0.0774,-0.0097 -0.0756,-0.0194 -0.0725,-0.0288 -0.0683,-0.0375 -0.0632,-0.0459 -0.0568,-0.0534 -0.0497,-0.0601 -0.0418,-0.0659 -0.0333,-0.0705 -0.0241,-0.0742 -0.0146,-0.0767 -0.0049,-0.0778 0.0049,-0.0779 0.0146,-0.0766 0.0241,-0.0742 0.0333,-0.0706 0.0418,-0.0658 0.0497,-0.0601 0.0568,-0.0534 0.0632,-0.0459 0.0683,-0.0376 0.0725,-0.0287 0.0756,-0.0194 0.0774,-0.0098 0.039,0 0,-0.0012 12.969004,0 0,-7.2424 -12.969004,0 0,-0.0012 -0.039,0 -0.0774,-0.0098 -0.0756,-0.0194 -0.0725,-0.0287 -0.0683,-0.0376 -0.0632,-0.0458 -0.0568,-0.0534 -0.0497,-0.0601 -0.0418,-0.0659 -0.0333,-0.0706 -0.0241,-0.0742 -0.0146,-0.0766 -0.0049,-0.0778 0.0049,-0.0779 0.0146,-0.0766 0.0241,-0.0742 0.0333,-0.0706 0.0418,-0.0659 0.0497,-0.0601 0.0568,-0.0534 0.0632,-0.0458 0.0683,-0.0376 0.0725,-0.0287 0.0756,-0.0194 0.0774,-0.0098 0.039,0 0,-0.0012 12.969004,0 0,-22.4542 -111.9690043,0 0,18.2118 13.0000003,0 0,0.0012 0.039,0 0.0774,0.0098 0.0756,0.0194 0.0725,0.0287 0.0683,0.0376 0.0632,0.0459 0.0568,0.0534 0.0497,0.0601 0.0418,0.0658 0.0333,0.0706 0.0241,0.0742 0.0146,0.0766 0.0049,0.0779 -0.0049,0.0778 -0.0146,0.0767 -0.0241,0.0742 -0.0333,0.0705 -0.0418,0.0659 -0.0497,0.0601 -0.0568,0.0534 -0.0632,0.0459 -0.0683,0.0376 -0.0725,0.0287 -0.0756,0.0194 -0.0774,0.0097 -0.039,0 0,0.0013 -13.0000003,0 0,7.2423 13.0000003,0 0,0.0013 0.039,0 0.0774,0.0097 0.0756,0.0194 0.0725,0.0288 0.0683,0.0375 0.0632,0.0459 0.0568,0.0534 0.0497,0.0601 0.0418,0.0659 0.0333,0.0705 0.0241,0.0742 0.0146,0.0767 0.0049,0.0778 -0.0049,0.0779 -0.0146,0.0766 -0.0241,0.0742 -0.0333,0.0706 -0.0418,0.0658 -0.0497,0.0601 -0.0568,0.0534 -0.0632,0.0459 -0.0683,0.0376 -0.0725,0.0287 -0.0756,0.0194 -0.0774,0.0098 -0.039,0 0,0.0012 -13.0000003,0 0,7.2424 13.0000003,0 0,0.0012 0.039,0 0.0774,0.0098 0.0756,0.0194 0.0725,0.0287 0.0683,0.0376 0.0632,0.0458 0.0568,0.0534 0.0497,0.0601 0.0418,0.0659 0.0333,0.0706 0.0241,0.0742 0.0146,0.0766 0.0049,0.0778 -0.0049,0.0779 -0.0146,0.0766 -0.0241,0.0742 -0.0333,0.0706 -0.0418,0.0659 -0.0497,0.0601 -0.0568,0.0534 -0.0632,0.0458 -0.0683,0.0376 -0.0725,0.0287 -0.0756,0.0194 -0.0774,0.0098 -0.039,0 0,0.0012 -13.0000003,0 0,7.24239 13.0000003,0 0,0.00123 0.039,0 0.0774,0.00977 0.0756,0.0194 0.0725,0.02872 0.0683,0.03758 0.0632,0.04585 0.0568,0.0534 0.0497,0.06011 0.0418,0.06587 0.0333,0.07058 0.0241,0.07419 0.0146,0.07663 0.0049,0.07785 -0.0049,0.07786 -0.0146,0.07662 -0.0241,0.07419 -0.0333,0.07059 -0.0418,0.06586 -0.0497,0.06011 -0.0568,0.0534 -0.0632,0.04585 -0.0683,0.03758 -0.0725,0.02872 -0.0756,0.0194 -0.0774,0.00978 -0.039,0 0,0.00122 -13.0000003,0 0,7.242369 13.0000003,0 0,0.001225 0.039,0 0.0774,0.009777 0.0756,0.019401 0.0725,0.028717 0.0683,0.03758 0.0632,0.045853 0.0568,0.0534 0.0497,0.060107 0.0418,0.065865 0.0333,0.070584 0.0241,0.074191 0.0146,0.0766268 0.0049,0.0778542 -0.0049,0.0778542013 -0.0146,0.0766267987 -0.0241,0.074191 -0.0333,0.070584 -0.0418,0.065865 -0.0497,0.060107 -0.0568,0.0534 -0.0632,0.045853 -0.0683,0.03758 -0.0725,0.028717 -0.0756,0.019401 -0.0774,0.009777 -0.039,0 0,0.001225 -13.0000003,0 z"
     id="path5421"
     inkscape:connector-curvature="0" />
  <path
     style="fill:none;stroke:#ff0000;stroke-width:0.1;stroke-miterlimit:4;stroke-dasharray:none;stroke-opacity:1"
     d="m 2.5288157,-4.32046 0.0049,-0.07786 0.01461,-0.07662 0.02411,-0.0742 0.03321,-0.07058 0.0418,-0.06586 0.04973,-0.06011 0.05686,-0.0534 0.06311,-0.04585 0.06836,-0.03759 0.07253,-0.02871 0.07556,-0.0194 0.0774,-0.00978 0.039,0 0,-0.00123 26.0000003,0 0,0.00123 0.039,0 0.0774,0.00978 0.0756,0.0194 0.0725,0.02871 0.0683,0.03759 0.0632,0.04585 0.0568,0.0534 0.0497,0.06011 0.0418,0.06586 0.0333,0.07058 0.0241,0.0742 0.0146,0.07662 0.0049,0.07786 -0.0049,0.07785 -0.0146,0.07663 -0.0241,0.07419 -0.0333,0.07058 -0.0418,0.06587 -0.0497,0.0601 -0.0568,0.0534 -0.0632,0.04586 -0.0683,0.03758 -0.0725,0.02871 -0.0756,0.01941 -0.0774,0.00977 -0.039,0 0,0.00123 -26.0000003,0 0,-0.00123 -0.039,0 -0.0774,-0.00977 -0.07556,-0.01941 -0.07253,-0.02871 -0.06836,-0.03758 -0.06311,-0.04586 -0.05686,-0.0534 -0.04973,-0.0601 -0.0418,-0.06587 -0.03321,-0.07058 -0.02411,-0.07419 -0.01461,-0.07663 z"
     id="path5419"
     inkscape:connector-curvature="0" />
  <path
     style="fill:none;stroke:#ff0000;stroke-width:0.1;stroke-miterlimit:4;stroke-dasharray:none;stroke-opacity:1"
     d="m 2.5288157,-12.8052 0.0049,-0.0778 0.01461,-0.0767 0.02411,-0.0742 0.03321,-0.0705 0.0418,-0.0659 0.04973,-0.0601 0.05686,-0.0534 0.06311,-0.0459 0.06836,-0.0376 0.07253,-0.0287 0.07556,-0.0194 0.0774,-0.0097 0.039,0 0,-0.0013 26.0000003,0 0,0.0013 0.039,0 0.0774,0.0097 0.0756,0.0194 0.0725,0.0287 0.0683,0.0376 0.0632,0.0459 0.0568,0.0534 0.0497,0.0601 0.0418,0.0659 0.0333,0.0705 0.0241,0.0742 0.0146,0.0767 0.0049,0.0778 -0.0049,0.0779 -0.0146,0.0766 -0.0241,0.0742 -0.0333,0.0706 -0.0418,0.0658 -0.0497,0.0601 -0.0568,0.0534 -0.0632,0.0459 -0.0683,0.0376 -0.0725,0.0287 -0.0756,0.0194 -0.0774,0.0098 -0.039,0 0,0.0012 -26.0000003,0 0,-0.0012 -0.039,0 -0.0774,-0.0098 -0.07556,-0.0194 -0.07253,-0.0287 -0.06836,-0.0376 -0.06311,-0.0459 -0.05686,-0.0534 -0.04973,-0.0601 -0.0418,-0.0658 -0.03321,-0.0706 -0.02411,-0.0742 -0.01461,-0.0766 z"
     id="path5417"
     inkscape:connector-curvature="0" />
  <path
     style="fill:none;stroke:#ff0000;stroke-width:0.1;stroke-miterlimit:4;stroke-dasharray:none;stroke-opacity:1"
     d="m 2.5288157,-21.2899 0.0049,-0.0779 0.01461,-0.0766 0.02411,-0.0742 0.03321,-0.0706 0.0418,-0.0658 0.04973,-0.0601 0.05686,-0.0534 0.06311,-0.0459 0.06836,-0.0376 0.07253,-0.0287 0.07556,-0.0194 0.0774,-0.0098 0.039,0 0,-0.0012 26.0000003,0 0,0.0012 0.039,0 0.0774,0.0098 0.0756,0.0194 0.0725,0.0287 0.0683,0.0376 0.0632,0.0459 0.0568,0.0534 0.0497,0.0601 0.0418,0.0658 0.0333,0.0706 0.0241,0.0742 0.0146,0.0766 0.0049,0.0779 -0.0049,0.0778 -0.0146,0.0767 -0.0241,0.0742 -0.0333,0.0705 -0.0418,0.0659 -0.0497,0.0601 -0.0568,0.0534 -0.0632,0.0459 -0.0683,0.0375 -0.0725,0.0288 -0.0756,0.0194 -0.0774,0.0097 -0.039,0 0,0.0013 -26.0000003,0 0,-0.0013 -0.039,0 -0.0774,-0.0097 -0.07556,-0.0194 -0.07253,-0.0288 -0.06836,-0.0375 -0.06311,-0.0459 -0.05686,-0.0534 -0.04973,-0.0601 -0.0418,-0.0659 -0.03321,-0.0705 -0.02411,-0.0742 -0.01461,-0.0767 z"
     id="path5415"
     inkscape:connector-curvature="0" />
  <path
     style="fill:none;stroke:#ff0000;stroke-width:0.1;stroke-miterlimit:4;stroke-dasharray:none;stroke-opacity:1"
     d="m 2.5288157,-29.7746 0.0049,-0.0779 0.01461,-0.0766 0.02411,-0.0742 0.03321,-0.0706 0.0418,-0.0659 0.04973,-0.0601 0.05686,-0.0534 0.06311,-0.0458 0.06836,-0.0376 0.07253,-0.0287 0.07556,-0.0194 0.0774,-0.0098 0.039,0 0,-0.0012 26.0000003,0 0,0.0012 0.039,0 0.0774,0.0098 0.0756,0.0194 0.0725,0.0287 0.0683,0.0376 0.0632,0.0458 0.0568,0.0534 0.0497,0.0601 0.0418,0.0659 0.0333,0.0706 0.0241,0.0742 0.0146,0.0766 0.0049,0.0779 -0.0049,0.0778 -0.0146,0.0766 -0.0241,0.0742 -0.0333,0.0706 -0.0418,0.0659 -0.0497,0.0601 -0.0568,0.0534 -0.0632,0.0458 -0.0683,0.0376 -0.0725,0.0287 -0.0756,0.0194 -0.0774,0.0098 -0.039,0 0,0.0012 -26.0000003,0 0,-0.0012 -0.039,0 -0.0774,-0.0098 -0.07556,-0.0194 -0.07253,-0.0287 -0.06836,-0.0376 -0.06311,-0.0458 -0.05686,-0.0534 -0.04973,-0.0601 -0.0418,-0.0659 -0.03321,-0.0706 -0.02411,-0.0742 -0.01461,-0.0766 z"
     id="path5413"
     inkscape:connector-curvature="0" />
  <path
     style="fill:none;stroke:#ff0000;stroke-width:0.1;stroke-miterlimit:4;stroke-dasharray:none;stroke-opacity:1"
     d="m 18.528796,-0.0781 0.0049,-0.0778542 0.0146,-0.0766268 0.0241,-0.074191 0.0333,-0.070584 0.0418,-0.065865 0.0497,-0.060107 0.0568,-0.0534 0.0632,-0.045853 0.0683,-0.03758 0.0725,-0.028717 0.0756,-0.019401 0.0774,-0.009777 0.039,0 0,-0.001225 26,0 0,0.001225 0.039,0 0.0774,0.009777 0.0756,0.019401 0.0725,0.028717 0.0683,0.03758 0.0632,0.045853 0.0568,0.0534 0.0497,0.060107 0.0418,0.065865 0.0333,0.070584 0.0241,0.074191 0.0146,0.0766268 0.0049,0.0778542 -0.0049,0.0778542013 -0.0146,0.0766267987 -0.0241,0.074191 -0.0333,0.070584 -0.0418,0.065865 -0.0497,0.060107 -0.0568,0.0534 -0.0632,0.045853 -0.0683,0.03758 -0.0725,0.028717 -0.0756,0.019401 -0.0774,0.009777 -0.039,0 0,0.001225 -26,0 0,-0.001225 -0.039,0 -0.0774,-0.009777 -0.0756,-0.019401 -0.0725,-0.028717 -0.0683,-0.03758 -0.0632,-0.045853 -0.0568,-0.0534 -0.0497,-0.060107 -0.0418,-0.065865 -0.0333,-0.070584 -0.0241,-0.074191 -0.0146,-0.0766267987 z"
     id="path5411"
     inkscape:connector-curvature="0" />
  <path
     style="fill:none;stroke:#ff0000;stroke-width:0.1;stroke-miterlimit:4;stroke-dasharray:none;stroke-opacity:1"
     d="m 18.528796,-8.56283 0.0049,-0.07785 0.0146,-0.07663 0.0241,-0.07419 0.0333,-0.07058 0.0418,-0.06587 0.0497,-0.06011 0.0568,-0.0534 0.0632,-0.04585 0.0683,-0.03758 0.0725,-0.02872 0.0756,-0.0194 0.0774,-0.00977 0.039,0 0,-0.00123 26,0 0,0.00123 0.039,0 0.0774,0.00977 0.0756,0.0194 0.0725,0.02872 0.0683,0.03758 0.0632,0.04585 0.0568,0.0534 0.0497,0.06011 0.0418,0.06587 0.0333,0.07058 0.0241,0.07419 0.0146,0.07663 0.0049,0.07785 -0.0049,0.07786 -0.0146,0.07662 -0.0241,0.07419 -0.0333,0.07059 -0.0418,0.06586 -0.0497,0.06011 -0.0568,0.0534 -0.0632,0.04585 -0.0683,0.03758 -0.0725,0.02872 -0.0756,0.0194 -0.0774,0.00978 -0.039,0 0,0.00122 -26,0 0,-0.00122 -0.039,0 -0.0774,-0.00978 -0.0756,-0.0194 -0.0725,-0.02872 -0.0683,-0.03758 -0.0632,-0.04585 -0.0568,-0.0534 -0.0497,-0.06011 -0.0418,-0.06586 -0.0333,-0.07059 -0.0241,-0.07419 -0.0146,-0.07662 z"
     id="path5409"
     inkscape:connector-curvature="0" />
  <path
     style="fill:none;stroke:#ff0000;stroke-width:0.1;stroke-miterlimit:4;stroke-dasharray:none;stroke-opacity:1"
     d="m 18.528796,-17.0476 0.0049,-0.0778 0.0146,-0.0766 0.0241,-0.0742 0.0333,-0.0706 0.0418,-0.0659 0.0497,-0.0601 0.0568,-0.0534 0.0632,-0.0458 0.0683,-0.0376 0.0725,-0.0287 0.0756,-0.0194 0.0774,-0.0098 0.039,0 0,-0.0012 26,0 0,0.0012 0.039,0 0.0774,0.0098 0.0756,0.0194 0.0725,0.0287 0.0683,0.0376 0.0632,0.0458 0.0568,0.0534 0.0497,0.0601 0.0418,0.0659 0.0333,0.0706 0.0241,0.0742 0.0146,0.0766 0.0049,0.0778 -0.0049,0.0779 -0.0146,0.0766 -0.0241,0.0742 -0.0333,0.0706 -0.0418,0.0659 -0.0497,0.0601 -0.0568,0.0534 -0.0632,0.0458 -0.0683,0.0376 -0.0725,0.0287 -0.0756,0.0194 -0.0774,0.0098 -0.039,0 0,0.0012 -26,0 0,-0.0012 -0.039,0 -0.0774,-0.0098 -0.0756,-0.0194 -0.0725,-0.0287 -0.0683,-0.0376 -0.0632,-0.0458 -0.0568,-0.0534 -0.0497,-0.0601 -0.0418,-0.0659 -0.0333,-0.0706 -0.0241,-0.0742 -0.0146,-0.0766 z"
     id="path5407"
     inkscape:connector-curvature="0" />
  <path
     style="fill:none;stroke:#ff0000;stroke-width:0.1;stroke-miterlimit:4;stroke-dasharray:none;stroke-opacity:1"
     d="m 18.528796,-25.5323 0.0049,-0.0778 0.0146,-0.0767 0.0241,-0.0742 0.0333,-0.0705 0.0418,-0.0659 0.0497,-0.0601 0.0568,-0.0534 0.0632,-0.0459 0.0683,-0.0375 0.0725,-0.0288 0.0756,-0.0194 0.0774,-0.0097 0.039,0 0,-0.0013 26,0 0,0.0013 0.039,0 0.0774,0.0097 0.0756,0.0194 0.0725,0.0288 0.0683,0.0375 0.0632,0.0459 0.0568,0.0534 0.0497,0.0601 0.0418,0.0659 0.0333,0.0705 0.0241,0.0742 0.0146,0.0767 0.0049,0.0778 -0.0049,0.0779 -0.0146,0.0766 -0.0241,0.0742 -0.0333,0.0706 -0.0418,0.0658 -0.0497,0.0601 -0.0568,0.0534 -0.0632,0.0459 -0.0683,0.0376 -0.0725,0.0287 -0.0756,0.0194 -0.0774,0.0098 -0.039,0 0,0.0012 -26,0 0,-0.0012 -0.039,0 -0.0774,-0.0098 -0.0756,-0.0194 -0.0725,-0.0287 -0.0683,-0.0376 -0.0632,-0.0459 -0.0568,-0.0534 -0.0497,-0.0601 -0.0418,-0.0658 -0.0333,-0.0706 -0.0241,-0.0742 -0.0146,-0.0766 z"
     id="path5405"
     inkscape:connector-curvature="0" />
  <path
     style="fill:none;stroke:#ff0000;stroke-width:0.1;stroke-miterlimit:4;stroke-dasharray:none;stroke-opacity:1"
     d="m 18.528796,-34.017 0.0049,-0.0779 0.0146,-0.0766 0.0241,-0.0742 0.0333,-0.0706 0.0418,-0.0658 0.0497,-0.0601 0.0568,-0.0534 0.0632,-0.0459 0.0683,-0.0376 0.0725,-0.0287 0.0756,-0.0194 0.0774,-0.0098 0.039,0 0,-0.0012 26,0 0,0.0012 0.039,0 0.0774,0.0098 0.0756,0.0194 0.0725,0.0287 0.0683,0.0376 0.0632,0.0459 0.0568,0.0534 0.0497,0.0601 0.0418,0.0658 0.0333,0.0706 0.0241,0.0742 0.0146,0.0766 0.0049,0.0779 -0.0049,0.0778 -0.0146,0.0767 -0.0241,0.0742 -0.0333,0.0705 -0.0418,0.0659 -0.0497,0.0601 -0.0568,0.0534 -0.0632,0.0459 -0.0683,0.0376 -0.0725,0.0287 -0.0756,0.0194 -0.0774,0.0097 -0.039,0 0,0.0013 -26,0 0,-0.0013 -0.039,0 -0.0774,-0.0097 -0.0756,-0.0194 -0.0725,-0.0287 -0.0683,-0.0376 -0.0632,-0.0459 -0.0568,-0.0534 -0.0497,-0.0601 -0.0418,-0.0659 -0.0333,-0.0705 -0.0241,-0.0742 -0.0146,-0.0767 z"
     id="path5403"
     inkscape:connector-curvature="0" />
  <path
     style="fill:none;stroke:#ff0000;stroke-width:0.1;stroke-miterlimit:4;stroke-dasharray:none;stroke-opacity:1"
     d="m 34.528796,-4.32046 0.0049,-0.07786 0.0146,-0.07662 0.0241,-0.0742 0.0333,-0.07058 0.0418,-0.06586 0.0497,-0.06011 0.0568,-0.0534 0.0632,-0.04585 0.0683,-0.03759 0.0725,-0.02871 0.0756,-0.0194 0.0774,-0.00978 0.039,0 0,-0.00123 26,0 0,0.00123 0.039,0 0.0774,0.00978 0.0756,0.0194 0.0725,0.02871 0.0683,0.03759 0.0632,0.04585 0.0568,0.0534 0.0497,0.06011 0.0418,0.06586 0.0333,0.07058 0.0241,0.0742 0.0146,0.07662 0.0049,0.07786 -0.0049,0.07785 -0.0146,0.07663 -0.0241,0.07419 -0.0333,0.07058 -0.0418,0.06587 -0.0497,0.0601 -0.0568,0.0534 -0.0632,0.04586 -0.0683,0.03758 -0.0725,0.02871 -0.0756,0.01941 -0.0774,0.00977 -0.039,0 0,0.00123 -26,0 0,-0.00123 -0.039,0 -0.0774,-0.00977 -0.0756,-0.01941 -0.0725,-0.02871 -0.0683,-0.03758 -0.0632,-0.04586 -0.0568,-0.0534 -0.0497,-0.0601 -0.0418,-0.06587 -0.0333,-0.07058 -0.0241,-0.07419 -0.0146,-0.07663 z"
     id="path5401"
     inkscape:connector-curvature="0" />
  <path
     style="fill:none;stroke:#ff0000;stroke-width:0.1;stroke-miterlimit:4;stroke-dasharray:none;stroke-opacity:1"
     d="m 34.528796,-12.8052 0.0049,-0.0778 0.0146,-0.0767 0.0241,-0.0742 0.0333,-0.0705 0.0418,-0.0659 0.0497,-0.0601 0.0568,-0.0534 0.0632,-0.0459 0.0683,-0.0376 0.0725,-0.0287 0.0756,-0.0194 0.0774,-0.0097 0.039,0 0,-0.0013 26,0 0,0.0013 0.039,0 0.0774,0.0097 0.0756,0.0194 0.0725,0.0287 0.0683,0.0376 0.0632,0.0459 0.0568,0.0534 0.0497,0.0601 0.0418,0.0659 0.0333,0.0705 0.0241,0.0742 0.0146,0.0767 0.0049,0.0778 -0.0049,0.0779 -0.0146,0.0766 -0.0241,0.0742 -0.0333,0.0706 -0.0418,0.0658 -0.0497,0.0601 -0.0568,0.0534 -0.0632,0.0459 -0.0683,0.0376 -0.0725,0.0287 -0.0756,0.0194 -0.0774,0.0098 -0.039,0 0,0.0012 -26,0 0,-0.0012 -0.039,0 -0.0774,-0.0098 -0.0756,-0.0194 -0.0725,-0.0287 -0.0683,-0.0376 -0.0632,-0.0459 -0.0568,-0.0534 -0.0497,-0.0601 -0.0418,-0.0658 -0.0333,-0.0706 -0.0241,-0.0742 -0.0146,-0.0766 z"
     id="path5399"
     inkscape:connector-curvature="0" />
  <path
     style="fill:none;stroke:#ff0000;stroke-width:0.1;stroke-miterlimit:4;stroke-dasharray:none;stroke-opacity:1"
     d="m 34.528796,-21.2899 0.0049,-0.0779 0.0146,-0.0766 0.0241,-0.0742 0.0333,-0.0706 0.0418,-0.0658 0.0497,-0.0601 0.0568,-0.0534 0.0632,-0.0459 0.0683,-0.0376 0.0725,-0.0287 0.0756,-0.0194 0.0774,-0.0098 0.039,0 0,-0.0012 26,0 0,0.0012 0.039,0 0.0774,0.0098 0.0756,0.0194 0.0725,0.0287 0.0683,0.0376 0.0632,0.0459 0.0568,0.0534 0.0497,0.0601 0.0418,0.0658 0.0333,0.0706 0.0241,0.0742 0.0146,0.0766 0.0049,0.0779 -0.0049,0.0778 -0.0146,0.0767 -0.0241,0.0742 -0.0333,0.0705 -0.0418,0.0659 -0.0497,0.0601 -0.0568,0.0534 -0.0632,0.0459 -0.0683,0.0375 -0.0725,0.0288 -0.0756,0.0194 -0.0774,0.0097 -0.039,0 0,0.0013 -26,0 0,-0.0013 -0.039,0 -0.0774,-0.0097 -0.0756,-0.0194 -0.0725,-0.0288 -0.0683,-0.0375 -0.0632,-0.0459 -0.0568,-0.0534 -0.0497,-0.0601 -0.0418,-0.0659 -0.0333,-0.0705 -0.0241,-0.0742 -0.0146,-0.0767 z"
     id="path5397"
     inkscape:connector-curvature="0" />
  <path
     style="fill:none;stroke:#ff0000;stroke-width:0.1;stroke-miterlimit:4;stroke-dasharray:none;stroke-opacity:1"
     d="m 34.528796,-29.7746 0.0049,-0.0779 0.0146,-0.0766 0.0241,-0.0742 0.0333,-0.0706 0.0418,-0.0659 0.0497,-0.0601 0.0568,-0.0534 0.0632,-0.0458 0.0683,-0.0376 0.0725,-0.0287 0.0756,-0.0194 0.0774,-0.0098 0.039,0 0,-0.0012 26,0 0,0.0012 0.039,0 0.0774,0.0098 0.0756,0.0194 0.0725,0.0287 0.0683,0.0376 0.0632,0.0458 0.0568,0.0534 0.0497,0.0601 0.0418,0.0659 0.0333,0.0706 0.0241,0.0742 0.0146,0.0766 0.0049,0.0779 -0.0049,0.0778 -0.0146,0.0766 -0.0241,0.0742 -0.0333,0.0706 -0.0418,0.0659 -0.0497,0.0601 -0.0568,0.0534 -0.0632,0.0458 -0.0683,0.0376 -0.0725,0.0287 -0.0756,0.0194 -0.0774,0.0098 -0.039,0 0,0.0012 -26,0 0,-0.0012 -0.039,0 -0.0774,-0.0098 -0.0756,-0.0194 -0.0725,-0.0287 -0.0683,-0.0376 -0.0632,-0.0458 -0.0568,-0.0534 -0.0497,-0.0601 -0.0418,-0.0659 -0.0333,-0.0706 -0.0241,-0.0742 -0.0146,-0.0766 z"
     id="path5395"
     inkscape:connector-curvature="0" />
  <path
     style="fill:none;stroke:#ff0000;stroke-width:0.1;stroke-miterlimit:4;stroke-dasharray:none;stroke-opacity:1"
     d="m 50.528796,-0.0781 0.0049,-0.0778542 0.0146,-0.0766268 0.0241,-0.074191 0.0333,-0.070584 0.0418,-0.065865 0.0497,-0.060107 0.0568,-0.0534 0.0632,-0.045853 0.0683,-0.03758 0.0725,-0.028717 0.0756,-0.019401 0.0774,-0.009777 0.039,0 0,-0.001225 26,0 0,0.001225 0.039,0 0.0774,0.009777 0.0756,0.019401 0.0725,0.028717 0.0683,0.03758 0.0632,0.045853 0.0568,0.0534 0.0497,0.060107 0.0418,0.065865 0.0333,0.070584 0.0241,0.074191 0.0146,0.0766268 0.0049,0.0778542 -0.0049,0.0778542013 -0.0146,0.0766267987 -0.0241,0.074191 -0.0333,0.070584 -0.0418,0.065865 -0.0497,0.060107 -0.0568,0.0534 -0.0632,0.045853 -0.0683,0.03758 -0.0725,0.028717 -0.0756,0.019401 -0.0774,0.009777 -0.039,0 0,0.001225 -26,0 0,-0.001225 -0.039,0 -0.0774,-0.009777 -0.0756,-0.019401 -0.0725,-0.028717 -0.0683,-0.03758 -0.0632,-0.045853 -0.0568,-0.0534 -0.0497,-0.060107 -0.0418,-0.065865 -0.0333,-0.070584 -0.0241,-0.074191 -0.0146,-0.0766267987 z"
     id="path5393"
     inkscape:connector-curvature="0" />
  <path
     style="fill:none;stroke:#ff0000;stroke-width:0.1;stroke-miterlimit:4;stroke-dasharray:none;stroke-opacity:1"
     d="m 50.528796,-8.56283 0.0049,-0.07785 0.0146,-0.07663 0.0241,-0.07419 0.0333,-0.07058 0.0418,-0.06587 0.0497,-0.06011 0.0568,-0.0534 0.0632,-0.04585 0.0683,-0.03758 0.0725,-0.02872 0.0756,-0.0194 0.0774,-0.00977 0.039,0 0,-0.00123 26,0 0,0.00123 0.039,0 0.0774,0.00977 0.0756,0.0194 0.0725,0.02872 0.0683,0.03758 0.0632,0.04585 0.0568,0.0534 0.0497,0.06011 0.0418,0.06587 0.0333,0.07058 0.0241,0.07419 0.0146,0.07663 0.0049,0.07785 -0.0049,0.07786 -0.0146,0.07662 -0.0241,0.07419 -0.0333,0.07059 -0.0418,0.06586 -0.0497,0.06011 -0.0568,0.0534 -0.0632,0.04585 -0.0683,0.03758 -0.0725,0.02872 -0.0756,0.0194 -0.0774,0.00978 -0.039,0 0,0.00122 -26,0 0,-0.00122 -0.039,0 -0.0774,-0.00978 -0.0756,-0.0194 -0.0725,-0.02872 -0.0683,-0.03758 -0.0632,-0.04585 -0.0568,-0.0534 -0.0497,-0.06011 -0.0418,-0.06586 -0.0333,-0.07059 -0.0241,-0.07419 -0.0146,-0.07662 z"
     id="path5391"
     inkscape:connector-curvature="0" />
  <path
     style="fill:none;stroke:#ff0000;stroke-width:0.1;stroke-miterlimit:4;stroke-dasharray:none;stroke-opacity:1"
     d="m 50.528796,-17.0476 0.0049,-0.0778 0.0146,-0.0766 0.0241,-0.0742 0.0333,-0.0706 0.0418,-0.0659 0.0497,-0.0601 0.0568,-0.0534 0.0632,-0.0458 0.0683,-0.0376 0.0725,-0.0287 0.0756,-0.0194 0.0774,-0.0098 0.039,0 0,-0.0012 26,0 0,0.0012 0.039,0 0.0774,0.0098 0.0756,0.0194 0.0725,0.0287 0.0683,0.0376 0.0632,0.0458 0.0568,0.0534 0.0497,0.0601 0.0418,0.0659 0.0333,0.0706 0.0241,0.0742 0.0146,0.0766 0.0049,0.0778 -0.0049,0.0779 -0.0146,0.0766 -0.0241,0.0742 -0.0333,0.0706 -0.0418,0.0659 -0.0497,0.0601 -0.0568,0.0534 -0.0632,0.0458 -0.0683,0.0376 -0.0725,0.0287 -0.0756,0.0194 -0.0774,0.0098 -0.039,0 0,0.0012 -26,0 0,-0.0012 -0.039,0 -0.0774,-0.0098 -0.0756,-0.0194 -0.0725,-0.0287 -0.0683,-0.0376 -0.0632,-0.0458 -0.0568,-0.0534 -0.0497,-0.0601 -0.0418,-0.0659 -0.0333,-0.0706 -0.0241,-0.0742 -0.0146,-0.0766 z"
     id="path5389"
     inkscape:connector-curvature="0" />
  <path
     style="fill:none;stroke:#ff0000;stroke-width:0.1;stroke-miterlimit:4;stroke-dasharray:none;stroke-opacity:1"
     d="m 50.528796,-25.5323 0.0049,-0.0778 0.0146,-0.0767 0.0241,-0.0742 0.0333,-0.0705 0.0418,-0.0659 0.0497,-0.0601 0.0568,-0.0534 0.0632,-0.0459 0.0683,-0.0375 0.0725,-0.0288 0.0756,-0.0194 0.0774,-0.0097 0.039,0 0,-0.0013 26,0 0,0.0013 0.039,0 0.0774,0.0097 0.0756,0.0194 0.0725,0.0288 0.0683,0.0375 0.0632,0.0459 0.0568,0.0534 0.0497,0.0601 0.0418,0.0659 0.0333,0.0705 0.0241,0.0742 0.0146,0.0767 0.0049,0.0778 -0.0049,0.0779 -0.0146,0.0766 -0.0241,0.0742 -0.0333,0.0706 -0.0418,0.0658 -0.0497,0.0601 -0.0568,0.0534 -0.0632,0.0459 -0.0683,0.0376 -0.0725,0.0287 -0.0756,0.0194 -0.0774,0.0098 -0.039,0 0,0.0012 -26,0 0,-0.0012 -0.039,0 -0.0774,-0.0098 -0.0756,-0.0194 -0.0725,-0.0287 -0.0683,-0.0376 -0.0632,-0.0459 -0.0568,-0.0534 -0.0497,-0.0601 -0.0418,-0.0658 -0.0333,-0.0706 -0.0241,-0.0742 -0.0146,-0.0766 z"
     id="path5387"
     inkscape:connector-curvature="0" />
  <path
     style="fill:none;stroke:#ff0000;stroke-width:0.1;stroke-miterlimit:4;stroke-dasharray:none;stroke-opacity:1"
     d="m 50.528796,-34.017 0.0049,-0.0779 0.0146,-0.0766 0.0241,-0.0742 0.0333,-0.0706 0.0418,-0.0658 0.0497,-0.0601 0.0568,-0.0534 0.0632,-0.0459 0.0683,-0.0376 0.0725,-0.0287 0.0756,-0.0194 0.0774,-0.0098 0.039,0 0,-0.0012 26,0 0,0.0012 0.039,0 0.0774,0.0098 0.0756,0.0194 0.0725,0.0287 0.0683,0.0376 0.0632,0.0459 0.0568,0.0534 0.0497,0.0601 0.0418,0.0658 0.0333,0.0706 0.0241,0.0742 0.0146,0.0766 0.0049,0.0779 -0.0049,0.0778 -0.0146,0.0767 -0.0241,0.0742 -0.0333,0.0705 -0.0418,0.0659 -0.0497,0.0601 -0.0568,0.0534 -0.0632,0.0459 -0.0683,0.0376 -0.0725,0.0287 -0.0756,0.0194 -0.0774,0.0097 -0.039,0 0,0.0013 -26,0 0,-0.0013 -0.039,0 -0.0774,-0.0097 -0.0756,-0.0194 -0.0725,-0.0287 -0.0683,-0.0376 -0.0632,-0.0459 -0.0568,-0.0534 -0.0497,-0.0601 -0.0418,-0.0659 -0.0333,-0.0705 -0.0241,-0.0742 -0.0146,-0.0767 z"
     id="path5385"
     inkscape:connector-curvature="0" />
  <path
     style="fill:none;stroke:#ff0000;stroke-width:0.1;stroke-miterlimit:4;stroke-dasharray:none;stroke-opacity:1"
     d="m 66.528796,-4.32046 0.0049,-0.07786 0.0146,-0.07662 0.0241,-0.0742 0.0333,-0.07058 0.0418,-0.06586 0.0497,-0.06011 0.0568,-0.0534 0.0632,-0.04585 0.0683,-0.03759 0.0725,-0.02871 0.0756,-0.0194 0.0774,-0.00978 0.039,0 0,-0.00123 26,0 0,0.00123 0.039,0 0.0774,0.00978 0.0756,0.0194 0.0725,0.02871 0.0683,0.03759 0.0632,0.04585 0.0568,0.0534 0.0497,0.06011 0.0418,0.06586 0.0333,0.07058 0.0241,0.0742 0.0146,0.07662 0.0049,0.07786 -0.0049,0.07785 -0.0146,0.07663 -0.0241,0.07419 -0.0333,0.07058 -0.0418,0.06587 -0.0497,0.0601 -0.0568,0.0534 -0.0632,0.04586 -0.0683,0.03758 -0.0725,0.02871 -0.0756,0.01941 -0.0774,0.00977 -0.039,0 0,0.00123 -26,0 0,-0.00123 -0.039,0 -0.0774,-0.00977 -0.0756,-0.01941 -0.0725,-0.02871 -0.0683,-0.03758 -0.0632,-0.04586 -0.0568,-0.0534 -0.0497,-0.0601 -0.0418,-0.06587 -0.0333,-0.07058 -0.0241,-0.07419 -0.0146,-0.07663 z"
     id="path5383"
     inkscape:connector-curvature="0" />
  <path
     style="fill:none;stroke:#ff0000;stroke-width:0.1;stroke-miterlimit:4;stroke-dasharray:none;stroke-opacity:1"
     d="m 66.528796,-12.8052 0.0049,-0.0778 0.0146,-0.0767 0.0241,-0.0742 0.0333,-0.0705 0.0418,-0.0659 0.0497,-0.0601 0.0568,-0.0534 0.0632,-0.0459 0.0683,-0.0376 0.0725,-0.0287 0.0756,-0.0194 0.0774,-0.0097 0.039,0 0,-0.0013 26,0 0,0.0013 0.039,0 0.0774,0.0097 0.0756,0.0194 0.0725,0.0287 0.0683,0.0376 0.0632,0.0459 0.0568,0.0534 0.0497,0.0601 0.0418,0.0659 0.0333,0.0705 0.0241,0.0742 0.0146,0.0767 0.0049,0.0778 -0.0049,0.0779 -0.0146,0.0766 -0.0241,0.0742 -0.0333,0.0706 -0.0418,0.0658 -0.0497,0.0601 -0.0568,0.0534 -0.0632,0.0459 -0.0683,0.0376 -0.0725,0.0287 -0.0756,0.0194 -0.0774,0.0098 -0.039,0 0,0.0012 -26,0 0,-0.0012 -0.039,0 -0.0774,-0.0098 -0.0756,-0.0194 -0.0725,-0.0287 -0.0683,-0.0376 -0.0632,-0.0459 -0.0568,-0.0534 -0.0497,-0.0601 -0.0418,-0.0658 -0.0333,-0.0706 -0.0241,-0.0742 -0.0146,-0.0766 z"
     id="path5381"
     inkscape:connector-curvature="0" />
  <path
     style="fill:none;stroke:#ff0000;stroke-width:0.1;stroke-miterlimit:4;stroke-dasharray:none;stroke-opacity:1"
     d="m 66.528796,-21.2899 0.0049,-0.0779 0.0146,-0.0766 0.0241,-0.0742 0.0333,-0.0706 0.0418,-0.0658 0.0497,-0.0601 0.0568,-0.0534 0.0632,-0.0459 0.0683,-0.0376 0.0725,-0.0287 0.0756,-0.0194 0.0774,-0.0098 0.039,0 0,-0.0012 26,0 0,0.0012 0.039,0 0.0774,0.0098 0.0756,0.0194 0.0725,0.0287 0.0683,0.0376 0.0632,0.0459 0.0568,0.0534 0.0497,0.0601 0.0418,0.0658 0.0333,0.0706 0.0241,0.0742 0.0146,0.0766 0.0049,0.0779 -0.0049,0.0778 -0.0146,0.0767 -0.0241,0.0742 -0.0333,0.0705 -0.0418,0.0659 -0.0497,0.0601 -0.0568,0.0534 -0.0632,0.0459 -0.0683,0.0375 -0.0725,0.0288 -0.0756,0.0194 -0.0774,0.0097 -0.039,0 0,0.0013 -26,0 0,-0.0013 -0.039,0 -0.0774,-0.0097 -0.0756,-0.0194 -0.0725,-0.0288 -0.0683,-0.0375 -0.0632,-0.0459 -0.0568,-0.0534 -0.0497,-0.0601 -0.0418,-0.0659 -0.0333,-0.0705 -0.0241,-0.0742 -0.0146,-0.0767 z"
     id="path5379"
     inkscape:connector-curvature="0" />
  <path
     style="fill:none;stroke:#ff0000;stroke-width:0.1;stroke-miterlimit:4;stroke-dasharray:none;stroke-opacity:1"
     d="m 66.528796,-29.7746 0.0049,-0.0779 0.0146,-0.0766 0.0241,-0.0742 0.0333,-0.0706 0.0418,-0.0659 0.0497,-0.0601 0.0568,-0.0534 0.0632,-0.0458 0.0683,-0.0376 0.0725,-0.0287 0.0756,-0.0194 0.0774,-0.0098 0.039,0 0,-0.0012 26,0 0,0.0012 0.039,0 0.0774,0.0098 0.0756,0.0194 0.0725,0.0287 0.0683,0.0376 0.0632,0.0458 0.0568,0.0534 0.0497,0.0601 0.0418,0.0659 0.0333,0.0706 0.0241,0.0742 0.0146,0.0766 0.0049,0.0779 -0.0049,0.0778 -0.0146,0.0766 -0.0241,0.0742 -0.0333,0.0706 -0.0418,0.0659 -0.0497,0.0601 -0.0568,0.0534 -0.0632,0.0458 -0.0683,0.0376 -0.0725,0.0287 -0.0756,0.0194 -0.0774,0.0098 -0.039,0 0,0.0012 -26,0 0,-0.0012 -0.039,0 -0.0774,-0.0098 -0.0756,-0.0194 -0.0725,-0.0287 -0.0683,-0.0376 -0.0632,-0.0458 -0.0568,-0.0534 -0.0497,-0.0601 -0.0418,-0.0659 -0.0333,-0.0706 -0.0241,-0.0742 -0.0146,-0.0766 z"
     id="path5377"
     inkscape:connector-curvature="0" />
  <path
     style="fill:none;stroke:#ff0000;stroke-width:0.1;stroke-miterlimit:4;stroke-dasharray:none;stroke-opacity:1"
     d="m 82.528796,-0.0781 0.0049,-0.0778542 0.0146,-0.0766268 0.0241,-0.074191 0.0333,-0.070584 0.0418,-0.065865 0.0497,-0.060107 0.0568,-0.0534 0.0632,-0.045853 0.0683,-0.03758 0.0725,-0.028717 0.0756,-0.019401 0.0774,-0.009777 0.039,0 0,-0.001225 26.000004,0 0,0.001225 0.039,0 0.077,0.009777 0.076,0.019401 0.072,0.028717 0.069,0.03758 0.063,0.045853 0.057,0.0534 0.05,0.060107 0.041,0.065865 0.034,0.070584 0.024,0.074191 0.014,0.0766268 0.005,0.0778542 -0.005,0.0778542013 -0.014,0.0766267987 -0.024,0.074191 -0.034,0.070584 -0.041,0.065865 -0.05,0.060107 -0.057,0.0534 -0.063,0.045853 -0.069,0.03758 -0.072,0.028717 -0.076,0.019401 -0.077,0.009777 -0.039,0 0,0.001225 -26.000004,0 0,-0.001225 -0.039,0 -0.0774,-0.009777 -0.0756,-0.019401 -0.0725,-0.028717 -0.0683,-0.03758 -0.0632,-0.045853 -0.0568,-0.0534 -0.0497,-0.060107 -0.0418,-0.065865 -0.0333,-0.070584 -0.0241,-0.074191 -0.0146,-0.0766267987 z"
     id="path5375"
     inkscape:connector-curvature="0" />
  <path
     style="fill:none;stroke:#ff0000;stroke-width:0.1;stroke-miterlimit:4;stroke-dasharray:none;stroke-opacity:1"
     d="m 82.528796,-8.56283 0.0049,-0.07785 0.0146,-0.07663 0.0241,-0.07419 0.0333,-0.07058 0.0418,-0.06587 0.0497,-0.06011 0.0568,-0.0534 0.0632,-0.04585 0.0683,-0.03758 0.0725,-0.02872 0.0756,-0.0194 0.0774,-0.00977 0.039,0 0,-0.00123 26.000004,0 0,0.00123 0.039,0 0.077,0.00977 0.076,0.0194 0.072,0.02872 0.069,0.03758 0.063,0.04585 0.057,0.0534 0.05,0.06011 0.041,0.06587 0.034,0.07058 0.024,0.07419 0.014,0.07663 0.005,0.07785 -0.005,0.07786 -0.014,0.07662 -0.024,0.07419 -0.034,0.07059 -0.041,0.06586 -0.05,0.06011 -0.057,0.0534 -0.063,0.04585 -0.069,0.03758 -0.072,0.02872 -0.076,0.0194 -0.077,0.00978 -0.039,0 0,0.00122 -26.000004,0 0,-0.00122 -0.039,0 -0.0774,-0.00978 -0.0756,-0.0194 -0.0725,-0.02872 -0.0683,-0.03758 -0.0632,-0.04585 -0.0568,-0.0534 -0.0497,-0.06011 -0.0418,-0.06586 -0.0333,-0.07059 -0.0241,-0.07419 -0.0146,-0.07662 z"
     id="path5373"
     inkscape:connector-curvature="0" />
  <path
     style="fill:none;stroke:#ff0000;stroke-width:0.1;stroke-miterlimit:4;stroke-dasharray:none;stroke-opacity:1"
     d="m 82.528796,-17.0476 0.0049,-0.0778 0.0146,-0.0766 0.0241,-0.0742 0.0333,-0.0706 0.0418,-0.0659 0.0497,-0.0601 0.0568,-0.0534 0.0632,-0.0458 0.0683,-0.0376 0.0725,-0.0287 0.0756,-0.0194 0.0774,-0.0098 0.039,0 0,-0.0012 26.000004,0 0,0.0012 0.039,0 0.077,0.0098 0.076,0.0194 0.072,0.0287 0.069,0.0376 0.063,0.0458 0.057,0.0534 0.05,0.0601 0.041,0.0659 0.034,0.0706 0.024,0.0742 0.014,0.0766 0.005,0.0778 -0.005,0.0779 -0.014,0.0766 -0.024,0.0742 -0.034,0.0706 -0.041,0.0659 -0.05,0.0601 -0.057,0.0534 -0.063,0.0458 -0.069,0.0376 -0.072,0.0287 -0.076,0.0194 -0.077,0.0098 -0.039,0 0,0.0012 -26.000004,0 0,-0.0012 -0.039,0 -0.0774,-0.0098 -0.0756,-0.0194 -0.0725,-0.0287 -0.0683,-0.0376 -0.0632,-0.0458 -0.0568,-0.0534 -0.0497,-0.0601 -0.0418,-0.0659 -0.0333,-0.0706 -0.0241,-0.0742 -0.0146,-0.0766 z"
     id="path5371"
     inkscape:connector-curvature="0" />
  <path
     style="fill:none;stroke:#ff0000;stroke-width:0.1;stroke-miterlimit:4;stroke-dasharray:none;stroke-opacity:1"
     d="m 82.528796,-25.5323 0.0049,-0.0778 0.0146,-0.0767 0.0241,-0.0742 0.0333,-0.0705 0.0418,-0.0659 0.0497,-0.0601 0.0568,-0.0534 0.0632,-0.0459 0.0683,-0.0375 0.0725,-0.0288 0.0756,-0.0194 0.0774,-0.0097 0.039,0 0,-0.0013 26.000004,0 0,0.0013 0.039,0 0.077,0.0097 0.076,0.0194 0.072,0.0288 0.069,0.0375 0.063,0.0459 0.057,0.0534 0.05,0.0601 0.041,0.0659 0.034,0.0705 0.024,0.0742 0.014,0.0767 0.005,0.0778 -0.005,0.0779 -0.014,0.0766 -0.024,0.0742 -0.034,0.0706 -0.041,0.0658 -0.05,0.0601 -0.057,0.0534 -0.063,0.0459 -0.069,0.0376 -0.072,0.0287 -0.076,0.0194 -0.077,0.0098 -0.039,0 0,0.0012 -26.000004,0 0,-0.0012 -0.039,0 -0.0774,-0.0098 -0.0756,-0.0194 -0.0725,-0.0287 -0.0683,-0.0376 -0.0632,-0.0459 -0.0568,-0.0534 -0.0497,-0.0601 -0.0418,-0.0658 -0.0333,-0.0706 -0.0241,-0.0742 -0.0146,-0.0766 z"
     id="path5369"
     inkscape:connector-curvature="0" />
  <path
     style="fill:none;stroke:#ff0000;stroke-width:0.1;stroke-miterlimit:4;stroke-dasharray:none;stroke-opacity:1"
     d="m 82.528796,-34.017 0.0049,-0.0779 0.0146,-0.0766 0.0241,-0.0742 0.0333,-0.0706 0.0418,-0.0658 0.0497,-0.0601 0.0568,-0.0534 0.0632,-0.0459 0.0683,-0.0376 0.0725,-0.0287 0.0756,-0.0194 0.0774,-0.0098 0.039,0 0,-0.0012 26.000004,0 0,0.0012 0.039,0 0.077,0.0098 0.076,0.0194 0.072,0.0287 0.069,0.0376 0.063,0.0459 0.057,0.0534 0.05,0.0601 0.041,0.0658 0.034,0.0706 0.024,0.0742 0.014,0.0766 0.005,0.0779 -0.005,0.0778 -0.014,0.0767 -0.024,0.0742 -0.034,0.0705 -0.041,0.0659 -0.05,0.0601 -0.057,0.0534 -0.063,0.0459 -0.069,0.0376 -0.072,0.0287 -0.076,0.0194 -0.077,0.0097 -0.039,0 0,0.0013 -26.000004,0 0,-0.0013 -0.039,0 -0.0774,-0.0097 -0.0756,-0.0194 -0.0725,-0.0287 -0.0683,-0.0376 -0.0632,-0.0459 -0.0568,-0.0534 -0.0497,-0.0601 -0.0418,-0.0659 -0.0333,-0.0705 -0.0241,-0.0742 -0.0146,-0.0767 z"
     id="path4763"
     inkscape:connector-curvature="0" />
</svg>
