<?xml version="1.0" encoding="UTF-8" standalone="no"?>
<svg
   xmlns:dc="http://purl.org/dc/elements/1.1/"
   xmlns:cc="http://creativecommons.org/ns#"
   xmlns:rdf="http://www.w3.org/1999/02/22-rdf-syntax-ns#"
   xmlns:svg="http://www.w3.org/2000/svg"
   xmlns="http://www.w3.org/2000/svg"
   xmlns:sodipodi="http://sodipodi.sourceforge.net/DTD/sodipodi-0.dtd"
   xmlns:inkscape="http://www.inkscape.org/namespaces/inkscape"
   width="112.269mm"
   height="50.300003mm"
   viewBox="0 -35 112.269 50.300003"
   version="1.1"
   id="svg4136"
   inkscape:version="0.91 r13725"
   sodipodi:docname="LatticeHinge.svg">
  <metadata
     id="metadata4146">
    <rdf:RDF>
      <cc:Work
         rdf:about="">
        <dc:format>image/svg+xml</dc:format>
        <dc:type
           rdf:resource="http://purl.org/dc/dcmitype/StillImage" />
        <dc:title>OpenSCAD Model</dc:title>
      </cc:Work>
    </rdf:RDF>
  </metadata>
  <defs
     id="defs4144" />
  <sodipodi:namedview
     pagecolor="#ffffff"
     bordercolor="#666666"
     borderopacity="1"
     objecttolerance="10"
     gridtolerance="10"
     guidetolerance="10"
     inkscape:pageopacity="0"
     inkscape:pageshadow="2"
     inkscape:window-width="1920"
     inkscape:window-height="1138"
     id="namedview4142"
     showgrid="false"
     fit-margin-top="0.1"
     fit-margin-bottom="0.1"
     fit-margin-left="0.1"
     fit-margin-right="0.1"
     inkscape:zoom="2.6495319"
     inkscape:cx="211.40927"
     inkscape:cy="137.41287"
     inkscape:window-x="-8"
     inkscape:window-y="-8"
     inkscape:window-maximized="1"
     inkscape:current-layer="svg4136" />
  <title
     id="title4138">OpenSCAD Model</title>
  <path
     style="fill:none;stroke:#0000ff;stroke-width:0.1;stroke-miterlimit:4;stroke-dasharray:none"
     d="m 0.15,15.15 111.969,0 0,-17.37882 -12.969,0 0,-0.00122 -0.039,0 -0.0774,-0.00978 -0.0756,-0.0194 -0.0725,-0.02872 -0.0683,-0.03758 -0.0632,-0.04585 -0.0568,-0.0534 -0.0497,-0.06011 -0.0418,-0.06586 -0.0333,-0.07059 -0.0241,-0.07419 -0.0146,-0.07663 -0.0049,-0.07785 0.0049,-0.07785 0.0146,-0.07663 0.0241,-0.07419 0.0333,-0.07059 0.0418,-0.06586 0.0497,-0.06011 0.0568,-0.0534 0.0632,-0.04585 0.0683,-0.03758 0.0725,-0.02872 0.0756,-0.0194 0.0774,-0.00978 0.039,0 0,-0.00122 12.969,0 0,-4.75764 -12.969,0 0,-0.00122 -0.039,0 -0.0774,-0.00978 -0.0756,-0.0194 -0.0725,-0.02872 -0.0683,-0.03758 -0.0632,-0.04585 -0.0568,-0.0534 -0.0497,-0.06011 -0.0418,-0.06586 -0.0333,-0.07059 -0.0241,-0.07419 -0.0146,-0.07663 -0.0049,-0.07785 0.0049,-0.07785 0.0146,-0.07663 0.0241,-0.07419 0.0333,-0.07059 0.0418,-0.06586 0.0497,-0.06011 0.0568,-0.0534 0.0632,-0.04585 0.0683,-0.03758 0.0725,-0.02872 0.0756,-0.0194 0.0774,-0.00978 0.039,0 0,-0.00122 12.969,0 0,-4.75762 -12.969,0 0,-0.0012 -0.039,0 -0.0774,-0.0098 -0.0756,-0.0194 -0.0725,-0.0287 -0.0683,-0.0376 -0.0632,-0.0459 -0.0568,-0.0534 -0.0497,-0.0601 -0.0418,-0.0658 -0.0333,-0.0706 -0.0241,-0.0742 -0.0146,-0.0766 -0.0049,-0.0779 0.0049,-0.0779 0.0146,-0.0766 0.0241,-0.0742 0.0333,-0.0706 0.0418,-0.0658 0.0497,-0.0601 0.0568,-0.0534 0.0632,-0.0459 0.0683,-0.0376 0.0725,-0.0287 0.0756,-0.0194 0.0774,-0.0098 0.039,0 0,-0.0012 12.969,0 0,-4.7576 -12.969,0 0,-0.0012 -0.039,0 -0.0774,-0.0098 -0.0756,-0.0194 -0.0725,-0.0287 -0.0683,-0.0376 -0.0632,-0.0459 -0.0568,-0.0534 -0.0497,-0.0601 -0.0418,-0.0658 -0.0333,-0.0706 -0.0241,-0.0742 -0.0146,-0.0766 -0.0049,-0.0779 0.0049,-0.0779 0.0146,-0.0766 0.0241,-0.0742 0.0333,-0.0706 0.0418,-0.0658 0.0497,-0.0601 0.0568,-0.0534 0.0632,-0.0459 0.0683,-0.0376 0.0725,-0.0287 0.0756,-0.0194 0.0774,-0.0098 0.039,0 0,-0.0012 12.969,0 0,-13.3788 -111.969,0 0,10.3788 13,0 0,0.0012 0.039,0 0.0774,0.0098 0.0756,0.0194 0.0725,0.0287 0.0683,0.0376 0.0632,0.0459 0.0568,0.0534 0.0497,0.0601 0.0418,0.0658 0.0333,0.0706 0.0241,0.0742 0.0146,0.0766 0.0049,0.0779 -0.0049,0.0779 -0.0146,0.0766 -0.0241,0.0742 -0.0333,0.0706 -0.0418,0.0658 -0.0497,0.0601 -0.0568,0.0534 -0.0632,0.0459 -0.0683,0.0376 -0.0725,0.0287 -0.0756,0.0194 -0.0774,0.0098 -0.039,0 0,0.0012 -13,0 0,4.7576 13,0 0,0.0012 0.039,0 0.0774,0.0098 0.0756,0.0194 0.0725,0.0287 0.0683,0.0376 0.0632,0.0459 0.0568,0.0534 0.0497,0.0601 0.0418,0.0658 0.0333,0.0706 0.0241,0.0742 0.0146,0.0766 0.0049,0.0779 -0.0049,0.0779 -0.0146,0.0766 -0.0241,0.0742 -0.0333,0.0706 -0.0418,0.0658 -0.0497,0.0601 -0.0568,0.0534 -0.0632,0.0459 -0.0683,0.0376 -0.0725,0.0287 -0.0756,0.0194 -0.0774,0.0098 -0.039,0 0,0.0012 -13,0 0,4.7576 13,0 0,0.0012 0.039,0 0.0774,0.0098 0.0756,0.0194 0.0725,0.0287 0.0683,0.0376 0.0632,0.0459 0.0568,0.0534 0.0497,0.0601 0.0418,0.0658 0.0333,0.0706 0.0241,0.0742 0.0146,0.0766 0.0049,0.0779 -0.0049,0.0779 -0.0146,0.0766 -0.0241,0.0742 -0.0333,0.0706 -0.0418,0.0658 -0.0497,0.0601 -0.0568,0.0534 -0.0632,0.0459 -0.0683,0.0376 -0.0725,0.0287 -0.0756,0.0194 -0.0774,0.0098 -0.039,0 0,0.0012 -13,0 0,4.75762 13,0 0,0.00122 0.039,0 0.0774,0.00978 0.0756,0.0194 0.0725,0.02872 0.0683,0.03758 0.0632,0.04585 0.0568,0.0534 0.0497,0.06011 0.0418,0.06586 0.0333,0.07059 0.0241,0.07419 0.0146,0.07663 0.0049,0.07785 -0.0049,0.07785 -0.0146,0.07663 -0.0241,0.07419 -0.0333,0.07059 -0.0418,0.06586 -0.0497,0.06011 -0.0568,0.0534 -0.0632,0.04585 -0.0683,0.03758 -0.0725,0.02872 -0.0756,0.0194 -0.0774,0.00978 -0.039,0 0,0.00122 -13,0 0,4.75763899 13,0 0,0.001225 0.039,0 0.0774,0.009777 0.0756,0.019401 0.0725,0.028717 0.0683,0.03758 0.0632,0.045853 0.0568,0.0534 0.0497,0.060107 0.0418,0.065865 0.0333,0.070584 0.0241,0.074191 0.0146,0.0766268 0.0049,0.0778542 -0.0049,0.0778542 -0.0146,0.0766268 -0.0241,0.074191 -0.0333,0.070584 -0.0418,0.065865 -0.0497,0.060107 -0.0568,0.0534 -0.0632,0.045853 -0.0683,0.03758 -0.0725,0.028717 -0.0756,0.019401 -0.0774,0.009777 -0.039,0 0,0.001225 -13,0 z"
     id="path4202"
     inkscape:connector-curvature="0" />
  <path
     style="fill:none;stroke:#ff0000;stroke-width:0.1;stroke-miterlimit:4;stroke-dasharray:none"
     d="m 2.52882,-2.85 0.0049,-0.07785 0.01461,-0.07663 0.02411,-0.07419 0.03321,-0.07059 0.0418,-0.06586 0.04973,-0.06011 0.05686,-0.0534 0.06311,-0.04585 0.06836,-0.03758 0.07253,-0.02872 0.07556,-0.0194 0.0774,-0.00978 0.039,0 0,-0.00122 26,0 0,0.00122 0.039,0 0.0774,0.00978 0.0756,0.0194 0.0725,0.02872 0.0683,0.03758 0.0632,0.04585 0.0568,0.0534 0.0497,0.06011 0.0418,0.06586 0.0333,0.07059 0.0241,0.07419 0.0146,0.07663 0.0049,0.07785 -0.0049,0.07785 -0.0146,0.07663 -0.0241,0.07419 -0.0333,0.07059 -0.0418,0.06586 -0.0497,0.06011 -0.0568,0.0534 -0.0632,0.04585 -0.0683,0.03758 -0.0725,0.02872 -0.0756,0.0194 -0.0774,0.00978 -0.039,0 0,0.00122 -26,0 0,-0.00122 -0.039,0 L 3.0336,-2.23982 2.95804,-2.25922 2.88551,-2.28794 2.81715,-2.32552 2.75404,-2.37137 2.69718,-2.42477 2.64745,-2.48488 2.60565,-2.55074 2.57244,-2.62133 2.54833,-2.69552 2.53372,-2.77215 Z"
     id="path4200"
     inkscape:connector-curvature="0" />
  <path
     style="fill:none;stroke:#ff0000;stroke-width:0.1;stroke-miterlimit:4;stroke-dasharray:none"
     d="m 2.52882,-8.85 0.0049,-0.07785 0.01461,-0.07663 0.02411,-0.07419 0.03321,-0.07059 0.0418,-0.06586 0.04973,-0.06011 0.05686,-0.0534 0.06311,-0.04585 0.06836,-0.03758 0.07253,-0.02872 0.07556,-0.0194 0.0774,-0.00978 0.039,0 0,-0.00122 26,0 0,0.00122 0.039,0 0.0774,0.00978 0.0756,0.0194 0.0725,0.02872 0.0683,0.03758 0.0632,0.04585 0.0568,0.0534 0.0497,0.06011 0.0418,0.06586 0.0333,0.07059 0.0241,0.07419 0.0146,0.07663 0.0049,0.07785 -0.0049,0.07785 -0.0146,0.07663 -0.0241,0.07419 -0.0333,0.07059 -0.0418,0.06586 -0.0497,0.06011 -0.0568,0.0534 -0.0632,0.04585 -0.0683,0.03758 -0.0725,0.02872 -0.0756,0.0194 -0.0774,0.00978 -0.039,0 0,0.00122 -26,0 0,-0.00122 -0.039,0 L 3.0336,-8.23982 2.95804,-8.25922 2.88551,-8.28794 2.81715,-8.32552 2.75404,-8.37137 2.69718,-8.42477 2.64745,-8.48488 2.60565,-8.55074 2.57244,-8.62133 2.54833,-8.69552 2.53372,-8.77215 Z"
     id="path4198"
     inkscape:connector-curvature="0" />
  <path
     style="fill:none;stroke:#ff0000;stroke-width:0.1;stroke-miterlimit:4;stroke-dasharray:none"
     d="m 2.52882,-14.85 0.0049,-0.0779 0.01461,-0.0766 0.02411,-0.0742 0.03321,-0.0706 0.0418,-0.0658 0.04973,-0.0601 0.05686,-0.0534 0.06311,-0.0459 0.06836,-0.0376 0.07253,-0.0287 0.07556,-0.0194 0.0774,-0.0098 0.039,0 0,-0.0012 26,0 0,0.0012 0.039,0 0.0774,0.0098 0.0756,0.0194 0.0725,0.0287 0.0683,0.0376 0.0632,0.0459 0.0568,0.0534 0.0497,0.0601 0.0418,0.0658 0.0333,0.0706 0.0241,0.0742 0.0146,0.0766 0.0049,0.0779 -0.0049,0.0779 -0.0146,0.0766 -0.0241,0.0742 -0.0333,0.0706 -0.0418,0.0658 -0.0497,0.0601 -0.0568,0.0534 -0.0632,0.0459 -0.0683,0.0376 -0.0725,0.0287 -0.0756,0.0194 -0.0774,0.0098 -0.039,0 0,0.0012 -26,0 0,-0.0012 -0.039,0 -0.0774,-0.0098 -0.07556,-0.0194 -0.07253,-0.0287 -0.06836,-0.0376 -0.06311,-0.0459 -0.05686,-0.0534 -0.04973,-0.0601 -0.0418,-0.0658 -0.03321,-0.0706 -0.02411,-0.0742 -0.01461,-0.0766 z"
     id="path4196"
     inkscape:connector-curvature="0" />
  <path
     style="fill:none;stroke:#ff0000;stroke-width:0.1;stroke-miterlimit:4;stroke-dasharray:none"
     d="m 2.52882,-20.85 0.0049,-0.0779 0.01461,-0.0766 0.02411,-0.0742 0.03321,-0.0706 0.0418,-0.0658 0.04973,-0.0601 0.05686,-0.0534 0.06311,-0.0459 0.06836,-0.0376 0.07253,-0.0287 0.07556,-0.0194 0.0774,-0.0098 0.039,0 0,-0.0012 26,0 0,0.0012 0.039,0 0.0774,0.0098 0.0756,0.0194 0.0725,0.0287 0.0683,0.0376 0.0632,0.0459 0.0568,0.0534 0.0497,0.0601 0.0418,0.0658 0.0333,0.0706 0.0241,0.0742 0.0146,0.0766 0.0049,0.0779 -0.0049,0.0779 -0.0146,0.0766 -0.0241,0.0742 -0.0333,0.0706 -0.0418,0.0658 -0.0497,0.0601 -0.0568,0.0534 -0.0632,0.0459 -0.0683,0.0376 -0.0725,0.0287 -0.0756,0.0194 -0.0774,0.0098 -0.039,0 0,0.0012 -26,0 0,-0.0012 -0.039,0 -0.0774,-0.0098 -0.07556,-0.0194 -0.07253,-0.0287 -0.06836,-0.0376 -0.06311,-0.0459 -0.05686,-0.0534 -0.04973,-0.0601 -0.0418,-0.0658 -0.03321,-0.0706 -0.02411,-0.0742 -0.01461,-0.0766 z"
     id="path4194"
     inkscape:connector-curvature="0" />
  <path
     style="fill:none;stroke:#ff0000;stroke-width:0.1;stroke-miterlimit:4;stroke-dasharray:none"
     d="m 18.5288,0.14999999 0.0049,-0.0778542 0.0146,-0.0766268 0.0241,-0.074191 0.0333,-0.070584 0.0418,-0.065865 0.0497,-0.060107 0.0568,-0.0534 0.0632,-0.045853 0.0683,-0.03758 0.0725,-0.028717 0.0756,-0.019401 0.0774,-0.009777 0.039,0 0,-0.001225 26,0 0,0.001225 0.039,0 0.0774,0.009777 0.0756,0.019401 0.0725,0.028717 0.0683,0.03758 0.0632,0.045853 0.0568,0.0534 0.0497,0.060107 0.0418,0.065865 0.0333,0.070584 0.0241,0.074191 0.0146,0.0766268 0.0049,0.0778542 -0.0049,0.0778542 -0.0146,0.0766268 -0.0241,0.074191 -0.0333,0.070584 -0.0418,0.065865 -0.0497,0.060107 -0.0568,0.0534 -0.0632,0.045853 -0.0683,0.03758 -0.0725,0.028717 -0.0756,0.019401 -0.0774,0.009777 -0.039,0 0,0.001225 -26,0 0,-0.001225 -0.039,0 -0.0774,-0.009777 -0.0756,-0.019401 -0.0725,-0.028717 -0.0683,-0.03758 -0.0632,-0.045853 -0.0568,-0.0534 -0.0497,-0.060107 -0.0418,-0.065865 -0.0333,-0.070584 -0.0241,-0.074191 -0.0146,-0.0766268 z"
     id="path4192"
     inkscape:connector-curvature="0" />
  <path
     style="fill:none;stroke:#ff0000;stroke-width:0.1;stroke-miterlimit:4;stroke-dasharray:none"
     d="m 18.5288,-5.85 0.0049,-0.07785 0.0146,-0.07663 0.0241,-0.07419 0.0333,-0.07059 0.0418,-0.06586 0.0497,-0.06011 0.0568,-0.0534 0.0632,-0.04585 0.0683,-0.03758 0.0725,-0.02872 0.0756,-0.0194 0.0774,-0.00978 0.039,0 0,-0.00122 26,0 0,0.00122 0.039,0 0.0774,0.00978 0.0756,0.0194 0.0725,0.02872 0.0683,0.03758 0.0632,0.04585 0.0568,0.0534 0.0497,0.06011 0.0418,0.06586 0.0333,0.07059 0.0241,0.07419 0.0146,0.07663 0.0049,0.07785 -0.0049,0.07785 -0.0146,0.07663 -0.0241,0.07419 -0.0333,0.07059 -0.0418,0.06586 -0.0497,0.06011 -0.0568,0.0534 -0.0632,0.04585 -0.0683,0.03758 -0.0725,0.02872 -0.0756,0.0194 -0.0774,0.00978 -0.039,0 0,0.00122 -26,0 0,-0.00122 -0.039,0 -0.0774,-0.00978 -0.0756,-0.0194 -0.0725,-0.02872 -0.0683,-0.03758 -0.0632,-0.04585 -0.0568,-0.0534 -0.0497,-0.06011 -0.0418,-0.06586 -0.0333,-0.07059 -0.0241,-0.07419 -0.0146,-0.07663 z"
     id="path4190"
     inkscape:connector-curvature="0" />
  <path
     style="fill:none;stroke:#ff0000;stroke-width:0.1;stroke-miterlimit:4;stroke-dasharray:none"
     d="m 18.5288,-11.85 0.0049,-0.0779 0.0146,-0.0766 0.0241,-0.0742 0.0333,-0.0706 0.0418,-0.0658 0.0497,-0.0601 0.0568,-0.0534 0.0632,-0.0459 0.0683,-0.0376 0.0725,-0.0287 0.0756,-0.0194 0.0774,-0.0098 0.039,0 0,-0.0012 26,0 0,0.0012 0.039,0 0.0774,0.0098 0.0756,0.0194 0.0725,0.0287 0.0683,0.0376 0.0632,0.0459 0.0568,0.0534 0.0497,0.0601 0.0418,0.0658 0.0333,0.0706 0.0241,0.0742 0.0146,0.0766 0.0049,0.0779 -0.0049,0.0779 -0.0146,0.0766 -0.0241,0.0742 -0.0333,0.0706 -0.0418,0.0658 -0.0497,0.0601 -0.0568,0.0534 -0.0632,0.0459 -0.0683,0.0376 -0.0725,0.0287 -0.0756,0.0194 -0.0774,0.0098 -0.039,0 0,0.0012 -26,0 0,-0.0012 -0.039,0 -0.0774,-0.0098 -0.0756,-0.0194 -0.0725,-0.0287 -0.0683,-0.0376 -0.0632,-0.0459 -0.0568,-0.0534 -0.0497,-0.0601 -0.0418,-0.0658 -0.0333,-0.0706 -0.0241,-0.0742 -0.0146,-0.0766 z"
     id="path4188"
     inkscape:connector-curvature="0" />
  <path
     style="fill:none;stroke:#ff0000;stroke-width:0.1;stroke-miterlimit:4;stroke-dasharray:none"
     d="m 18.5288,-17.85 0.0049,-0.0779 0.0146,-0.0766 0.0241,-0.0742 0.0333,-0.0706 0.0418,-0.0658 0.0497,-0.0601 0.0568,-0.0534 0.0632,-0.0459 0.0683,-0.0376 0.0725,-0.0287 0.0756,-0.0194 0.0774,-0.0098 0.039,0 0,-0.0012 26,0 0,0.0012 0.039,0 0.0774,0.0098 0.0756,0.0194 0.0725,0.0287 0.0683,0.0376 0.0632,0.0459 0.0568,0.0534 0.0497,0.0601 0.0418,0.0658 0.0333,0.0706 0.0241,0.0742 0.0146,0.0766 0.0049,0.0779 -0.0049,0.0779 -0.0146,0.0766 -0.0241,0.0742 -0.0333,0.0706 -0.0418,0.0658 -0.0497,0.0601 -0.0568,0.0534 -0.0632,0.0459 -0.0683,0.0376 -0.0725,0.0287 -0.0756,0.0194 -0.0774,0.0098 -0.039,0 0,0.0012 -26,0 0,-0.0012 -0.039,0 -0.0774,-0.0098 -0.0756,-0.0194 -0.0725,-0.0287 -0.0683,-0.0376 -0.0632,-0.0459 -0.0568,-0.0534 -0.0497,-0.0601 -0.0418,-0.0658 -0.0333,-0.0706 -0.0241,-0.0742 -0.0146,-0.0766 z"
     id="path4186"
     inkscape:connector-curvature="0" />
  <path
     style="fill:none;stroke:#ff0000;stroke-width:0.1;stroke-miterlimit:4;stroke-dasharray:none"
     d="m 18.5288,-23.85 0.0049,-0.0779 0.0146,-0.0766 0.0241,-0.0742 0.0333,-0.0706 0.0418,-0.0658 0.0497,-0.0601 0.0568,-0.0534 0.0632,-0.0459 0.0683,-0.0376 0.0725,-0.0287 0.0756,-0.0194 0.0774,-0.0098 0.039,0 0,-0.0012 26,0 0,0.0012 0.039,0 0.0774,0.0098 0.0756,0.0194 0.0725,0.0287 0.0683,0.0376 0.0632,0.0459 0.0568,0.0534 0.0497,0.0601 0.0418,0.0658 0.0333,0.0706 0.0241,0.0742 0.0146,0.0766 0.0049,0.0779 -0.0049,0.0779 -0.0146,0.0766 -0.0241,0.0742 -0.0333,0.0706 -0.0418,0.0658 -0.0497,0.0601 -0.0568,0.0534 -0.0632,0.0459 -0.0683,0.0376 -0.0725,0.0287 -0.0756,0.0194 -0.0774,0.0098 -0.039,0 0,0.0012 -26,0 0,-0.0012 -0.039,0 -0.0774,-0.0098 -0.0756,-0.0194 -0.0725,-0.0287 -0.0683,-0.0376 -0.0632,-0.0459 -0.0568,-0.0534 -0.0497,-0.0601 -0.0418,-0.0658 -0.0333,-0.0706 -0.0241,-0.0742 -0.0146,-0.0766 z"
     id="path4184"
     inkscape:connector-curvature="0" />
  <path
     style="fill:none;stroke:#ff0000;stroke-width:0.1;stroke-miterlimit:4;stroke-dasharray:none"
     d="m 34.5288,-2.85 0.0049,-0.07785 0.0146,-0.07663 0.0241,-0.07419 0.0333,-0.07059 0.0418,-0.06586 0.0497,-0.06011 0.0568,-0.0534 0.0632,-0.04585 0.0683,-0.03758 0.0725,-0.02872 0.0756,-0.0194 0.0774,-0.00978 0.039,0 0,-0.00122 26,0 0,0.00122 0.039,0 0.0774,0.00978 0.0756,0.0194 0.0725,0.02872 0.0683,0.03758 0.0632,0.04585 0.0568,0.0534 0.0497,0.06011 0.0418,0.06586 0.0333,0.07059 0.0241,0.07419 0.0146,0.07663 0.0049,0.07785 -0.0049,0.07785 -0.0146,0.07663 -0.0241,0.07419 -0.0333,0.07059 -0.0418,0.06586 -0.0497,0.06011 -0.0568,0.0534 -0.0632,0.04585 -0.0683,0.03758 -0.0725,0.02872 -0.0756,0.0194 -0.0774,0.00978 -0.039,0 0,0.00122 -26,0 0,-0.00122 -0.039,0 -0.0774,-0.00978 -0.0756,-0.0194 -0.0725,-0.02872 -0.0683,-0.03758 -0.0632,-0.04585 -0.0568,-0.0534 -0.0497,-0.06011 -0.0418,-0.06586 -0.0333,-0.07059 -0.0241,-0.07419 -0.0146,-0.07663 z"
     id="path4182"
     inkscape:connector-curvature="0" />
  <path
     style="fill:none;stroke:#ff0000;stroke-width:0.1;stroke-miterlimit:4;stroke-dasharray:none"
     d="m 34.5288,-8.85 0.0049,-0.07785 0.0146,-0.07663 0.0241,-0.07419 0.0333,-0.07059 0.0418,-0.06586 0.0497,-0.06011 0.0568,-0.0534 0.0632,-0.04585 0.0683,-0.03758 0.0725,-0.02872 0.0756,-0.0194 0.0774,-0.00978 0.039,0 0,-0.00122 26,0 0,0.00122 0.039,0 0.0774,0.00978 0.0756,0.0194 0.0725,0.02872 0.0683,0.03758 0.0632,0.04585 0.0568,0.0534 0.0497,0.06011 0.0418,0.06586 0.0333,0.07059 0.0241,0.07419 0.0146,0.07663 0.0049,0.07785 -0.0049,0.07785 -0.0146,0.07663 -0.0241,0.07419 -0.0333,0.07059 -0.0418,0.06586 -0.0497,0.06011 -0.0568,0.0534 -0.0632,0.04585 -0.0683,0.03758 -0.0725,0.02872 -0.0756,0.0194 -0.0774,0.00978 -0.039,0 0,0.00122 -26,0 0,-0.00122 -0.039,0 -0.0774,-0.00978 -0.0756,-0.0194 -0.0725,-0.02872 -0.0683,-0.03758 -0.0632,-0.04585 -0.0568,-0.0534 -0.0497,-0.06011 -0.0418,-0.06586 -0.0333,-0.07059 -0.0241,-0.07419 -0.0146,-0.07663 z"
     id="path4180"
     inkscape:connector-curvature="0" />
  <path
     style="fill:none;stroke:#ff0000;stroke-width:0.1;stroke-miterlimit:4;stroke-dasharray:none"
     d="m 34.5288,-14.85 0.0049,-0.0779 0.0146,-0.0766 0.0241,-0.0742 0.0333,-0.0706 0.0418,-0.0658 0.0497,-0.0601 0.0568,-0.0534 0.0632,-0.0459 0.0683,-0.0376 0.0725,-0.0287 0.0756,-0.0194 0.0774,-0.0098 0.039,0 0,-0.0012 26,0 0,0.0012 0.039,0 0.0774,0.0098 0.0756,0.0194 0.0725,0.0287 0.0683,0.0376 0.0632,0.0459 0.0568,0.0534 0.0497,0.0601 0.0418,0.0658 0.0333,0.0706 0.0241,0.0742 0.0146,0.0766 0.0049,0.0779 -0.0049,0.0779 -0.0146,0.0766 -0.0241,0.0742 -0.0333,0.0706 -0.0418,0.0658 -0.0497,0.0601 -0.0568,0.0534 -0.0632,0.0459 -0.0683,0.0376 -0.0725,0.0287 -0.0756,0.0194 -0.0774,0.0098 -0.039,0 0,0.0012 -26,0 0,-0.0012 -0.039,0 -0.0774,-0.0098 -0.0756,-0.0194 -0.0725,-0.0287 -0.0683,-0.0376 -0.0632,-0.0459 -0.0568,-0.0534 -0.0497,-0.0601 -0.0418,-0.0658 -0.0333,-0.0706 -0.0241,-0.0742 -0.0146,-0.0766 z"
     id="path4178"
     inkscape:connector-curvature="0" />
  <path
     style="fill:none;stroke:#ff0000;stroke-width:0.1;stroke-miterlimit:4;stroke-dasharray:none"
     d="m 34.5288,-20.85 0.0049,-0.0779 0.0146,-0.0766 0.0241,-0.0742 0.0333,-0.0706 0.0418,-0.0658 0.0497,-0.0601 0.0568,-0.0534 0.0632,-0.0459 0.0683,-0.0376 0.0725,-0.0287 0.0756,-0.0194 0.0774,-0.0098 0.039,0 0,-0.0012 26,0 0,0.0012 0.039,0 0.0774,0.0098 0.0756,0.0194 0.0725,0.0287 0.0683,0.0376 0.0632,0.0459 0.0568,0.0534 0.0497,0.0601 0.0418,0.0658 0.0333,0.0706 0.0241,0.0742 0.0146,0.0766 0.0049,0.0779 -0.0049,0.0779 -0.0146,0.0766 -0.0241,0.0742 -0.0333,0.0706 -0.0418,0.0658 -0.0497,0.0601 -0.0568,0.0534 -0.0632,0.0459 -0.0683,0.0376 -0.0725,0.0287 -0.0756,0.0194 -0.0774,0.0098 -0.039,0 0,0.0012 -26,0 0,-0.0012 -0.039,0 -0.0774,-0.0098 -0.0756,-0.0194 -0.0725,-0.0287 -0.0683,-0.0376 -0.0632,-0.0459 -0.0568,-0.0534 -0.0497,-0.0601 -0.0418,-0.0658 -0.0333,-0.0706 -0.0241,-0.0742 -0.0146,-0.0766 z"
     id="path4176"
     inkscape:connector-curvature="0" />
  <path
     style="fill:none;stroke:#ff0000;stroke-width:0.1;stroke-miterlimit:4;stroke-dasharray:none"
     d="m 50.5288,0.14999999 0.0049,-0.0778542 0.0146,-0.0766268 0.0241,-0.074191 0.0333,-0.070584 0.0418,-0.065865 0.0497,-0.060107 0.0568,-0.0534 0.0632,-0.045853 0.0683,-0.03758 0.0725,-0.028717 0.0756,-0.019401 0.0774,-0.009777 0.039,0 0,-0.001225 26,0 0,0.001225 0.039,0 0.0774,0.009777 0.0756,0.019401 0.0725,0.028717 0.0683,0.03758 0.0632,0.045853 0.0568,0.0534 0.0497,0.060107 0.0418,0.065865 0.0333,0.070584 0.0241,0.074191 0.0146,0.0766268 0.0049,0.0778542 -0.0049,0.0778542 -0.0146,0.0766268 -0.0241,0.074191 -0.0333,0.070584 -0.0418,0.065865 -0.0497,0.060107 -0.0568,0.0534 -0.0632,0.045853 -0.0683,0.03758 -0.0725,0.028717 -0.0756,0.019401 -0.0774,0.009777 -0.039,0 0,0.001225 -26,0 0,-0.001225 -0.039,0 -0.0774,-0.009777 -0.0756,-0.019401 -0.0725,-0.028717 -0.0683,-0.03758 -0.0632,-0.045853 -0.0568,-0.0534 -0.0497,-0.060107 -0.0418,-0.065865 -0.0333,-0.070584 -0.0241,-0.074191 -0.0146,-0.0766268 z"
     id="path4174"
     inkscape:connector-curvature="0" />
  <path
     style="fill:none;stroke:#ff0000;stroke-width:0.1;stroke-miterlimit:4;stroke-dasharray:none"
     d="m 50.5288,-5.85 0.0049,-0.07785 0.0146,-0.07663 0.0241,-0.07419 0.0333,-0.07059 0.0418,-0.06586 0.0497,-0.06011 0.0568,-0.0534 0.0632,-0.04585 0.0683,-0.03758 0.0725,-0.02872 0.0756,-0.0194 0.0774,-0.00978 0.039,0 0,-0.00122 26,0 0,0.00122 0.039,0 0.0774,0.00978 0.0756,0.0194 0.0725,0.02872 0.0683,0.03758 0.0632,0.04585 0.0568,0.0534 0.0497,0.06011 0.0418,0.06586 0.0333,0.07059 0.0241,0.07419 0.0146,0.07663 0.0049,0.07785 -0.0049,0.07785 -0.0146,0.07663 -0.0241,0.07419 -0.0333,0.07059 -0.0418,0.06586 -0.0497,0.06011 -0.0568,0.0534 -0.0632,0.04585 -0.0683,0.03758 -0.0725,0.02872 -0.0756,0.0194 -0.0774,0.00978 -0.039,0 0,0.00122 -26,0 0,-0.00122 -0.039,0 -0.0774,-0.00978 -0.0756,-0.0194 -0.0725,-0.02872 -0.0683,-0.03758 -0.0632,-0.04585 -0.0568,-0.0534 -0.0497,-0.06011 -0.0418,-0.06586 -0.0333,-0.07059 -0.0241,-0.07419 -0.0146,-0.07663 z"
     id="path4172"
     inkscape:connector-curvature="0" />
  <path
     style="fill:none;stroke:#ff0000;stroke-width:0.1;stroke-miterlimit:4;stroke-dasharray:none"
     d="m 50.5288,-11.85 0.0049,-0.0779 0.0146,-0.0766 0.0241,-0.0742 0.0333,-0.0706 0.0418,-0.0658 0.0497,-0.0601 0.0568,-0.0534 0.0632,-0.0459 0.0683,-0.0376 0.0725,-0.0287 0.0756,-0.0194 0.0774,-0.0098 0.039,0 0,-0.0012 26,0 0,0.0012 0.039,0 0.0774,0.0098 0.0756,0.0194 0.0725,0.0287 0.0683,0.0376 0.0632,0.0459 0.0568,0.0534 0.0497,0.0601 0.0418,0.0658 0.0333,0.0706 0.0241,0.0742 0.0146,0.0766 0.0049,0.0779 -0.0049,0.0779 -0.0146,0.0766 -0.0241,0.0742 -0.0333,0.0706 -0.0418,0.0658 -0.0497,0.0601 -0.0568,0.0534 -0.0632,0.0459 -0.0683,0.0376 -0.0725,0.0287 -0.0756,0.0194 -0.0774,0.0098 -0.039,0 0,0.0012 -26,0 0,-0.0012 -0.039,0 -0.0774,-0.0098 -0.0756,-0.0194 -0.0725,-0.0287 -0.0683,-0.0376 -0.0632,-0.0459 -0.0568,-0.0534 -0.0497,-0.0601 -0.0418,-0.0658 -0.0333,-0.0706 -0.0241,-0.0742 -0.0146,-0.0766 z"
     id="path4170"
     inkscape:connector-curvature="0" />
  <path
     style="fill:none;stroke:#ff0000;stroke-width:0.1;stroke-miterlimit:4;stroke-dasharray:none"
     d="m 50.5288,-17.85 0.0049,-0.0779 0.0146,-0.0766 0.0241,-0.0742 0.0333,-0.0706 0.0418,-0.0658 0.0497,-0.0601 0.0568,-0.0534 0.0632,-0.0459 0.0683,-0.0376 0.0725,-0.0287 0.0756,-0.0194 0.0774,-0.0098 0.039,0 0,-0.0012 26,0 0,0.0012 0.039,0 0.0774,0.0098 0.0756,0.0194 0.0725,0.0287 0.0683,0.0376 0.0632,0.0459 0.0568,0.0534 0.0497,0.0601 0.0418,0.0658 0.0333,0.0706 0.0241,0.0742 0.0146,0.0766 0.0049,0.0779 -0.0049,0.0779 -0.0146,0.0766 -0.0241,0.0742 -0.0333,0.0706 -0.0418,0.0658 -0.0497,0.0601 -0.0568,0.0534 -0.0632,0.0459 -0.0683,0.0376 -0.0725,0.0287 -0.0756,0.0194 -0.0774,0.0098 -0.039,0 0,0.0012 -26,0 0,-0.0012 -0.039,0 -0.0774,-0.0098 -0.0756,-0.0194 -0.0725,-0.0287 -0.0683,-0.0376 -0.0632,-0.0459 -0.0568,-0.0534 -0.0497,-0.0601 -0.0418,-0.0658 -0.0333,-0.0706 -0.0241,-0.0742 -0.0146,-0.0766 z"
     id="path4168"
     inkscape:connector-curvature="0" />
  <path
     style="fill:none;stroke:#ff0000;stroke-width:0.1;stroke-miterlimit:4;stroke-dasharray:none"
     d="m 50.5288,-23.85 0.0049,-0.0779 0.0146,-0.0766 0.0241,-0.0742 0.0333,-0.0706 0.0418,-0.0658 0.0497,-0.0601 0.0568,-0.0534 0.0632,-0.0459 0.0683,-0.0376 0.0725,-0.0287 0.0756,-0.0194 0.0774,-0.0098 0.039,0 0,-0.0012 26,0 0,0.0012 0.039,0 0.0774,0.0098 0.0756,0.0194 0.0725,0.0287 0.0683,0.0376 0.0632,0.0459 0.0568,0.0534 0.0497,0.0601 0.0418,0.0658 0.0333,0.0706 0.0241,0.0742 0.0146,0.0766 0.0049,0.0779 -0.0049,0.0779 -0.0146,0.0766 -0.0241,0.0742 -0.0333,0.0706 -0.0418,0.0658 -0.0497,0.0601 -0.0568,0.0534 -0.0632,0.0459 -0.0683,0.0376 -0.0725,0.0287 -0.0756,0.0194 -0.0774,0.0098 -0.039,0 0,0.0012 -26,0 0,-0.0012 -0.039,0 -0.0774,-0.0098 -0.0756,-0.0194 -0.0725,-0.0287 -0.0683,-0.0376 -0.0632,-0.0459 -0.0568,-0.0534 -0.0497,-0.0601 -0.0418,-0.0658 -0.0333,-0.0706 -0.0241,-0.0742 -0.0146,-0.0766 z"
     id="path4166"
     inkscape:connector-curvature="0" />
  <path
     style="fill:none;stroke:#ff0000;stroke-width:0.1;stroke-miterlimit:4;stroke-dasharray:none"
     d="m 66.5288,-2.85 0.0049,-0.07785 0.0146,-0.07663 0.0241,-0.07419 0.0333,-0.07059 0.0418,-0.06586 0.0497,-0.06011 0.0568,-0.0534 0.0632,-0.04585 0.0683,-0.03758 0.0725,-0.02872 0.0756,-0.0194 0.0774,-0.00978 0.039,0 0,-0.00122 26,0 0,0.00122 0.039,0 0.0774,0.00978 0.0756,0.0194 0.0725,0.02872 0.0683,0.03758 0.0632,0.04585 0.0568,0.0534 0.0497,0.06011 0.0418,0.06586 0.0333,0.07059 0.0241,0.07419 0.0146,0.07663 0.0049,0.07785 -0.0049,0.07785 -0.0146,0.07663 -0.0241,0.07419 -0.0333,0.07059 -0.0418,0.06586 -0.0497,0.06011 -0.0568,0.0534 -0.0632,0.04585 -0.0683,0.03758 -0.0725,0.02872 -0.0756,0.0194 -0.0774,0.00978 -0.039,0 0,0.00122 -26,0 0,-0.00122 -0.039,0 -0.0774,-0.00978 -0.0756,-0.0194 -0.0725,-0.02872 -0.0683,-0.03758 -0.0632,-0.04585 -0.0568,-0.0534 -0.0497,-0.06011 -0.0418,-0.06586 -0.0333,-0.07059 -0.0241,-0.07419 -0.0146,-0.07663 z"
     id="path4164"
     inkscape:connector-curvature="0" />
  <path
     style="fill:none;stroke:#ff0000;stroke-width:0.1;stroke-miterlimit:4;stroke-dasharray:none"
     d="m 66.5288,-8.85 0.0049,-0.07785 0.0146,-0.07663 0.0241,-0.07419 0.0333,-0.07059 0.0418,-0.06586 0.0497,-0.06011 0.0568,-0.0534 0.0632,-0.04585 0.0683,-0.03758 0.0725,-0.02872 0.0756,-0.0194 0.0774,-0.00978 0.039,0 0,-0.00122 26,0 0,0.00122 0.039,0 0.0774,0.00978 0.0756,0.0194 0.0725,0.02872 0.0683,0.03758 0.0632,0.04585 0.0568,0.0534 0.0497,0.06011 0.0418,0.06586 0.0333,0.07059 0.0241,0.07419 0.0146,0.07663 0.0049,0.07785 -0.0049,0.07785 -0.0146,0.07663 -0.0241,0.07419 -0.0333,0.07059 -0.0418,0.06586 -0.0497,0.06011 -0.0568,0.0534 -0.0632,0.04585 -0.0683,0.03758 -0.0725,0.02872 -0.0756,0.0194 -0.0774,0.00978 -0.039,0 0,0.00122 -26,0 0,-0.00122 -0.039,0 -0.0774,-0.00978 -0.0756,-0.0194 -0.0725,-0.02872 -0.0683,-0.03758 -0.0632,-0.04585 -0.0568,-0.0534 -0.0497,-0.06011 -0.0418,-0.06586 -0.0333,-0.07059 -0.0241,-0.07419 -0.0146,-0.07663 z"
     id="path4162"
     inkscape:connector-curvature="0" />
  <path
     style="fill:none;stroke:#ff0000;stroke-width:0.1;stroke-miterlimit:4;stroke-dasharray:none"
     d="m 66.5288,-14.85 0.0049,-0.0779 0.0146,-0.0766 0.0241,-0.0742 0.0333,-0.0706 0.0418,-0.0658 0.0497,-0.0601 0.0568,-0.0534 0.0632,-0.0459 0.0683,-0.0376 0.0725,-0.0287 0.0756,-0.0194 0.0774,-0.0098 0.039,0 0,-0.0012 26,0 0,0.0012 0.039,0 0.0774,0.0098 0.0756,0.0194 0.0725,0.0287 0.0683,0.0376 0.0632,0.0459 0.0568,0.0534 0.0497,0.0601 0.0418,0.0658 0.0333,0.0706 0.0241,0.0742 0.0146,0.0766 0.0049,0.0779 -0.0049,0.0779 -0.0146,0.0766 -0.0241,0.0742 -0.0333,0.0706 -0.0418,0.0658 -0.0497,0.0601 -0.0568,0.0534 -0.0632,0.0459 -0.0683,0.0376 -0.0725,0.0287 -0.0756,0.0194 -0.0774,0.0098 -0.039,0 0,0.0012 -26,0 0,-0.0012 -0.039,0 -0.0774,-0.0098 -0.0756,-0.0194 -0.0725,-0.0287 -0.0683,-0.0376 -0.0632,-0.0459 -0.0568,-0.0534 -0.0497,-0.0601 -0.0418,-0.0658 -0.0333,-0.0706 -0.0241,-0.0742 -0.0146,-0.0766 z"
     id="path4160"
     inkscape:connector-curvature="0" />
  <path
     style="fill:none;stroke:#ff0000;stroke-width:0.1;stroke-miterlimit:4;stroke-dasharray:none"
     d="m 66.5288,-20.85 0.0049,-0.0779 0.0146,-0.0766 0.0241,-0.0742 0.0333,-0.0706 0.0418,-0.0658 0.0497,-0.0601 0.0568,-0.0534 0.0632,-0.0459 0.0683,-0.0376 0.0725,-0.0287 0.0756,-0.0194 0.0774,-0.0098 0.039,0 0,-0.0012 26,0 0,0.0012 0.039,0 0.0774,0.0098 0.0756,0.0194 0.0725,0.0287 0.0683,0.0376 0.0632,0.0459 0.0568,0.0534 0.0497,0.0601 0.0418,0.0658 0.0333,0.0706 0.0241,0.0742 0.0146,0.0766 0.0049,0.0779 -0.0049,0.0779 -0.0146,0.0766 -0.0241,0.0742 -0.0333,0.0706 -0.0418,0.0658 -0.0497,0.0601 -0.0568,0.0534 -0.0632,0.0459 -0.0683,0.0376 -0.0725,0.0287 -0.0756,0.0194 -0.0774,0.0098 -0.039,0 0,0.0012 -26,0 0,-0.0012 -0.039,0 -0.0774,-0.0098 -0.0756,-0.0194 -0.0725,-0.0287 -0.0683,-0.0376 -0.0632,-0.0459 -0.0568,-0.0534 -0.0497,-0.0601 -0.0418,-0.0658 -0.0333,-0.0706 -0.0241,-0.0742 -0.0146,-0.0766 z"
     id="path4158"
     inkscape:connector-curvature="0" />
  <path
     style="fill:none;stroke:#ff0000;stroke-width:0.1;stroke-miterlimit:4;stroke-dasharray:none"
     d="m 82.5288,0.14999999 0.0049,-0.0778542 0.0146,-0.0766268 0.0241,-0.074191 0.0333,-0.070584 0.0418,-0.065865 0.0497,-0.060107 0.0568,-0.0534 0.0632,-0.045853 0.0683,-0.03758 0.0725,-0.028717 0.0756,-0.019401 0.0774,-0.009777 0.039,0 0,-0.001225 26,0 0,0.001225 0.039,0 0.077,0.009777 0.076,0.019401 0.072,0.028717 0.069,0.03758 0.063,0.045853 0.057,0.0534 0.05,0.060107 0.041,0.065865 0.034,0.070584 0.024,0.074191 0.014,0.0766268 0.005,0.0778542 -0.005,0.0778542 -0.014,0.0766268 -0.024,0.074191 -0.034,0.070584 -0.041,0.065865 -0.05,0.060107 -0.057,0.0534 -0.063,0.045853 -0.069,0.03758 -0.072,0.028717 -0.076,0.019401 -0.077,0.009777 -0.039,0 0,0.001225 -26,0 0,-0.001225 -0.039,0 -0.0774,-0.009777 -0.0756,-0.019401 -0.0725,-0.028717 -0.0683,-0.03758 -0.0632,-0.045853 -0.0568,-0.0534 -0.0497,-0.060107 -0.0418,-0.065865 -0.0333,-0.070584 -0.0241,-0.074191 -0.0146,-0.0766268 z"
     id="path4156"
     inkscape:connector-curvature="0" />
  <path
     style="fill:none;stroke:#ff0000;stroke-width:0.1;stroke-miterlimit:4;stroke-dasharray:none"
     d="m 82.5288,-5.85 0.0049,-0.07785 0.0146,-0.07663 0.0241,-0.07419 0.0333,-0.07059 0.0418,-0.06586 0.0497,-0.06011 0.0568,-0.0534 0.0632,-0.04585 0.0683,-0.03758 0.0725,-0.02872 0.0756,-0.0194 0.0774,-0.00978 0.039,0 0,-0.00122 26,0 0,0.00122 0.039,0 0.077,0.00978 0.076,0.0194 0.072,0.02872 0.069,0.03758 0.063,0.04585 0.057,0.0534 0.05,0.06011 0.041,0.06586 0.034,0.07059 0.024,0.07419 0.014,0.07663 0.005,0.07785 -0.005,0.07785 -0.014,0.07663 -0.024,0.07419 -0.034,0.07059 -0.041,0.06586 -0.05,0.06011 -0.057,0.0534 -0.063,0.04585 -0.069,0.03758 -0.072,0.02872 -0.076,0.0194 -0.077,0.00978 -0.039,0 0,0.00122 -26,0 0,-0.00122 -0.039,0 -0.0774,-0.00978 -0.0756,-0.0194 -0.0725,-0.02872 -0.0683,-0.03758 -0.0632,-0.04585 -0.0568,-0.0534 -0.0497,-0.06011 -0.0418,-0.06586 -0.0333,-0.07059 -0.0241,-0.07419 -0.0146,-0.07663 z"
     id="path4154"
     inkscape:connector-curvature="0" />
  <path
     style="fill:none;stroke:#ff0000;stroke-width:0.1;stroke-miterlimit:4;stroke-dasharray:none"
     d="m 82.5288,-11.85 0.0049,-0.0779 0.0146,-0.0766 0.0241,-0.0742 0.0333,-0.0706 0.0418,-0.0658 0.0497,-0.0601 0.0568,-0.0534 0.0632,-0.0459 0.0683,-0.0376 0.0725,-0.0287 0.0756,-0.0194 0.0774,-0.0098 0.039,0 0,-0.0012 26,0 0,0.0012 0.039,0 0.077,0.0098 0.076,0.0194 0.072,0.0287 0.069,0.0376 0.063,0.0459 0.057,0.0534 0.05,0.0601 0.041,0.0658 0.034,0.0706 0.024,0.0742 0.014,0.0766 0.005,0.0779 -0.005,0.0779 -0.014,0.0766 -0.024,0.0742 -0.034,0.0706 -0.041,0.0658 -0.05,0.0601 -0.057,0.0534 -0.063,0.0459 -0.069,0.0376 -0.072,0.0287 -0.076,0.0194 -0.077,0.0098 -0.039,0 0,0.0012 -26,0 0,-0.0012 -0.039,0 -0.0774,-0.0098 -0.0756,-0.0194 -0.0725,-0.0287 -0.0683,-0.0376 -0.0632,-0.0459 -0.0568,-0.0534 -0.0497,-0.0601 -0.0418,-0.0658 -0.0333,-0.0706 -0.0241,-0.0742 -0.0146,-0.0766 z"
     id="path4152"
     inkscape:connector-curvature="0" />
  <path
     style="fill:none;stroke:#ff0000;stroke-width:0.1;stroke-miterlimit:4;stroke-dasharray:none"
     d="m 82.5288,-17.85 0.0049,-0.0779 0.0146,-0.0766 0.0241,-0.0742 0.0333,-0.0706 0.0418,-0.0658 0.0497,-0.0601 0.0568,-0.0534 0.0632,-0.0459 0.0683,-0.0376 0.0725,-0.0287 0.0756,-0.0194 0.0774,-0.0098 0.039,0 0,-0.0012 26,0 0,0.0012 0.039,0 0.077,0.0098 0.076,0.0194 0.072,0.0287 0.069,0.0376 0.063,0.0459 0.057,0.0534 0.05,0.0601 0.041,0.0658 0.034,0.0706 0.024,0.0742 0.014,0.0766 0.005,0.0779 -0.005,0.0779 -0.014,0.0766 -0.024,0.0742 -0.034,0.0706 -0.041,0.0658 -0.05,0.0601 -0.057,0.0534 -0.063,0.0459 -0.069,0.0376 -0.072,0.0287 -0.076,0.0194 -0.077,0.0098 -0.039,0 0,0.0012 -26,0 0,-0.0012 -0.039,0 -0.0774,-0.0098 -0.0756,-0.0194 -0.0725,-0.0287 -0.0683,-0.0376 -0.0632,-0.0459 -0.0568,-0.0534 -0.0497,-0.0601 -0.0418,-0.0658 -0.0333,-0.0706 -0.0241,-0.0742 -0.0146,-0.0766 z"
     id="path4150"
     inkscape:connector-curvature="0" />
  <path
     style="fill:none;stroke:#ff0000;stroke-width:0.1;stroke-miterlimit:4;stroke-dasharray:none"
     d="m 82.5288,-23.85 0.0049,-0.0779 0.0146,-0.0766 0.0241,-0.0742 0.0333,-0.0706 0.0418,-0.0658 0.0497,-0.0601 0.0568,-0.0534 0.0632,-0.0459 0.0683,-0.0376 0.0725,-0.0287 0.0756,-0.0194 0.0774,-0.0098 0.039,0 0,-0.0012 26,0 0,0.0012 0.039,0 0.077,0.0098 0.076,0.0194 0.072,0.0287 0.069,0.0376 0.063,0.0459 0.057,0.0534 0.05,0.0601 0.041,0.0658 0.034,0.0706 0.024,0.0742 0.014,0.0766 0.005,0.0779 -0.005,0.0779 -0.014,0.0766 -0.024,0.0742 -0.034,0.0706 -0.041,0.0658 -0.05,0.0601 -0.057,0.0534 -0.063,0.0459 -0.069,0.0376 -0.072,0.0287 -0.076,0.0194 -0.077,0.0098 -0.039,0 0,0.0012 -26,0 0,-0.0012 -0.039,0 -0.0774,-0.0098 -0.0756,-0.0194 -0.0725,-0.0287 -0.0683,-0.0376 -0.0632,-0.0459 -0.0568,-0.0534 -0.0497,-0.0601 -0.0418,-0.0658 -0.0333,-0.0706 -0.0241,-0.0742 -0.0146,-0.0766 z"
     id="path4140"
     inkscape:connector-curvature="0" />
</svg>
