<?xml version="1.0" standalone="no"?>
<!DOCTYPE svg PUBLIC "-//W3C//DTD SVG 1.1//EN" "http://www.w3.org/Graphics/SVG/1.1/DTD/svg11.dtd">
<svg width="45" height="78" viewBox="-18 -42 45 78" xmlns="http://www.w3.org/2000/svg" version="1.1">
<title>OpenSCAD Model</title>
<path d="
M -17.4,30.55 L -15.4,30.55 L -15.4,30.5 L -13.1,30.5 L -13.1,30.85 L -12.2,30.85
 L -12.2,29.15 L -13.1,29.15 L -13.1,29.5 L -15.4,29.5 L -15.4,18.5 L -13.1,18.5
 L -13.1,18.85 L -12.2,18.85 L -12.2,17.15 L -13.1,17.15 L -13.1,17.5 L -15.4,17.5
 L -15.4,6.5 L -13.1,6.5 L -13.1,6.85 L -12.2,6.85 L -12.2,5.15 L -13.1,5.15
 L -13.1,5.5 L -15.4,5.5 L -15.4,-5.5 L -13.1,-5.5 L -13.1,-5.15 L -12.2,-5.15
 L -12.2,-6.85 L -13.1,-6.85 L -13.1,-6.5 L -15.4,-6.5 L -15.4,-17.5 L -13.1,-17.5
 L -13.1,-17.15 L -12.2,-17.15 L -12.2,-18.85 L -13.1,-18.85 L -13.1,-18.5 L -15.4,-18.5
 L -15.4,-29.5 L -13.1,-29.5 L -13.1,-29.15 L -12.2,-29.15 L -12.2,-30.85 L -13.1,-30.85
 L -13.1,-30.5 L -15.4,-30.5 L -15.4,-41.55 L -17.4,-41.55 z
M -12.85,35.3 L -7.15,35.3 L -7.15,31.3 L -9.87,31.3 L -9.87,30.85 L -9.195,30.85
 L -9.195,29.15 L -9.87,29.15 L -9.87,28.7 L -7.15,28.7 L -7.15,24.7 L -12.85,24.7
 L -12.85,28.7 L -10.77,28.7 L -10.77,29.15 L -11.445,29.15 L -11.445,30.85 L -10.77,30.85
 L -10.77,31.3 L -12.85,31.3 z
M -12.85,23.3 L -7.15,23.3 L -7.15,19.3 L -9.87,19.3 L -9.87,18.85 L -9.195,18.85
 L -9.195,17.15 L -9.87,17.15 L -9.87,16.7 L -7.15,16.7 L -7.15,12.7 L -12.85,12.7
 L -12.85,16.7 L -10.77,16.7 L -10.77,17.15 L -11.445,17.15 L -11.445,18.85 L -10.77,18.85
 L -10.77,19.3 L -12.85,19.3 z
M -12.85,11.3 L -7.15,11.3 L -7.15,7.3 L -9.87,7.3 L -9.87,6.85 L -9.195,6.85
 L -9.195,5.15 L -9.87,5.15 L -9.87,4.7 L -7.15,4.7 L -7.15,0.700001 L -12.85,0.700001
 L -12.85,4.7 L -10.77,4.7 L -10.77,5.15 L -11.445,5.15 L -11.445,6.85 L -10.77,6.85
 L -10.77,7.3 L -12.85,7.3 z
M -12.85,-0.700001 L -7.15,-0.700001 L -7.15,-4.7 L -9.87,-4.7 L -9.87,-5.15 L -9.195,-5.15
 L -9.195,-6.85 L -9.87,-6.85 L -9.87,-7.3 L -7.15,-7.3 L -7.15,-11.3 L -12.85,-11.3
 L -12.85,-7.3 L -10.77,-7.3 L -10.77,-6.85 L -11.445,-6.85 L -11.445,-5.15 L -10.77,-5.15
 L -10.77,-4.7 L -12.85,-4.7 z
M -12.85,-12.7 L -7.15,-12.7 L -7.15,-16.7 L -9.87,-16.7 L -9.87,-17.15 L -9.195,-17.15
 L -9.195,-18.85 L -9.87,-18.85 L -9.87,-19.3 L -7.15,-19.3 L -7.15,-23.3 L -12.85,-23.3
 L -12.85,-19.3 L -10.77,-19.3 L -10.77,-18.85 L -11.445,-18.85 L -11.445,-17.15 L -10.77,-17.15
 L -10.77,-16.7 L -12.85,-16.7 z
M -12.85,-24.7 L -7.15,-24.7 L -7.15,-28.7 L -9.87,-28.7 L -9.87,-29.15 L -9.195,-29.15
 L -9.195,-30.85 L -9.87,-30.85 L -9.87,-31.3 L -7.15,-31.3 L -7.15,-35.3 L -12.85,-35.3
 L -12.85,-31.3 L -10.77,-31.3 L -10.77,-30.85 L -11.445,-30.85 L -11.445,-29.15 L -10.77,-29.15
 L -10.77,-28.7 L -12.85,-28.7 z
M -7.8,30.85 L -6.9,30.85 L -6.9,30.5 L -3.1,30.5 L -3.1,30.85 L -2.2,30.85
 L -2.2,29.15 L -3.1,29.15 L -3.1,29.5 L -6.9,29.5 L -6.9,29.15 L -7.8,29.15
 z
M -7.8,18.85 L -6.9,18.85 L -6.9,18.5 L -3.1,18.5 L -3.1,18.85 L -2.2,18.85
 L -2.2,17.15 L -3.1,17.15 L -3.1,17.5 L -6.9,17.5 L -6.9,17.15 L -7.8,17.15
 z
M -7.8,6.85 L -6.9,6.85 L -6.9,6.5 L -3.1,6.5 L -3.1,6.85 L -2.2,6.85
 L -2.2,5.15 L -3.1,5.15 L -3.1,5.5 L -6.9,5.5 L -6.9,5.15 L -7.8,5.15
 z
M -7.8,-5.15 L -6.9,-5.15 L -6.9,-5.5 L -3.1,-5.5 L -3.1,-5.15 L -2.2,-5.15
 L -2.2,-6.85 L -3.1,-6.85 L -3.1,-6.5 L -6.9,-6.5 L -6.9,-6.85 L -7.8,-6.85
 z
M -7.8,-17.15 L -6.9,-17.15 L -6.9,-17.5 L -3.1,-17.5 L -3.1,-17.15 L -2.2,-17.15
 L -2.2,-18.85 L -3.1,-18.85 L -3.1,-18.5 L -6.9,-18.5 L -6.9,-18.85 L -7.8,-18.85
 z
M -7.8,-29.15 L -6.9,-29.15 L -6.9,-29.5 L -3.1,-29.5 L -3.1,-29.15 L -2.2,-29.15
 L -2.2,-30.85 L -3.1,-30.85 L -3.1,-30.5 L -6.9,-30.5 L -6.9,-30.85 L -7.8,-30.85
 z
M -2.85,35.3 L 2.85,35.3 L 2.85,31.3 L 0.13,31.3 L 0.13,30.85 L 0.805,30.85
 L 0.805,29.15 L 0.13,29.15 L 0.13,28.7 L 2.85,28.7 L 2.85,24.7 L -2.85,24.7
 L -2.85,28.7 L -0.77,28.7 L -0.77,29.15 L -1.445,29.15 L -1.445,30.85 L -0.77,30.85
 L -0.77,31.3 L -2.85,31.3 z
M -2.85,23.3 L 2.85,23.3 L 2.85,19.3 L 0.13,19.3 L 0.13,18.85 L 0.805,18.85
 L 0.805,17.15 L 0.13,17.15 L 0.13,16.7 L 2.85,16.7 L 2.85,12.7 L -2.85,12.7
 L -2.85,16.7 L -0.77,16.7 L -0.77,17.15 L -1.445,17.15 L -1.445,18.85 L -0.77,18.85
 L -0.77,19.3 L -2.85,19.3 z
M -2.85,11.3 L 2.85,11.3 L 2.85,7.3 L 0.13,7.3 L 0.13,6.85 L 0.805,6.85
 L 0.805,5.15 L 0.13,5.15 L 0.13,4.7 L 2.85,4.7 L 2.85,0.700001 L -2.85,0.700001
 L -2.85,4.7 L -0.77,4.7 L -0.77,5.15 L -1.445,5.15 L -1.445,6.85 L -0.77,6.85
 L -0.77,7.3 L -2.85,7.3 z
M -2.85,-0.700001 L 2.85,-0.700001 L 2.85,-4.7 L 0.13,-4.7 L 0.13,-5.15 L 0.805,-5.15
 L 0.805,-6.85 L 0.13,-6.85 L 0.13,-7.3 L 2.85,-7.3 L 2.85,-11.3 L -2.85,-11.3
 L -2.85,-7.3 L -0.77,-7.3 L -0.77,-6.85 L -1.445,-6.85 L -1.445,-5.15 L -0.77,-5.15
 L -0.77,-4.7 L -2.85,-4.7 z
M -2.85,-12.7 L 2.85,-12.7 L 2.85,-16.7 L 0.13,-16.7 L 0.13,-17.15 L 0.805,-17.15
 L 0.805,-18.85 L 0.13,-18.85 L 0.13,-19.3 L 2.85,-19.3 L 2.85,-23.3 L -2.85,-23.3
 L -2.85,-19.3 L -0.77,-19.3 L -0.77,-18.85 L -1.445,-18.85 L -1.445,-17.15 L -0.77,-17.15
 L -0.77,-16.7 L -2.85,-16.7 z
M -2.85,-24.7 L 2.85,-24.7 L 2.85,-28.7 L 0.13,-28.7 L 0.13,-29.15 L 0.805,-29.15
 L 0.805,-30.85 L 0.13,-30.85 L 0.13,-31.3 L 2.85,-31.3 L 2.85,-35.3 L -2.85,-35.3
 L -2.85,-31.3 L -0.77,-31.3 L -0.77,-30.85 L -1.445,-30.85 L -1.445,-29.15 L -0.77,-29.15
 L -0.77,-28.7 L -2.85,-28.7 z
M 2.2,30.85 L 3.1,30.85 L 3.1,30.5 L 6.9,30.5 L 6.9,30.85 L 7.8,30.85
 L 7.8,29.15 L 6.9,29.15 L 6.9,29.5 L 3.1,29.5 L 3.1,29.15 L 2.2,29.15
 z
M 2.2,18.85 L 3.1,18.85 L 3.1,18.5 L 6.9,18.5 L 6.9,18.85 L 7.8,18.85
 L 7.8,17.15 L 6.9,17.15 L 6.9,17.5 L 3.1,17.5 L 3.1,17.15 L 2.2,17.15
 z
M 2.2,6.85 L 3.1,6.85 L 3.1,6.5 L 6.9,6.5 L 6.9,6.85 L 7.8,6.85
 L 7.8,5.15 L 6.9,5.15 L 6.9,5.5 L 3.1,5.5 L 3.1,5.15 L 2.2,5.15
 z
M 2.2,-5.15 L 3.1,-5.15 L 3.1,-5.5 L 6.9,-5.5 L 6.9,-5.15 L 7.8,-5.15
 L 7.8,-6.85 L 6.9,-6.85 L 6.9,-6.5 L 3.1,-6.5 L 3.1,-6.85 L 2.2,-6.85
 z
M 2.2,-17.15 L 3.1,-17.15 L 3.1,-17.5 L 6.9,-17.5 L 6.9,-17.15 L 7.8,-17.15
 L 7.8,-18.85 L 6.9,-18.85 L 6.9,-18.5 L 3.1,-18.5 L 3.1,-18.85 L 2.2,-18.85
 z
M 2.2,-29.15 L 3.1,-29.15 L 3.1,-29.5 L 6.9,-29.5 L 6.9,-29.15 L 7.8,-29.15
 L 7.8,-30.85 L 6.9,-30.85 L 6.9,-30.5 L 3.1,-30.5 L 3.1,-30.85 L 2.2,-30.85
 z
M 7.15,35.3 L 12.85,35.3 L 12.85,31.3 L 10.13,31.3 L 10.13,30.85 L 10.805,30.85
 L 10.805,29.15 L 10.13,29.15 L 10.13,28.7 L 12.85,28.7 L 12.85,24.7 L 7.15,24.7
 L 7.15,28.7 L 9.23,28.7 L 9.23,29.15 L 8.555,29.15 L 8.555,30.85 L 9.23,30.85
 L 9.23,31.3 L 7.15,31.3 z
M 7.15,23.3 L 12.85,23.3 L 12.85,19.3 L 10.13,19.3 L 10.13,18.85 L 10.805,18.85
 L 10.805,17.15 L 10.13,17.15 L 10.13,16.7 L 12.85,16.7 L 12.85,12.7 L 7.15,12.7
 L 7.15,16.7 L 9.23,16.7 L 9.23,17.15 L 8.555,17.15 L 8.555,18.85 L 9.23,18.85
 L 9.23,19.3 L 7.15,19.3 z
M 7.15,11.3 L 12.85,11.3 L 12.85,7.3 L 10.13,7.3 L 10.13,6.85 L 10.805,6.85
 L 10.805,5.15 L 10.13,5.15 L 10.13,4.7 L 12.85,4.7 L 12.85,0.700001 L 7.15,0.700001
 L 7.15,4.7 L 9.23,4.7 L 9.23,5.15 L 8.555,5.15 L 8.555,6.85 L 9.23,6.85
 L 9.23,7.3 L 7.15,7.3 z
M 7.15,-0.700001 L 12.85,-0.700001 L 12.85,-4.7 L 10.13,-4.7 L 10.13,-5.15 L 10.805,-5.15
 L 10.805,-6.85 L 10.13,-6.85 L 10.13,-7.3 L 12.85,-7.3 L 12.85,-11.3 L 7.15,-11.3
 L 7.15,-7.3 L 9.23,-7.3 L 9.23,-6.85 L 8.555,-6.85 L 8.555,-5.15 L 9.23,-5.15
 L 9.23,-4.7 L 7.15,-4.7 z
M 7.15,-12.7 L 12.85,-12.7 L 12.85,-16.7 L 10.13,-16.7 L 10.13,-17.15 L 10.805,-17.15
 L 10.805,-18.85 L 10.13,-18.85 L 10.13,-19.3 L 12.85,-19.3 L 12.85,-23.3 L 7.15,-23.3
 L 7.15,-19.3 L 9.23,-19.3 L 9.23,-18.85 L 8.555,-18.85 L 8.555,-17.15 L 9.23,-17.15
 L 9.23,-16.7 L 7.15,-16.7 z
M 7.15,-24.7 L 12.85,-24.7 L 12.85,-28.7 L 10.13,-28.7 L 10.13,-29.15 L 10.805,-29.15
 L 10.805,-30.85 L 10.13,-30.85 L 10.13,-31.3 L 12.85,-31.3 L 12.85,-35.3 L 7.15,-35.3
 L 7.15,-31.3 L 9.23,-31.3 L 9.23,-30.85 L 8.555,-30.85 L 8.555,-29.15 L 9.23,-29.15
 L 9.23,-28.7 L 7.15,-28.7 z
M 12.2,30.85 L 13.1,30.85 L 13.1,30.5 L 14.1,30.5 L 14.1,31.4 L 15,31.4
 L 15,28.6 L 14.1,28.6 L 14.1,29.5 L 13.1,29.5 L 13.1,29.15 L 12.2,29.15
 z
M 12.2,18.85 L 13.1,18.85 L 13.1,18.5 L 14.1,18.5 L 14.1,19.4 L 15,19.4
 L 15,16.6 L 14.1,16.6 L 14.1,17.5 L 13.1,17.5 L 13.1,17.15 L 12.2,17.15
 z
M 12.2,6.85 L 13.1,6.85 L 13.1,6.5 L 14.1,6.5 L 14.1,7.4 L 15,7.4
 L 15,4.6 L 14.1,4.6 L 14.1,5.5 L 13.1,5.5 L 13.1,5.15 L 12.2,5.15
 z
M 12.2,-5.15 L 13.1,-5.15 L 13.1,-5.5 L 14.1,-5.5 L 14.1,-4.6 L 15,-4.6
 L 15,-7.4 L 14.1,-7.4 L 14.1,-6.5 L 13.1,-6.5 L 13.1,-6.85 L 12.2,-6.85
 z
M 12.2,-17.15 L 13.1,-17.15 L 13.1,-17.5 L 14.1,-17.5 L 14.1,-16.6 L 15,-16.6
 L 15,-19.4 L 14.1,-19.4 L 14.1,-18.5 L 13.1,-18.5 L 13.1,-18.85 L 12.2,-18.85
 z
M 12.2,-29.15 L 13.1,-29.15 L 13.1,-29.5 L 14.1,-29.5 L 14.1,-28.6 L 15,-28.6
 L 15,-31.4 L 14.1,-31.4 L 14.1,-30.5 L 13.1,-30.5 L 13.1,-30.85 L 12.2,-30.85
 z
M 17,31.4 L 17.9,31.4 L 17.9,30.5 L 19.5,30.5 L 19.5,30.45 L 19.9,30.45
 L 19.9,29.55 L 19.5,29.55 L 19.5,29.5 L 17.9,29.5 L 17.9,28.6 L 17,28.6
 z
M 17,19.4 L 17.9,19.4 L 17.9,18.5 L 19.5,18.5 L 19.5,18.45 L 19.9,18.45
 L 19.9,17.55 L 19.5,17.55 L 19.5,17.5 L 17.9,17.5 L 17.9,16.6 L 17,16.6
 z
M 17,7.4 L 17.9,7.4 L 17.9,6.5 L 19.5,6.5 L 19.5,6.45 L 19.9,6.45
 L 19.9,5.55 L 19.5,5.55 L 19.5,5.5 L 17.9,5.5 L 17.9,4.6 L 17,4.6
 z
M 17,-4.6 L 17.9,-4.6 L 17.9,-5.5 L 19.5,-5.5 L 19.5,-5.55 L 19.9,-5.55
 L 19.9,-6.45 L 19.5,-6.45 L 19.5,-6.5 L 17.9,-6.5 L 17.9,-7.4 L 17,-7.4
 z
M 17,-16.6 L 17.9,-16.6 L 17.9,-17.5 L 19.5,-17.5 L 19.5,-17.55 L 19.9,-17.55
 L 19.9,-18.45 L 19.5,-18.45 L 19.5,-18.5 L 17.9,-18.5 L 17.9,-19.4 L 17,-19.4
 z
M 17,-28.6 L 17.9,-28.6 L 17.9,-29.5 L 19.5,-29.5 L 19.5,-29.55 L 19.9,-29.55
 L 19.9,-30.45 L 19.5,-30.45 L 19.5,-30.5 L 17.9,-30.5 L 17.9,-31.4 L 17,-31.4
 z
M 21.1,31.4 L 21.5,31.4 L 21.5,31.45 L 27,31.45 L 27,-40.65 L 25,-40.65
 L 25,-29.55 L 21.5,-29.55 L 21.5,-29.5 L 21.1,-29.5 L 21.1,-28.6 L 21.5,-28.6
 L 21.5,-28.55 L 25,-28.55 L 25,-17.55 L 21.5,-17.55 L 21.5,-17.5 L 21.1,-17.5
 L 21.1,-16.6 L 21.5,-16.6 L 21.5,-16.55 L 25,-16.55 L 25,-5.55 L 21.5,-5.55
 L 21.5,-5.5 L 21.1,-5.5 L 21.1,-4.6 L 21.5,-4.6 L 21.5,-4.55 L 25,-4.55
 L 25,6.45 L 21.5,6.45 L 21.5,6.5 L 21.1,6.5 L 21.1,7.4 L 21.5,7.4
 L 21.5,7.45 L 25,7.45 L 25,18.45 L 21.5,18.45 L 21.5,18.5 L 21.1,18.5
 L 21.1,19.4 L 21.5,19.4 L 21.5,19.45 L 25,19.45 L 25,30.45 L 21.5,30.45
 L 21.5,30.5 L 21.1,30.5 z
M 21.1,29.5 L 21.5,29.5 L 21.5,29.55 L 24,29.55 L 24,28.55 L 21.5,28.55
 L 21.5,28.6 L 21.1,28.6 z
M 21.1,17.5 L 21.5,17.5 L 21.5,17.55 L 24,17.55 L 24,16.55 L 21.5,16.55
 L 21.5,16.6 L 21.1,16.6 z
M 21.1,5.5 L 21.5,5.5 L 21.5,5.55 L 24,5.55 L 24,4.55 L 21.5,4.55
 L 21.5,4.6 L 21.1,4.6 z
M 21.1,-6.5 L 21.5,-6.5 L 21.5,-6.45 L 24,-6.45 L 24,-7.45 L 21.5,-7.45
 L 21.5,-7.4 L 21.1,-7.4 z
M 21.1,-18.5 L 21.5,-18.5 L 21.5,-18.45 L 24,-18.45 L 24,-19.45 L 21.5,-19.45
 L 21.5,-19.4 L 21.1,-19.4 z
M 21.1,-30.5 L 21.5,-30.5 L 21.5,-30.45 L 24,-30.45 L 24,-31.45 L 21.5,-31.45
 L 21.5,-31.4 L 21.1,-31.4 z
" stroke="black" fill="lightgray" stroke-width="0.5"/></svg>
