<?xml version="1.0" standalone="no"?>
<!DOCTYPE svg PUBLIC "-//W3C//DTD SVG 1.1//EN" "http://www.w3.org/Graphics/SVG/1.1/DTD/svg11.dtd">
<svg width="25" height="87" viewBox="-10 -46 25 87" xmlns="http://www.w3.org/2000/svg" version="1.1">
<title>OpenSCAD Model</title>
<path d="
M -9.7,-26.5 L -9.7,-21.5 L -6.7,-21.5 L -6.7,-23.55 L -6.25,-23.55 L -6.25,-23.5
 L -3.75,-23.5 L -3.75,-23.55 L -3.3,-23.55 L -3.3,-21.5 L -0.3,-21.5 L -0.3,-26.5
 L -3.3,-26.5 L -3.3,-24.45 L -3.75,-24.45 L -3.75,-26.65 L -4.5,-26.65 L -4.5,-43.4
 L 4.5,-43.4 L 4.5,-26.65 L 3.75,-26.65 L 3.75,-24.45 L 3.3,-24.45 L 3.3,-26.5
 L 0.3,-26.5 L 0.3,-21.5 L 3.3,-21.5 L 3.3,-23.55 L 3.75,-23.55 L 3.75,-23.5
 L 6.25,-23.5 L 6.25,-23.55 L 6.7,-23.55 L 6.7,-21.5 L 9.7,-21.5 L 9.7,-26.5
 L 6.7,-26.5 L 6.7,-24.45 L 6.25,-24.45 L 6.25,-26.65 L 5.5,-26.65 L 5.5,-43.4
 L 14.55,-43.4 L 14.55,-45.4 L 5.5,-45.4 L 5.5,-46 L 4.5,-46 L 4.5,-45.4
 L -4.5,-45.4 L -4.5,-46 L -5.5,-46 L -5.5,-45.4 L -5.55,-45.4 L -5.55,-43.4
 L -5.5,-43.4 L -5.5,-26.65 L -6.25,-26.65 L -6.25,-24.45 L -6.7,-24.45 L -6.7,-26.5
 z
M -9.7,-2.5 L -9.7,2.5 L -6.7,2.5 L -6.7,0.45 L -6.25,0.45 L -6.25,0.5
 L -3.75,0.5 L -3.75,0.45 L -3.3,0.45 L -3.3,2.5 L -0.3,2.5 L -0.3,-2.5
 L -3.3,-2.5 L -3.3,-0.45 L -3.75,-0.45 L -3.75,-2.65 L -4.5,-2.65 L -4.5,-21.35
 L -3.75,-21.35 L -3.75,-22.9 L -6.25,-22.9 L -6.25,-21.35 L -5.5,-21.35 L -5.5,-2.65
 L -6.25,-2.65 L -6.25,-0.45 L -6.7,-0.45 L -6.7,-2.5 z
M -9.7,21.5 L -9.7,26.5 L -6.7,26.5 L -6.7,24.45 L -6.25,24.45 L -6.25,24.5
 L -3.75,24.5 L -3.75,24.45 L -3.3,24.45 L -3.3,26.5 L -0.3,26.5 L -0.3,21.5
 L -3.3,21.5 L -3.3,23.55 L -3.75,23.55 L -3.75,21.35 L -4.5,21.35 L -4.5,2.65
 L -3.75,2.65 L -3.75,1.1 L -6.25,1.1 L -6.25,2.65 L -5.5,2.65 L -5.5,21.35
 L -6.25,21.35 L -6.25,23.55 L -6.7,23.55 L -6.7,21.5 z
M -9.05,34.7 L -9.04803,34.7628 L -9.04211,34.8253 L -9.03229,34.8874 L -9.01858,34.9487 L -9.00106,35.009
 L -8.97978,35.0681 L -8.95483,35.1258 L -8.92631,35.1818 L -8.89433,35.2358 L -8.85902,35.2878 L -8.82051,35.3374
 L -8.77897,35.3845 L -8.73455,35.429 L -8.68742,35.4705 L -8.63778,35.509 L -8.58583,35.5443 L -8.55,35.5655
 L -8.55,36.75 L -8.725,36.75 L -8.725,38.25 L -7.325,38.25 L -7.325,36.75 L -7.55,36.75
 L -7.55,35.5655 L -7.51417,35.5443 L -7.46221,35.509 L -7.41258,35.4705 L -7.36545,35.429 L -7.32103,35.3845
 L -7.27949,35.3374 L -7.24098,35.2878 L -7.20567,35.2358 L -7.17369,35.1818 L -7.14517,35.1258 L -7.12022,35.0681
 L -7.09894,35.009 L -7.08142,34.9487 L -7.06771,34.8874 L -7.05789,34.8253 L -7.05197,34.7628 L -7.05,34.7
 L -7.05197,34.6372 L -7.05789,34.5747 L -7.06771,34.5126 L -7.08142,34.4513 L -7.09894,34.391 L -7.12022,34.3319
 L -7.14517,34.2742 L -7.17369,34.2182 L -7.20567,34.1642 L -7.24098,34.1122 L -7.27949,34.0626 L -7.32103,34.0155
 L -7.36545,33.971 L -7.41258,33.9295 L -7.46221,33.891 L -7.51417,33.8557 L -7.56825,33.8237 L -7.62422,33.7952
 L -7.68188,33.7702 L -7.74098,33.7489 L -7.80131,33.7314 L -7.86262,33.7177 L -7.92467,33.7079 L -7.98721,33.702
 L -8.05,33.7 L -8.11279,33.702 L -8.17533,33.7079 L -8.23738,33.7177 L -8.29869,33.7314 L -8.35902,33.7489
 L -8.41812,33.7702 L -8.47578,33.7952 L -8.53175,33.8237 L -8.58583,33.8557 L -8.63778,33.891 L -8.68742,33.9295
 L -8.73455,33.971 L -8.77897,34.0155 L -8.82051,34.0626 L -8.85902,34.1122 L -8.89433,34.1642 L -8.92631,34.2182
 L -8.95483,34.2742 L -8.97978,34.3319 L -9.00106,34.391 L -9.01858,34.4513 L -9.03229,34.5126 L -9.04211,34.5747
 L -9.04803,34.6372 z
M -6.675,38.25 L -5.275,38.25 L -5.275,36.75 L -5.45,36.75 L -5.45,35.5 L -5.5,35.5
 L -5.5,35.1 L -6.4,35.1 L -6.4,35.5 L -6.45,35.5 L -6.45,36.75 L -6.675,36.75
 z
M -6.45,39 L -6.45,41 L 13.65,41 L 13.65,39 L 6.45,39 L 6.45,35.5
 L 6.4,35.5 L 6.4,35.1 L 5.5,35.1 L 5.5,35.5 L 5.45,35.5 L 5.45,39
 L -3.55,39 L -3.55,35.5 L -3.6,35.5 L -3.6,35.1 L -4.5,35.1 L -4.5,35.5
 L -4.55,35.5 L -4.55,39 z
M -6.4,27.6 L -6.4,29 L -3.6,29 L -3.6,27.6 L -4.5,27.6 L -4.5,26.65
 L -3.75,26.65 L -3.75,25.1 L -6.25,25.1 L -6.25,26.65 L -5.5,26.65 L -5.5,27.6
 z
M -6.4,31 L -6.4,32.4 L -5.5,32.4 L -5.5,33.5 L -5.45,33.5 L -5.45,33.9
 L -4.55,33.9 L -4.55,33.5 L -4.5,33.5 L -4.5,32.4 L -3.6,32.4 L -3.6,31
 z
M 0.3,-2.5 L 0.3,2.5 L 3.3,2.5 L 3.3,0.45 L 3.75,0.45 L 3.75,0.5
 L 6.25,0.5 L 6.25,0.45 L 6.7,0.45 L 6.7,2.5 L 9.7,2.5 L 9.7,-2.5
 L 6.7,-2.5 L 6.7,-0.45 L 6.25,-0.45 L 6.25,-2.65 L 5.5,-2.65 L 5.5,-21.35
 L 6.25,-21.35 L 6.25,-22.9 L 3.75,-22.9 L 3.75,-21.35 L 4.5,-21.35 L 4.5,-2.65
 L 3.75,-2.65 L 3.75,-0.45 L 3.3,-0.45 L 3.3,-2.5 z
M 0.3,21.5 L 0.3,26.5 L 3.3,26.5 L 3.3,24.45 L 3.75,24.45 L 3.75,24.5
 L 6.25,24.5 L 6.25,24.45 L 6.7,24.45 L 6.7,26.5 L 9.7,26.5 L 9.7,21.5
 L 6.7,21.5 L 6.7,23.55 L 6.25,23.55 L 6.25,21.35 L 5.5,21.35 L 5.5,2.65
 L 6.25,2.65 L 6.25,1.1 L 3.75,1.1 L 3.75,2.65 L 4.5,2.65 L 4.5,21.35
 L 3.75,21.35 L 3.75,23.55 L 3.3,23.55 L 3.3,21.5 z
M 0.95,34.7 L 0.951973,34.7628 L 0.957885,34.8253 L 0.967712,34.8874 L 0.981417,34.9487 L 0.998943,35.009
 L 1.02022,35.0681 L 1.04517,35.1258 L 1.07369,35.1818 L 1.10567,35.2358 L 1.14098,35.2878 L 1.17949,35.3374
 L 1.22103,35.3845 L 1.26545,35.429 L 1.31258,35.4705 L 1.36221,35.509 L 1.41417,35.5443 L 1.45,35.5655
 L 1.45,36.75 L 1.275,36.75 L 1.275,38.25 L 2.675,38.25 L 2.675,36.75 L 2.45,36.75
 L 2.45,35.5655 L 2.48583,35.5443 L 2.53778,35.509 L 2.58742,35.4705 L 2.63455,35.429 L 2.67897,35.3845
 L 2.72051,35.3374 L 2.75902,35.2878 L 2.79433,35.2358 L 2.82631,35.1818 L 2.85483,35.1258 L 2.87978,35.0681
 L 2.90106,35.009 L 2.91858,34.9487 L 2.93229,34.8874 L 2.94211,34.8253 L 2.94803,34.7628 L 2.95,34.7
 L 2.94803,34.6372 L 2.94211,34.5747 L 2.93229,34.5126 L 2.91858,34.4513 L 2.90106,34.391 L 2.87978,34.3319
 L 2.85483,34.2742 L 2.82631,34.2182 L 2.79433,34.1642 L 2.75902,34.1122 L 2.72051,34.0626 L 2.67897,34.0155
 L 2.63455,33.971 L 2.58742,33.9295 L 2.53778,33.891 L 2.48583,33.8557 L 2.43175,33.8237 L 2.37578,33.7952
 L 2.31812,33.7702 L 2.25902,33.7489 L 2.19869,33.7314 L 2.13738,33.7177 L 2.07533,33.7079 L 2.01279,33.702
 L 1.95,33.7 L 1.88721,33.702 L 1.82467,33.7079 L 1.76262,33.7177 L 1.70131,33.7314 L 1.64098,33.7489
 L 1.58187,33.7702 L 1.52422,33.7952 L 1.46825,33.8237 L 1.41417,33.8557 L 1.36221,33.891 L 1.31258,33.9295
 L 1.26545,33.971 L 1.22103,34.0155 L 1.17949,34.0626 L 1.14098,34.1122 L 1.10567,34.1642 L 1.07369,34.2182
 L 1.04517,34.2742 L 1.02022,34.3319 L 0.998943,34.391 L 0.981417,34.4513 L 0.967712,34.5126 L 0.957885,34.5747
 L 0.951973,34.6372 z
M 3.325,38.25 L 4.725,38.25 L 4.725,36.75 L 4.55,36.75 L 4.55,35.5 L 4.5,35.5
 L 4.5,35.1 L 3.6,35.1 L 3.6,35.5 L 3.55,35.5 L 3.55,36.75 L 3.325,36.75
 z
M 3.6,27.6 L 3.6,29 L 6.4,29 L 6.4,27.6 L 5.5,27.6 L 5.5,26.65
 L 6.25,26.65 L 6.25,25.1 L 3.75,25.1 L 3.75,26.65 L 4.5,26.65 L 4.5,27.6
 z
M 3.6,31 L 3.6,32.4 L 4.5,32.4 L 4.5,33.5 L 4.55,33.5 L 4.55,33.9
 L 5.45,33.9 L 5.45,33.5 L 5.5,33.5 L 5.5,32.4 L 6.4,32.4 L 6.4,31
 z
" stroke="black" fill="lightgray" stroke-width="0.5"/></svg>
