<?xml version="1.0" standalone="no"?>
<!DOCTYPE svg PUBLIC "-//W3C//DTD SVG 1.1//EN" "http://www.w3.org/Graphics/SVG/1.1/DTD/svg11.dtd">
<svg width="22" height="87" viewBox="-7 -46 22 87" xmlns="http://www.w3.org/2000/svg" version="1.1">
<title>OpenSCAD Model</title>
<path d="
M -6.45,35.5 L -6.45,41 L 13.65,41 L 13.65,39 L 4.55,39 L 4.55,35.5
 L 4.5,35.5 L 4.5,35.1 L 3.6,35.1 L 3.6,35.5 L 3.55,35.5 L 3.55,39
 L -5.45,39 L -5.45,35.5 L -5.5,35.5 L -5.5,35.1 L -6.4,35.1 L -6.4,35.5
 z
M -6.4,31.9 L -5.5,31.9 L -5.5,33.5 L -5.45,33.5 L -5.45,33.9 L -4.55,33.9
 L -4.55,33.5 L -4.5,33.5 L -4.5,31.9 L -3.6,31.9 L -3.6,31 L -6.4,31
 z
M -6.4,29 L -3.6,29 L -3.6,28.1 L -4.5,28.1 L -4.5,26.5 L -5.5,26.5
 L -5.5,28.1 L -6.4,28.1 z
M -6.25,-26.15 L -6.25,-23.5 L -3.75,-23.5 L -3.75,-26.15 L -4.5,-26.15 L -4.5,-43.4
 L 4.5,-43.4 L 4.5,-26.15 L 3.75,-26.15 L 3.75,-23.5 L 6.25,-23.5 L 6.25,-26.15
 L 5.5,-26.15 L 5.5,-43.4 L 14.55,-43.4 L 14.55,-45.4 L 5.5,-45.4 L 5.5,-46
 L 4.5,-46 L 4.5,-45.4 L -4.5,-45.4 L -4.5,-46 L -5.5,-46 L -5.5,-45.4
 L -5.55,-45.4 L -5.55,-43.4 L -5.5,-43.4 L -5.5,-26.15 z
M -6.25,-21.85 L -5.5,-21.85 L -5.5,-2.15 L -6.25,-2.15 L -6.25,0.5 L -3.75,0.5
 L -3.75,-2.15 L -4.5,-2.15 L -4.5,-21.85 L -3.75,-21.85 L -3.75,-22.9 L -6.25,-22.9
 z
M -6.25,2.15 L -5.5,2.15 L -5.5,21.85 L -6.25,21.85 L -6.25,24.5 L -3.75,24.5
 L -3.75,21.85 L -4.5,21.85 L -4.5,2.15 L -3.75,2.15 L -3.75,1.1 L -6.25,1.1
 z
M -6.25,26.15 L -3.75,26.15 L -3.75,25.1 L -6.25,25.1 z
M -4.55,35.5 L -4.55,38 L -3.55,38 L -3.55,35.5 L -3.6,35.5 L -3.6,35.1
 L -4.5,35.1 L -4.5,35.5 z
M 3.6,29 L 6.4,29 L 6.4,28.1 L 5.5,28.1 L 5.5,26.5 L 4.5,26.5
 L 4.5,28.1 L 3.6,28.1 z
M 3.6,31.9 L 4.5,31.9 L 4.5,33.5 L 4.55,33.5 L 4.55,33.9 L 5.45,33.9
 L 5.45,33.5 L 5.5,33.5 L 5.5,31.9 L 6.4,31.9 L 6.4,31 L 3.6,31
 z
M 3.75,-22.9 L 3.75,-21.85 L 4.5,-21.85 L 4.5,-2.15 L 3.75,-2.15 L 3.75,0.5
 L 6.25,0.5 L 6.25,-2.15 L 5.5,-2.15 L 5.5,-21.85 L 6.25,-21.85 L 6.25,-22.9
 z
M 3.75,1.1 L 3.75,2.15 L 4.5,2.15 L 4.5,21.85 L 3.75,21.85 L 3.75,24.5
 L 6.25,24.5 L 6.25,21.85 L 5.5,21.85 L 5.5,2.15 L 6.25,2.15 L 6.25,1.1
 z
M 3.75,25.1 L 3.75,26.15 L 6.25,26.15 L 6.25,25.1 z
M 5.45,35.5 L 5.45,38 L 6.45,38 L 6.45,35.5 L 6.4,35.5 L 6.4,35.1
 L 5.5,35.1 L 5.5,35.5 z
" stroke="black" fill="lightgray" stroke-width="0.5"/></svg>
