<?xml version="1.0" standalone="no"?>
<!DOCTYPE svg PUBLIC "-//W3C//DTD SVG 1.1//EN" "http://www.w3.org/Graphics/SVG/1.1/DTD/svg11.dtd">
<svg width="328mm" height="67mm" viewBox="-166 -69 328 67" xmlns="http://www.w3.org/2000/svg" version="1.1">
<title>OpenSCAD Model</title>
<path d="
M 158.197,-3.00591 L 158.385,-3.02365 L 158.571,-3.05313 L 158.755,-3.09424 L 158.936,-3.14682 L 159.113,-3.21066
 L 159.286,-3.28551 L 159.454,-3.37108 L 159.616,-3.46701 L 159.772,-3.57294 L 159.921,-3.68845 L 160.062,-3.81308
 L 160.195,-3.94635 L 160.32,-4.08772 L 160.436,-4.23663 L 160.541,-4.39252 L 160.637,-4.55473 L 160.723,-4.72266
 L 160.798,-4.89561 L 160.862,-5.07294 L 160.914,-5.25392 L 160.955,-5.43785 L 160.985,-5.62399 L 161.003,-5.81161
 L 161.009,-5.99998 L 161.003,-6.18837 L 160.985,-6.37599 L 160.955,-6.56213 L 160.914,-6.74606 L 160.862,-6.92705
 L 160.798,-7.10437 L 160.723,-7.27733 L 160.637,-7.44525 L 160.541,-7.60747 L 160.436,-7.76335 L 160.32,-7.91226
 L 160.195,-8.05363 L 160.062,-8.1869 L 159.921,-8.31154 L 92.7498,-64.6742 L 91.8141,-65.4 L 90.8347,-66.0656
 L 89.8154,-66.6684 L 88.7603,-67.206 L 87.6735,-67.6763 L 86.5593,-68.0774 L 85.4222,-68.4078 L 84.2665,-68.6661
 L 83.0969,-68.8513 L 81.918,-68.9628 L 80.7344,-69 L -146.65,-69 L -147.834,-68.9628 L -149.013,-68.8513
 L -150.182,-68.6661 L -151.338,-68.4078 L -152.475,-68.0774 L -153.589,-67.6763 L -154.676,-67.206 L -155.731,-66.6684
 L -156.75,-66.0656 L -157.73,-65.4 L -158.665,-64.6742 L -159.554,-63.8911 L -160.391,-63.0537 L -161.174,-62.1654
 L -161.9,-61.2298 L -162.566,-60.2503 L -163.168,-59.231 L -163.706,-58.1759 L -164.176,-57.0891 L -164.577,-55.975
 L -164.908,-54.8378 L -165.166,-53.6821 L -165.351,-52.5125 L -165.463,-51.3336 L -165.5,-50.15 L -165.5,-5.99998
 L -165.494,-5.81161 L -165.476,-5.62399 L -165.447,-5.43785 L -165.406,-5.25392 L -165.353,-5.07294 L -165.289,-4.89561
 L -165.214,-4.72266 L -165.129,-4.55473 L -165.033,-4.39252 L -164.927,-4.23663 L -164.812,-4.08772 L -164.687,-3.94635
 L -164.554,-3.81308 L -164.412,-3.68845 L -164.263,-3.57294 L -164.107,-3.46701 L -163.945,-3.37108 L -163.777,-3.28551
 L -163.604,-3.21066 L -163.427,-3.14682 L -163.246,-3.09424 L -163.062,-3.05313 L -162.876,-3.02365 L -162.688,-3.00591
 L -162.5,-2.99998 L 158.009,-2.99998 z
" stroke="black" fill="lightgray" stroke-width="0.5"/>
</svg>
