G04 #@! TF.FileFunction,Legend,Bot*
%FSLAX46Y46*%
G04 Gerber Fmt 4.6, Leading zero omitted, Abs format (unit mm)*
G04 Created by KiCad (PCBNEW 4.0.4-stable) date 03/09/17 20:40:53*
%MOMM*%
%LPD*%
G01*
G04 APERTURE LIST*
%ADD10C,0.100000*%
%ADD11C,0.120000*%
%ADD12C,0.150000*%
G04 APERTURE END LIST*
D10*
D11*
X114050000Y-52700000D02*
X120000000Y-52700000D01*
X120000000Y-52700000D02*
X120000000Y-75300000D01*
X120000000Y-75300000D02*
X114050000Y-75300000D01*
X114050000Y-75300000D02*
X114050000Y-52700000D01*
X114050000Y-56000000D02*
X114800000Y-56000000D01*
X114800000Y-56000000D02*
X114800000Y-72000000D01*
X114800000Y-72000000D02*
X114050000Y-72000000D01*
X114050000Y-72000000D02*
X114050000Y-56000000D01*
X114050000Y-52700000D02*
X114800000Y-52700000D01*
X114800000Y-52700000D02*
X114800000Y-54500000D01*
X114800000Y-54500000D02*
X114050000Y-54500000D01*
X114050000Y-54500000D02*
X114050000Y-52700000D01*
X114050000Y-73500000D02*
X114800000Y-73500000D01*
X114800000Y-73500000D02*
X114800000Y-75300000D01*
X114800000Y-75300000D02*
X114050000Y-75300000D01*
X114050000Y-75300000D02*
X114050000Y-73500000D01*
X116300000Y-52700000D02*
X116300000Y-53450000D01*
X116300000Y-53450000D02*
X119250000Y-53450000D01*
X119250000Y-53450000D02*
X119250000Y-64000000D01*
X116300000Y-75300000D02*
X116300000Y-74550000D01*
X116300000Y-74550000D02*
X119250000Y-74550000D01*
X119250000Y-74550000D02*
X119250000Y-64000000D01*
X113750000Y-54900000D02*
X113750000Y-52400000D01*
X113750000Y-52400000D02*
X116250000Y-52400000D01*
X204950000Y-75300000D02*
X199000000Y-75300000D01*
X199000000Y-75300000D02*
X199000000Y-52700000D01*
X199000000Y-52700000D02*
X204950000Y-52700000D01*
X204950000Y-52700000D02*
X204950000Y-75300000D01*
X204950000Y-72000000D02*
X204200000Y-72000000D01*
X204200000Y-72000000D02*
X204200000Y-56000000D01*
X204200000Y-56000000D02*
X204950000Y-56000000D01*
X204950000Y-56000000D02*
X204950000Y-72000000D01*
X204950000Y-75300000D02*
X204200000Y-75300000D01*
X204200000Y-75300000D02*
X204200000Y-73500000D01*
X204200000Y-73500000D02*
X204950000Y-73500000D01*
X204950000Y-73500000D02*
X204950000Y-75300000D01*
X204950000Y-54500000D02*
X204200000Y-54500000D01*
X204200000Y-54500000D02*
X204200000Y-52700000D01*
X204200000Y-52700000D02*
X204950000Y-52700000D01*
X204950000Y-52700000D02*
X204950000Y-54500000D01*
X202700000Y-75300000D02*
X202700000Y-74550000D01*
X202700000Y-74550000D02*
X199750000Y-74550000D01*
X199750000Y-74550000D02*
X199750000Y-64000000D01*
X202700000Y-52700000D02*
X202700000Y-53450000D01*
X202700000Y-53450000D02*
X199750000Y-53450000D01*
X199750000Y-53450000D02*
X199750000Y-64000000D01*
X205250000Y-73100000D02*
X205250000Y-75600000D01*
X205250000Y-75600000D02*
X202750000Y-75600000D01*
D12*
X113452381Y-63261905D02*
X112452381Y-63261905D01*
X112452381Y-63642858D01*
X112500000Y-63738096D01*
X112547619Y-63785715D01*
X112642857Y-63833334D01*
X112785714Y-63833334D01*
X112880952Y-63785715D01*
X112928571Y-63738096D01*
X112976190Y-63642858D01*
X112976190Y-63261905D01*
X113452381Y-64785715D02*
X113452381Y-64214286D01*
X113452381Y-64500000D02*
X112452381Y-64500000D01*
X112595238Y-64404762D01*
X112690476Y-64309524D01*
X112738095Y-64214286D01*
X206452381Y-63261905D02*
X205452381Y-63261905D01*
X205452381Y-63642858D01*
X205500000Y-63738096D01*
X205547619Y-63785715D01*
X205642857Y-63833334D01*
X205785714Y-63833334D01*
X205880952Y-63785715D01*
X205928571Y-63738096D01*
X205976190Y-63642858D01*
X205976190Y-63261905D01*
X205547619Y-64214286D02*
X205500000Y-64261905D01*
X205452381Y-64357143D01*
X205452381Y-64595239D01*
X205500000Y-64690477D01*
X205547619Y-64738096D01*
X205642857Y-64785715D01*
X205738095Y-64785715D01*
X205880952Y-64738096D01*
X206452381Y-64166667D01*
X206452381Y-64785715D01*
M02*
