M48
;DRILL file {KiCad 4.0.4-stable} date 03/20/17 17:54:08
;FORMAT={-:-/ absolute / metric / decimal}
FMAT,2
METRIC,TZ
T1C0.300
T2C0.400
T3C0.900
%
G90
G05
M71
T1
X122.75Y-43.75
X122.75Y-44.75
X122.75Y-45.75
X122.75Y-46.75
X122.75Y-47.75
X122.75Y-48.75
X122.75Y-49.75
X122.75Y-50.75
X122.75Y-51.75
X122.75Y-52.75
X122.75Y-53.75
X122.75Y-54.75
X122.75Y-56.225
X122.75Y-57.225
X122.75Y-58.225
X122.75Y-59.225
X122.75Y-60.225
X122.75Y-61.225
X122.75Y-62.225
X122.75Y-63.225
X122.75Y-64.225
X122.75Y-65.225
X122.75Y-66.225
X122.75Y-67.225
X122.75Y-68.225
X122.75Y-69.225
X122.75Y-70.225
X122.75Y-71.225
X122.75Y-73.5
X122.75Y-74.5
X122.75Y-75.5
X122.75Y-76.5
X122.75Y-77.5
X122.75Y-78.5
X122.75Y-79.5
X122.75Y-80.5
X122.75Y-81.5
X122.75Y-82.5
X122.75Y-83.5
X122.75Y-84.5
X123.75Y-43.75
X123.75Y-44.75
X123.75Y-45.75
X123.75Y-46.75
X123.75Y-47.75
X123.75Y-48.75
X123.75Y-49.75
X123.75Y-50.75
X123.75Y-51.75
X123.75Y-52.75
X123.75Y-53.75
X123.75Y-54.75
X123.75Y-56.225
X123.75Y-57.225
X123.75Y-58.225
X123.75Y-59.225
X123.75Y-60.225
X123.75Y-61.225
X123.75Y-62.225
X123.75Y-63.225
X123.75Y-64.225
X123.75Y-65.225
X123.75Y-66.225
X123.75Y-67.225
X123.75Y-68.225
X123.75Y-69.225
X123.75Y-70.225
X123.75Y-71.225
X123.75Y-73.5
X123.75Y-74.5
X123.75Y-75.5
X123.75Y-76.5
X123.75Y-77.5
X123.75Y-78.5
X123.75Y-79.5
X123.75Y-80.5
X123.75Y-81.5
X123.75Y-82.5
X123.75Y-83.5
X123.75Y-84.5
X124.75Y-43.75
X124.75Y-44.75
X124.75Y-45.75
X124.75Y-46.75
X124.75Y-47.75
X124.75Y-48.75
X124.75Y-49.75
X124.75Y-50.75
X124.75Y-51.75
X124.75Y-52.75
X124.75Y-53.75
X124.75Y-54.75
X124.75Y-56.225
X124.75Y-57.225
X124.75Y-58.225
X124.75Y-59.225
X124.75Y-60.225
X124.75Y-61.225
X124.75Y-62.225
X124.75Y-63.225
X124.75Y-64.225
X124.75Y-65.225
X124.75Y-66.225
X124.75Y-67.225
X124.75Y-68.225
X124.75Y-69.225
X124.75Y-70.225
X124.75Y-71.225
X124.75Y-73.5
X124.75Y-74.5
X124.75Y-75.5
X124.75Y-76.5
X124.75Y-77.5
X124.75Y-78.5
X124.75Y-79.5
X124.75Y-80.5
X124.75Y-81.5
X124.75Y-82.5
X124.75Y-83.5
X124.75Y-84.5
X125.75Y-43.75
X125.75Y-44.75
X125.75Y-45.75
X125.75Y-46.75
X125.75Y-47.75
X125.75Y-48.75
X125.75Y-49.75
X125.75Y-50.75
X125.75Y-51.75
X125.75Y-52.75
X125.75Y-53.75
X125.75Y-54.75
X125.75Y-56.225
X125.75Y-57.225
X125.75Y-58.225
X125.75Y-59.225
X125.75Y-60.225
X125.75Y-61.225
X125.75Y-62.225
X125.75Y-63.225
X125.75Y-64.225
X125.75Y-65.225
X125.75Y-66.225
X125.75Y-67.225
X125.75Y-68.225
X125.75Y-69.225
X125.75Y-70.225
X125.75Y-71.225
X125.75Y-73.5
X125.75Y-74.5
X125.75Y-75.5
X125.75Y-76.5
X125.75Y-77.5
X125.75Y-78.5
X125.75Y-79.5
X125.75Y-80.5
X125.75Y-81.5
X125.75Y-82.5
X125.75Y-83.5
X125.75Y-84.5
X126.7Y-76.1
X126.75Y-43.75
X126.75Y-46.75
X126.75Y-48.25
X126.75Y-51.25
X126.75Y-53.
X126.75Y-56.225
X126.75Y-57.225
X126.75Y-58.225
X126.75Y-59.225
X126.75Y-60.225
X126.75Y-61.225
X126.75Y-62.225
X126.75Y-63.225
X126.75Y-64.225
X126.75Y-65.225
X126.75Y-66.225
X126.75Y-67.225
X126.75Y-68.225
X126.75Y-69.225
X126.75Y-70.225
X126.75Y-71.225
X126.75Y-73.5
X126.75Y-74.5
X126.75Y-77.9
X126.75Y-81.5
X126.75Y-82.5
X127.75Y-43.75
X127.75Y-46.75
X127.75Y-56.225
X127.75Y-57.225
X127.75Y-58.225
X127.75Y-59.225
X128.75Y-43.75
X128.75Y-46.75
X128.75Y-56.225
X128.75Y-57.225
X128.75Y-58.225
X128.75Y-59.225
X129.75Y-43.75
X129.75Y-46.75
X129.75Y-48.5
X129.75Y-77.9
X129.75Y-81.5
X129.75Y-82.5
X130.5Y-52.25
X130.5Y-53.25
X130.5Y-54.25
X130.5Y-55.25
X130.5Y-56.25
X130.5Y-59.25
X130.5Y-60.25
X130.5Y-61.25
X130.5Y-62.25
X130.5Y-63.25
X130.5Y-64.8
X130.5Y-65.8
X130.5Y-66.8
X130.5Y-67.8
X130.5Y-68.8
X130.5Y-71.8
X130.5Y-72.8
X130.5Y-73.8
X130.5Y-74.8
X130.5Y-75.8
X130.75Y-43.75
X130.75Y-44.75
X130.75Y-45.75
X130.75Y-46.75
X130.75Y-47.75
X130.75Y-48.75
X130.75Y-49.75
X130.75Y-50.75
X130.75Y-77.5
X130.75Y-78.5
X130.75Y-79.5
X130.75Y-80.5
X130.75Y-81.5
X130.75Y-82.5
X130.75Y-83.5
X130.75Y-84.5
X131.5Y-52.25
X131.5Y-53.25
X131.5Y-54.25
X131.5Y-55.25
X131.5Y-56.25
X131.5Y-59.25
X131.5Y-60.25
X131.5Y-61.25
X131.5Y-62.25
X131.5Y-63.25
X131.5Y-64.8
X131.5Y-65.8
X131.5Y-66.8
X131.5Y-67.8
X131.5Y-68.8
X131.5Y-71.8
X131.5Y-72.8
X131.5Y-73.8
X131.5Y-74.8
X131.5Y-75.8
X131.75Y-43.75
X131.75Y-44.75
X131.75Y-45.75
X131.75Y-46.75
X131.75Y-47.75
X131.75Y-48.75
X131.75Y-49.75
X131.75Y-50.75
X131.75Y-77.5
X131.75Y-78.5
X131.75Y-79.5
X131.75Y-80.5
X131.75Y-81.5
X131.75Y-82.5
X131.75Y-83.5
X131.75Y-84.5
X132.5Y-52.25
X132.5Y-53.25
X132.5Y-54.25
X132.5Y-55.25
X132.5Y-60.25
X132.5Y-61.25
X132.5Y-62.25
X132.5Y-63.25
X132.5Y-64.8
X132.5Y-65.8
X132.5Y-66.8
X132.5Y-67.8
X132.5Y-72.8
X132.5Y-73.8
X132.5Y-74.8
X132.5Y-75.8
X132.75Y-43.75
X132.75Y-44.75
X132.75Y-45.75
X132.75Y-46.75
X132.75Y-47.75
X132.75Y-48.75
X132.75Y-49.75
X132.75Y-50.75
X132.75Y-77.5
X132.75Y-78.5
X132.75Y-79.5
X132.75Y-80.5
X132.75Y-81.5
X132.75Y-82.5
X132.75Y-83.5
X132.75Y-84.5
X133.5Y-52.25
X133.5Y-53.25
X133.5Y-54.25
X133.5Y-55.25
X133.5Y-56.25
X133.5Y-59.25
X133.5Y-60.25
X133.5Y-61.25
X133.5Y-62.25
X133.5Y-63.25
X133.5Y-64.8
X133.5Y-65.8
X133.5Y-66.8
X133.5Y-67.8
X133.5Y-72.8
X133.5Y-73.8
X133.5Y-74.8
X133.5Y-75.8
X133.75Y-43.75
X133.75Y-44.75
X133.75Y-45.75
X133.75Y-46.75
X133.75Y-47.75
X133.75Y-48.75
X133.75Y-49.75
X133.75Y-50.75
X133.75Y-77.5
X133.75Y-78.5
X133.75Y-79.5
X133.75Y-80.5
X133.75Y-81.5
X133.75Y-82.5
X133.75Y-83.5
X133.75Y-84.5
X134.5Y-52.25
X134.5Y-53.25
X134.5Y-54.25
X134.5Y-55.25
X134.5Y-60.25
X134.5Y-61.25
X134.5Y-62.25
X134.5Y-63.25
X134.5Y-64.8
X134.5Y-65.8
X134.5Y-66.8
X134.5Y-67.8
X134.5Y-72.8
X134.5Y-73.8
X134.5Y-74.8
X134.5Y-75.8
X135.25Y-43.75
X135.25Y-44.75
X135.25Y-45.75
X135.25Y-46.75
X135.25Y-47.75
X135.25Y-48.75
X135.25Y-49.75
X135.25Y-50.75
X135.35Y-77.5
X135.35Y-78.5
X135.35Y-79.5
X135.35Y-80.5
X135.35Y-81.5
X135.35Y-82.5
X135.35Y-83.5
X135.35Y-84.5
X135.5Y-52.25
X135.5Y-53.25
X135.5Y-54.25
X135.5Y-55.25
X135.5Y-60.25
X135.5Y-61.25
X135.5Y-62.25
X135.5Y-63.25
X135.5Y-64.8
X135.5Y-65.8
X135.5Y-66.8
X135.5Y-67.8
X135.5Y-68.8
X135.5Y-71.8
X135.5Y-72.8
X135.5Y-73.8
X135.5Y-74.8
X135.5Y-75.8
X136.25Y-43.75
X136.25Y-44.75
X136.25Y-45.75
X136.25Y-46.75
X136.25Y-47.75
X136.25Y-48.75
X136.25Y-49.75
X136.25Y-50.75
X136.35Y-77.5
X136.35Y-78.5
X136.35Y-79.5
X136.35Y-80.5
X136.35Y-81.5
X136.35Y-82.5
X136.35Y-83.5
X136.35Y-84.5
X136.5Y-52.25
X136.5Y-53.25
X136.5Y-54.25
X136.5Y-55.25
X136.5Y-60.25
X136.5Y-61.25
X136.5Y-62.25
X136.5Y-63.25
X136.5Y-64.8
X136.5Y-65.8
X136.5Y-66.8
X136.5Y-67.8
X136.5Y-72.8
X136.5Y-73.8
X136.5Y-74.8
X136.5Y-75.8
X137.25Y-43.75
X137.25Y-44.75
X137.25Y-45.75
X137.25Y-46.75
X137.25Y-47.75
X137.25Y-48.75
X137.25Y-49.75
X137.25Y-50.75
X137.35Y-77.5
X137.35Y-78.5
X137.35Y-79.5
X137.35Y-80.5
X137.35Y-81.5
X137.35Y-82.5
X137.35Y-83.5
X137.35Y-84.5
X137.5Y-52.25
X137.5Y-53.25
X137.5Y-54.25
X137.5Y-55.25
X137.5Y-56.25
X137.5Y-59.25
X137.5Y-60.25
X137.5Y-61.25
X137.5Y-62.25
X137.5Y-63.25
X137.5Y-64.8
X137.5Y-65.8
X137.5Y-66.8
X137.5Y-67.8
X137.5Y-68.8
X137.5Y-71.8
X137.5Y-72.8
X137.5Y-73.8
X137.5Y-74.8
X137.5Y-75.8
X138.25Y-43.75
X138.25Y-44.75
X138.25Y-45.75
X138.25Y-46.75
X138.25Y-47.75
X138.25Y-48.75
X138.25Y-49.75
X138.25Y-50.75
X138.35Y-77.5
X138.35Y-78.5
X138.35Y-79.5
X138.35Y-80.5
X138.35Y-81.5
X138.35Y-82.5
X138.35Y-83.5
X138.35Y-84.5
X138.5Y-52.25
X138.5Y-53.25
X138.5Y-54.25
X138.5Y-55.25
X138.5Y-56.25
X138.5Y-59.25
X138.5Y-60.25
X138.5Y-61.25
X138.5Y-62.25
X138.5Y-63.25
X138.5Y-64.8
X138.5Y-65.8
X138.5Y-66.8
X138.5Y-67.8
X138.5Y-68.8
X138.5Y-71.8
X138.5Y-72.8
X138.5Y-73.8
X138.5Y-74.8
X138.5Y-75.8
X139.25Y-43.75
X139.25Y-46.75
X139.25Y-48.5
X139.3Y-77.9
X139.35Y-81.5
X139.35Y-82.5
X140.25Y-43.75
X140.25Y-46.75
X140.275Y-56.225
X140.275Y-57.225
X140.275Y-58.225
X140.275Y-59.225
X141.25Y-43.75
X141.25Y-46.75
X141.275Y-56.225
X141.275Y-57.225
X141.275Y-58.225
X141.275Y-59.225
X142.25Y-43.75
X142.25Y-46.75
X142.25Y-48.5
X142.25Y-51.25
X142.25Y-53.
X142.275Y-56.225
X142.275Y-57.225
X142.275Y-58.225
X142.275Y-59.225
X142.275Y-60.225
X142.275Y-61.225
X142.275Y-62.225
X142.275Y-63.225
X142.275Y-64.225
X142.275Y-65.225
X142.275Y-66.225
X142.275Y-67.225
X142.275Y-68.225
X142.275Y-69.225
X142.275Y-70.225
X142.275Y-71.225
X142.3Y-76.1
X142.3Y-77.9
X142.35Y-73.5
X142.35Y-74.5
X142.35Y-81.5
X142.35Y-82.5
X143.25Y-43.75
X143.25Y-44.75
X143.25Y-45.75
X143.25Y-46.75
X143.25Y-47.75
X143.25Y-48.75
X143.25Y-49.75
X143.25Y-50.75
X143.25Y-51.75
X143.25Y-52.75
X143.25Y-53.75
X143.25Y-54.75
X143.275Y-56.225
X143.275Y-57.225
X143.275Y-58.225
X143.275Y-59.225
X143.275Y-60.225
X143.275Y-61.225
X143.275Y-62.225
X143.275Y-63.225
X143.275Y-64.225
X143.275Y-65.225
X143.275Y-66.225
X143.275Y-67.225
X143.275Y-68.225
X143.275Y-69.225
X143.275Y-70.225
X143.275Y-71.225
X143.35Y-73.5
X143.35Y-74.5
X143.35Y-75.5
X143.35Y-76.5
X143.35Y-77.5
X143.35Y-78.5
X143.35Y-79.5
X143.35Y-80.5
X143.35Y-81.5
X143.35Y-82.5
X143.35Y-83.5
X143.35Y-84.5
X144.25Y-43.75
X144.25Y-44.75
X144.25Y-45.75
X144.25Y-46.75
X144.25Y-47.75
X144.25Y-48.75
X144.25Y-49.75
X144.25Y-50.75
X144.25Y-51.75
X144.25Y-52.75
X144.25Y-53.75
X144.25Y-54.75
X144.275Y-56.225
X144.275Y-57.225
X144.275Y-58.225
X144.275Y-59.225
X144.275Y-60.225
X144.275Y-61.225
X144.275Y-62.225
X144.275Y-63.225
X144.275Y-64.225
X144.275Y-65.225
X144.275Y-66.225
X144.275Y-67.225
X144.275Y-68.225
X144.275Y-69.225
X144.275Y-70.225
X144.275Y-71.225
X144.35Y-73.5
X144.35Y-74.5
X144.35Y-75.5
X144.35Y-76.5
X144.35Y-77.5
X144.35Y-78.5
X144.35Y-79.5
X144.35Y-80.5
X144.35Y-81.5
X144.35Y-82.5
X144.35Y-83.5
X144.35Y-84.5
X145.25Y-43.75
X145.25Y-44.75
X145.25Y-45.75
X145.25Y-46.75
X145.25Y-47.75
X145.25Y-48.75
X145.25Y-49.75
X145.25Y-50.75
X145.25Y-51.75
X145.25Y-52.75
X145.25Y-53.75
X145.25Y-54.75
X145.275Y-56.225
X145.275Y-57.225
X145.275Y-58.225
X145.275Y-59.225
X145.275Y-60.225
X145.275Y-61.225
X145.275Y-62.225
X145.275Y-63.225
X145.275Y-64.225
X145.275Y-65.225
X145.275Y-66.225
X145.275Y-67.225
X145.275Y-68.225
X145.275Y-69.225
X145.275Y-70.225
X145.275Y-71.225
X145.35Y-73.5
X145.35Y-74.5
X145.35Y-75.5
X145.35Y-76.5
X145.35Y-77.5
X145.35Y-78.5
X145.35Y-79.5
X145.35Y-80.5
X145.35Y-81.5
X145.35Y-82.5
X145.35Y-83.5
X145.35Y-84.5
X146.25Y-43.75
X146.25Y-44.75
X146.25Y-45.75
X146.25Y-46.75
X146.25Y-47.75
X146.25Y-48.75
X146.25Y-49.75
X146.25Y-50.75
X146.25Y-51.75
X146.25Y-52.75
X146.25Y-53.75
X146.25Y-54.75
X146.275Y-56.225
X146.275Y-57.225
X146.275Y-58.225
X146.275Y-59.225
X146.275Y-60.225
X146.275Y-61.225
X146.275Y-62.225
X146.275Y-63.225
X146.275Y-64.225
X146.275Y-65.225
X146.275Y-66.225
X146.275Y-67.225
X146.275Y-68.225
X146.275Y-69.225
X146.275Y-70.225
X146.275Y-71.225
X146.35Y-73.5
X146.35Y-74.5
X146.35Y-75.5
X146.35Y-76.5
X146.35Y-77.5
X146.35Y-78.5
X146.35Y-79.5
X146.35Y-80.5
X146.35Y-81.5
X146.35Y-82.5
X146.35Y-83.5
X146.35Y-84.5
X147.75Y-43.75
X147.75Y-44.75
X147.75Y-45.75
X147.75Y-46.75
X147.75Y-47.75
X147.75Y-48.75
X147.75Y-49.75
X147.75Y-50.75
X147.75Y-51.75
X147.75Y-52.75
X147.75Y-53.75
X147.75Y-54.75
X147.75Y-56.225
X147.75Y-57.225
X147.75Y-58.225
X147.75Y-59.225
X147.75Y-60.225
X147.75Y-61.225
X147.75Y-62.225
X147.75Y-63.225
X147.75Y-64.225
X147.75Y-65.225
X147.75Y-66.225
X147.75Y-67.225
X147.75Y-68.225
X147.75Y-69.225
X147.75Y-70.225
X147.75Y-71.225
X147.75Y-73.5
X147.75Y-74.5
X147.75Y-75.5
X147.75Y-76.5
X147.75Y-77.5
X147.75Y-78.5
X147.75Y-79.5
X147.75Y-80.5
X147.75Y-81.5
X147.75Y-82.5
X147.75Y-83.5
X147.75Y-84.5
X148.75Y-43.75
X148.75Y-44.75
X148.75Y-45.75
X148.75Y-46.75
X148.75Y-47.75
X148.75Y-48.75
X148.75Y-49.75
X148.75Y-50.75
X148.75Y-51.75
X148.75Y-52.75
X148.75Y-53.75
X148.75Y-54.75
X148.75Y-56.225
X148.75Y-57.225
X148.75Y-58.225
X148.75Y-59.225
X148.75Y-60.225
X148.75Y-61.225
X148.75Y-62.225
X148.75Y-63.225
X148.75Y-64.225
X148.75Y-65.225
X148.75Y-66.225
X148.75Y-67.225
X148.75Y-68.225
X148.75Y-69.225
X148.75Y-70.225
X148.75Y-71.225
X148.75Y-73.5
X148.75Y-74.5
X148.75Y-75.5
X148.75Y-76.5
X148.75Y-77.5
X148.75Y-78.5
X148.75Y-79.5
X148.75Y-80.5
X148.75Y-81.5
X148.75Y-82.5
X148.75Y-83.5
X148.75Y-84.5
X149.75Y-43.75
X149.75Y-44.75
X149.75Y-45.75
X149.75Y-46.75
X149.75Y-47.75
X149.75Y-48.75
X149.75Y-49.75
X149.75Y-50.75
X149.75Y-51.75
X149.75Y-52.75
X149.75Y-53.75
X149.75Y-54.75
X149.75Y-56.225
X149.75Y-57.225
X149.75Y-58.225
X149.75Y-59.225
X149.75Y-60.225
X149.75Y-61.225
X149.75Y-62.225
X149.75Y-63.225
X149.75Y-64.225
X149.75Y-65.225
X149.75Y-66.225
X149.75Y-67.225
X149.75Y-68.225
X149.75Y-69.225
X149.75Y-70.225
X149.75Y-71.225
X149.75Y-73.5
X149.75Y-74.5
X149.75Y-75.5
X149.75Y-76.5
X149.75Y-77.5
X149.75Y-78.5
X149.75Y-79.5
X149.75Y-80.5
X149.75Y-81.5
X149.75Y-82.5
X149.75Y-83.5
X149.75Y-84.5
X150.75Y-43.75
X150.75Y-44.75
X150.75Y-45.75
X150.75Y-46.75
X150.75Y-47.75
X150.75Y-48.75
X150.75Y-49.75
X150.75Y-50.75
X150.75Y-51.75
X150.75Y-52.75
X150.75Y-53.75
X150.75Y-54.75
X150.75Y-56.225
X150.75Y-57.225
X150.75Y-58.225
X150.75Y-59.225
X150.75Y-60.225
X150.75Y-61.225
X150.75Y-62.225
X150.75Y-63.225
X150.75Y-64.225
X150.75Y-65.225
X150.75Y-66.225
X150.75Y-67.225
X150.75Y-68.225
X150.75Y-69.225
X150.75Y-70.225
X150.75Y-71.225
X150.75Y-73.5
X150.75Y-74.5
X150.75Y-75.5
X150.75Y-76.5
X150.75Y-77.5
X150.75Y-78.5
X150.75Y-79.5
X150.75Y-80.5
X150.75Y-81.5
X150.75Y-82.5
X150.75Y-83.5
X150.75Y-84.5
X151.7Y-76.1
X151.7Y-77.9
X151.75Y-43.75
X151.75Y-46.75
X151.75Y-48.5
X151.75Y-51.25
X151.75Y-53.
X151.75Y-56.225
X151.75Y-57.225
X151.75Y-58.225
X151.75Y-59.225
X151.75Y-60.225
X151.75Y-61.225
X151.75Y-62.225
X151.75Y-63.225
X151.75Y-64.225
X151.75Y-65.225
X151.75Y-66.225
X151.75Y-67.225
X151.75Y-68.225
X151.75Y-69.225
X151.75Y-70.225
X151.75Y-71.225
X151.75Y-73.5
X151.75Y-74.5
X151.75Y-81.5
X151.75Y-82.5
X152.75Y-43.75
X152.75Y-46.75
X152.75Y-56.225
X152.75Y-57.225
X152.75Y-58.225
X152.75Y-59.225
X153.75Y-43.75
X153.75Y-46.75
X153.75Y-56.225
X153.75Y-57.225
X153.75Y-58.225
X153.75Y-59.225
X154.7Y-77.9
X154.75Y-46.75
X154.75Y-48.5
X154.75Y-81.5
X154.75Y-82.5
X155.5Y-52.25
X155.5Y-53.25
X155.5Y-54.25
X155.5Y-55.25
X155.5Y-56.25
X155.5Y-59.25
X155.5Y-60.25
X155.5Y-61.25
X155.5Y-62.25
X155.5Y-63.25
X155.5Y-64.75
X155.5Y-65.75
X155.5Y-66.75
X155.5Y-67.75
X155.5Y-68.75
X155.5Y-71.75
X155.5Y-72.75
X155.5Y-73.75
X155.5Y-74.75
X155.5Y-75.75
X155.75Y-43.75
X155.75Y-44.75
X155.75Y-45.75
X155.75Y-46.75
X155.75Y-47.75
X155.75Y-48.75
X155.75Y-49.75
X155.75Y-50.75
X155.75Y-77.5
X155.75Y-78.5
X155.75Y-79.5
X155.75Y-80.5
X155.75Y-81.5
X155.75Y-82.5
X155.75Y-83.5
X155.75Y-84.5
X156.5Y-52.25
X156.5Y-53.25
X156.5Y-54.25
X156.5Y-55.25
X156.5Y-56.25
X156.5Y-59.25
X156.5Y-60.25
X156.5Y-61.25
X156.5Y-62.25
X156.5Y-63.25
X156.5Y-64.75
X156.5Y-65.75
X156.5Y-66.75
X156.5Y-67.75
X156.5Y-68.75
X156.5Y-71.75
X156.5Y-72.75
X156.5Y-73.75
X156.5Y-74.75
X156.5Y-75.75
X156.75Y-43.75
X156.75Y-44.75
X156.75Y-45.75
X156.75Y-46.75
X156.75Y-47.75
X156.75Y-48.75
X156.75Y-49.75
X156.75Y-50.75
X156.75Y-77.5
X156.75Y-78.5
X156.75Y-79.5
X156.75Y-80.5
X156.75Y-81.5
X156.75Y-82.5
X156.75Y-83.5
X156.75Y-84.5
X157.5Y-52.25
X157.5Y-53.25
X157.5Y-54.25
X157.5Y-55.25
X157.5Y-60.25
X157.5Y-61.25
X157.5Y-62.25
X157.5Y-63.25
X157.5Y-64.75
X157.5Y-65.75
X157.5Y-66.75
X157.5Y-67.75
X157.5Y-72.75
X157.5Y-73.75
X157.5Y-74.75
X157.5Y-75.75
X157.75Y-43.75
X157.75Y-44.75
X157.75Y-45.75
X157.75Y-46.75
X157.75Y-47.75
X157.75Y-48.75
X157.75Y-49.75
X157.75Y-50.75
X157.75Y-77.5
X157.75Y-78.5
X157.75Y-79.5
X157.75Y-80.5
X157.75Y-81.5
X157.75Y-82.5
X157.75Y-83.5
X157.75Y-84.5
X158.5Y-52.25
X158.5Y-53.25
X158.5Y-54.25
X158.5Y-55.25
X158.5Y-56.25
X158.5Y-59.25
X158.5Y-60.25
X158.5Y-61.25
X158.5Y-62.25
X158.5Y-63.25
X158.5Y-64.75
X158.5Y-65.75
X158.5Y-66.75
X158.5Y-67.75
X158.5Y-72.75
X158.5Y-73.75
X158.5Y-74.75
X158.5Y-75.75
X158.75Y-43.75
X158.75Y-44.75
X158.75Y-45.75
X158.75Y-46.75
X158.75Y-47.75
X158.75Y-48.75
X158.75Y-49.75
X158.75Y-50.75
X158.75Y-77.5
X158.75Y-78.5
X158.75Y-79.5
X158.75Y-80.5
X158.75Y-81.5
X158.75Y-82.5
X158.75Y-83.5
X158.75Y-84.5
X159.5Y-52.25
X159.5Y-53.25
X159.5Y-54.25
X159.5Y-55.25
X159.5Y-60.25
X159.5Y-61.25
X159.5Y-62.25
X159.5Y-63.25
X159.5Y-64.75
X159.5Y-65.75
X159.5Y-66.75
X159.5Y-67.75
X159.5Y-72.75
X159.5Y-73.75
X159.5Y-74.75
X159.5Y-75.75
X160.15Y-77.5
X160.15Y-78.5
X160.15Y-79.5
X160.15Y-80.5
X160.15Y-81.5
X160.15Y-82.5
X160.15Y-83.5
X160.15Y-84.5
X160.25Y-43.75
X160.25Y-44.75
X160.25Y-45.75
X160.25Y-46.75
X160.25Y-47.75
X160.25Y-48.75
X160.25Y-49.75
X160.25Y-50.75
X160.5Y-52.25
X160.5Y-53.25
X160.5Y-54.25
X160.5Y-55.25
X160.5Y-60.25
X160.5Y-61.25
X160.5Y-62.25
X160.5Y-63.25
X160.5Y-64.75
X160.5Y-65.75
X160.5Y-66.75
X160.5Y-67.75
X160.5Y-68.75
X160.5Y-71.75
X160.5Y-72.75
X160.5Y-73.75
X160.5Y-74.75
X160.5Y-75.75
X161.15Y-77.5
X161.15Y-78.5
X161.15Y-79.5
X161.15Y-80.5
X161.15Y-81.5
X161.15Y-82.5
X161.15Y-83.5
X161.15Y-84.5
X161.25Y-43.75
X161.25Y-44.75
X161.25Y-45.75
X161.25Y-46.75
X161.25Y-47.75
X161.25Y-48.75
X161.25Y-49.75
X161.25Y-50.75
X161.5Y-52.25
X161.5Y-53.25
X161.5Y-54.25
X161.5Y-55.25
X161.5Y-60.25
X161.5Y-61.25
X161.5Y-62.25
X161.5Y-63.25
X161.5Y-64.75
X161.5Y-65.75
X161.5Y-66.75
X161.5Y-67.75
X161.5Y-72.75
X161.5Y-73.75
X161.5Y-74.75
X161.5Y-75.75
X162.15Y-77.5
X162.15Y-78.5
X162.15Y-79.5
X162.15Y-80.5
X162.15Y-81.5
X162.15Y-82.5
X162.15Y-83.5
X162.15Y-84.5
X162.25Y-43.75
X162.25Y-44.75
X162.25Y-45.75
X162.25Y-46.75
X162.25Y-47.75
X162.25Y-48.75
X162.25Y-49.75
X162.25Y-50.75
X162.5Y-52.25
X162.5Y-53.25
X162.5Y-54.25
X162.5Y-55.25
X162.5Y-56.25
X162.5Y-59.25
X162.5Y-60.25
X162.5Y-61.25
X162.5Y-62.25
X162.5Y-63.25
X162.5Y-64.75
X162.5Y-65.75
X162.5Y-66.75
X162.5Y-67.75
X162.5Y-68.75
X162.5Y-71.75
X162.5Y-72.75
X162.5Y-73.75
X162.5Y-74.75
X162.5Y-75.75
X163.15Y-77.5
X163.15Y-78.5
X163.15Y-79.5
X163.15Y-80.5
X163.15Y-81.5
X163.15Y-82.5
X163.15Y-83.5
X163.15Y-84.5
X163.25Y-43.75
X163.25Y-44.75
X163.25Y-45.75
X163.25Y-46.75
X163.25Y-47.75
X163.25Y-48.75
X163.25Y-49.75
X163.25Y-50.75
X163.5Y-52.25
X163.5Y-53.25
X163.5Y-54.25
X163.5Y-55.25
X163.5Y-56.25
X163.5Y-59.25
X163.5Y-60.25
X163.5Y-61.25
X163.5Y-62.25
X163.5Y-63.25
X163.5Y-64.75
X163.5Y-65.75
X163.5Y-66.75
X163.5Y-67.75
X163.5Y-68.75
X163.5Y-71.75
X163.5Y-72.75
X163.5Y-73.75
X163.5Y-74.75
X163.5Y-75.75
X164.1Y-77.9
X164.15Y-81.5
X164.15Y-82.5
X164.25Y-43.75
X164.25Y-46.75
X164.25Y-48.75
X165.25Y-43.75
X165.25Y-46.75
X165.25Y-56.5
X165.25Y-57.5
X165.25Y-58.5
X165.25Y-59.5
X166.25Y-43.75
X166.25Y-46.75
X166.25Y-56.5
X166.25Y-57.5
X166.25Y-58.5
X166.25Y-59.5
X167.1Y-76.1
X167.1Y-77.9
X167.15Y-73.5
X167.15Y-74.5
X167.15Y-81.5
X167.15Y-82.5
X167.25Y-43.75
X167.25Y-46.75
X167.25Y-48.75
X167.25Y-51.25
X167.25Y-53.
X167.25Y-56.5
X167.25Y-57.5
X167.25Y-58.5
X167.25Y-59.5
X167.25Y-60.5
X167.25Y-61.5
X167.25Y-62.5
X167.25Y-63.5
X167.25Y-64.5
X167.25Y-65.5
X167.25Y-66.5
X167.25Y-67.5
X167.25Y-68.5
X167.25Y-69.5
X167.25Y-70.5
X167.25Y-71.5
X168.15Y-73.5
X168.15Y-74.5
X168.15Y-75.5
X168.15Y-76.5
X168.15Y-77.5
X168.15Y-78.5
X168.15Y-79.5
X168.15Y-80.5
X168.15Y-81.5
X168.15Y-82.5
X168.15Y-83.5
X168.15Y-84.5
X168.25Y-43.75
X168.25Y-44.75
X168.25Y-45.75
X168.25Y-46.75
X168.25Y-47.75
X168.25Y-48.75
X168.25Y-49.75
X168.25Y-50.75
X168.25Y-51.75
X168.25Y-52.75
X168.25Y-53.75
X168.25Y-54.75
X168.25Y-56.5
X168.25Y-57.5
X168.25Y-58.5
X168.25Y-59.5
X168.25Y-60.5
X168.25Y-61.5
X168.25Y-62.5
X168.25Y-63.5
X168.25Y-64.5
X168.25Y-65.5
X168.25Y-66.5
X168.25Y-67.5
X168.25Y-68.5
X168.25Y-69.5
X168.25Y-70.5
X168.25Y-71.5
X169.15Y-73.5
X169.15Y-74.5
X169.15Y-75.5
X169.15Y-76.5
X169.15Y-77.5
X169.15Y-78.5
X169.15Y-79.5
X169.15Y-80.5
X169.15Y-81.5
X169.15Y-82.5
X169.15Y-83.5
X169.15Y-84.5
X169.25Y-43.75
X169.25Y-44.75
X169.25Y-45.75
X169.25Y-46.75
X169.25Y-47.75
X169.25Y-48.75
X169.25Y-49.75
X169.25Y-50.75
X169.25Y-51.75
X169.25Y-52.75
X169.25Y-53.75
X169.25Y-54.75
X169.25Y-56.5
X169.25Y-57.5
X169.25Y-58.5
X169.25Y-59.5
X169.25Y-60.5
X169.25Y-61.5
X169.25Y-62.5
X169.25Y-63.5
X169.25Y-64.5
X169.25Y-65.5
X169.25Y-66.5
X169.25Y-67.5
X169.25Y-68.5
X169.25Y-69.5
X169.25Y-70.5
X169.25Y-71.5
X170.15Y-73.5
X170.15Y-74.5
X170.15Y-75.5
X170.15Y-76.5
X170.15Y-77.5
X170.15Y-78.5
X170.15Y-79.5
X170.15Y-80.5
X170.15Y-81.5
X170.15Y-82.5
X170.15Y-83.5
X170.15Y-84.5
X170.25Y-43.75
X170.25Y-44.75
X170.25Y-45.75
X170.25Y-46.75
X170.25Y-47.75
X170.25Y-48.75
X170.25Y-49.75
X170.25Y-50.75
X170.25Y-51.75
X170.25Y-52.75
X170.25Y-53.75
X170.25Y-54.75
X170.25Y-56.5
X170.25Y-57.5
X170.25Y-58.5
X170.25Y-59.5
X170.25Y-60.5
X170.25Y-61.5
X170.25Y-62.5
X170.25Y-63.5
X170.25Y-64.5
X170.25Y-65.5
X170.25Y-66.5
X170.25Y-67.5
X170.25Y-68.5
X170.25Y-69.5
X170.25Y-70.5
X170.25Y-71.5
X171.15Y-73.5
X171.15Y-74.5
X171.15Y-75.5
X171.15Y-76.5
X171.15Y-77.5
X171.15Y-78.5
X171.15Y-79.5
X171.15Y-80.5
X171.15Y-81.5
X171.15Y-82.5
X171.15Y-83.5
X171.15Y-84.5
X171.25Y-43.75
X171.25Y-44.75
X171.25Y-45.75
X171.25Y-46.75
X171.25Y-47.75
X171.25Y-48.75
X171.25Y-49.75
X171.25Y-50.75
X171.25Y-51.75
X171.25Y-52.75
X171.25Y-53.75
X171.25Y-54.75
X171.25Y-56.5
X171.25Y-57.5
X171.25Y-58.5
X171.25Y-59.5
X171.25Y-60.5
X171.25Y-61.5
X171.25Y-62.5
X171.25Y-63.5
X171.25Y-64.5
X171.25Y-65.5
X171.25Y-66.5
X171.25Y-67.5
X171.25Y-68.5
X171.25Y-69.5
X171.25Y-70.5
X171.25Y-71.5
X172.7Y-73.5
X172.7Y-74.5
X172.7Y-75.5
X172.7Y-76.5
X172.7Y-77.5
X172.7Y-78.5
X172.7Y-79.5
X172.7Y-80.5
X172.7Y-81.5
X172.7Y-82.5
X172.7Y-83.5
X172.7Y-84.5
X172.75Y-43.75
X172.75Y-44.75
X172.75Y-45.75
X172.75Y-46.75
X172.75Y-47.75
X172.75Y-48.75
X172.75Y-49.75
X172.75Y-50.75
X172.75Y-51.75
X172.75Y-52.75
X172.75Y-53.75
X172.75Y-54.75
X172.75Y-56.5
X172.75Y-57.5
X172.75Y-58.5
X172.75Y-59.5
X172.75Y-60.5
X172.75Y-61.5
X172.75Y-62.5
X172.75Y-63.5
X172.75Y-64.5
X172.75Y-65.5
X172.75Y-66.5
X172.75Y-67.5
X172.75Y-68.5
X172.75Y-69.5
X172.75Y-70.5
X172.75Y-71.5
X173.7Y-73.5
X173.7Y-74.5
X173.7Y-75.5
X173.7Y-76.5
X173.7Y-77.5
X173.7Y-78.5
X173.7Y-79.5
X173.7Y-80.5
X173.7Y-81.5
X173.7Y-82.5
X173.7Y-83.5
X173.7Y-84.5
X173.75Y-43.75
X173.75Y-44.75
X173.75Y-45.75
X173.75Y-46.75
X173.75Y-47.75
X173.75Y-48.75
X173.75Y-49.75
X173.75Y-50.75
X173.75Y-51.75
X173.75Y-52.75
X173.75Y-53.75
X173.75Y-54.75
X173.75Y-56.5
X173.75Y-57.5
X173.75Y-58.5
X173.75Y-59.5
X173.75Y-60.5
X173.75Y-61.5
X173.75Y-62.5
X173.75Y-63.5
X173.75Y-64.5
X173.75Y-65.5
X173.75Y-66.5
X173.75Y-67.5
X173.75Y-68.5
X173.75Y-69.5
X173.75Y-70.5
X173.75Y-71.5
X174.7Y-73.5
X174.7Y-74.5
X174.7Y-75.5
X174.7Y-76.5
X174.7Y-77.5
X174.7Y-78.5
X174.7Y-79.5
X174.7Y-80.5
X174.7Y-81.5
X174.7Y-82.5
X174.7Y-83.5
X174.7Y-84.5
X174.75Y-43.75
X174.75Y-44.75
X174.75Y-45.75
X174.75Y-46.75
X174.75Y-47.75
X174.75Y-48.75
X174.75Y-49.75
X174.75Y-50.75
X174.75Y-51.75
X174.75Y-52.75
X174.75Y-53.75
X174.75Y-54.75
X174.75Y-56.5
X174.75Y-57.5
X174.75Y-58.5
X174.75Y-59.5
X174.75Y-60.5
X174.75Y-61.5
X174.75Y-62.5
X174.75Y-63.5
X174.75Y-64.5
X174.75Y-65.5
X174.75Y-66.5
X174.75Y-67.5
X174.75Y-68.5
X174.75Y-69.5
X174.75Y-70.5
X174.75Y-71.5
X175.7Y-73.5
X175.7Y-74.5
X175.7Y-75.5
X175.7Y-76.5
X175.7Y-77.5
X175.7Y-78.5
X175.7Y-79.5
X175.7Y-80.5
X175.7Y-81.5
X175.7Y-82.5
X175.7Y-83.5
X175.7Y-84.5
X175.75Y-43.75
X175.75Y-44.75
X175.75Y-45.75
X175.75Y-46.75
X175.75Y-47.75
X175.75Y-48.75
X175.75Y-49.75
X175.75Y-50.75
X175.75Y-51.75
X175.75Y-52.75
X175.75Y-53.75
X175.75Y-54.75
X175.75Y-56.5
X175.75Y-57.5
X175.75Y-58.5
X175.75Y-59.5
X175.75Y-60.5
X175.75Y-61.5
X175.75Y-62.5
X175.75Y-63.5
X175.75Y-64.5
X175.75Y-65.5
X175.75Y-66.5
X175.75Y-67.5
X175.75Y-68.5
X175.75Y-69.5
X175.75Y-70.5
X175.75Y-71.5
X176.7Y-73.5
X176.7Y-74.5
X176.7Y-76.1
X176.7Y-77.9
X176.7Y-81.5
X176.7Y-82.5
X176.75Y-43.75
X176.75Y-46.75
X176.75Y-48.5
X176.75Y-51.25
X176.75Y-53.
X176.75Y-56.5
X176.75Y-57.5
X176.75Y-58.5
X176.75Y-59.5
X176.75Y-60.5
X176.75Y-61.5
X176.75Y-62.5
X176.75Y-63.5
X176.75Y-64.5
X176.75Y-65.5
X176.75Y-66.5
X176.75Y-67.5
X176.75Y-68.5
X176.75Y-69.5
X176.75Y-70.5
X176.75Y-71.5
X177.75Y-43.75
X177.75Y-46.75
X177.75Y-56.5
X177.75Y-57.5
X177.75Y-58.5
X177.75Y-59.5
X178.75Y-43.75
X178.75Y-46.75
X178.75Y-56.5
X178.75Y-57.5
X178.75Y-58.5
X178.75Y-59.5
X179.7Y-77.9
X179.7Y-81.5
X179.7Y-82.5
X179.75Y-43.75
X179.75Y-46.75
X179.75Y-48.5
X180.5Y-52.25
X180.5Y-53.25
X180.5Y-54.25
X180.5Y-55.25
X180.5Y-56.25
X180.5Y-59.25
X180.5Y-60.25
X180.5Y-61.25
X180.5Y-62.25
X180.5Y-63.25
X180.5Y-64.75
X180.5Y-65.75
X180.5Y-66.75
X180.5Y-67.75
X180.5Y-68.75
X180.5Y-71.75
X180.5Y-72.75
X180.5Y-73.75
X180.5Y-74.75
X180.5Y-75.75
X180.7Y-77.5
X180.7Y-78.5
X180.7Y-79.5
X180.7Y-80.5
X180.7Y-81.5
X180.7Y-82.5
X180.7Y-83.5
X180.7Y-84.5
X180.75Y-43.75
X180.75Y-44.75
X180.75Y-45.75
X180.75Y-46.75
X180.75Y-47.75
X180.75Y-48.75
X180.75Y-49.75
X180.75Y-50.75
X181.5Y-52.25
X181.5Y-53.25
X181.5Y-54.25
X181.5Y-55.25
X181.5Y-56.25
X181.5Y-59.25
X181.5Y-60.25
X181.5Y-61.25
X181.5Y-62.25
X181.5Y-63.25
X181.5Y-64.75
X181.5Y-65.75
X181.5Y-66.75
X181.5Y-67.75
X181.5Y-68.75
X181.5Y-71.75
X181.5Y-72.75
X181.5Y-73.75
X181.5Y-74.75
X181.5Y-75.75
X181.7Y-77.5
X181.7Y-78.5
X181.7Y-79.5
X181.7Y-80.5
X181.7Y-81.5
X181.7Y-82.5
X181.7Y-83.5
X181.7Y-84.5
X181.75Y-43.75
X181.75Y-44.75
X181.75Y-45.75
X181.75Y-46.75
X181.75Y-47.75
X181.75Y-48.75
X181.75Y-49.75
X181.75Y-50.75
X182.5Y-52.25
X182.5Y-53.25
X182.5Y-54.25
X182.5Y-55.25
X182.5Y-60.25
X182.5Y-61.25
X182.5Y-62.25
X182.5Y-63.25
X182.5Y-64.75
X182.5Y-65.75
X182.5Y-66.75
X182.5Y-67.75
X182.5Y-72.75
X182.5Y-73.75
X182.5Y-74.75
X182.5Y-75.75
X182.7Y-77.5
X182.7Y-78.5
X182.7Y-79.5
X182.7Y-80.5
X182.7Y-81.5
X182.7Y-82.5
X182.7Y-83.5
X182.7Y-84.5
X182.75Y-43.75
X182.75Y-44.75
X182.75Y-45.75
X182.75Y-46.75
X182.75Y-47.75
X182.75Y-48.75
X182.75Y-49.75
X182.75Y-50.75
X183.5Y-52.25
X183.5Y-53.25
X183.5Y-54.25
X183.5Y-55.25
X183.5Y-56.25
X183.5Y-59.25
X183.5Y-60.25
X183.5Y-61.25
X183.5Y-62.25
X183.5Y-63.25
X183.5Y-64.75
X183.5Y-65.75
X183.5Y-66.75
X183.5Y-67.75
X183.5Y-72.75
X183.5Y-73.75
X183.5Y-74.75
X183.5Y-75.75
X183.7Y-77.5
X183.7Y-78.5
X183.7Y-79.5
X183.7Y-80.5
X183.7Y-81.5
X183.7Y-82.5
X183.7Y-83.5
X183.7Y-84.5
X183.75Y-43.75
X183.75Y-44.75
X183.75Y-45.75
X183.75Y-46.75
X183.75Y-47.75
X183.75Y-48.75
X183.75Y-49.75
X183.75Y-50.75
X184.5Y-52.25
X184.5Y-53.25
X184.5Y-54.25
X184.5Y-55.25
X184.5Y-60.25
X184.5Y-61.25
X184.5Y-62.25
X184.5Y-63.25
X184.5Y-64.75
X184.5Y-65.75
X184.5Y-66.75
X184.5Y-67.75
X184.5Y-72.75
X184.5Y-73.75
X184.5Y-74.75
X184.5Y-75.75
X185.25Y-43.75
X185.25Y-44.75
X185.25Y-45.75
X185.25Y-46.75
X185.25Y-47.75
X185.25Y-48.75
X185.25Y-49.75
X185.25Y-50.75
X185.25Y-77.5
X185.25Y-78.5
X185.25Y-79.5
X185.25Y-80.5
X185.25Y-81.5
X185.25Y-82.5
X185.25Y-83.5
X185.25Y-84.5
X185.5Y-52.25
X185.5Y-53.25
X185.5Y-54.25
X185.5Y-55.25
X185.5Y-60.25
X185.5Y-61.25
X185.5Y-62.25
X185.5Y-63.25
X185.5Y-64.75
X185.5Y-65.75
X185.5Y-66.75
X185.5Y-67.75
X185.5Y-68.75
X185.5Y-71.75
X185.5Y-72.75
X185.5Y-73.75
X185.5Y-74.75
X185.5Y-75.75
X186.25Y-43.75
X186.25Y-44.75
X186.25Y-45.75
X186.25Y-46.75
X186.25Y-47.75
X186.25Y-48.75
X186.25Y-49.75
X186.25Y-50.75
X186.25Y-77.5
X186.25Y-78.5
X186.25Y-79.5
X186.25Y-80.5
X186.25Y-81.5
X186.25Y-82.5
X186.25Y-83.5
X186.25Y-84.5
X186.5Y-52.25
X186.5Y-53.25
X186.5Y-54.25
X186.5Y-55.25
X186.5Y-60.25
X186.5Y-61.25
X186.5Y-62.25
X186.5Y-63.25
X186.5Y-64.75
X186.5Y-65.75
X186.5Y-66.75
X186.5Y-67.75
X186.5Y-72.75
X186.5Y-73.75
X186.5Y-74.75
X186.5Y-75.75
X187.25Y-43.75
X187.25Y-44.75
X187.25Y-45.75
X187.25Y-46.75
X187.25Y-47.75
X187.25Y-48.75
X187.25Y-49.75
X187.25Y-50.75
X187.25Y-77.5
X187.25Y-78.5
X187.25Y-79.5
X187.25Y-80.5
X187.25Y-81.5
X187.25Y-82.5
X187.25Y-83.5
X187.25Y-84.5
X187.5Y-52.25
X187.5Y-53.25
X187.5Y-54.25
X187.5Y-55.25
X187.5Y-56.25
X187.5Y-59.25
X187.5Y-60.25
X187.5Y-61.25
X187.5Y-62.25
X187.5Y-63.25
X187.5Y-64.75
X187.5Y-65.75
X187.5Y-66.75
X187.5Y-67.75
X187.5Y-68.75
X187.5Y-71.75
X187.5Y-72.75
X187.5Y-73.75
X187.5Y-74.75
X187.5Y-75.75
X188.25Y-43.75
X188.25Y-44.75
X188.25Y-45.75
X188.25Y-46.75
X188.25Y-47.75
X188.25Y-48.75
X188.25Y-49.75
X188.25Y-50.75
X188.25Y-77.5
X188.25Y-78.5
X188.25Y-79.5
X188.25Y-80.5
X188.25Y-81.5
X188.25Y-82.5
X188.25Y-83.5
X188.25Y-84.5
X188.5Y-52.25
X188.5Y-53.25
X188.5Y-54.25
X188.5Y-55.25
X188.5Y-56.25
X188.5Y-59.25
X188.5Y-60.25
X188.5Y-61.25
X188.5Y-62.25
X188.5Y-63.25
X188.5Y-64.75
X188.5Y-65.75
X188.5Y-66.75
X188.5Y-67.75
X188.5Y-68.75
X188.5Y-71.75
X188.5Y-72.75
X188.5Y-73.75
X188.5Y-74.75
X188.5Y-75.75
X189.2Y-77.95
X189.25Y-43.75
X189.25Y-46.75
X189.25Y-48.5
X189.25Y-81.5
X189.25Y-82.5
X190.25Y-43.75
X190.25Y-46.75
X190.25Y-56.275
X190.25Y-57.275
X190.25Y-58.275
X190.25Y-59.275
X191.25Y-43.75
X191.25Y-46.75
X191.25Y-56.275
X191.25Y-57.275
X191.25Y-58.275
X191.25Y-59.275
X192.2Y-76.05
X192.2Y-77.95
X192.25Y-43.75
X192.25Y-46.75
X192.25Y-48.5
X192.25Y-51.25
X192.25Y-53.
X192.25Y-56.275
X192.25Y-57.275
X192.25Y-58.275
X192.25Y-59.275
X192.25Y-60.275
X192.25Y-61.275
X192.25Y-62.275
X192.25Y-63.275
X192.25Y-64.275
X192.25Y-65.275
X192.25Y-66.275
X192.25Y-67.275
X192.25Y-68.275
X192.25Y-69.275
X192.25Y-70.275
X192.25Y-71.275
X192.25Y-73.5
X192.25Y-74.5
X192.25Y-81.5
X192.25Y-82.5
X193.25Y-43.75
X193.25Y-44.75
X193.25Y-45.75
X193.25Y-46.75
X193.25Y-47.75
X193.25Y-48.75
X193.25Y-49.75
X193.25Y-50.75
X193.25Y-51.75
X193.25Y-52.75
X193.25Y-53.75
X193.25Y-54.75
X193.25Y-56.275
X193.25Y-57.275
X193.25Y-58.275
X193.25Y-59.275
X193.25Y-60.275
X193.25Y-61.275
X193.25Y-62.275
X193.25Y-63.275
X193.25Y-64.275
X193.25Y-65.275
X193.25Y-66.275
X193.25Y-67.275
X193.25Y-68.275
X193.25Y-69.275
X193.25Y-70.275
X193.25Y-71.275
X193.25Y-73.5
X193.25Y-74.5
X193.25Y-75.5
X193.25Y-76.5
X193.25Y-77.5
X193.25Y-78.5
X193.25Y-79.5
X193.25Y-80.5
X193.25Y-81.5
X193.25Y-82.5
X193.25Y-83.5
X193.25Y-84.5
X194.25Y-43.75
X194.25Y-44.75
X194.25Y-45.75
X194.25Y-46.75
X194.25Y-47.75
X194.25Y-48.75
X194.25Y-49.75
X194.25Y-50.75
X194.25Y-51.75
X194.25Y-52.75
X194.25Y-53.75
X194.25Y-54.75
X194.25Y-56.275
X194.25Y-57.275
X194.25Y-58.275
X194.25Y-59.275
X194.25Y-60.275
X194.25Y-61.275
X194.25Y-62.275
X194.25Y-63.275
X194.25Y-64.275
X194.25Y-65.275
X194.25Y-66.275
X194.25Y-67.275
X194.25Y-68.275
X194.25Y-69.275
X194.25Y-70.275
X194.25Y-71.275
X194.25Y-73.5
X194.25Y-74.5
X194.25Y-75.5
X194.25Y-76.5
X194.25Y-77.5
X194.25Y-78.5
X194.25Y-79.5
X194.25Y-80.5
X194.25Y-81.5
X194.25Y-82.5
X194.25Y-83.5
X194.25Y-84.5
X195.25Y-43.75
X195.25Y-44.75
X195.25Y-45.75
X195.25Y-46.75
X195.25Y-47.75
X195.25Y-48.75
X195.25Y-49.75
X195.25Y-50.75
X195.25Y-51.75
X195.25Y-52.75
X195.25Y-53.75
X195.25Y-54.75
X195.25Y-56.275
X195.25Y-57.275
X195.25Y-58.275
X195.25Y-59.275
X195.25Y-60.275
X195.25Y-61.275
X195.25Y-62.275
X195.25Y-63.275
X195.25Y-64.275
X195.25Y-65.275
X195.25Y-66.275
X195.25Y-67.275
X195.25Y-68.275
X195.25Y-69.275
X195.25Y-70.275
X195.25Y-71.275
X195.25Y-73.5
X195.25Y-74.5
X195.25Y-75.5
X195.25Y-76.5
X195.25Y-77.5
X195.25Y-78.5
X195.25Y-79.5
X195.25Y-80.5
X195.25Y-81.5
X195.25Y-82.5
X195.25Y-83.5
X195.25Y-84.5
X196.25Y-43.75
X196.25Y-44.75
X196.25Y-45.75
X196.25Y-46.75
X196.25Y-47.75
X196.25Y-48.75
X196.25Y-49.75
X196.25Y-50.75
X196.25Y-51.75
X196.25Y-52.75
X196.25Y-53.75
X196.25Y-54.75
X196.25Y-56.275
X196.25Y-57.275
X196.25Y-58.275
X196.25Y-59.275
X196.25Y-60.275
X196.25Y-61.275
X196.25Y-62.275
X196.25Y-63.275
X196.25Y-64.275
X196.25Y-65.275
X196.25Y-66.275
X196.25Y-67.275
X196.25Y-68.275
X196.25Y-69.275
X196.25Y-70.275
X196.25Y-71.275
X196.25Y-73.5
X196.25Y-74.5
X196.25Y-75.5
X196.25Y-76.5
X196.25Y-77.5
X196.25Y-78.5
X196.25Y-79.5
X196.25Y-80.5
X196.25Y-81.5
X196.25Y-82.5
X196.25Y-83.5
X196.25Y-84.5
T2
X118.75Y-78.
X120.425Y-50.
X122.75Y-88.25
X123.7Y-87.5
X126.9Y-88.25
X130.Y-86.
X131.15Y-70.25
X131.25Y-57.75
X137.975Y-70.25
X138.Y-57.75
X139.9Y-89.
X142.5Y-86.
X152.5Y-88.25
X155.Y-86.
X156.25Y-57.75
X156.25Y-70.25
X162.75Y-70.25
X163.Y-57.75
X165.1Y-87.5
X167.5Y-86.1
X177.5Y-89.
X179.9Y-86.1
X181.Y-57.75
X181.Y-70.25
X188.Y-57.75
X188.25Y-70.25
X189.9Y-88.25
X192.3Y-86.1
X196.5Y-88.25
X198.125Y-73.975
X198.95Y-49.775
X199.5Y-75.75
X202.75Y-46.75
X204.55Y-51.7
X205.75Y-74.125
T3
X116.5Y-55.25
X116.5Y-57.75
X116.5Y-60.25
X116.5Y-62.75
X116.5Y-65.25
X116.5Y-67.75
X116.5Y-70.25
X116.5Y-72.75
X202.5Y-55.25
X202.5Y-57.75
X202.5Y-60.25
X202.5Y-62.75
X202.5Y-65.25
X202.5Y-67.75
X202.5Y-70.25
X202.5Y-72.75
T0
M30
