G04 #@! TF.FileFunction,Copper,L2,Bot,Signal*
%FSLAX46Y46*%
G04 Gerber Fmt 4.6, Leading zero omitted, Abs format (unit mm)*
G04 Created by KiCad (PCBNEW 4.0.4-stable) date 03/20/17 17:50:04*
%MOMM*%
%LPD*%
G01*
G04 APERTURE LIST*
%ADD10C,0.100000*%
%ADD11C,0.600000*%
%ADD12R,1.750000X1.750000*%
%ADD13C,1.750000*%
%ADD14C,0.400000*%
%ADD15C,1.500000*%
%ADD16C,0.254000*%
G04 APERTURE END LIST*
D10*
D11*
X151750000Y-71225000D03*
X150750000Y-71225000D03*
X149750000Y-71225000D03*
X148750000Y-71225000D03*
X147750000Y-71225000D03*
X151750000Y-70225000D03*
X150750000Y-70225000D03*
X149750000Y-70225000D03*
X148750000Y-70225000D03*
X147750000Y-70225000D03*
X151750000Y-69225000D03*
X150750000Y-69225000D03*
X149750000Y-69225000D03*
X148750000Y-69225000D03*
X147750000Y-69225000D03*
X151750000Y-68225000D03*
X150750000Y-68225000D03*
X149750000Y-68225000D03*
X148750000Y-68225000D03*
X147750000Y-68225000D03*
X151750000Y-67225000D03*
X150750000Y-67225000D03*
X149750000Y-67225000D03*
X148750000Y-67225000D03*
X147750000Y-67225000D03*
X151750000Y-66225000D03*
X150750000Y-66225000D03*
X149750000Y-66225000D03*
X148750000Y-66225000D03*
X147750000Y-66225000D03*
X151750000Y-65225000D03*
X150750000Y-65225000D03*
X149750000Y-65225000D03*
X148750000Y-65225000D03*
X147750000Y-65225000D03*
X151750000Y-64225000D03*
X150750000Y-64225000D03*
X149750000Y-64225000D03*
X148750000Y-64225000D03*
X147750000Y-64225000D03*
X151750000Y-63225000D03*
X150750000Y-63225000D03*
X149750000Y-63225000D03*
X148750000Y-63225000D03*
X147750000Y-63225000D03*
X151750000Y-62225000D03*
X150750000Y-62225000D03*
X149750000Y-62225000D03*
X148750000Y-62225000D03*
X147750000Y-62225000D03*
X151750000Y-61225000D03*
X150750000Y-61225000D03*
X149750000Y-61225000D03*
X148750000Y-61225000D03*
X147750000Y-61225000D03*
X151750000Y-60225000D03*
X150750000Y-60225000D03*
X149750000Y-60225000D03*
X148750000Y-60225000D03*
X147750000Y-60225000D03*
X153750000Y-59225000D03*
X152750000Y-59225000D03*
X151750000Y-59225000D03*
X150750000Y-59225000D03*
X149750000Y-59225000D03*
X148750000Y-59225000D03*
X147750000Y-59225000D03*
X153750000Y-58225000D03*
X152750000Y-58225000D03*
X151750000Y-58225000D03*
X150750000Y-58225000D03*
X149750000Y-58225000D03*
X148750000Y-58225000D03*
X147750000Y-58225000D03*
X153750000Y-57225000D03*
X152750000Y-57225000D03*
X151750000Y-57225000D03*
X150750000Y-57225000D03*
X149750000Y-57225000D03*
X148750000Y-57225000D03*
X147750000Y-57225000D03*
X153750000Y-56225000D03*
X152750000Y-56225000D03*
X151750000Y-56225000D03*
X150750000Y-56225000D03*
X149750000Y-56225000D03*
X148750000Y-56225000D03*
X147750000Y-56225000D03*
X126750000Y-71225000D03*
X125750000Y-71225000D03*
X124750000Y-71225000D03*
X123750000Y-71225000D03*
X122750000Y-71225000D03*
X126750000Y-70225000D03*
X125750000Y-70225000D03*
X124750000Y-70225000D03*
X123750000Y-70225000D03*
X122750000Y-70225000D03*
X126750000Y-69225000D03*
X125750000Y-69225000D03*
X124750000Y-69225000D03*
X123750000Y-69225000D03*
X122750000Y-69225000D03*
X126750000Y-68225000D03*
X125750000Y-68225000D03*
X124750000Y-68225000D03*
X123750000Y-68225000D03*
X122750000Y-68225000D03*
X126750000Y-67225000D03*
X125750000Y-67225000D03*
X124750000Y-67225000D03*
X123750000Y-67225000D03*
X122750000Y-67225000D03*
X126750000Y-66225000D03*
X125750000Y-66225000D03*
X124750000Y-66225000D03*
X123750000Y-66225000D03*
X122750000Y-66225000D03*
X126750000Y-65225000D03*
X125750000Y-65225000D03*
X124750000Y-65225000D03*
X123750000Y-65225000D03*
X122750000Y-65225000D03*
X126750000Y-64225000D03*
X125750000Y-64225000D03*
X124750000Y-64225000D03*
X123750000Y-64225000D03*
X122750000Y-64225000D03*
X126750000Y-63225000D03*
X125750000Y-63225000D03*
X124750000Y-63225000D03*
X123750000Y-63225000D03*
X122750000Y-63225000D03*
X126750000Y-62225000D03*
X125750000Y-62225000D03*
X124750000Y-62225000D03*
X123750000Y-62225000D03*
X122750000Y-62225000D03*
X126750000Y-61225000D03*
X125750000Y-61225000D03*
X124750000Y-61225000D03*
X123750000Y-61225000D03*
X122750000Y-61225000D03*
X126750000Y-60225000D03*
X125750000Y-60225000D03*
X124750000Y-60225000D03*
X123750000Y-60225000D03*
X122750000Y-60225000D03*
X128750000Y-59225000D03*
X127750000Y-59225000D03*
X126750000Y-59225000D03*
X125750000Y-59225000D03*
X124750000Y-59225000D03*
X123750000Y-59225000D03*
X122750000Y-59225000D03*
X128750000Y-58225000D03*
X127750000Y-58225000D03*
X126750000Y-58225000D03*
X125750000Y-58225000D03*
X124750000Y-58225000D03*
X123750000Y-58225000D03*
X122750000Y-58225000D03*
X128750000Y-57225000D03*
X127750000Y-57225000D03*
X126750000Y-57225000D03*
X125750000Y-57225000D03*
X124750000Y-57225000D03*
X123750000Y-57225000D03*
X122750000Y-57225000D03*
X128750000Y-56225000D03*
X127750000Y-56225000D03*
X126750000Y-56225000D03*
X125750000Y-56225000D03*
X124750000Y-56225000D03*
X123750000Y-56225000D03*
X122750000Y-56225000D03*
X142275000Y-71225000D03*
X143275000Y-71225000D03*
X144275000Y-71225000D03*
X145275000Y-71225000D03*
X146275000Y-71225000D03*
X142275000Y-70225000D03*
X143275000Y-70225000D03*
X144275000Y-70225000D03*
X145275000Y-70225000D03*
X146275000Y-70225000D03*
X142275000Y-69225000D03*
X143275000Y-69225000D03*
X144275000Y-69225000D03*
X145275000Y-69225000D03*
X146275000Y-69225000D03*
X142275000Y-68225000D03*
X143275000Y-68225000D03*
X144275000Y-68225000D03*
X145275000Y-68225000D03*
X146275000Y-68225000D03*
X142275000Y-67225000D03*
X143275000Y-67225000D03*
X144275000Y-67225000D03*
X145275000Y-67225000D03*
X146275000Y-67225000D03*
X142275000Y-66225000D03*
X143275000Y-66225000D03*
X144275000Y-66225000D03*
X145275000Y-66225000D03*
X146275000Y-66225000D03*
X142275000Y-65225000D03*
X143275000Y-65225000D03*
X144275000Y-65225000D03*
X145275000Y-65225000D03*
X146275000Y-65225000D03*
X142275000Y-64225000D03*
X143275000Y-64225000D03*
X144275000Y-64225000D03*
X145275000Y-64225000D03*
X146275000Y-64225000D03*
X142275000Y-63225000D03*
X143275000Y-63225000D03*
X144275000Y-63225000D03*
X145275000Y-63225000D03*
X146275000Y-63225000D03*
X142275000Y-62225000D03*
X143275000Y-62225000D03*
X144275000Y-62225000D03*
X145275000Y-62225000D03*
X146275000Y-62225000D03*
X142275000Y-61225000D03*
X143275000Y-61225000D03*
X144275000Y-61225000D03*
X145275000Y-61225000D03*
X146275000Y-61225000D03*
X142275000Y-60225000D03*
X143275000Y-60225000D03*
X144275000Y-60225000D03*
X145275000Y-60225000D03*
X146275000Y-60225000D03*
X140275000Y-59225000D03*
X141275000Y-59225000D03*
X142275000Y-59225000D03*
X143275000Y-59225000D03*
X144275000Y-59225000D03*
X145275000Y-59225000D03*
X146275000Y-59225000D03*
X140275000Y-58225000D03*
X141275000Y-58225000D03*
X142275000Y-58225000D03*
X143275000Y-58225000D03*
X144275000Y-58225000D03*
X145275000Y-58225000D03*
X146275000Y-58225000D03*
X140275000Y-57225000D03*
X141275000Y-57225000D03*
X142275000Y-57225000D03*
X143275000Y-57225000D03*
X144275000Y-57225000D03*
X145275000Y-57225000D03*
X146275000Y-57225000D03*
X140275000Y-56225000D03*
X141275000Y-56225000D03*
X142275000Y-56225000D03*
X143275000Y-56225000D03*
X144275000Y-56225000D03*
X145275000Y-56225000D03*
X146275000Y-56225000D03*
X192250000Y-71275000D03*
X193250000Y-71275000D03*
X194250000Y-71275000D03*
X195250000Y-71275000D03*
X196250000Y-71275000D03*
X192250000Y-70275000D03*
X193250000Y-70275000D03*
X194250000Y-70275000D03*
X195250000Y-70275000D03*
X196250000Y-70275000D03*
X192250000Y-69275000D03*
X193250000Y-69275000D03*
X194250000Y-69275000D03*
X195250000Y-69275000D03*
X196250000Y-69275000D03*
X192250000Y-68275000D03*
X193250000Y-68275000D03*
X194250000Y-68275000D03*
X195250000Y-68275000D03*
X196250000Y-68275000D03*
X192250000Y-67275000D03*
X193250000Y-67275000D03*
X194250000Y-67275000D03*
X195250000Y-67275000D03*
X196250000Y-67275000D03*
X192250000Y-66275000D03*
X193250000Y-66275000D03*
X194250000Y-66275000D03*
X195250000Y-66275000D03*
X196250000Y-66275000D03*
X192250000Y-65275000D03*
X193250000Y-65275000D03*
X194250000Y-65275000D03*
X195250000Y-65275000D03*
X196250000Y-65275000D03*
X192250000Y-64275000D03*
X193250000Y-64275000D03*
X194250000Y-64275000D03*
X195250000Y-64275000D03*
X196250000Y-64275000D03*
X192250000Y-63275000D03*
X193250000Y-63275000D03*
X194250000Y-63275000D03*
X195250000Y-63275000D03*
X196250000Y-63275000D03*
X192250000Y-62275000D03*
X193250000Y-62275000D03*
X194250000Y-62275000D03*
X195250000Y-62275000D03*
X196250000Y-62275000D03*
X192250000Y-61275000D03*
X193250000Y-61275000D03*
X194250000Y-61275000D03*
X195250000Y-61275000D03*
X196250000Y-61275000D03*
X192250000Y-60275000D03*
X193250000Y-60275000D03*
X194250000Y-60275000D03*
X195250000Y-60275000D03*
X196250000Y-60275000D03*
X190250000Y-59275000D03*
X191250000Y-59275000D03*
X192250000Y-59275000D03*
X193250000Y-59275000D03*
X194250000Y-59275000D03*
X195250000Y-59275000D03*
X196250000Y-59275000D03*
X190250000Y-58275000D03*
X191250000Y-58275000D03*
X192250000Y-58275000D03*
X193250000Y-58275000D03*
X194250000Y-58275000D03*
X195250000Y-58275000D03*
X196250000Y-58275000D03*
X190250000Y-57275000D03*
X191250000Y-57275000D03*
X192250000Y-57275000D03*
X193250000Y-57275000D03*
X194250000Y-57275000D03*
X195250000Y-57275000D03*
X196250000Y-57275000D03*
X190250000Y-56275000D03*
X191250000Y-56275000D03*
X192250000Y-56275000D03*
X193250000Y-56275000D03*
X194250000Y-56275000D03*
X195250000Y-56275000D03*
X196250000Y-56275000D03*
X176750000Y-71500000D03*
X175750000Y-71500000D03*
X174750000Y-71500000D03*
X173750000Y-71500000D03*
X172750000Y-71500000D03*
X176750000Y-70500000D03*
X175750000Y-70500000D03*
X174750000Y-70500000D03*
X173750000Y-70500000D03*
X172750000Y-70500000D03*
X176750000Y-69500000D03*
X175750000Y-69500000D03*
X174750000Y-69500000D03*
X173750000Y-69500000D03*
X172750000Y-69500000D03*
X176750000Y-68500000D03*
X175750000Y-68500000D03*
X174750000Y-68500000D03*
X173750000Y-68500000D03*
X172750000Y-68500000D03*
X176750000Y-67500000D03*
X175750000Y-67500000D03*
X174750000Y-67500000D03*
X173750000Y-67500000D03*
X172750000Y-67500000D03*
X176750000Y-66500000D03*
X175750000Y-66500000D03*
X174750000Y-66500000D03*
X173750000Y-66500000D03*
X172750000Y-66500000D03*
X176750000Y-65500000D03*
X175750000Y-65500000D03*
X174750000Y-65500000D03*
X173750000Y-65500000D03*
X172750000Y-65500000D03*
X176750000Y-64500000D03*
X175750000Y-64500000D03*
X174750000Y-64500000D03*
X173750000Y-64500000D03*
X172750000Y-64500000D03*
X176750000Y-63500000D03*
X175750000Y-63500000D03*
X174750000Y-63500000D03*
X173750000Y-63500000D03*
X172750000Y-63500000D03*
X176750000Y-62500000D03*
X175750000Y-62500000D03*
X174750000Y-62500000D03*
X173750000Y-62500000D03*
X172750000Y-62500000D03*
X176750000Y-61500000D03*
X175750000Y-61500000D03*
X174750000Y-61500000D03*
X173750000Y-61500000D03*
X172750000Y-61500000D03*
X176750000Y-60500000D03*
X175750000Y-60500000D03*
X174750000Y-60500000D03*
X173750000Y-60500000D03*
X172750000Y-60500000D03*
X178750000Y-59500000D03*
X177750000Y-59500000D03*
X176750000Y-59500000D03*
X175750000Y-59500000D03*
X174750000Y-59500000D03*
X173750000Y-59500000D03*
X172750000Y-59500000D03*
X178750000Y-58500000D03*
X177750000Y-58500000D03*
X176750000Y-58500000D03*
X175750000Y-58500000D03*
X174750000Y-58500000D03*
X173750000Y-58500000D03*
X172750000Y-58500000D03*
X178750000Y-57500000D03*
X177750000Y-57500000D03*
X176750000Y-57500000D03*
X175750000Y-57500000D03*
X174750000Y-57500000D03*
X173750000Y-57500000D03*
X172750000Y-57500000D03*
X178750000Y-56500000D03*
X177750000Y-56500000D03*
X176750000Y-56500000D03*
X175750000Y-56500000D03*
X174750000Y-56500000D03*
X173750000Y-56500000D03*
X172750000Y-56500000D03*
X171250000Y-71500000D03*
X170250000Y-71500000D03*
X169250000Y-71500000D03*
X168250000Y-71500000D03*
X167250000Y-71500000D03*
X171250000Y-70500000D03*
X170250000Y-70500000D03*
X169250000Y-70500000D03*
X168250000Y-70500000D03*
X167250000Y-70500000D03*
X171250000Y-69500000D03*
X170250000Y-69500000D03*
X169250000Y-69500000D03*
X168250000Y-69500000D03*
X167250000Y-69500000D03*
X171250000Y-68500000D03*
X170250000Y-68500000D03*
X169250000Y-68500000D03*
X168250000Y-68500000D03*
X167250000Y-68500000D03*
X171250000Y-67500000D03*
X170250000Y-67500000D03*
X169250000Y-67500000D03*
X168250000Y-67500000D03*
X167250000Y-67500000D03*
X171250000Y-66500000D03*
X170250000Y-66500000D03*
X169250000Y-66500000D03*
X168250000Y-66500000D03*
X167250000Y-66500000D03*
X171250000Y-65500000D03*
X170250000Y-65500000D03*
X169250000Y-65500000D03*
X168250000Y-65500000D03*
X167250000Y-65500000D03*
X171250000Y-64500000D03*
X170250000Y-64500000D03*
X169250000Y-64500000D03*
X168250000Y-64500000D03*
X167250000Y-64500000D03*
X171250000Y-63500000D03*
X170250000Y-63500000D03*
X169250000Y-63500000D03*
X168250000Y-63500000D03*
X167250000Y-63500000D03*
X171250000Y-62500000D03*
X170250000Y-62500000D03*
X169250000Y-62500000D03*
X168250000Y-62500000D03*
X167250000Y-62500000D03*
X171250000Y-61500000D03*
X170250000Y-61500000D03*
X169250000Y-61500000D03*
X168250000Y-61500000D03*
X167250000Y-61500000D03*
X171250000Y-60500000D03*
X170250000Y-60500000D03*
X169250000Y-60500000D03*
X168250000Y-60500000D03*
X167250000Y-60500000D03*
X171250000Y-59500000D03*
X170250000Y-59500000D03*
X169250000Y-59500000D03*
X168250000Y-59500000D03*
X167250000Y-59500000D03*
X166250000Y-59500000D03*
X165250000Y-59500000D03*
X171250000Y-58500000D03*
X170250000Y-58500000D03*
X169250000Y-58500000D03*
X168250000Y-58500000D03*
X167250000Y-58500000D03*
X166250000Y-58500000D03*
X165250000Y-58500000D03*
X171250000Y-57500000D03*
X170250000Y-57500000D03*
X169250000Y-57500000D03*
X168250000Y-57500000D03*
X167250000Y-57500000D03*
X166250000Y-57500000D03*
X165250000Y-57500000D03*
X171250000Y-56500000D03*
X170250000Y-56500000D03*
X169250000Y-56500000D03*
X168250000Y-56500000D03*
X167250000Y-56500000D03*
X166250000Y-56500000D03*
X165250000Y-56500000D03*
X188500000Y-75750000D03*
X187500000Y-75750000D03*
X186500000Y-75750000D03*
X185500000Y-75750000D03*
X184500000Y-75750000D03*
X183500000Y-75750000D03*
X182500000Y-75750000D03*
X181500000Y-75750000D03*
X180500000Y-75750000D03*
X188500000Y-74750000D03*
X187500000Y-74750000D03*
X186500000Y-74750000D03*
X185500000Y-74750000D03*
X184500000Y-74750000D03*
X183500000Y-74750000D03*
X182500000Y-74750000D03*
X181500000Y-74750000D03*
X180500000Y-74750000D03*
X188500000Y-73750000D03*
X187500000Y-73750000D03*
X186500000Y-73750000D03*
X185500000Y-73750000D03*
X184500000Y-73750000D03*
X183500000Y-73750000D03*
X182500000Y-73750000D03*
X181500000Y-73750000D03*
X180500000Y-73750000D03*
X188500000Y-72750000D03*
X187500000Y-72750000D03*
X186500000Y-72750000D03*
X185500000Y-72750000D03*
X184500000Y-72750000D03*
X183500000Y-72750000D03*
X182500000Y-72750000D03*
X181500000Y-72750000D03*
X180500000Y-72750000D03*
X188500000Y-71750000D03*
X187500000Y-71750000D03*
X185500000Y-71750000D03*
X181500000Y-71750000D03*
X180500000Y-71750000D03*
X188500000Y-68750000D03*
X187500000Y-68750000D03*
X185500000Y-68750000D03*
X181500000Y-68750000D03*
X180500000Y-68750000D03*
X188500000Y-67750000D03*
X187500000Y-67750000D03*
X186500000Y-67750000D03*
X185500000Y-67750000D03*
X184500000Y-67750000D03*
X183500000Y-67750000D03*
X182500000Y-67750000D03*
X181500000Y-67750000D03*
X180500000Y-67750000D03*
X188500000Y-66750000D03*
X187500000Y-66750000D03*
X186500000Y-66750000D03*
X185500000Y-66750000D03*
X184500000Y-66750000D03*
X183500000Y-66750000D03*
X182500000Y-66750000D03*
X181500000Y-66750000D03*
X180500000Y-66750000D03*
X188500000Y-65750000D03*
X187500000Y-65750000D03*
X186500000Y-65750000D03*
X185500000Y-65750000D03*
X184500000Y-65750000D03*
X183500000Y-65750000D03*
X182500000Y-65750000D03*
X181500000Y-65750000D03*
X180500000Y-65750000D03*
X188500000Y-64750000D03*
X187500000Y-64750000D03*
X186500000Y-64750000D03*
X185500000Y-64750000D03*
X184500000Y-64750000D03*
X183500000Y-64750000D03*
X182500000Y-64750000D03*
X181500000Y-64750000D03*
X180500000Y-64750000D03*
X163500000Y-75750000D03*
X162500000Y-75750000D03*
X161500000Y-75750000D03*
X160500000Y-75750000D03*
X159500000Y-75750000D03*
X158500000Y-75750000D03*
X157500000Y-75750000D03*
X156500000Y-75750000D03*
X155500000Y-75750000D03*
X163500000Y-74750000D03*
X162500000Y-74750000D03*
X161500000Y-74750000D03*
X160500000Y-74750000D03*
X159500000Y-74750000D03*
X158500000Y-74750000D03*
X157500000Y-74750000D03*
X156500000Y-74750000D03*
X155500000Y-74750000D03*
X163500000Y-73750000D03*
X162500000Y-73750000D03*
X161500000Y-73750000D03*
X160500000Y-73750000D03*
X159500000Y-73750000D03*
X158500000Y-73750000D03*
X157500000Y-73750000D03*
X156500000Y-73750000D03*
X155500000Y-73750000D03*
X163500000Y-72750000D03*
X162500000Y-72750000D03*
X161500000Y-72750000D03*
X160500000Y-72750000D03*
X159500000Y-72750000D03*
X158500000Y-72750000D03*
X157500000Y-72750000D03*
X156500000Y-72750000D03*
X155500000Y-72750000D03*
X163500000Y-71750000D03*
X162500000Y-71750000D03*
X160500000Y-71750000D03*
X156500000Y-71750000D03*
X155500000Y-71750000D03*
X163500000Y-68750000D03*
X162500000Y-68750000D03*
X160500000Y-68750000D03*
X156500000Y-68750000D03*
X155500000Y-68750000D03*
X163500000Y-67750000D03*
X162500000Y-67750000D03*
X161500000Y-67750000D03*
X160500000Y-67750000D03*
X159500000Y-67750000D03*
X158500000Y-67750000D03*
X157500000Y-67750000D03*
X156500000Y-67750000D03*
X155500000Y-67750000D03*
X163500000Y-66750000D03*
X162500000Y-66750000D03*
X161500000Y-66750000D03*
X160500000Y-66750000D03*
X159500000Y-66750000D03*
X158500000Y-66750000D03*
X157500000Y-66750000D03*
X156500000Y-66750000D03*
X155500000Y-66750000D03*
X163500000Y-65750000D03*
X162500000Y-65750000D03*
X161500000Y-65750000D03*
X160500000Y-65750000D03*
X159500000Y-65750000D03*
X158500000Y-65750000D03*
X157500000Y-65750000D03*
X156500000Y-65750000D03*
X155500000Y-65750000D03*
X163500000Y-64750000D03*
X162500000Y-64750000D03*
X161500000Y-64750000D03*
X160500000Y-64750000D03*
X159500000Y-64750000D03*
X158500000Y-64750000D03*
X157500000Y-64750000D03*
X156500000Y-64750000D03*
X131500000Y-68800000D03*
X130500000Y-68800000D03*
X138500000Y-68800000D03*
X137500000Y-68800000D03*
X135500000Y-68800000D03*
X130500000Y-67800000D03*
X131500000Y-67800000D03*
X132500000Y-67800000D03*
X133500000Y-67800000D03*
X134500000Y-67800000D03*
X135500000Y-67800000D03*
X136500000Y-67800000D03*
X137500000Y-67800000D03*
X138500000Y-67800000D03*
X138500000Y-75800000D03*
X137500000Y-75800000D03*
X136500000Y-75800000D03*
X135500000Y-75800000D03*
X134500000Y-75800000D03*
X133500000Y-75800000D03*
X132500000Y-75800000D03*
X131500000Y-75800000D03*
X130500000Y-75800000D03*
X138500000Y-74800000D03*
X137500000Y-74800000D03*
X136500000Y-74800000D03*
X135500000Y-74800000D03*
X134500000Y-74800000D03*
X133500000Y-74800000D03*
X132500000Y-74800000D03*
X131500000Y-74800000D03*
X130500000Y-74800000D03*
X138500000Y-73800000D03*
X137500000Y-73800000D03*
X136500000Y-73800000D03*
X135500000Y-73800000D03*
X134500000Y-73800000D03*
X133500000Y-73800000D03*
X132500000Y-73800000D03*
X131500000Y-73800000D03*
X130500000Y-73800000D03*
X138500000Y-72800000D03*
X137500000Y-72800000D03*
X136500000Y-72800000D03*
X135500000Y-72800000D03*
X134500000Y-72800000D03*
X133500000Y-72800000D03*
X132500000Y-72800000D03*
X131500000Y-72800000D03*
X130500000Y-72800000D03*
X138500000Y-71800000D03*
X137500000Y-71800000D03*
X135500000Y-71800000D03*
X131500000Y-71800000D03*
X130500000Y-71800000D03*
X138500000Y-66800000D03*
X137500000Y-66800000D03*
X136500000Y-66800000D03*
X135500000Y-66800000D03*
X134500000Y-66800000D03*
X133500000Y-66800000D03*
X132500000Y-66800000D03*
X131500000Y-66800000D03*
X130500000Y-66800000D03*
X138500000Y-65800000D03*
X137500000Y-65800000D03*
X136500000Y-65800000D03*
X135500000Y-65800000D03*
X134500000Y-65800000D03*
X133500000Y-65800000D03*
X132500000Y-65800000D03*
X131500000Y-65800000D03*
X130500000Y-65800000D03*
X138500000Y-64800000D03*
X137500000Y-64800000D03*
X136500000Y-64800000D03*
X135500000Y-64800000D03*
X134500000Y-64800000D03*
X133500000Y-64800000D03*
X132500000Y-64800000D03*
X131500000Y-64800000D03*
X130500000Y-64800000D03*
X188500000Y-63250000D03*
X187500000Y-63250000D03*
X186500000Y-63250000D03*
X185500000Y-63250000D03*
X184500000Y-63250000D03*
X183500000Y-63250000D03*
X182500000Y-63250000D03*
X181500000Y-63250000D03*
X180500000Y-63250000D03*
X188500000Y-62250000D03*
X187500000Y-62250000D03*
X186500000Y-62250000D03*
X185500000Y-62250000D03*
X184500000Y-62250000D03*
X183500000Y-62250000D03*
X182500000Y-62250000D03*
X181500000Y-62250000D03*
X180500000Y-62250000D03*
X188500000Y-61250000D03*
X187500000Y-61250000D03*
X186500000Y-61250000D03*
X185500000Y-61250000D03*
X184500000Y-61250000D03*
X183500000Y-61250000D03*
X182500000Y-61250000D03*
X181500000Y-61250000D03*
X180500000Y-61250000D03*
X188500000Y-60250000D03*
X187500000Y-60250000D03*
X186500000Y-60250000D03*
X185500000Y-60250000D03*
X184500000Y-60250000D03*
X183500000Y-60250000D03*
X182500000Y-60250000D03*
X181500000Y-60250000D03*
X180500000Y-60250000D03*
X188500000Y-59250000D03*
X187500000Y-59250000D03*
X183500000Y-59250000D03*
X181500000Y-59250000D03*
X180500000Y-59250000D03*
X188500000Y-56250000D03*
X187500000Y-56250000D03*
X183500000Y-56250000D03*
X181500000Y-56250000D03*
X180500000Y-56250000D03*
X188500000Y-55250000D03*
X187500000Y-55250000D03*
X186500000Y-55250000D03*
X185500000Y-55250000D03*
X184500000Y-55250000D03*
X183500000Y-55250000D03*
X182500000Y-55250000D03*
X181500000Y-55250000D03*
X180500000Y-55250000D03*
X188500000Y-54250000D03*
X187500000Y-54250000D03*
X186500000Y-54250000D03*
X185500000Y-54250000D03*
X184500000Y-54250000D03*
X183500000Y-54250000D03*
X182500000Y-54250000D03*
X181500000Y-54250000D03*
X180500000Y-54250000D03*
X188500000Y-53250000D03*
X187500000Y-53250000D03*
X186500000Y-53250000D03*
X185500000Y-53250000D03*
X184500000Y-53250000D03*
X183500000Y-53250000D03*
X182500000Y-53250000D03*
X181500000Y-53250000D03*
X180500000Y-53250000D03*
X188500000Y-52250000D03*
X187500000Y-52250000D03*
X186500000Y-52250000D03*
X185500000Y-52250000D03*
X184500000Y-52250000D03*
X183500000Y-52250000D03*
X182500000Y-52250000D03*
X181500000Y-52250000D03*
X180500000Y-52250000D03*
X138500000Y-63250000D03*
X137500000Y-63250000D03*
X136500000Y-63250000D03*
X135500000Y-63250000D03*
X134500000Y-63250000D03*
X133500000Y-63250000D03*
X132500000Y-63250000D03*
X131500000Y-63250000D03*
X130500000Y-63250000D03*
X138500000Y-62250000D03*
X137500000Y-62250000D03*
X136500000Y-62250000D03*
X135500000Y-62250000D03*
X134500000Y-62250000D03*
X133500000Y-62250000D03*
X132500000Y-62250000D03*
X131500000Y-62250000D03*
X130500000Y-62250000D03*
X138500000Y-61250000D03*
X137500000Y-61250000D03*
X136500000Y-61250000D03*
X135500000Y-61250000D03*
X134500000Y-61250000D03*
X133500000Y-61250000D03*
X132500000Y-61250000D03*
X131500000Y-61250000D03*
X130500000Y-61250000D03*
X138500000Y-60250000D03*
X137500000Y-60250000D03*
X136500000Y-60250000D03*
X135500000Y-60250000D03*
X134500000Y-60250000D03*
X133500000Y-60250000D03*
X132500000Y-60250000D03*
X131500000Y-60250000D03*
X130500000Y-60250000D03*
X138500000Y-59250000D03*
X137500000Y-59250000D03*
X133500000Y-59250000D03*
X131500000Y-59250000D03*
X130500000Y-59250000D03*
X138500000Y-56250000D03*
X137500000Y-56250000D03*
X133500000Y-56250000D03*
X131500000Y-56250000D03*
X130500000Y-56250000D03*
X138500000Y-55250000D03*
X137500000Y-55250000D03*
X136500000Y-55250000D03*
X135500000Y-55250000D03*
X134500000Y-55250000D03*
X133500000Y-55250000D03*
X132500000Y-55250000D03*
X131500000Y-55250000D03*
X130500000Y-55250000D03*
X138500000Y-54250000D03*
X137500000Y-54250000D03*
X136500000Y-54250000D03*
X135500000Y-54250000D03*
X134500000Y-54250000D03*
X133500000Y-54250000D03*
X132500000Y-54250000D03*
X131500000Y-54250000D03*
X130500000Y-54250000D03*
X138500000Y-53250000D03*
X137500000Y-53250000D03*
X136500000Y-53250000D03*
X135500000Y-53250000D03*
X134500000Y-53250000D03*
X133500000Y-53250000D03*
X132500000Y-53250000D03*
X131500000Y-53250000D03*
X130500000Y-53250000D03*
X138500000Y-52250000D03*
X137500000Y-52250000D03*
X136500000Y-52250000D03*
X135500000Y-52250000D03*
X134500000Y-52250000D03*
X133500000Y-52250000D03*
X132500000Y-52250000D03*
X131500000Y-52250000D03*
X130500000Y-52250000D03*
X192200000Y-76050000D03*
X196250000Y-84500000D03*
X195250000Y-84500000D03*
X194250000Y-84500000D03*
X193250000Y-84500000D03*
X188250000Y-84500000D03*
X187250000Y-84500000D03*
X186250000Y-84500000D03*
X185250000Y-84500000D03*
X196250000Y-83500000D03*
X195250000Y-83500000D03*
X194250000Y-83500000D03*
X193250000Y-83500000D03*
X188250000Y-83500000D03*
X187250000Y-83500000D03*
X186250000Y-83500000D03*
X185250000Y-83500000D03*
X196250000Y-82500000D03*
X195250000Y-82500000D03*
X194250000Y-82500000D03*
X193250000Y-82500000D03*
X192250000Y-82500000D03*
X189250000Y-82500000D03*
X188250000Y-82500000D03*
X187250000Y-82500000D03*
X186250000Y-82500000D03*
X185250000Y-82500000D03*
X196250000Y-81500000D03*
X195250000Y-81500000D03*
X194250000Y-81500000D03*
X193250000Y-81500000D03*
X192250000Y-81500000D03*
X189250000Y-81500000D03*
X188250000Y-81500000D03*
X187250000Y-81500000D03*
X186250000Y-81500000D03*
X185250000Y-81500000D03*
X196250000Y-80500000D03*
X195250000Y-80500000D03*
X194250000Y-80500000D03*
X193250000Y-80500000D03*
X188250000Y-80500000D03*
X187250000Y-80500000D03*
X186250000Y-80500000D03*
X185250000Y-80500000D03*
X196250000Y-79500000D03*
X195250000Y-79500000D03*
X194250000Y-79500000D03*
X193250000Y-79500000D03*
X188250000Y-79500000D03*
X187250000Y-79500000D03*
X186250000Y-79500000D03*
X185250000Y-79500000D03*
X196250000Y-78500000D03*
X195250000Y-78500000D03*
X194250000Y-78500000D03*
X193250000Y-78500000D03*
X188250000Y-78500000D03*
X187250000Y-78500000D03*
X186250000Y-78500000D03*
X185250000Y-78500000D03*
X196250000Y-77500000D03*
X195250000Y-77500000D03*
X194250000Y-77500000D03*
X193250000Y-77500000D03*
X189200000Y-77950000D03*
X188250000Y-77500000D03*
X187250000Y-77500000D03*
X186250000Y-77500000D03*
X185250000Y-77500000D03*
X196250000Y-76500000D03*
X195250000Y-76500000D03*
X194250000Y-76500000D03*
X193250000Y-76500000D03*
X196250000Y-75500000D03*
X195250000Y-75500000D03*
X194250000Y-75500000D03*
X193250000Y-75500000D03*
X192200000Y-77950000D03*
X196250000Y-74500000D03*
X195250000Y-74500000D03*
X194250000Y-74500000D03*
X193250000Y-74500000D03*
X192250000Y-74500000D03*
X196250000Y-73500000D03*
X195250000Y-73500000D03*
X194250000Y-73500000D03*
X193250000Y-73500000D03*
X192250000Y-73500000D03*
X183700000Y-84500000D03*
X182700000Y-84500000D03*
X181700000Y-84500000D03*
X180700000Y-84500000D03*
X175700000Y-84500000D03*
X174700000Y-84500000D03*
X173700000Y-84500000D03*
X172700000Y-84500000D03*
X183700000Y-83500000D03*
X182700000Y-83500000D03*
X181700000Y-83500000D03*
X180700000Y-83500000D03*
X175700000Y-83500000D03*
X174700000Y-83500000D03*
X173700000Y-83500000D03*
X172700000Y-83500000D03*
X183700000Y-82500000D03*
X182700000Y-82500000D03*
X181700000Y-82500000D03*
X180700000Y-82500000D03*
X179700000Y-82500000D03*
X176700000Y-82500000D03*
X175700000Y-82500000D03*
X174700000Y-82500000D03*
X173700000Y-82500000D03*
X172700000Y-82500000D03*
X183700000Y-81500000D03*
X182700000Y-81500000D03*
X181700000Y-81500000D03*
X180700000Y-81500000D03*
X179700000Y-81500000D03*
X176700000Y-81500000D03*
X175700000Y-81500000D03*
X174700000Y-81500000D03*
X173700000Y-81500000D03*
X172700000Y-81500000D03*
X183700000Y-80500000D03*
X182700000Y-80500000D03*
X181700000Y-80500000D03*
X180700000Y-80500000D03*
X175700000Y-80500000D03*
X174700000Y-80500000D03*
X173700000Y-80500000D03*
X172700000Y-80500000D03*
X183700000Y-79500000D03*
X182700000Y-79500000D03*
X181700000Y-79500000D03*
X180700000Y-79500000D03*
X175700000Y-79500000D03*
X174700000Y-79500000D03*
X173700000Y-79500000D03*
X172700000Y-79500000D03*
X183700000Y-78500000D03*
X182700000Y-78500000D03*
X181700000Y-78500000D03*
X180700000Y-78500000D03*
X179700000Y-77900000D03*
X176700000Y-77900000D03*
X175700000Y-78500000D03*
X174700000Y-78500000D03*
X173700000Y-78500000D03*
X172700000Y-78500000D03*
X183700000Y-77500000D03*
X182700000Y-77500000D03*
X181700000Y-77500000D03*
X180700000Y-77500000D03*
X175700000Y-77500000D03*
X174700000Y-77500000D03*
X173700000Y-77500000D03*
X172700000Y-77500000D03*
X176700000Y-76100000D03*
X175700000Y-76500000D03*
X174700000Y-76500000D03*
X173700000Y-76500000D03*
X172700000Y-76500000D03*
X175700000Y-75500000D03*
X174700000Y-75500000D03*
X173700000Y-75500000D03*
X172700000Y-75500000D03*
X176700000Y-74500000D03*
X175700000Y-74500000D03*
X174700000Y-74500000D03*
X173700000Y-74500000D03*
X172700000Y-74500000D03*
X176700000Y-73500000D03*
X175700000Y-73500000D03*
X174700000Y-73500000D03*
X173700000Y-73500000D03*
X172700000Y-73500000D03*
X171150000Y-84500000D03*
X170150000Y-84500000D03*
X169150000Y-84500000D03*
X168150000Y-84500000D03*
X163150000Y-84500000D03*
X162150000Y-84500000D03*
X161150000Y-84500000D03*
X160150000Y-84500000D03*
X171150000Y-83500000D03*
X170150000Y-83500000D03*
X169150000Y-83500000D03*
X168150000Y-83500000D03*
X163150000Y-83500000D03*
X162150000Y-83500000D03*
X161150000Y-83500000D03*
X160150000Y-83500000D03*
X171150000Y-82500000D03*
X170150000Y-82500000D03*
X169150000Y-82500000D03*
X168150000Y-82500000D03*
X167150000Y-82500000D03*
X164150000Y-82500000D03*
X163150000Y-82500000D03*
X162150000Y-82500000D03*
X161150000Y-82500000D03*
X160150000Y-82500000D03*
X171150000Y-81500000D03*
X170150000Y-81500000D03*
X169150000Y-81500000D03*
X168150000Y-81500000D03*
X167150000Y-81500000D03*
X164150000Y-81500000D03*
X163150000Y-81500000D03*
X162150000Y-81500000D03*
X161150000Y-81500000D03*
X160150000Y-81500000D03*
X171150000Y-80500000D03*
X170150000Y-80500000D03*
X169150000Y-80500000D03*
X168150000Y-80500000D03*
X163150000Y-80500000D03*
X162150000Y-80500000D03*
X161150000Y-80500000D03*
X160150000Y-80500000D03*
X171150000Y-79500000D03*
X170150000Y-79500000D03*
X169150000Y-79500000D03*
X168150000Y-79500000D03*
X163150000Y-79500000D03*
X162150000Y-79500000D03*
X161150000Y-79500000D03*
X160150000Y-79500000D03*
X171150000Y-78500000D03*
X170150000Y-78500000D03*
X169150000Y-78500000D03*
X168150000Y-78500000D03*
X167100000Y-77900000D03*
X164100000Y-77900000D03*
X163150000Y-78500000D03*
X162150000Y-78500000D03*
X161150000Y-78500000D03*
X160150000Y-78500000D03*
X171150000Y-77500000D03*
X170150000Y-77500000D03*
X169150000Y-77500000D03*
X168150000Y-77500000D03*
X163150000Y-77500000D03*
X162150000Y-77500000D03*
X161150000Y-77500000D03*
X160150000Y-77500000D03*
X171150000Y-76500000D03*
X170150000Y-76500000D03*
X169150000Y-76500000D03*
X168150000Y-76500000D03*
X167100000Y-76100000D03*
X171150000Y-75500000D03*
X170150000Y-75500000D03*
X169150000Y-75500000D03*
X168150000Y-75500000D03*
X171150000Y-74500000D03*
X170150000Y-74500000D03*
X169150000Y-74500000D03*
X168150000Y-74500000D03*
X167150000Y-74500000D03*
X171150000Y-73500000D03*
X170150000Y-73500000D03*
X169150000Y-73500000D03*
X168150000Y-73500000D03*
X167150000Y-73500000D03*
X158750000Y-84500000D03*
X157750000Y-84500000D03*
X156750000Y-84500000D03*
X155750000Y-84500000D03*
X150750000Y-84500000D03*
X149750000Y-84500000D03*
X148750000Y-84500000D03*
X147750000Y-84500000D03*
X158750000Y-83500000D03*
X157750000Y-83500000D03*
X156750000Y-83500000D03*
X155750000Y-83500000D03*
X150750000Y-83500000D03*
X149750000Y-83500000D03*
X148750000Y-83500000D03*
X147750000Y-83500000D03*
X158750000Y-82500000D03*
X157750000Y-82500000D03*
X156750000Y-82500000D03*
X155750000Y-82500000D03*
X154750000Y-82500000D03*
X151750000Y-82500000D03*
X150750000Y-82500000D03*
X149750000Y-82500000D03*
X148750000Y-82500000D03*
X147750000Y-82500000D03*
X158750000Y-81500000D03*
X157750000Y-81500000D03*
X156750000Y-81500000D03*
X155750000Y-81500000D03*
X154750000Y-81500000D03*
X151750000Y-81500000D03*
X150750000Y-81500000D03*
X149750000Y-81500000D03*
X148750000Y-81500000D03*
X147750000Y-81500000D03*
X158750000Y-80500000D03*
X157750000Y-80500000D03*
X156750000Y-80500000D03*
X155750000Y-80500000D03*
X150750000Y-80500000D03*
X149750000Y-80500000D03*
X148750000Y-80500000D03*
X147750000Y-80500000D03*
X158750000Y-79500000D03*
X157750000Y-79500000D03*
X156750000Y-79500000D03*
X155750000Y-79500000D03*
X150750000Y-79500000D03*
X149750000Y-79500000D03*
X148750000Y-79500000D03*
X147750000Y-79500000D03*
X158750000Y-78500000D03*
X157750000Y-78500000D03*
X156750000Y-78500000D03*
X155750000Y-78500000D03*
X150750000Y-78500000D03*
X149750000Y-78500000D03*
X148750000Y-78500000D03*
X147750000Y-78500000D03*
X158750000Y-77500000D03*
X157750000Y-77500000D03*
X156750000Y-77500000D03*
X155750000Y-77500000D03*
X154700000Y-77900000D03*
X151700000Y-77900000D03*
X150750000Y-77500000D03*
X149750000Y-77500000D03*
X148750000Y-77500000D03*
X147750000Y-77500000D03*
X151700000Y-76100000D03*
X150750000Y-76500000D03*
X149750000Y-76500000D03*
X148750000Y-76500000D03*
X147750000Y-76500000D03*
X150750000Y-75500000D03*
X149750000Y-75500000D03*
X148750000Y-75500000D03*
X147750000Y-75500000D03*
X151750000Y-74500000D03*
X150750000Y-74500000D03*
X149750000Y-74500000D03*
X148750000Y-74500000D03*
X147750000Y-74500000D03*
X151750000Y-73500000D03*
X150750000Y-73500000D03*
X149750000Y-73500000D03*
X148750000Y-73500000D03*
X147750000Y-73500000D03*
X146350000Y-84500000D03*
X145350000Y-84500000D03*
X144350000Y-84500000D03*
X143350000Y-84500000D03*
X138350000Y-84500000D03*
X137350000Y-84500000D03*
X136350000Y-84500000D03*
X135350000Y-84500000D03*
X146350000Y-83500000D03*
X145350000Y-83500000D03*
X144350000Y-83500000D03*
X143350000Y-83500000D03*
X138350000Y-83500000D03*
X137350000Y-83500000D03*
X136350000Y-83500000D03*
X135350000Y-83500000D03*
X146350000Y-82500000D03*
X145350000Y-82500000D03*
X144350000Y-82500000D03*
X143350000Y-82500000D03*
X142350000Y-82500000D03*
X139350000Y-82500000D03*
X138350000Y-82500000D03*
X137350000Y-82500000D03*
X136350000Y-82500000D03*
X135350000Y-82500000D03*
X146350000Y-81500000D03*
X145350000Y-81500000D03*
X144350000Y-81500000D03*
X143350000Y-81500000D03*
X142350000Y-81500000D03*
X139350000Y-81500000D03*
X138350000Y-81500000D03*
X137350000Y-81500000D03*
X136350000Y-81500000D03*
X135350000Y-81500000D03*
X146350000Y-80500000D03*
X145350000Y-80500000D03*
X144350000Y-80500000D03*
X143350000Y-80500000D03*
X138350000Y-80500000D03*
X137350000Y-80500000D03*
X136350000Y-80500000D03*
X135350000Y-80500000D03*
X146350000Y-79500000D03*
X145350000Y-79500000D03*
X144350000Y-79500000D03*
X143350000Y-79500000D03*
X138350000Y-79500000D03*
X137350000Y-79500000D03*
X136350000Y-79500000D03*
X135350000Y-79500000D03*
X146350000Y-78500000D03*
X145350000Y-78500000D03*
X144350000Y-78500000D03*
X143350000Y-78500000D03*
X138350000Y-78500000D03*
X137350000Y-78500000D03*
X136350000Y-78500000D03*
X135350000Y-78500000D03*
X146350000Y-77500000D03*
X145350000Y-77500000D03*
X144350000Y-77500000D03*
X143350000Y-77500000D03*
X142300000Y-77900000D03*
X139300000Y-77900000D03*
X138350000Y-77500000D03*
X137350000Y-77500000D03*
X136350000Y-77500000D03*
X135350000Y-77500000D03*
X146350000Y-76500000D03*
X145350000Y-76500000D03*
X144350000Y-76500000D03*
X143350000Y-76500000D03*
X142300000Y-76100000D03*
X146350000Y-75500000D03*
X145350000Y-75500000D03*
X144350000Y-75500000D03*
X143350000Y-75500000D03*
X146350000Y-74500000D03*
X145350000Y-74500000D03*
X144350000Y-74500000D03*
X143350000Y-74500000D03*
X142350000Y-74500000D03*
X146350000Y-73500000D03*
X145350000Y-73500000D03*
X144350000Y-73500000D03*
X143350000Y-73500000D03*
X142350000Y-73500000D03*
X130750000Y-84500000D03*
X130750000Y-83500000D03*
X126750000Y-74500000D03*
X126750000Y-73500000D03*
X126750000Y-77900000D03*
X129750000Y-77900000D03*
X126750000Y-82500000D03*
X129750000Y-82500000D03*
X129750000Y-81500000D03*
X126750000Y-81500000D03*
X126700000Y-76100000D03*
X133750000Y-84500000D03*
X132750000Y-84500000D03*
X131750000Y-84500000D03*
X125750000Y-84500000D03*
X124750000Y-84500000D03*
X123750000Y-84500000D03*
X122750000Y-84500000D03*
X133750000Y-83500000D03*
X132750000Y-83500000D03*
X131750000Y-83500000D03*
X125750000Y-83500000D03*
X124750000Y-83500000D03*
X123750000Y-83500000D03*
X122750000Y-83500000D03*
X133750000Y-82500000D03*
X132750000Y-82500000D03*
X131750000Y-82500000D03*
X130750000Y-82500000D03*
X125750000Y-82500000D03*
X124750000Y-82500000D03*
X123750000Y-82500000D03*
X122750000Y-82500000D03*
X133750000Y-81500000D03*
X132750000Y-81500000D03*
X131750000Y-81500000D03*
X130750000Y-81500000D03*
X125750000Y-81500000D03*
X124750000Y-81500000D03*
X123750000Y-81500000D03*
X122750000Y-81500000D03*
X133750000Y-80500000D03*
X132750000Y-80500000D03*
X131750000Y-80500000D03*
X130750000Y-80500000D03*
X125750000Y-80500000D03*
X124750000Y-80500000D03*
X123750000Y-80500000D03*
X122750000Y-80500000D03*
X133750000Y-79500000D03*
X132750000Y-79500000D03*
X131750000Y-79500000D03*
X130750000Y-79500000D03*
X125750000Y-79500000D03*
X124750000Y-79500000D03*
X123750000Y-79500000D03*
X122750000Y-79500000D03*
X133750000Y-78500000D03*
X132750000Y-78500000D03*
X131750000Y-78500000D03*
X130750000Y-78500000D03*
X125750000Y-78500000D03*
X124750000Y-78500000D03*
X123750000Y-78500000D03*
X122750000Y-78500000D03*
X133750000Y-77500000D03*
X132750000Y-77500000D03*
X131750000Y-77500000D03*
X130750000Y-77500000D03*
X125750000Y-77500000D03*
X124750000Y-77500000D03*
X123750000Y-77500000D03*
X122750000Y-77500000D03*
X125750000Y-76500000D03*
X124750000Y-76500000D03*
X123750000Y-76500000D03*
X122750000Y-76500000D03*
X125750000Y-75500000D03*
X124750000Y-75500000D03*
X123750000Y-75500000D03*
X122750000Y-75500000D03*
X125750000Y-74500000D03*
X124750000Y-74500000D03*
X123750000Y-74500000D03*
X122750000Y-74500000D03*
X125750000Y-73500000D03*
X124750000Y-73500000D03*
X123750000Y-73500000D03*
X122750000Y-73500000D03*
X158500000Y-59250000D03*
X158500000Y-56250000D03*
X126750000Y-53000000D03*
X126750000Y-51250000D03*
X126750000Y-48250000D03*
X129750000Y-48500000D03*
X125750000Y-54750000D03*
X124750000Y-54750000D03*
X123750000Y-54750000D03*
X122750000Y-54750000D03*
X125750000Y-53750000D03*
X124750000Y-53750000D03*
X123750000Y-53750000D03*
X122750000Y-53750000D03*
X125750000Y-52750000D03*
X124750000Y-52750000D03*
X123750000Y-52750000D03*
X122750000Y-52750000D03*
X125750000Y-51750000D03*
X124750000Y-51750000D03*
X123750000Y-51750000D03*
X122750000Y-51750000D03*
X133750000Y-50750000D03*
X132750000Y-50750000D03*
X131750000Y-50750000D03*
X130750000Y-50750000D03*
X125750000Y-50750000D03*
X124750000Y-50750000D03*
X123750000Y-50750000D03*
X122750000Y-50750000D03*
X133750000Y-49750000D03*
X132750000Y-49750000D03*
X131750000Y-49750000D03*
X130750000Y-49750000D03*
X125750000Y-49750000D03*
X124750000Y-49750000D03*
X123750000Y-49750000D03*
X122750000Y-49750000D03*
X133750000Y-48750000D03*
X132750000Y-48750000D03*
X131750000Y-48750000D03*
X130750000Y-48750000D03*
X125750000Y-48750000D03*
X124750000Y-48750000D03*
X123750000Y-48750000D03*
X122750000Y-48750000D03*
X133750000Y-47750000D03*
X132750000Y-47750000D03*
X131750000Y-47750000D03*
X130750000Y-47750000D03*
X125750000Y-47750000D03*
X124750000Y-47750000D03*
X123750000Y-47750000D03*
X122750000Y-47750000D03*
X133750000Y-46750000D03*
X132750000Y-46750000D03*
X131750000Y-46750000D03*
X130750000Y-46750000D03*
X129750000Y-46750000D03*
X128750000Y-46750000D03*
X127750000Y-46750000D03*
X126750000Y-46750000D03*
X125750000Y-46750000D03*
X124750000Y-46750000D03*
X123750000Y-46750000D03*
X122750000Y-46750000D03*
X133750000Y-45750000D03*
X132750000Y-45750000D03*
X131750000Y-45750000D03*
X130750000Y-45750000D03*
X125750000Y-45750000D03*
X124750000Y-45750000D03*
X123750000Y-45750000D03*
X122750000Y-45750000D03*
X133750000Y-44750000D03*
X132750000Y-44750000D03*
X131750000Y-44750000D03*
X130750000Y-44750000D03*
X125750000Y-44750000D03*
X124750000Y-44750000D03*
X123750000Y-44750000D03*
X122750000Y-44750000D03*
X133750000Y-43750000D03*
X132750000Y-43750000D03*
X131750000Y-43750000D03*
X130750000Y-43750000D03*
X129750000Y-43750000D03*
X128750000Y-43750000D03*
X127750000Y-43750000D03*
X126750000Y-43750000D03*
X125750000Y-43750000D03*
X124750000Y-43750000D03*
X123750000Y-43750000D03*
X192250000Y-53000000D03*
X176750000Y-53000000D03*
X167250000Y-53000000D03*
X151750000Y-53000000D03*
X142250000Y-53000000D03*
X142250000Y-51250000D03*
X142250000Y-48500000D03*
X139250000Y-48500000D03*
X146250000Y-54750000D03*
X145250000Y-54750000D03*
X144250000Y-54750000D03*
X143250000Y-54750000D03*
X146250000Y-53750000D03*
X145250000Y-53750000D03*
X144250000Y-53750000D03*
X143250000Y-53750000D03*
X146250000Y-52750000D03*
X145250000Y-52750000D03*
X144250000Y-52750000D03*
X143250000Y-52750000D03*
X146250000Y-51750000D03*
X145250000Y-51750000D03*
X144250000Y-51750000D03*
X143250000Y-51750000D03*
X146250000Y-50750000D03*
X145250000Y-50750000D03*
X144250000Y-50750000D03*
X143250000Y-50750000D03*
X138250000Y-50750000D03*
X137250000Y-50750000D03*
X136250000Y-50750000D03*
X135250000Y-50750000D03*
X146250000Y-49750000D03*
X145250000Y-49750000D03*
X144250000Y-49750000D03*
X143250000Y-49750000D03*
X138250000Y-49750000D03*
X137250000Y-49750000D03*
X136250000Y-49750000D03*
X135250000Y-49750000D03*
X146250000Y-48750000D03*
X145250000Y-48750000D03*
X144250000Y-48750000D03*
X143250000Y-48750000D03*
X138250000Y-48750000D03*
X137250000Y-48750000D03*
X136250000Y-48750000D03*
X135250000Y-48750000D03*
X146250000Y-47750000D03*
X145250000Y-47750000D03*
X144250000Y-47750000D03*
X143250000Y-47750000D03*
X138250000Y-47750000D03*
X137250000Y-47750000D03*
X136250000Y-47750000D03*
X135250000Y-47750000D03*
X146250000Y-46750000D03*
X145250000Y-46750000D03*
X144250000Y-46750000D03*
X143250000Y-46750000D03*
X142250000Y-46750000D03*
X141250000Y-46750000D03*
X140250000Y-46750000D03*
X139250000Y-46750000D03*
X138250000Y-46750000D03*
X137250000Y-46750000D03*
X136250000Y-46750000D03*
X135250000Y-46750000D03*
X146250000Y-45750000D03*
X145250000Y-45750000D03*
X144250000Y-45750000D03*
X143250000Y-45750000D03*
X138250000Y-45750000D03*
X137250000Y-45750000D03*
X136250000Y-45750000D03*
X135250000Y-45750000D03*
X146250000Y-44750000D03*
X145250000Y-44750000D03*
X144250000Y-44750000D03*
X143250000Y-44750000D03*
X138250000Y-44750000D03*
X137250000Y-44750000D03*
X136250000Y-44750000D03*
X135250000Y-44750000D03*
X146250000Y-43750000D03*
X145250000Y-43750000D03*
X144250000Y-43750000D03*
X143250000Y-43750000D03*
X142250000Y-43750000D03*
X141250000Y-43750000D03*
X140250000Y-43750000D03*
X139250000Y-43750000D03*
X138250000Y-43750000D03*
X137250000Y-43750000D03*
X136250000Y-43750000D03*
X192250000Y-51250000D03*
X176750000Y-51250000D03*
X167250000Y-51250000D03*
X151750000Y-51250000D03*
X176750000Y-48500000D03*
X179750000Y-48500000D03*
X192250000Y-48500000D03*
X196250000Y-54750000D03*
X195250000Y-54750000D03*
X194250000Y-54750000D03*
X193250000Y-54750000D03*
X196250000Y-53750000D03*
X195250000Y-53750000D03*
X194250000Y-53750000D03*
X193250000Y-53750000D03*
X196250000Y-52750000D03*
X195250000Y-52750000D03*
X194250000Y-52750000D03*
X193250000Y-52750000D03*
X196250000Y-51750000D03*
X195250000Y-51750000D03*
X194250000Y-51750000D03*
X193250000Y-51750000D03*
X196250000Y-50750000D03*
X195250000Y-50750000D03*
X194250000Y-50750000D03*
X193250000Y-50750000D03*
X188250000Y-50750000D03*
X187250000Y-50750000D03*
X186250000Y-50750000D03*
X185250000Y-50750000D03*
X196250000Y-49750000D03*
X195250000Y-49750000D03*
X194250000Y-49750000D03*
X193250000Y-49750000D03*
X188250000Y-49750000D03*
X187250000Y-49750000D03*
X186250000Y-49750000D03*
X185250000Y-49750000D03*
X196250000Y-48750000D03*
X195250000Y-48750000D03*
X194250000Y-48750000D03*
X193250000Y-48750000D03*
X189250000Y-48500000D03*
X188250000Y-48750000D03*
X187250000Y-48750000D03*
X186250000Y-48750000D03*
X185250000Y-48750000D03*
X196250000Y-47750000D03*
X195250000Y-47750000D03*
X194250000Y-47750000D03*
X193250000Y-47750000D03*
X188250000Y-47750000D03*
X187250000Y-47750000D03*
X186250000Y-47750000D03*
X185250000Y-47750000D03*
X196250000Y-46750000D03*
X195250000Y-46750000D03*
X194250000Y-46750000D03*
X193250000Y-46750000D03*
X192250000Y-46750000D03*
X191250000Y-46750000D03*
X190250000Y-46750000D03*
X189250000Y-46750000D03*
X188250000Y-46750000D03*
X187250000Y-46750000D03*
X186250000Y-46750000D03*
X185250000Y-46750000D03*
X196250000Y-45750000D03*
X195250000Y-45750000D03*
X194250000Y-45750000D03*
X193250000Y-45750000D03*
X188250000Y-45750000D03*
X187250000Y-45750000D03*
X186250000Y-45750000D03*
X185250000Y-45750000D03*
X196250000Y-44750000D03*
X195250000Y-44750000D03*
X194250000Y-44750000D03*
X193250000Y-44750000D03*
X188250000Y-44750000D03*
X187250000Y-44750000D03*
X186250000Y-44750000D03*
X185250000Y-44750000D03*
X196250000Y-43750000D03*
X195250000Y-43750000D03*
X194250000Y-43750000D03*
X193250000Y-43750000D03*
X192250000Y-43750000D03*
X191250000Y-43750000D03*
X190250000Y-43750000D03*
X189250000Y-43750000D03*
X188250000Y-43750000D03*
X187250000Y-43750000D03*
X186250000Y-43750000D03*
X167250000Y-48750000D03*
X164250000Y-48750000D03*
X175750000Y-54750000D03*
X174750000Y-54750000D03*
X173750000Y-54750000D03*
X172750000Y-54750000D03*
X175750000Y-53750000D03*
X174750000Y-53750000D03*
X173750000Y-53750000D03*
X172750000Y-53750000D03*
X175750000Y-52750000D03*
X174750000Y-52750000D03*
X173750000Y-52750000D03*
X172750000Y-52750000D03*
X175750000Y-51750000D03*
X174750000Y-51750000D03*
X173750000Y-51750000D03*
X172750000Y-51750000D03*
X183750000Y-50750000D03*
X182750000Y-50750000D03*
X181750000Y-50750000D03*
X180750000Y-50750000D03*
X175750000Y-50750000D03*
X174750000Y-50750000D03*
X173750000Y-50750000D03*
X172750000Y-50750000D03*
X183750000Y-49750000D03*
X182750000Y-49750000D03*
X181750000Y-49750000D03*
X180750000Y-49750000D03*
X175750000Y-49750000D03*
X174750000Y-49750000D03*
X173750000Y-49750000D03*
X172750000Y-49750000D03*
X183750000Y-48750000D03*
X182750000Y-48750000D03*
X181750000Y-48750000D03*
X180750000Y-48750000D03*
X175750000Y-48750000D03*
X174750000Y-48750000D03*
X173750000Y-48750000D03*
X172750000Y-48750000D03*
X183750000Y-47750000D03*
X182750000Y-47750000D03*
X181750000Y-47750000D03*
X180750000Y-47750000D03*
X175750000Y-47750000D03*
X174750000Y-47750000D03*
X173750000Y-47750000D03*
X172750000Y-47750000D03*
X183750000Y-46750000D03*
X182750000Y-46750000D03*
X181750000Y-46750000D03*
X180750000Y-46750000D03*
X179750000Y-46750000D03*
X178750000Y-46750000D03*
X177750000Y-46750000D03*
X176750000Y-46750000D03*
X175750000Y-46750000D03*
X174750000Y-46750000D03*
X173750000Y-46750000D03*
X172750000Y-46750000D03*
X183750000Y-45750000D03*
X182750000Y-45750000D03*
X181750000Y-45750000D03*
X180750000Y-45750000D03*
X175750000Y-45750000D03*
X174750000Y-45750000D03*
X173750000Y-45750000D03*
X172750000Y-45750000D03*
X183750000Y-44750000D03*
X182750000Y-44750000D03*
X181750000Y-44750000D03*
X180750000Y-44750000D03*
X175750000Y-44750000D03*
X174750000Y-44750000D03*
X173750000Y-44750000D03*
X172750000Y-44750000D03*
X183750000Y-43750000D03*
X182750000Y-43750000D03*
X181750000Y-43750000D03*
X180750000Y-43750000D03*
X179750000Y-43750000D03*
X178750000Y-43750000D03*
X177750000Y-43750000D03*
X176750000Y-43750000D03*
X175750000Y-43750000D03*
X174750000Y-43750000D03*
X173750000Y-43750000D03*
X122750000Y-43750000D03*
X135250000Y-43750000D03*
X185250000Y-43750000D03*
X172750000Y-43750000D03*
X171250000Y-54750000D03*
X170250000Y-54750000D03*
X169250000Y-54750000D03*
X168250000Y-54750000D03*
X171250000Y-53750000D03*
X170250000Y-53750000D03*
X169250000Y-53750000D03*
X168250000Y-53750000D03*
X171250000Y-52750000D03*
X170250000Y-52750000D03*
X169250000Y-52750000D03*
X168250000Y-52750000D03*
X171250000Y-51750000D03*
X170250000Y-51750000D03*
X169250000Y-51750000D03*
X168250000Y-51750000D03*
X171250000Y-50750000D03*
X170250000Y-50750000D03*
X169250000Y-50750000D03*
X168250000Y-50750000D03*
X163250000Y-50750000D03*
X162250000Y-50750000D03*
X161250000Y-50750000D03*
X160250000Y-50750000D03*
X171250000Y-49750000D03*
X170250000Y-49750000D03*
X169250000Y-49750000D03*
X168250000Y-49750000D03*
X163250000Y-49750000D03*
X162250000Y-49750000D03*
X161250000Y-49750000D03*
X160250000Y-49750000D03*
X171250000Y-48750000D03*
X170250000Y-48750000D03*
X169250000Y-48750000D03*
X168250000Y-48750000D03*
X163250000Y-48750000D03*
X162250000Y-48750000D03*
X161250000Y-48750000D03*
X160250000Y-48750000D03*
X171250000Y-47750000D03*
X170250000Y-47750000D03*
X169250000Y-47750000D03*
X168250000Y-47750000D03*
X163250000Y-47750000D03*
X162250000Y-47750000D03*
X161250000Y-47750000D03*
X160250000Y-47750000D03*
X171250000Y-46750000D03*
X170250000Y-46750000D03*
X169250000Y-46750000D03*
X168250000Y-46750000D03*
X167250000Y-46750000D03*
X166250000Y-46750000D03*
X165250000Y-46750000D03*
X164250000Y-46750000D03*
X163250000Y-46750000D03*
X162250000Y-46750000D03*
X161250000Y-46750000D03*
X160250000Y-46750000D03*
X171250000Y-45750000D03*
X170250000Y-45750000D03*
X169250000Y-45750000D03*
X168250000Y-45750000D03*
X163250000Y-45750000D03*
X162250000Y-45750000D03*
X161250000Y-45750000D03*
X160250000Y-45750000D03*
X171250000Y-44750000D03*
X170250000Y-44750000D03*
X169250000Y-44750000D03*
X168250000Y-44750000D03*
X163250000Y-44750000D03*
X162250000Y-44750000D03*
X161250000Y-44750000D03*
X160250000Y-44750000D03*
X171250000Y-43750000D03*
X170250000Y-43750000D03*
X169250000Y-43750000D03*
X168250000Y-43750000D03*
X167250000Y-43750000D03*
X166250000Y-43750000D03*
X165250000Y-43750000D03*
X164250000Y-43750000D03*
X163250000Y-43750000D03*
X162250000Y-43750000D03*
X161250000Y-43750000D03*
X160250000Y-43750000D03*
X150750000Y-54750000D03*
X149750000Y-54750000D03*
X148750000Y-54750000D03*
X147750000Y-54750000D03*
X150750000Y-53750000D03*
X149750000Y-53750000D03*
X148750000Y-53750000D03*
X147750000Y-53750000D03*
X150750000Y-52750000D03*
X149750000Y-52750000D03*
X148750000Y-52750000D03*
X147750000Y-52750000D03*
X150750000Y-51750000D03*
X149750000Y-51750000D03*
X148750000Y-51750000D03*
X147750000Y-51750000D03*
X158750000Y-50750000D03*
X157750000Y-50750000D03*
X156750000Y-50750000D03*
X155750000Y-50750000D03*
X150750000Y-50750000D03*
X149750000Y-50750000D03*
X148750000Y-50750000D03*
X147750000Y-50750000D03*
X158750000Y-49750000D03*
X157750000Y-49750000D03*
X156750000Y-49750000D03*
X155750000Y-49750000D03*
X150750000Y-49750000D03*
X149750000Y-49750000D03*
X148750000Y-49750000D03*
X147750000Y-49750000D03*
X158750000Y-48750000D03*
X157750000Y-48750000D03*
X156750000Y-48750000D03*
X155750000Y-48750000D03*
X154750000Y-48500000D03*
X151750000Y-48500000D03*
X150750000Y-48750000D03*
X149750000Y-48750000D03*
X148750000Y-48750000D03*
X147750000Y-48750000D03*
X158750000Y-47750000D03*
X157750000Y-47750000D03*
X156750000Y-47750000D03*
X155750000Y-47750000D03*
X150750000Y-47750000D03*
X149750000Y-47750000D03*
X148750000Y-47750000D03*
X147750000Y-47750000D03*
X158750000Y-46750000D03*
X157750000Y-46750000D03*
X156750000Y-46750000D03*
X155750000Y-46750000D03*
X154750000Y-46750000D03*
X153750000Y-46750000D03*
X152750000Y-46750000D03*
X151750000Y-46750000D03*
X150750000Y-46750000D03*
X149750000Y-46750000D03*
X148750000Y-46750000D03*
X147750000Y-46750000D03*
X158750000Y-45750000D03*
X157750000Y-45750000D03*
X156750000Y-45750000D03*
X155750000Y-45750000D03*
X150750000Y-45750000D03*
X149750000Y-45750000D03*
X148750000Y-45750000D03*
X147750000Y-45750000D03*
X158750000Y-44750000D03*
X157750000Y-44750000D03*
X156750000Y-44750000D03*
X155750000Y-44750000D03*
X150750000Y-44750000D03*
X149750000Y-44750000D03*
X148750000Y-44750000D03*
X147750000Y-44750000D03*
X158750000Y-43750000D03*
X157750000Y-43750000D03*
X156750000Y-43750000D03*
X155750000Y-43750000D03*
X153750000Y-43750000D03*
X152750000Y-43750000D03*
X151750000Y-43750000D03*
X150750000Y-43750000D03*
X149750000Y-43750000D03*
X148750000Y-43750000D03*
X155500000Y-64750000D03*
X147750000Y-43750000D03*
X163500000Y-63250000D03*
X162500000Y-63250000D03*
X161500000Y-63250000D03*
X160500000Y-63250000D03*
X159500000Y-63250000D03*
X158500000Y-63250000D03*
X157500000Y-63250000D03*
X156500000Y-63250000D03*
X155500000Y-63250000D03*
X163500000Y-62250000D03*
X162500000Y-62250000D03*
X161500000Y-62250000D03*
X160500000Y-62250000D03*
X159500000Y-62250000D03*
X158500000Y-62250000D03*
X157500000Y-62250000D03*
X156500000Y-62250000D03*
X155500000Y-62250000D03*
X163500000Y-61250000D03*
X162500000Y-61250000D03*
X161500000Y-61250000D03*
X160500000Y-61250000D03*
X159500000Y-61250000D03*
X158500000Y-61250000D03*
X157500000Y-61250000D03*
X156500000Y-61250000D03*
X155500000Y-61250000D03*
X163500000Y-60250000D03*
X162500000Y-60250000D03*
X161500000Y-60250000D03*
X160500000Y-60250000D03*
X159500000Y-60250000D03*
X158500000Y-60250000D03*
X157500000Y-60250000D03*
X156500000Y-60250000D03*
X155500000Y-60250000D03*
X163500000Y-59250000D03*
X162500000Y-59250000D03*
X156500000Y-59250000D03*
X155500000Y-59250000D03*
X163500000Y-56250000D03*
X162500000Y-56250000D03*
X156500000Y-56250000D03*
X155500000Y-56250000D03*
X163500000Y-55250000D03*
X162500000Y-55250000D03*
X161500000Y-55250000D03*
X160500000Y-55250000D03*
X159500000Y-55250000D03*
X158500000Y-55250000D03*
X157500000Y-55250000D03*
X156500000Y-55250000D03*
X155500000Y-55250000D03*
X163500000Y-54250000D03*
X162500000Y-54250000D03*
X161500000Y-54250000D03*
X160500000Y-54250000D03*
X159500000Y-54250000D03*
X158500000Y-54250000D03*
X157500000Y-54250000D03*
X156500000Y-54250000D03*
X155500000Y-54250000D03*
X163500000Y-53250000D03*
X162500000Y-53250000D03*
X161500000Y-53250000D03*
X160500000Y-53250000D03*
X159500000Y-53250000D03*
X158500000Y-53250000D03*
X157500000Y-53250000D03*
X156500000Y-53250000D03*
X155500000Y-53250000D03*
X163500000Y-52250000D03*
X162500000Y-52250000D03*
X161500000Y-52250000D03*
X160500000Y-52250000D03*
X159500000Y-52250000D03*
X158500000Y-52250000D03*
X157500000Y-52250000D03*
X156500000Y-52250000D03*
X155500000Y-52250000D03*
D12*
X116500000Y-55250000D03*
D13*
X116500000Y-57750000D03*
X116500000Y-60250000D03*
X116500000Y-62750000D03*
X116500000Y-65250000D03*
X116500000Y-67750000D03*
X116500000Y-70250000D03*
X116500000Y-72750000D03*
D12*
X202500000Y-72750000D03*
D13*
X202500000Y-70250000D03*
X202500000Y-67750000D03*
X202500000Y-65250000D03*
X202500000Y-62750000D03*
X202500000Y-60250000D03*
X202500000Y-57750000D03*
X202500000Y-55250000D03*
D11*
X192300000Y-86100000D03*
X179900000Y-86100000D03*
X167500000Y-86100000D03*
X155000000Y-86000000D03*
X142500000Y-86000000D03*
X130000000Y-86000000D03*
X199500000Y-75750000D03*
X202750000Y-46750000D03*
X205750000Y-74125000D03*
X177500000Y-89000000D03*
X139900000Y-89000000D03*
X189900000Y-88250000D03*
X152500000Y-88250000D03*
X126900000Y-88250000D03*
X196500000Y-88250000D03*
X122750000Y-88250000D03*
X165100000Y-87500000D03*
X123700000Y-87500000D03*
X204550000Y-51700000D03*
X131250000Y-57750000D03*
X120425000Y-50000000D03*
X138000000Y-57750000D03*
X156250000Y-57750000D03*
X137975000Y-70250000D03*
X156250000Y-70250000D03*
X118750000Y-78000000D03*
X131150000Y-70250000D03*
X162750000Y-70250000D03*
X181000000Y-70250000D03*
X188250000Y-70250000D03*
X198125000Y-73975000D03*
X163000000Y-57750000D03*
X181000000Y-57750000D03*
X188000000Y-57750000D03*
X198950000Y-49775000D03*
D14*
X192300000Y-86100000D02*
X192300000Y-86010539D01*
X192300000Y-86010539D02*
X192300000Y-86100000D01*
X192300000Y-86100000D02*
X192300000Y-86010539D01*
X179900000Y-86100000D02*
X179900000Y-86010539D01*
X179900000Y-86010539D02*
X179900000Y-86100000D01*
X179900000Y-86100000D02*
X179900000Y-86010539D01*
X167500000Y-86100000D02*
X167500000Y-86010539D01*
D15*
X155000000Y-86010539D02*
X167500000Y-86010539D01*
D14*
X167500000Y-86000000D02*
X167500000Y-86010539D01*
X167500000Y-86010539D02*
X167500000Y-86000000D01*
X167500000Y-86000000D02*
X167500000Y-86010539D01*
X155000000Y-86000000D02*
X155000000Y-86010539D01*
X155000000Y-86010539D02*
X155000000Y-86000000D01*
X155000000Y-86000000D02*
X155000000Y-86010539D01*
X142500000Y-86000000D02*
X142500000Y-86010539D01*
X142500000Y-86010539D02*
X142500000Y-86000000D01*
X142500000Y-86000000D02*
X142500000Y-86010539D01*
X130000000Y-86000000D02*
X130000000Y-86010539D01*
X130000000Y-86010539D02*
X130000000Y-86000000D01*
X130000000Y-86000000D02*
X130000000Y-86010539D01*
D15*
X116500000Y-81250000D02*
X121260539Y-86010539D01*
X116500000Y-81250000D02*
X116500000Y-80250000D01*
X116500000Y-72750000D02*
X116500000Y-80250000D01*
X197110560Y-86010539D02*
X197110560Y-85989438D01*
X167500000Y-86010539D02*
X179900000Y-86010539D01*
X179900000Y-86010539D02*
X192300000Y-86010539D01*
X192300000Y-86010539D02*
X197110560Y-86010539D01*
X121260539Y-86010539D02*
X130000000Y-86010539D01*
X130000000Y-86010539D02*
X142500000Y-86010539D01*
X142500000Y-86010539D02*
X155000000Y-86010539D01*
X199500000Y-81500000D02*
X199500000Y-83599998D01*
X199500000Y-81500000D02*
X199500000Y-75750000D01*
X199500000Y-83599998D02*
X197110560Y-85989438D01*
X197110560Y-85989438D02*
X197099998Y-86000000D01*
X202500000Y-55250000D02*
X201500000Y-55250000D01*
X201500000Y-55250000D02*
X199500000Y-57250000D01*
X199500000Y-57250000D02*
X199500000Y-75750000D01*
X207400000Y-68350000D02*
X204250000Y-71500000D01*
X204250000Y-71500000D02*
X202500000Y-72750000D01*
X207400000Y-51400000D02*
X207400000Y-68350000D01*
X202750000Y-46750000D02*
X207400000Y-51400000D01*
D14*
X196725000Y-89000000D02*
X197150000Y-89000000D01*
X205750000Y-74125000D02*
X205750000Y-80000000D01*
X205750000Y-80400000D02*
X205750000Y-80000000D01*
X197150000Y-89000000D02*
X205750000Y-80400000D01*
X122000000Y-89000000D02*
X139900000Y-89000000D01*
X139900000Y-89000000D02*
X177500000Y-89000000D01*
X177500000Y-89000000D02*
X196725000Y-89000000D01*
X196725000Y-89000000D02*
X196750000Y-89000000D01*
X114750000Y-59500000D02*
X114750000Y-81750000D01*
X114750000Y-81750000D02*
X122000000Y-89000000D01*
X122000000Y-89000000D02*
X122000000Y-89000000D01*
X116500000Y-57750000D02*
X114750000Y-59500000D01*
X196750000Y-89000000D02*
X196750000Y-89000000D01*
X196500000Y-88250000D02*
X195250000Y-88250000D01*
X195250000Y-88250000D02*
X189900000Y-88250000D01*
X189900000Y-88250000D02*
X152500000Y-88250000D01*
X152500000Y-88250000D02*
X139900000Y-88250000D01*
X139900000Y-88250000D02*
X126900000Y-88250000D01*
X126900000Y-88250000D02*
X122750000Y-88250000D01*
X165100000Y-87500000D02*
X197480173Y-87500000D01*
X201000000Y-66750000D02*
X202500000Y-65250000D01*
X201000000Y-83972521D02*
X201000000Y-66750000D01*
X197480173Y-87500000D02*
X201000000Y-83972521D01*
X123700000Y-87500000D02*
X165100000Y-87500000D01*
X204550000Y-51700000D02*
X201350000Y-48500000D01*
X201350000Y-47400000D02*
X201350000Y-44350000D01*
X201350000Y-44350000D02*
X197800000Y-40800000D01*
X197800000Y-40800000D02*
X121675000Y-40800000D01*
X121675000Y-40800000D02*
X117100000Y-45375000D01*
X117100000Y-45375000D02*
X117100000Y-51800000D01*
X117100000Y-51800000D02*
X118400000Y-53100000D01*
X118400000Y-53100000D02*
X118400000Y-63350000D01*
X118400000Y-63350000D02*
X116500000Y-65250000D01*
X201350000Y-48500000D02*
X201350000Y-47400000D01*
X205737500Y-52887500D02*
X205737500Y-53987500D01*
X205750000Y-59500000D02*
X205750000Y-54000000D01*
X205750000Y-54000000D02*
X205737500Y-53987500D01*
X202500000Y-62750000D02*
X205750000Y-59500000D01*
X204550000Y-51700000D02*
X205737500Y-52887500D01*
X116500000Y-67750000D02*
X117900000Y-67750000D01*
X204900000Y-57850000D02*
X202500000Y-60250000D01*
X204900000Y-53150000D02*
X204900000Y-57850000D01*
X203150000Y-51400000D02*
X204900000Y-53150000D01*
X203150000Y-51400000D02*
X203150000Y-51400000D01*
X200600000Y-48850000D02*
X203150000Y-51400000D01*
X200600000Y-44550000D02*
X200600000Y-48850000D01*
X197525000Y-41475000D02*
X200600000Y-44550000D01*
X122025000Y-41475000D02*
X197525000Y-41475000D01*
X117950000Y-45550000D02*
X122025000Y-41475000D01*
X117950000Y-51550000D02*
X117950000Y-45550000D01*
X119125000Y-52725000D02*
X117950000Y-51550000D01*
X119125000Y-66525000D02*
X119125000Y-52725000D01*
X117900000Y-67750000D02*
X119125000Y-66525000D01*
X131250000Y-57750000D02*
X131250000Y-57750000D01*
X120550000Y-51625000D02*
X120550000Y-50125000D01*
X120550000Y-50125000D02*
X120425000Y-50000000D01*
X120550000Y-54725000D02*
X120550000Y-51625000D01*
X120550000Y-51625000D02*
X120550000Y-51550000D01*
X121325000Y-55500000D02*
X120550000Y-54725000D01*
X130275000Y-55500000D02*
X121325000Y-55500000D01*
X130725000Y-55950000D02*
X130275000Y-55500000D01*
X130725000Y-57225000D02*
X130725000Y-55950000D01*
X131250000Y-57750000D02*
X130725000Y-57225000D01*
X138000000Y-57750000D02*
X138700000Y-57750000D01*
X156250000Y-57750000D02*
X156250000Y-57750000D01*
X155700000Y-57200000D02*
X156250000Y-57750000D01*
X155700000Y-56000000D02*
X155700000Y-57200000D01*
X155200000Y-55500000D02*
X155700000Y-56000000D01*
X139825000Y-55500000D02*
X155200000Y-55500000D01*
X139250000Y-56075000D02*
X139825000Y-55500000D01*
X139250000Y-57200000D02*
X139250000Y-56075000D01*
X138700000Y-57750000D02*
X139250000Y-57200000D01*
X138350000Y-70825000D02*
X138325000Y-70250000D01*
X138325000Y-70250000D02*
X137975000Y-70250000D01*
X155250000Y-70250000D02*
X156250000Y-70250000D01*
X138350000Y-70800000D02*
X138350000Y-70825000D01*
X138350000Y-70825000D02*
X138350000Y-71700000D01*
X138350000Y-71700000D02*
X138300000Y-72750000D01*
X138300000Y-72750000D02*
X153900000Y-72750000D01*
X153900000Y-72750000D02*
X154750000Y-71900000D01*
X154750000Y-71900000D02*
X154750000Y-70750000D01*
X154750000Y-70750000D02*
X155250000Y-70250000D01*
X130550000Y-70250000D02*
X131150000Y-70250000D01*
X120500000Y-74125000D02*
X121875000Y-72750000D01*
X121875000Y-72750000D02*
X129075000Y-72750000D01*
X129075000Y-72750000D02*
X129750000Y-72075000D01*
X129750000Y-72075000D02*
X129750000Y-71050000D01*
X129750000Y-71050000D02*
X130550000Y-70250000D01*
X118750000Y-78000000D02*
X120500000Y-76250000D01*
X120500000Y-76250000D02*
X120500000Y-74150000D01*
X120500000Y-74150000D02*
X120500000Y-74125000D01*
X162750000Y-70250000D02*
X162725000Y-70250000D01*
X180175000Y-70250000D02*
X181000000Y-70250000D01*
X179750000Y-70675000D02*
X180175000Y-70250000D01*
X179750000Y-71975000D02*
X179750000Y-70675000D01*
X178975000Y-72750000D02*
X179750000Y-71975000D01*
X163700000Y-72750000D02*
X178975000Y-72750000D01*
X163325000Y-72375000D02*
X163700000Y-72750000D01*
X163325000Y-70850000D02*
X163325000Y-72375000D01*
X162725000Y-70250000D02*
X163325000Y-70850000D01*
X188250000Y-70250000D02*
X188250000Y-70250000D01*
X196900000Y-72750000D02*
X198125000Y-73975000D01*
X188800000Y-72750000D02*
X196900000Y-72750000D01*
X188550000Y-72500000D02*
X188800000Y-72750000D01*
X188550000Y-70550000D02*
X188550000Y-72500000D01*
X188250000Y-70250000D02*
X188550000Y-70550000D01*
X163000000Y-57750000D02*
X163625000Y-57750000D01*
X181000000Y-57750000D02*
X181000000Y-57750000D01*
X180575000Y-57325000D02*
X181000000Y-57750000D01*
X180575000Y-55825000D02*
X180575000Y-57325000D01*
X180250000Y-55500000D02*
X180575000Y-55825000D01*
X164825000Y-55500000D02*
X180250000Y-55500000D01*
X164250000Y-56075000D02*
X164825000Y-55500000D01*
X164250000Y-57125000D02*
X164250000Y-56075000D01*
X163625000Y-57750000D02*
X164250000Y-57125000D01*
X198000000Y-54475000D02*
X198000000Y-51750000D01*
X189250000Y-56200000D02*
X189950000Y-55500000D01*
X189950000Y-55500000D02*
X196975000Y-55500000D01*
X196975000Y-55500000D02*
X198000000Y-54475000D01*
X188575000Y-57750000D02*
X189250000Y-57075000D01*
X189250000Y-57075000D02*
X189250000Y-56200000D01*
X188000000Y-57750000D02*
X188575000Y-57750000D01*
X198000000Y-50725000D02*
X198000000Y-51750000D01*
X198950000Y-49775000D02*
X198000000Y-50725000D01*
X199725000Y-49025000D02*
X202400000Y-51700000D01*
X117850000Y-70250000D02*
X119825000Y-68275000D01*
X119825000Y-68275000D02*
X119825000Y-52375000D01*
X119825000Y-52375000D02*
X118725000Y-51275000D01*
X118725000Y-51275000D02*
X118725000Y-45800000D01*
X118725000Y-45800000D02*
X122375000Y-42150000D01*
X122375000Y-42150000D02*
X197100000Y-42150000D01*
X197100000Y-42150000D02*
X199725000Y-44775000D01*
X199725000Y-44775000D02*
X199725000Y-49025000D01*
X116500000Y-70250000D02*
X117850000Y-70250000D01*
X204225000Y-56025000D02*
X202500000Y-57750000D01*
X204225000Y-53525000D02*
X204225000Y-56025000D01*
X202400000Y-51700000D02*
X204225000Y-53525000D01*
X202400000Y-51700000D02*
X202400000Y-51700000D01*
D15*
X116500000Y-70250000D02*
X116500000Y-70250000D01*
D16*
G36*
X163873000Y-55282446D02*
X163665223Y-55490223D01*
X163485952Y-55758521D01*
X163423000Y-56075000D01*
X163423000Y-56782445D01*
X163324459Y-56880986D01*
X163185201Y-56823161D01*
X162816417Y-56822839D01*
X162475583Y-56963669D01*
X162214586Y-57224211D01*
X162073161Y-57564799D01*
X162072839Y-57933583D01*
X162213669Y-58274417D01*
X162474211Y-58535414D01*
X162814799Y-58676839D01*
X163183583Y-58677161D01*
X163425991Y-58577000D01*
X163625000Y-58577000D01*
X163873000Y-58527669D01*
X163873000Y-63623000D01*
X155127000Y-63623000D01*
X155127000Y-51877000D01*
X163873000Y-51877000D01*
X163873000Y-55282446D01*
X163873000Y-55282446D01*
G37*
X163873000Y-55282446D02*
X163665223Y-55490223D01*
X163485952Y-55758521D01*
X163423000Y-56075000D01*
X163423000Y-56782445D01*
X163324459Y-56880986D01*
X163185201Y-56823161D01*
X162816417Y-56822839D01*
X162475583Y-56963669D01*
X162214586Y-57224211D01*
X162073161Y-57564799D01*
X162072839Y-57933583D01*
X162213669Y-58274417D01*
X162474211Y-58535414D01*
X162814799Y-58676839D01*
X163183583Y-58677161D01*
X163425991Y-58577000D01*
X163625000Y-58577000D01*
X163873000Y-58527669D01*
X163873000Y-63623000D01*
X155127000Y-63623000D01*
X155127000Y-51877000D01*
X163873000Y-51877000D01*
X163873000Y-55282446D01*
G36*
X159123000Y-51123000D02*
X154500000Y-51123000D01*
X154450590Y-51133006D01*
X154408965Y-51161447D01*
X154381685Y-51203841D01*
X154373000Y-51250000D01*
X154373000Y-54673000D01*
X147377000Y-54673000D01*
X147377000Y-43377000D01*
X159123000Y-43377000D01*
X159123000Y-51123000D01*
X159123000Y-51123000D01*
G37*
X159123000Y-51123000D02*
X154500000Y-51123000D01*
X154450590Y-51133006D01*
X154408965Y-51161447D01*
X154381685Y-51203841D01*
X154373000Y-51250000D01*
X154373000Y-54673000D01*
X147377000Y-54673000D01*
X147377000Y-43377000D01*
X159123000Y-43377000D01*
X159123000Y-51123000D01*
G36*
X163873000Y-76123000D02*
X155127000Y-76123000D01*
X155127000Y-72692555D01*
X155334778Y-72484777D01*
X155514048Y-72216479D01*
X155577000Y-71900000D01*
X155577000Y-71092554D01*
X155592554Y-71077000D01*
X155824361Y-71077000D01*
X156064799Y-71176839D01*
X156433583Y-71177161D01*
X156774417Y-71036331D01*
X157035414Y-70775789D01*
X157176839Y-70435201D01*
X157177161Y-70066417D01*
X157036331Y-69725583D01*
X156775789Y-69464586D01*
X156435201Y-69323161D01*
X156066417Y-69322839D01*
X155824009Y-69423000D01*
X155250000Y-69423000D01*
X155127000Y-69447466D01*
X155127000Y-64377000D01*
X163873000Y-64377000D01*
X163873000Y-76123000D01*
X163873000Y-76123000D01*
G37*
X163873000Y-76123000D02*
X155127000Y-76123000D01*
X155127000Y-72692555D01*
X155334778Y-72484777D01*
X155514048Y-72216479D01*
X155577000Y-71900000D01*
X155577000Y-71092554D01*
X155592554Y-71077000D01*
X155824361Y-71077000D01*
X156064799Y-71176839D01*
X156433583Y-71177161D01*
X156774417Y-71036331D01*
X157035414Y-70775789D01*
X157176839Y-70435201D01*
X157177161Y-70066417D01*
X157036331Y-69725583D01*
X156775789Y-69464586D01*
X156435201Y-69323161D01*
X156066417Y-69322839D01*
X155824009Y-69423000D01*
X155250000Y-69423000D01*
X155127000Y-69447466D01*
X155127000Y-64377000D01*
X163873000Y-64377000D01*
X163873000Y-76123000D01*
G36*
X154373000Y-69957446D02*
X154165223Y-70165223D01*
X153985952Y-70433521D01*
X153923000Y-70750000D01*
X153923000Y-71557445D01*
X153557446Y-71923000D01*
X147377000Y-71923000D01*
X147377000Y-56327000D01*
X154373000Y-56327000D01*
X154373000Y-69957446D01*
X154373000Y-69957446D01*
G37*
X154373000Y-69957446D02*
X154165223Y-70165223D01*
X153985952Y-70433521D01*
X153923000Y-70750000D01*
X153923000Y-71557445D01*
X153557446Y-71923000D01*
X147377000Y-71923000D01*
X147377000Y-56327000D01*
X154373000Y-56327000D01*
X154373000Y-69957446D01*
G36*
X171623000Y-71923000D02*
X164627000Y-71923000D01*
X164627000Y-57917555D01*
X164834777Y-57709778D01*
X165014048Y-57441479D01*
X165016960Y-57426839D01*
X165077000Y-57125000D01*
X165077000Y-56417554D01*
X165167554Y-56327000D01*
X171623000Y-56327000D01*
X171623000Y-71923000D01*
X171623000Y-71923000D01*
G37*
X171623000Y-71923000D02*
X164627000Y-71923000D01*
X164627000Y-57917555D01*
X164834777Y-57709778D01*
X165014048Y-57441479D01*
X165016960Y-57426839D01*
X165077000Y-57125000D01*
X165077000Y-56417554D01*
X165167554Y-56327000D01*
X171623000Y-56327000D01*
X171623000Y-71923000D01*
G36*
X154373000Y-76750000D02*
X154383006Y-76799410D01*
X154411447Y-76841035D01*
X154453841Y-76868315D01*
X154500000Y-76877000D01*
X159123000Y-76877000D01*
X159123000Y-84633539D01*
X147377000Y-84633539D01*
X147377000Y-73577000D01*
X153900000Y-73577000D01*
X154216479Y-73514048D01*
X154373000Y-73409464D01*
X154373000Y-76750000D01*
X154373000Y-76750000D01*
G37*
X154373000Y-76750000D02*
X154383006Y-76799410D01*
X154411447Y-76841035D01*
X154453841Y-76868315D01*
X154500000Y-76877000D01*
X159123000Y-76877000D01*
X159123000Y-84633539D01*
X147377000Y-84633539D01*
X147377000Y-73577000D01*
X153900000Y-73577000D01*
X154216479Y-73514048D01*
X154373000Y-73409464D01*
X154373000Y-76750000D01*
G36*
X171623000Y-84633539D02*
X159877000Y-84633539D01*
X159877000Y-76877000D01*
X164500000Y-76877000D01*
X164549410Y-76866994D01*
X164591035Y-76838553D01*
X164618315Y-76796159D01*
X164627000Y-76750000D01*
X164627000Y-73577000D01*
X171623000Y-73577000D01*
X171623000Y-84633539D01*
X171623000Y-84633539D01*
G37*
X171623000Y-84633539D02*
X159877000Y-84633539D01*
X159877000Y-76877000D01*
X164500000Y-76877000D01*
X164549410Y-76866994D01*
X164591035Y-76838553D01*
X164618315Y-76796159D01*
X164627000Y-76750000D01*
X164627000Y-73577000D01*
X171623000Y-73577000D01*
X171623000Y-84633539D01*
G36*
X188873000Y-55407446D02*
X188665223Y-55615223D01*
X188485952Y-55883521D01*
X188423000Y-56200000D01*
X188423000Y-56732446D01*
X188289130Y-56866316D01*
X188185201Y-56823161D01*
X187816417Y-56822839D01*
X187475583Y-56963669D01*
X187214586Y-57224211D01*
X187073161Y-57564799D01*
X187072839Y-57933583D01*
X187213669Y-58274417D01*
X187474211Y-58535414D01*
X187814799Y-58676839D01*
X188183583Y-58677161D01*
X188425991Y-58577000D01*
X188575000Y-58577000D01*
X188873000Y-58517724D01*
X188873000Y-63623000D01*
X180127000Y-63623000D01*
X180127000Y-51877000D01*
X188873000Y-51877000D01*
X188873000Y-55407446D01*
X188873000Y-55407446D01*
G37*
X188873000Y-55407446D02*
X188665223Y-55615223D01*
X188485952Y-55883521D01*
X188423000Y-56200000D01*
X188423000Y-56732446D01*
X188289130Y-56866316D01*
X188185201Y-56823161D01*
X187816417Y-56822839D01*
X187475583Y-56963669D01*
X187214586Y-57224211D01*
X187073161Y-57564799D01*
X187072839Y-57933583D01*
X187213669Y-58274417D01*
X187474211Y-58535414D01*
X187814799Y-58676839D01*
X188183583Y-58677161D01*
X188425991Y-58577000D01*
X188575000Y-58577000D01*
X188873000Y-58517724D01*
X188873000Y-63623000D01*
X180127000Y-63623000D01*
X180127000Y-51877000D01*
X188873000Y-51877000D01*
X188873000Y-55407446D01*
G36*
X184123000Y-51123000D02*
X179500000Y-51123000D01*
X179450590Y-51133006D01*
X179408965Y-51161447D01*
X179381685Y-51203841D01*
X179373000Y-51250000D01*
X179373000Y-54673000D01*
X172377000Y-54673000D01*
X172377000Y-43377000D01*
X184123000Y-43377000D01*
X184123000Y-51123000D01*
X184123000Y-51123000D01*
G37*
X184123000Y-51123000D02*
X179500000Y-51123000D01*
X179450590Y-51133006D01*
X179408965Y-51161447D01*
X179381685Y-51203841D01*
X179373000Y-51250000D01*
X179373000Y-54673000D01*
X172377000Y-54673000D01*
X172377000Y-43377000D01*
X184123000Y-43377000D01*
X184123000Y-51123000D01*
G36*
X188873000Y-76123000D02*
X180127000Y-76123000D01*
X180127000Y-72767555D01*
X180334778Y-72559777D01*
X180514048Y-72291479D01*
X180577000Y-71975000D01*
X180577000Y-71078096D01*
X180814799Y-71176839D01*
X181183583Y-71177161D01*
X181524417Y-71036331D01*
X181785414Y-70775789D01*
X181926839Y-70435201D01*
X181927161Y-70066417D01*
X181786331Y-69725583D01*
X181525789Y-69464586D01*
X181185201Y-69323161D01*
X180816417Y-69322839D01*
X180574009Y-69423000D01*
X180175000Y-69423000D01*
X180127000Y-69432548D01*
X180127000Y-64377000D01*
X188873000Y-64377000D01*
X188873000Y-76123000D01*
X188873000Y-76123000D01*
G37*
X188873000Y-76123000D02*
X180127000Y-76123000D01*
X180127000Y-72767555D01*
X180334778Y-72559777D01*
X180514048Y-72291479D01*
X180577000Y-71975000D01*
X180577000Y-71078096D01*
X180814799Y-71176839D01*
X181183583Y-71177161D01*
X181524417Y-71036331D01*
X181785414Y-70775789D01*
X181926839Y-70435201D01*
X181927161Y-70066417D01*
X181786331Y-69725583D01*
X181525789Y-69464586D01*
X181185201Y-69323161D01*
X180816417Y-69322839D01*
X180574009Y-69423000D01*
X180175000Y-69423000D01*
X180127000Y-69432548D01*
X180127000Y-64377000D01*
X188873000Y-64377000D01*
X188873000Y-76123000D01*
G36*
X179373000Y-69882446D02*
X179165223Y-70090223D01*
X178985952Y-70358521D01*
X178923000Y-70675000D01*
X178923000Y-71632445D01*
X178632446Y-71923000D01*
X172377000Y-71923000D01*
X172377000Y-56327000D01*
X179373000Y-56327000D01*
X179373000Y-69882446D01*
X179373000Y-69882446D01*
G37*
X179373000Y-69882446D02*
X179165223Y-70090223D01*
X178985952Y-70358521D01*
X178923000Y-70675000D01*
X178923000Y-71632445D01*
X178632446Y-71923000D01*
X172377000Y-71923000D01*
X172377000Y-56327000D01*
X179373000Y-56327000D01*
X179373000Y-69882446D01*
G36*
X196623000Y-71923000D02*
X189627000Y-71923000D01*
X189627000Y-57867554D01*
X189834777Y-57659777D01*
X190014048Y-57391479D01*
X190077000Y-57075000D01*
X190077000Y-56542554D01*
X190292555Y-56327000D01*
X196623000Y-56327000D01*
X196623000Y-71923000D01*
X196623000Y-71923000D01*
G37*
X196623000Y-71923000D02*
X189627000Y-71923000D01*
X189627000Y-57867554D01*
X189834777Y-57659777D01*
X190014048Y-57391479D01*
X190077000Y-57075000D01*
X190077000Y-56542554D01*
X190292555Y-56327000D01*
X196623000Y-56327000D01*
X196623000Y-71923000D01*
G36*
X179373000Y-76750000D02*
X179383006Y-76799410D01*
X179411447Y-76841035D01*
X179453841Y-76868315D01*
X179500000Y-76877000D01*
X184123000Y-76877000D01*
X184123000Y-84633539D01*
X172377000Y-84633539D01*
X172377000Y-73577000D01*
X178975000Y-73577000D01*
X179291479Y-73514048D01*
X179373000Y-73459577D01*
X179373000Y-76750000D01*
X179373000Y-76750000D01*
G37*
X179373000Y-76750000D02*
X179383006Y-76799410D01*
X179411447Y-76841035D01*
X179453841Y-76868315D01*
X179500000Y-76877000D01*
X184123000Y-76877000D01*
X184123000Y-84633539D01*
X172377000Y-84633539D01*
X172377000Y-73577000D01*
X178975000Y-73577000D01*
X179291479Y-73514048D01*
X179373000Y-73459577D01*
X179373000Y-76750000D01*
G36*
X196623000Y-73642554D02*
X196623000Y-84529626D01*
X196519087Y-84633539D01*
X184877000Y-84633539D01*
X184877000Y-76877000D01*
X189500000Y-76877000D01*
X189549410Y-76866994D01*
X189591035Y-76838553D01*
X189618315Y-76796159D01*
X189627000Y-76750000D01*
X189627000Y-73577000D01*
X196557446Y-73577000D01*
X196623000Y-73642554D01*
X196623000Y-73642554D01*
G37*
X196623000Y-73642554D02*
X196623000Y-84529626D01*
X196519087Y-84633539D01*
X184877000Y-84633539D01*
X184877000Y-76877000D01*
X189500000Y-76877000D01*
X189549410Y-76866994D01*
X189591035Y-76838553D01*
X189618315Y-76796159D01*
X189627000Y-76750000D01*
X189627000Y-73577000D01*
X196557446Y-73577000D01*
X196623000Y-73642554D01*
G36*
X138873000Y-55282446D02*
X138665223Y-55490223D01*
X138485952Y-55758521D01*
X138423000Y-56075000D01*
X138423000Y-56857445D01*
X138377454Y-56902992D01*
X138185201Y-56823161D01*
X137816417Y-56822839D01*
X137475583Y-56963669D01*
X137214586Y-57224211D01*
X137073161Y-57564799D01*
X137072839Y-57933583D01*
X137213669Y-58274417D01*
X137474211Y-58535414D01*
X137814799Y-58676839D01*
X138183583Y-58677161D01*
X138425991Y-58577000D01*
X138700000Y-58577000D01*
X138873000Y-58542588D01*
X138873000Y-63623000D01*
X130127000Y-63623000D01*
X130127000Y-51877000D01*
X138873000Y-51877000D01*
X138873000Y-55282446D01*
X138873000Y-55282446D01*
G37*
X138873000Y-55282446D02*
X138665223Y-55490223D01*
X138485952Y-55758521D01*
X138423000Y-56075000D01*
X138423000Y-56857445D01*
X138377454Y-56902992D01*
X138185201Y-56823161D01*
X137816417Y-56822839D01*
X137475583Y-56963669D01*
X137214586Y-57224211D01*
X137073161Y-57564799D01*
X137072839Y-57933583D01*
X137213669Y-58274417D01*
X137474211Y-58535414D01*
X137814799Y-58676839D01*
X138183583Y-58677161D01*
X138425991Y-58577000D01*
X138700000Y-58577000D01*
X138873000Y-58542588D01*
X138873000Y-63623000D01*
X130127000Y-63623000D01*
X130127000Y-51877000D01*
X138873000Y-51877000D01*
X138873000Y-55282446D01*
G36*
X134123000Y-51123000D02*
X129500000Y-51123000D01*
X129450590Y-51133006D01*
X129408965Y-51161447D01*
X129381685Y-51203841D01*
X129373000Y-51250000D01*
X129373000Y-54673000D01*
X122377000Y-54673000D01*
X122377000Y-43377000D01*
X134123000Y-43377000D01*
X134123000Y-51123000D01*
X134123000Y-51123000D01*
G37*
X134123000Y-51123000D02*
X129500000Y-51123000D01*
X129450590Y-51133006D01*
X129408965Y-51161447D01*
X129381685Y-51203841D01*
X129373000Y-51250000D01*
X129373000Y-54673000D01*
X122377000Y-54673000D01*
X122377000Y-43377000D01*
X134123000Y-43377000D01*
X134123000Y-51123000D01*
G36*
X138873000Y-76123000D02*
X130127000Y-76123000D01*
X130127000Y-72867554D01*
X130334777Y-72659777D01*
X130514048Y-72391479D01*
X130559053Y-72165223D01*
X130577000Y-72075000D01*
X130577000Y-71392554D01*
X130843205Y-71126349D01*
X130964799Y-71176839D01*
X131333583Y-71177161D01*
X131674417Y-71036331D01*
X131935414Y-70775789D01*
X132076839Y-70435201D01*
X132077161Y-70066417D01*
X131936331Y-69725583D01*
X131675789Y-69464586D01*
X131335201Y-69323161D01*
X130966417Y-69322839D01*
X130724009Y-69423000D01*
X130550000Y-69423000D01*
X130233521Y-69485952D01*
X130127000Y-69557127D01*
X130127000Y-64377000D01*
X138873000Y-64377000D01*
X138873000Y-76123000D01*
X138873000Y-76123000D01*
G37*
X138873000Y-76123000D02*
X130127000Y-76123000D01*
X130127000Y-72867554D01*
X130334777Y-72659777D01*
X130514048Y-72391479D01*
X130559053Y-72165223D01*
X130577000Y-72075000D01*
X130577000Y-71392554D01*
X130843205Y-71126349D01*
X130964799Y-71176839D01*
X131333583Y-71177161D01*
X131674417Y-71036331D01*
X131935414Y-70775789D01*
X132076839Y-70435201D01*
X132077161Y-70066417D01*
X131936331Y-69725583D01*
X131675789Y-69464586D01*
X131335201Y-69323161D01*
X130966417Y-69322839D01*
X130724009Y-69423000D01*
X130550000Y-69423000D01*
X130233521Y-69485952D01*
X130127000Y-69557127D01*
X130127000Y-64377000D01*
X138873000Y-64377000D01*
X138873000Y-76123000D01*
G36*
X129373000Y-70257446D02*
X129165223Y-70465223D01*
X128985952Y-70733521D01*
X128923000Y-71050000D01*
X128923000Y-71732446D01*
X128732446Y-71923000D01*
X122377000Y-71923000D01*
X122377000Y-56327000D01*
X129373000Y-56327000D01*
X129373000Y-70257446D01*
X129373000Y-70257446D01*
G37*
X129373000Y-70257446D02*
X129165223Y-70465223D01*
X128985952Y-70733521D01*
X128923000Y-71050000D01*
X128923000Y-71732446D01*
X128732446Y-71923000D01*
X122377000Y-71923000D01*
X122377000Y-56327000D01*
X129373000Y-56327000D01*
X129373000Y-70257446D01*
G36*
X146623000Y-71923000D02*
X139627000Y-71923000D01*
X139627000Y-57992555D01*
X139834777Y-57784778D01*
X140014048Y-57516479D01*
X140057538Y-57297839D01*
X140077000Y-57200000D01*
X140077000Y-56417554D01*
X140167554Y-56327000D01*
X146623000Y-56327000D01*
X146623000Y-71923000D01*
X146623000Y-71923000D01*
G37*
X146623000Y-71923000D02*
X139627000Y-71923000D01*
X139627000Y-57992555D01*
X139834777Y-57784778D01*
X140014048Y-57516479D01*
X140057538Y-57297839D01*
X140077000Y-57200000D01*
X140077000Y-56417554D01*
X140167554Y-56327000D01*
X146623000Y-56327000D01*
X146623000Y-71923000D01*
G36*
X129373000Y-76750000D02*
X129383006Y-76799410D01*
X129411447Y-76841035D01*
X129453841Y-76868315D01*
X129500000Y-76877000D01*
X134123000Y-76877000D01*
X134123000Y-84633539D01*
X122377000Y-84633539D01*
X122377000Y-73577000D01*
X129075000Y-73577000D01*
X129373000Y-73517724D01*
X129373000Y-76750000D01*
X129373000Y-76750000D01*
G37*
X129373000Y-76750000D02*
X129383006Y-76799410D01*
X129411447Y-76841035D01*
X129453841Y-76868315D01*
X129500000Y-76877000D01*
X134123000Y-76877000D01*
X134123000Y-84633539D01*
X122377000Y-84633539D01*
X122377000Y-73577000D01*
X129075000Y-73577000D01*
X129373000Y-73517724D01*
X129373000Y-76750000D01*
G36*
X146623000Y-84633539D02*
X134877000Y-84633539D01*
X134877000Y-76877000D01*
X139500000Y-76877000D01*
X139549410Y-76866994D01*
X139591035Y-76838553D01*
X139618315Y-76796159D01*
X139627000Y-76750000D01*
X139627000Y-73577000D01*
X146623000Y-73577000D01*
X146623000Y-84633539D01*
X146623000Y-84633539D01*
G37*
X146623000Y-84633539D02*
X134877000Y-84633539D01*
X134877000Y-76877000D01*
X139500000Y-76877000D01*
X139549410Y-76866994D01*
X139591035Y-76838553D01*
X139618315Y-76796159D01*
X139627000Y-76750000D01*
X139627000Y-73577000D01*
X146623000Y-73577000D01*
X146623000Y-84633539D01*
G36*
X196623000Y-54673000D02*
X189950000Y-54673000D01*
X189633521Y-54735952D01*
X189627000Y-54740309D01*
X189627000Y-51250000D01*
X189616994Y-51200590D01*
X189588553Y-51158965D01*
X189546159Y-51131685D01*
X189500000Y-51123000D01*
X184877000Y-51123000D01*
X184877000Y-43377000D01*
X196623000Y-43377000D01*
X196623000Y-54673000D01*
X196623000Y-54673000D01*
G37*
X196623000Y-54673000D02*
X189950000Y-54673000D01*
X189633521Y-54735952D01*
X189627000Y-54740309D01*
X189627000Y-51250000D01*
X189616994Y-51200590D01*
X189588553Y-51158965D01*
X189546159Y-51131685D01*
X189500000Y-51123000D01*
X184877000Y-51123000D01*
X184877000Y-43377000D01*
X196623000Y-43377000D01*
X196623000Y-54673000D01*
G36*
X171623000Y-54673000D02*
X164825000Y-54673000D01*
X164627000Y-54712385D01*
X164627000Y-51250000D01*
X164616994Y-51200590D01*
X164588553Y-51158965D01*
X164546159Y-51131685D01*
X164500000Y-51123000D01*
X159877000Y-51123000D01*
X159877000Y-43377000D01*
X171623000Y-43377000D01*
X171623000Y-54673000D01*
X171623000Y-54673000D01*
G37*
X171623000Y-54673000D02*
X164825000Y-54673000D01*
X164627000Y-54712385D01*
X164627000Y-51250000D01*
X164616994Y-51200590D01*
X164588553Y-51158965D01*
X164546159Y-51131685D01*
X164500000Y-51123000D01*
X159877000Y-51123000D01*
X159877000Y-43377000D01*
X171623000Y-43377000D01*
X171623000Y-54673000D01*
G36*
X146623000Y-54673000D02*
X139825000Y-54673000D01*
X139627000Y-54712385D01*
X139627000Y-51250000D01*
X139616994Y-51200590D01*
X139588553Y-51158965D01*
X139546159Y-51131685D01*
X139500000Y-51123000D01*
X134877000Y-51123000D01*
X134877000Y-43377000D01*
X146623000Y-43377000D01*
X146623000Y-54673000D01*
X146623000Y-54673000D01*
G37*
X146623000Y-54673000D02*
X139825000Y-54673000D01*
X139627000Y-54712385D01*
X139627000Y-51250000D01*
X139616994Y-51200590D01*
X139588553Y-51158965D01*
X139546159Y-51131685D01*
X139500000Y-51123000D01*
X134877000Y-51123000D01*
X134877000Y-43377000D01*
X146623000Y-43377000D01*
X146623000Y-54673000D01*
M02*
