G04 #@! TF.FileFunction,Copper,L1,Top,Signal*
%FSLAX46Y46*%
G04 Gerber Fmt 4.6, Leading zero omitted, Abs format (unit mm)*
G04 Created by KiCad (PCBNEW 4.0.4-stable) date 03/20/17 17:50:04*
%MOMM*%
%LPD*%
G01*
G04 APERTURE LIST*
%ADD10C,0.100000*%
%ADD11C,0.600000*%
%ADD12R,1.700000X1.500000*%
%ADD13R,1.700000X2.250000*%
%ADD14R,0.800000X0.900000*%
%ADD15R,0.500000X0.900000*%
%ADD16R,1.350000X2.500000*%
%ADD17R,2.350000X2.500000*%
%ADD18R,2.500000X0.900000*%
%ADD19R,0.900000X0.800000*%
%ADD20R,0.900000X0.500000*%
%ADD21R,0.900000X2.500000*%
%ADD22R,1.750000X1.750000*%
%ADD23C,1.750000*%
%ADD24C,0.400000*%
%ADD25C,0.750000*%
%ADD26C,1.500000*%
%ADD27C,0.254000*%
G04 APERTURE END LIST*
D10*
D11*
X151750000Y-71225000D03*
X150750000Y-71225000D03*
X149750000Y-71225000D03*
X148750000Y-71225000D03*
X147750000Y-71225000D03*
X151750000Y-70225000D03*
X150750000Y-70225000D03*
X149750000Y-70225000D03*
X148750000Y-70225000D03*
X147750000Y-70225000D03*
X151750000Y-69225000D03*
X150750000Y-69225000D03*
X149750000Y-69225000D03*
X148750000Y-69225000D03*
X147750000Y-69225000D03*
X151750000Y-68225000D03*
X150750000Y-68225000D03*
X149750000Y-68225000D03*
X148750000Y-68225000D03*
X147750000Y-68225000D03*
X151750000Y-67225000D03*
X150750000Y-67225000D03*
X149750000Y-67225000D03*
X148750000Y-67225000D03*
X147750000Y-67225000D03*
X151750000Y-66225000D03*
X150750000Y-66225000D03*
X149750000Y-66225000D03*
X148750000Y-66225000D03*
X147750000Y-66225000D03*
X151750000Y-65225000D03*
X150750000Y-65225000D03*
X149750000Y-65225000D03*
X148750000Y-65225000D03*
X147750000Y-65225000D03*
X151750000Y-64225000D03*
X150750000Y-64225000D03*
X149750000Y-64225000D03*
X148750000Y-64225000D03*
X147750000Y-64225000D03*
X151750000Y-63225000D03*
X150750000Y-63225000D03*
X149750000Y-63225000D03*
X148750000Y-63225000D03*
X147750000Y-63225000D03*
X151750000Y-62225000D03*
X150750000Y-62225000D03*
X149750000Y-62225000D03*
X148750000Y-62225000D03*
X147750000Y-62225000D03*
X151750000Y-61225000D03*
X150750000Y-61225000D03*
X149750000Y-61225000D03*
X148750000Y-61225000D03*
X147750000Y-61225000D03*
X151750000Y-60225000D03*
X150750000Y-60225000D03*
X149750000Y-60225000D03*
X148750000Y-60225000D03*
X147750000Y-60225000D03*
X153750000Y-59225000D03*
X152750000Y-59225000D03*
X151750000Y-59225000D03*
X150750000Y-59225000D03*
X149750000Y-59225000D03*
X148750000Y-59225000D03*
X147750000Y-59225000D03*
X153750000Y-58225000D03*
X152750000Y-58225000D03*
X151750000Y-58225000D03*
X150750000Y-58225000D03*
X149750000Y-58225000D03*
X148750000Y-58225000D03*
X147750000Y-58225000D03*
X153750000Y-57225000D03*
X152750000Y-57225000D03*
X151750000Y-57225000D03*
X150750000Y-57225000D03*
X149750000Y-57225000D03*
X148750000Y-57225000D03*
X147750000Y-57225000D03*
X153750000Y-56225000D03*
X152750000Y-56225000D03*
X151750000Y-56225000D03*
X150750000Y-56225000D03*
X149750000Y-56225000D03*
X148750000Y-56225000D03*
X147750000Y-56225000D03*
X126750000Y-71225000D03*
X125750000Y-71225000D03*
X124750000Y-71225000D03*
X123750000Y-71225000D03*
X122750000Y-71225000D03*
X126750000Y-70225000D03*
X125750000Y-70225000D03*
X124750000Y-70225000D03*
X123750000Y-70225000D03*
X122750000Y-70225000D03*
X126750000Y-69225000D03*
X125750000Y-69225000D03*
X124750000Y-69225000D03*
X123750000Y-69225000D03*
X122750000Y-69225000D03*
X126750000Y-68225000D03*
X125750000Y-68225000D03*
X124750000Y-68225000D03*
X123750000Y-68225000D03*
X122750000Y-68225000D03*
X126750000Y-67225000D03*
X125750000Y-67225000D03*
X124750000Y-67225000D03*
X123750000Y-67225000D03*
X122750000Y-67225000D03*
X126750000Y-66225000D03*
X125750000Y-66225000D03*
X124750000Y-66225000D03*
X123750000Y-66225000D03*
X122750000Y-66225000D03*
X126750000Y-65225000D03*
X125750000Y-65225000D03*
X124750000Y-65225000D03*
X123750000Y-65225000D03*
X122750000Y-65225000D03*
X126750000Y-64225000D03*
X125750000Y-64225000D03*
X124750000Y-64225000D03*
X123750000Y-64225000D03*
X122750000Y-64225000D03*
X126750000Y-63225000D03*
X125750000Y-63225000D03*
X124750000Y-63225000D03*
X123750000Y-63225000D03*
X122750000Y-63225000D03*
X126750000Y-62225000D03*
X125750000Y-62225000D03*
X124750000Y-62225000D03*
X123750000Y-62225000D03*
X122750000Y-62225000D03*
X126750000Y-61225000D03*
X125750000Y-61225000D03*
X124750000Y-61225000D03*
X123750000Y-61225000D03*
X122750000Y-61225000D03*
X126750000Y-60225000D03*
X125750000Y-60225000D03*
X124750000Y-60225000D03*
X123750000Y-60225000D03*
X122750000Y-60225000D03*
X128750000Y-59225000D03*
X127750000Y-59225000D03*
X126750000Y-59225000D03*
X125750000Y-59225000D03*
X124750000Y-59225000D03*
X123750000Y-59225000D03*
X122750000Y-59225000D03*
X128750000Y-58225000D03*
X127750000Y-58225000D03*
X126750000Y-58225000D03*
X125750000Y-58225000D03*
X124750000Y-58225000D03*
X123750000Y-58225000D03*
X122750000Y-58225000D03*
X128750000Y-57225000D03*
X127750000Y-57225000D03*
X126750000Y-57225000D03*
X125750000Y-57225000D03*
X124750000Y-57225000D03*
X123750000Y-57225000D03*
X122750000Y-57225000D03*
X128750000Y-56225000D03*
X127750000Y-56225000D03*
X126750000Y-56225000D03*
X125750000Y-56225000D03*
X124750000Y-56225000D03*
X123750000Y-56225000D03*
X122750000Y-56225000D03*
X142275000Y-71225000D03*
X143275000Y-71225000D03*
X144275000Y-71225000D03*
X145275000Y-71225000D03*
X146275000Y-71225000D03*
X142275000Y-70225000D03*
X143275000Y-70225000D03*
X144275000Y-70225000D03*
X145275000Y-70225000D03*
X146275000Y-70225000D03*
X142275000Y-69225000D03*
X143275000Y-69225000D03*
X144275000Y-69225000D03*
X145275000Y-69225000D03*
X146275000Y-69225000D03*
X142275000Y-68225000D03*
X143275000Y-68225000D03*
X144275000Y-68225000D03*
X145275000Y-68225000D03*
X146275000Y-68225000D03*
X142275000Y-67225000D03*
X143275000Y-67225000D03*
X144275000Y-67225000D03*
X145275000Y-67225000D03*
X146275000Y-67225000D03*
X142275000Y-66225000D03*
X143275000Y-66225000D03*
X144275000Y-66225000D03*
X145275000Y-66225000D03*
X146275000Y-66225000D03*
X142275000Y-65225000D03*
X143275000Y-65225000D03*
X144275000Y-65225000D03*
X145275000Y-65225000D03*
X146275000Y-65225000D03*
X142275000Y-64225000D03*
X143275000Y-64225000D03*
X144275000Y-64225000D03*
X145275000Y-64225000D03*
X146275000Y-64225000D03*
X142275000Y-63225000D03*
X143275000Y-63225000D03*
X144275000Y-63225000D03*
X145275000Y-63225000D03*
X146275000Y-63225000D03*
X142275000Y-62225000D03*
X143275000Y-62225000D03*
X144275000Y-62225000D03*
X145275000Y-62225000D03*
X146275000Y-62225000D03*
X142275000Y-61225000D03*
X143275000Y-61225000D03*
X144275000Y-61225000D03*
X145275000Y-61225000D03*
X146275000Y-61225000D03*
X142275000Y-60225000D03*
X143275000Y-60225000D03*
X144275000Y-60225000D03*
X145275000Y-60225000D03*
X146275000Y-60225000D03*
X140275000Y-59225000D03*
X141275000Y-59225000D03*
X142275000Y-59225000D03*
X143275000Y-59225000D03*
X144275000Y-59225000D03*
X145275000Y-59225000D03*
X146275000Y-59225000D03*
X140275000Y-58225000D03*
X141275000Y-58225000D03*
X142275000Y-58225000D03*
X143275000Y-58225000D03*
X144275000Y-58225000D03*
X145275000Y-58225000D03*
X146275000Y-58225000D03*
X140275000Y-57225000D03*
X141275000Y-57225000D03*
X142275000Y-57225000D03*
X143275000Y-57225000D03*
X144275000Y-57225000D03*
X145275000Y-57225000D03*
X146275000Y-57225000D03*
X140275000Y-56225000D03*
X141275000Y-56225000D03*
X142275000Y-56225000D03*
X143275000Y-56225000D03*
X144275000Y-56225000D03*
X145275000Y-56225000D03*
X146275000Y-56225000D03*
X192250000Y-71275000D03*
X193250000Y-71275000D03*
X194250000Y-71275000D03*
X195250000Y-71275000D03*
X196250000Y-71275000D03*
X192250000Y-70275000D03*
X193250000Y-70275000D03*
X194250000Y-70275000D03*
X195250000Y-70275000D03*
X196250000Y-70275000D03*
X192250000Y-69275000D03*
X193250000Y-69275000D03*
X194250000Y-69275000D03*
X195250000Y-69275000D03*
X196250000Y-69275000D03*
X192250000Y-68275000D03*
X193250000Y-68275000D03*
X194250000Y-68275000D03*
X195250000Y-68275000D03*
X196250000Y-68275000D03*
X192250000Y-67275000D03*
X193250000Y-67275000D03*
X194250000Y-67275000D03*
X195250000Y-67275000D03*
X196250000Y-67275000D03*
X192250000Y-66275000D03*
X193250000Y-66275000D03*
X194250000Y-66275000D03*
X195250000Y-66275000D03*
X196250000Y-66275000D03*
X192250000Y-65275000D03*
X193250000Y-65275000D03*
X194250000Y-65275000D03*
X195250000Y-65275000D03*
X196250000Y-65275000D03*
X192250000Y-64275000D03*
X193250000Y-64275000D03*
X194250000Y-64275000D03*
X195250000Y-64275000D03*
X196250000Y-64275000D03*
X192250000Y-63275000D03*
X193250000Y-63275000D03*
X194250000Y-63275000D03*
X195250000Y-63275000D03*
X196250000Y-63275000D03*
X192250000Y-62275000D03*
X193250000Y-62275000D03*
X194250000Y-62275000D03*
X195250000Y-62275000D03*
X196250000Y-62275000D03*
X192250000Y-61275000D03*
X193250000Y-61275000D03*
X194250000Y-61275000D03*
X195250000Y-61275000D03*
X196250000Y-61275000D03*
X192250000Y-60275000D03*
X193250000Y-60275000D03*
X194250000Y-60275000D03*
X195250000Y-60275000D03*
X196250000Y-60275000D03*
X190250000Y-59275000D03*
X191250000Y-59275000D03*
X192250000Y-59275000D03*
X193250000Y-59275000D03*
X194250000Y-59275000D03*
X195250000Y-59275000D03*
X196250000Y-59275000D03*
X190250000Y-58275000D03*
X191250000Y-58275000D03*
X192250000Y-58275000D03*
X193250000Y-58275000D03*
X194250000Y-58275000D03*
X195250000Y-58275000D03*
X196250000Y-58275000D03*
X190250000Y-57275000D03*
X191250000Y-57275000D03*
X192250000Y-57275000D03*
X193250000Y-57275000D03*
X194250000Y-57275000D03*
X195250000Y-57275000D03*
X196250000Y-57275000D03*
X190250000Y-56275000D03*
X191250000Y-56275000D03*
X192250000Y-56275000D03*
X193250000Y-56275000D03*
X194250000Y-56275000D03*
X195250000Y-56275000D03*
X196250000Y-56275000D03*
X176750000Y-71500000D03*
X175750000Y-71500000D03*
X174750000Y-71500000D03*
X173750000Y-71500000D03*
X172750000Y-71500000D03*
X176750000Y-70500000D03*
X175750000Y-70500000D03*
X174750000Y-70500000D03*
X173750000Y-70500000D03*
X172750000Y-70500000D03*
X176750000Y-69500000D03*
X175750000Y-69500000D03*
X174750000Y-69500000D03*
X173750000Y-69500000D03*
X172750000Y-69500000D03*
X176750000Y-68500000D03*
X175750000Y-68500000D03*
X174750000Y-68500000D03*
X173750000Y-68500000D03*
X172750000Y-68500000D03*
X176750000Y-67500000D03*
X175750000Y-67500000D03*
X174750000Y-67500000D03*
X173750000Y-67500000D03*
X172750000Y-67500000D03*
X176750000Y-66500000D03*
X175750000Y-66500000D03*
X174750000Y-66500000D03*
X173750000Y-66500000D03*
X172750000Y-66500000D03*
X176750000Y-65500000D03*
X175750000Y-65500000D03*
X174750000Y-65500000D03*
X173750000Y-65500000D03*
X172750000Y-65500000D03*
X176750000Y-64500000D03*
X175750000Y-64500000D03*
X174750000Y-64500000D03*
X173750000Y-64500000D03*
X172750000Y-64500000D03*
X176750000Y-63500000D03*
X175750000Y-63500000D03*
X174750000Y-63500000D03*
X173750000Y-63500000D03*
X172750000Y-63500000D03*
X176750000Y-62500000D03*
X175750000Y-62500000D03*
X174750000Y-62500000D03*
X173750000Y-62500000D03*
X172750000Y-62500000D03*
X176750000Y-61500000D03*
X175750000Y-61500000D03*
X174750000Y-61500000D03*
X173750000Y-61500000D03*
X172750000Y-61500000D03*
X176750000Y-60500000D03*
X175750000Y-60500000D03*
X174750000Y-60500000D03*
X173750000Y-60500000D03*
X172750000Y-60500000D03*
X178750000Y-59500000D03*
X177750000Y-59500000D03*
X176750000Y-59500000D03*
X175750000Y-59500000D03*
X174750000Y-59500000D03*
X173750000Y-59500000D03*
X172750000Y-59500000D03*
X178750000Y-58500000D03*
X177750000Y-58500000D03*
X176750000Y-58500000D03*
X175750000Y-58500000D03*
X174750000Y-58500000D03*
X173750000Y-58500000D03*
X172750000Y-58500000D03*
X178750000Y-57500000D03*
X177750000Y-57500000D03*
X176750000Y-57500000D03*
X175750000Y-57500000D03*
X174750000Y-57500000D03*
X173750000Y-57500000D03*
X172750000Y-57500000D03*
X178750000Y-56500000D03*
X177750000Y-56500000D03*
X176750000Y-56500000D03*
X175750000Y-56500000D03*
X174750000Y-56500000D03*
X173750000Y-56500000D03*
X172750000Y-56500000D03*
X171250000Y-71500000D03*
X170250000Y-71500000D03*
X169250000Y-71500000D03*
X168250000Y-71500000D03*
X167250000Y-71500000D03*
X171250000Y-70500000D03*
X170250000Y-70500000D03*
X169250000Y-70500000D03*
X168250000Y-70500000D03*
X167250000Y-70500000D03*
X171250000Y-69500000D03*
X170250000Y-69500000D03*
X169250000Y-69500000D03*
X168250000Y-69500000D03*
X167250000Y-69500000D03*
X171250000Y-68500000D03*
X170250000Y-68500000D03*
X169250000Y-68500000D03*
X168250000Y-68500000D03*
X167250000Y-68500000D03*
X171250000Y-67500000D03*
X170250000Y-67500000D03*
X169250000Y-67500000D03*
X168250000Y-67500000D03*
X167250000Y-67500000D03*
X171250000Y-66500000D03*
X170250000Y-66500000D03*
X169250000Y-66500000D03*
X168250000Y-66500000D03*
X167250000Y-66500000D03*
X171250000Y-65500000D03*
X170250000Y-65500000D03*
X169250000Y-65500000D03*
X168250000Y-65500000D03*
X167250000Y-65500000D03*
X171250000Y-64500000D03*
X170250000Y-64500000D03*
X169250000Y-64500000D03*
X168250000Y-64500000D03*
X167250000Y-64500000D03*
X171250000Y-63500000D03*
X170250000Y-63500000D03*
X169250000Y-63500000D03*
X168250000Y-63500000D03*
X167250000Y-63500000D03*
X171250000Y-62500000D03*
X170250000Y-62500000D03*
X169250000Y-62500000D03*
X168250000Y-62500000D03*
X167250000Y-62500000D03*
X171250000Y-61500000D03*
X170250000Y-61500000D03*
X169250000Y-61500000D03*
X168250000Y-61500000D03*
X167250000Y-61500000D03*
X171250000Y-60500000D03*
X170250000Y-60500000D03*
X169250000Y-60500000D03*
X168250000Y-60500000D03*
X167250000Y-60500000D03*
X171250000Y-59500000D03*
X170250000Y-59500000D03*
X169250000Y-59500000D03*
X168250000Y-59500000D03*
X167250000Y-59500000D03*
X166250000Y-59500000D03*
X165250000Y-59500000D03*
X171250000Y-58500000D03*
X170250000Y-58500000D03*
X169250000Y-58500000D03*
X168250000Y-58500000D03*
X167250000Y-58500000D03*
X166250000Y-58500000D03*
X165250000Y-58500000D03*
X171250000Y-57500000D03*
X170250000Y-57500000D03*
X169250000Y-57500000D03*
X168250000Y-57500000D03*
X167250000Y-57500000D03*
X166250000Y-57500000D03*
X165250000Y-57500000D03*
X171250000Y-56500000D03*
X170250000Y-56500000D03*
X169250000Y-56500000D03*
X168250000Y-56500000D03*
X167250000Y-56500000D03*
X166250000Y-56500000D03*
X165250000Y-56500000D03*
X188500000Y-75750000D03*
X187500000Y-75750000D03*
X186500000Y-75750000D03*
X185500000Y-75750000D03*
X184500000Y-75750000D03*
X183500000Y-75750000D03*
X182500000Y-75750000D03*
X181500000Y-75750000D03*
X180500000Y-75750000D03*
X188500000Y-74750000D03*
X187500000Y-74750000D03*
X186500000Y-74750000D03*
X185500000Y-74750000D03*
X184500000Y-74750000D03*
X183500000Y-74750000D03*
X182500000Y-74750000D03*
X181500000Y-74750000D03*
X180500000Y-74750000D03*
X188500000Y-73750000D03*
X187500000Y-73750000D03*
X186500000Y-73750000D03*
X185500000Y-73750000D03*
X184500000Y-73750000D03*
X183500000Y-73750000D03*
X182500000Y-73750000D03*
X181500000Y-73750000D03*
X180500000Y-73750000D03*
X188500000Y-72750000D03*
X187500000Y-72750000D03*
X186500000Y-72750000D03*
X185500000Y-72750000D03*
X184500000Y-72750000D03*
X183500000Y-72750000D03*
X182500000Y-72750000D03*
X181500000Y-72750000D03*
X180500000Y-72750000D03*
X188500000Y-71750000D03*
X187500000Y-71750000D03*
X185500000Y-71750000D03*
X181500000Y-71750000D03*
X180500000Y-71750000D03*
X188500000Y-68750000D03*
X187500000Y-68750000D03*
X185500000Y-68750000D03*
X181500000Y-68750000D03*
X180500000Y-68750000D03*
X188500000Y-67750000D03*
X187500000Y-67750000D03*
X186500000Y-67750000D03*
X185500000Y-67750000D03*
X184500000Y-67750000D03*
X183500000Y-67750000D03*
X182500000Y-67750000D03*
X181500000Y-67750000D03*
X180500000Y-67750000D03*
X188500000Y-66750000D03*
X187500000Y-66750000D03*
X186500000Y-66750000D03*
X185500000Y-66750000D03*
X184500000Y-66750000D03*
X183500000Y-66750000D03*
X182500000Y-66750000D03*
X181500000Y-66750000D03*
X180500000Y-66750000D03*
X188500000Y-65750000D03*
X187500000Y-65750000D03*
X186500000Y-65750000D03*
X185500000Y-65750000D03*
X184500000Y-65750000D03*
X183500000Y-65750000D03*
X182500000Y-65750000D03*
X181500000Y-65750000D03*
X180500000Y-65750000D03*
X188500000Y-64750000D03*
X187500000Y-64750000D03*
X186500000Y-64750000D03*
X185500000Y-64750000D03*
X184500000Y-64750000D03*
X183500000Y-64750000D03*
X182500000Y-64750000D03*
X181500000Y-64750000D03*
X180500000Y-64750000D03*
X163500000Y-75750000D03*
X162500000Y-75750000D03*
X161500000Y-75750000D03*
X160500000Y-75750000D03*
X159500000Y-75750000D03*
X158500000Y-75750000D03*
X157500000Y-75750000D03*
X156500000Y-75750000D03*
X155500000Y-75750000D03*
X163500000Y-74750000D03*
X162500000Y-74750000D03*
X161500000Y-74750000D03*
X160500000Y-74750000D03*
X159500000Y-74750000D03*
X158500000Y-74750000D03*
X157500000Y-74750000D03*
X156500000Y-74750000D03*
X155500000Y-74750000D03*
X163500000Y-73750000D03*
X162500000Y-73750000D03*
X161500000Y-73750000D03*
X160500000Y-73750000D03*
X159500000Y-73750000D03*
X158500000Y-73750000D03*
X157500000Y-73750000D03*
X156500000Y-73750000D03*
X155500000Y-73750000D03*
X163500000Y-72750000D03*
X162500000Y-72750000D03*
X161500000Y-72750000D03*
X160500000Y-72750000D03*
X159500000Y-72750000D03*
X158500000Y-72750000D03*
X157500000Y-72750000D03*
X156500000Y-72750000D03*
X155500000Y-72750000D03*
X163500000Y-71750000D03*
X162500000Y-71750000D03*
X160500000Y-71750000D03*
X156500000Y-71750000D03*
X155500000Y-71750000D03*
X163500000Y-68750000D03*
X162500000Y-68750000D03*
X160500000Y-68750000D03*
X156500000Y-68750000D03*
X155500000Y-68750000D03*
X163500000Y-67750000D03*
X162500000Y-67750000D03*
X161500000Y-67750000D03*
X160500000Y-67750000D03*
X159500000Y-67750000D03*
X158500000Y-67750000D03*
X157500000Y-67750000D03*
X156500000Y-67750000D03*
X155500000Y-67750000D03*
X163500000Y-66750000D03*
X162500000Y-66750000D03*
X161500000Y-66750000D03*
X160500000Y-66750000D03*
X159500000Y-66750000D03*
X158500000Y-66750000D03*
X157500000Y-66750000D03*
X156500000Y-66750000D03*
X155500000Y-66750000D03*
X163500000Y-65750000D03*
X162500000Y-65750000D03*
X161500000Y-65750000D03*
X160500000Y-65750000D03*
X159500000Y-65750000D03*
X158500000Y-65750000D03*
X157500000Y-65750000D03*
X156500000Y-65750000D03*
X155500000Y-65750000D03*
X163500000Y-64750000D03*
X162500000Y-64750000D03*
X161500000Y-64750000D03*
X160500000Y-64750000D03*
X159500000Y-64750000D03*
X158500000Y-64750000D03*
X157500000Y-64750000D03*
X156500000Y-64750000D03*
X131500000Y-68800000D03*
X130500000Y-68800000D03*
X138500000Y-68800000D03*
X137500000Y-68800000D03*
X135500000Y-68800000D03*
X130500000Y-67800000D03*
X131500000Y-67800000D03*
X132500000Y-67800000D03*
X133500000Y-67800000D03*
X134500000Y-67800000D03*
X135500000Y-67800000D03*
X136500000Y-67800000D03*
X137500000Y-67800000D03*
X138500000Y-67800000D03*
X138500000Y-75800000D03*
X137500000Y-75800000D03*
X136500000Y-75800000D03*
X135500000Y-75800000D03*
X134500000Y-75800000D03*
X133500000Y-75800000D03*
X132500000Y-75800000D03*
X131500000Y-75800000D03*
X130500000Y-75800000D03*
X138500000Y-74800000D03*
X137500000Y-74800000D03*
X136500000Y-74800000D03*
X135500000Y-74800000D03*
X134500000Y-74800000D03*
X133500000Y-74800000D03*
X132500000Y-74800000D03*
X131500000Y-74800000D03*
X130500000Y-74800000D03*
X138500000Y-73800000D03*
X137500000Y-73800000D03*
X136500000Y-73800000D03*
X135500000Y-73800000D03*
X134500000Y-73800000D03*
X133500000Y-73800000D03*
X132500000Y-73800000D03*
X131500000Y-73800000D03*
X130500000Y-73800000D03*
X138500000Y-72800000D03*
X137500000Y-72800000D03*
X136500000Y-72800000D03*
X135500000Y-72800000D03*
X134500000Y-72800000D03*
X133500000Y-72800000D03*
X132500000Y-72800000D03*
X131500000Y-72800000D03*
X130500000Y-72800000D03*
X138500000Y-71800000D03*
X137500000Y-71800000D03*
X135500000Y-71800000D03*
X131500000Y-71800000D03*
X130500000Y-71800000D03*
X138500000Y-66800000D03*
X137500000Y-66800000D03*
X136500000Y-66800000D03*
X135500000Y-66800000D03*
X134500000Y-66800000D03*
X133500000Y-66800000D03*
X132500000Y-66800000D03*
X131500000Y-66800000D03*
X130500000Y-66800000D03*
X138500000Y-65800000D03*
X137500000Y-65800000D03*
X136500000Y-65800000D03*
X135500000Y-65800000D03*
X134500000Y-65800000D03*
X133500000Y-65800000D03*
X132500000Y-65800000D03*
X131500000Y-65800000D03*
X130500000Y-65800000D03*
X138500000Y-64800000D03*
X137500000Y-64800000D03*
X136500000Y-64800000D03*
X135500000Y-64800000D03*
X134500000Y-64800000D03*
X133500000Y-64800000D03*
X132500000Y-64800000D03*
X131500000Y-64800000D03*
X130500000Y-64800000D03*
X188500000Y-63250000D03*
X187500000Y-63250000D03*
X186500000Y-63250000D03*
X185500000Y-63250000D03*
X184500000Y-63250000D03*
X183500000Y-63250000D03*
X182500000Y-63250000D03*
X181500000Y-63250000D03*
X180500000Y-63250000D03*
X188500000Y-62250000D03*
X187500000Y-62250000D03*
X186500000Y-62250000D03*
X185500000Y-62250000D03*
X184500000Y-62250000D03*
X183500000Y-62250000D03*
X182500000Y-62250000D03*
X181500000Y-62250000D03*
X180500000Y-62250000D03*
X188500000Y-61250000D03*
X187500000Y-61250000D03*
X186500000Y-61250000D03*
X185500000Y-61250000D03*
X184500000Y-61250000D03*
X183500000Y-61250000D03*
X182500000Y-61250000D03*
X181500000Y-61250000D03*
X180500000Y-61250000D03*
X188500000Y-60250000D03*
X187500000Y-60250000D03*
X186500000Y-60250000D03*
X185500000Y-60250000D03*
X184500000Y-60250000D03*
X183500000Y-60250000D03*
X182500000Y-60250000D03*
X181500000Y-60250000D03*
X180500000Y-60250000D03*
X188500000Y-59250000D03*
X187500000Y-59250000D03*
X183500000Y-59250000D03*
X181500000Y-59250000D03*
X180500000Y-59250000D03*
X188500000Y-56250000D03*
X187500000Y-56250000D03*
X183500000Y-56250000D03*
X181500000Y-56250000D03*
X180500000Y-56250000D03*
X188500000Y-55250000D03*
X187500000Y-55250000D03*
X186500000Y-55250000D03*
X185500000Y-55250000D03*
X184500000Y-55250000D03*
X183500000Y-55250000D03*
X182500000Y-55250000D03*
X181500000Y-55250000D03*
X180500000Y-55250000D03*
X188500000Y-54250000D03*
X187500000Y-54250000D03*
X186500000Y-54250000D03*
X185500000Y-54250000D03*
X184500000Y-54250000D03*
X183500000Y-54250000D03*
X182500000Y-54250000D03*
X181500000Y-54250000D03*
X180500000Y-54250000D03*
X188500000Y-53250000D03*
X187500000Y-53250000D03*
X186500000Y-53250000D03*
X185500000Y-53250000D03*
X184500000Y-53250000D03*
X183500000Y-53250000D03*
X182500000Y-53250000D03*
X181500000Y-53250000D03*
X180500000Y-53250000D03*
X188500000Y-52250000D03*
X187500000Y-52250000D03*
X186500000Y-52250000D03*
X185500000Y-52250000D03*
X184500000Y-52250000D03*
X183500000Y-52250000D03*
X182500000Y-52250000D03*
X181500000Y-52250000D03*
X180500000Y-52250000D03*
X138500000Y-63250000D03*
X137500000Y-63250000D03*
X136500000Y-63250000D03*
X135500000Y-63250000D03*
X134500000Y-63250000D03*
X133500000Y-63250000D03*
X132500000Y-63250000D03*
X131500000Y-63250000D03*
X130500000Y-63250000D03*
X138500000Y-62250000D03*
X137500000Y-62250000D03*
X136500000Y-62250000D03*
X135500000Y-62250000D03*
X134500000Y-62250000D03*
X133500000Y-62250000D03*
X132500000Y-62250000D03*
X131500000Y-62250000D03*
X130500000Y-62250000D03*
X138500000Y-61250000D03*
X137500000Y-61250000D03*
X136500000Y-61250000D03*
X135500000Y-61250000D03*
X134500000Y-61250000D03*
X133500000Y-61250000D03*
X132500000Y-61250000D03*
X131500000Y-61250000D03*
X130500000Y-61250000D03*
X138500000Y-60250000D03*
X137500000Y-60250000D03*
X136500000Y-60250000D03*
X135500000Y-60250000D03*
X134500000Y-60250000D03*
X133500000Y-60250000D03*
X132500000Y-60250000D03*
X131500000Y-60250000D03*
X130500000Y-60250000D03*
X138500000Y-59250000D03*
X137500000Y-59250000D03*
X133500000Y-59250000D03*
X131500000Y-59250000D03*
X130500000Y-59250000D03*
X138500000Y-56250000D03*
X137500000Y-56250000D03*
X133500000Y-56250000D03*
X131500000Y-56250000D03*
X130500000Y-56250000D03*
X138500000Y-55250000D03*
X137500000Y-55250000D03*
X136500000Y-55250000D03*
X135500000Y-55250000D03*
X134500000Y-55250000D03*
X133500000Y-55250000D03*
X132500000Y-55250000D03*
X131500000Y-55250000D03*
X130500000Y-55250000D03*
X138500000Y-54250000D03*
X137500000Y-54250000D03*
X136500000Y-54250000D03*
X135500000Y-54250000D03*
X134500000Y-54250000D03*
X133500000Y-54250000D03*
X132500000Y-54250000D03*
X131500000Y-54250000D03*
X130500000Y-54250000D03*
X138500000Y-53250000D03*
X137500000Y-53250000D03*
X136500000Y-53250000D03*
X135500000Y-53250000D03*
X134500000Y-53250000D03*
X133500000Y-53250000D03*
X132500000Y-53250000D03*
X131500000Y-53250000D03*
X130500000Y-53250000D03*
X138500000Y-52250000D03*
X137500000Y-52250000D03*
X136500000Y-52250000D03*
X135500000Y-52250000D03*
X134500000Y-52250000D03*
X133500000Y-52250000D03*
X132500000Y-52250000D03*
X131500000Y-52250000D03*
X130500000Y-52250000D03*
X192200000Y-76050000D03*
X196250000Y-84500000D03*
X195250000Y-84500000D03*
X194250000Y-84500000D03*
X193250000Y-84500000D03*
X188250000Y-84500000D03*
X187250000Y-84500000D03*
X186250000Y-84500000D03*
X185250000Y-84500000D03*
X196250000Y-83500000D03*
X195250000Y-83500000D03*
X194250000Y-83500000D03*
X193250000Y-83500000D03*
X188250000Y-83500000D03*
X187250000Y-83500000D03*
X186250000Y-83500000D03*
X185250000Y-83500000D03*
X196250000Y-82500000D03*
X195250000Y-82500000D03*
X194250000Y-82500000D03*
X193250000Y-82500000D03*
X192250000Y-82500000D03*
X189250000Y-82500000D03*
X188250000Y-82500000D03*
X187250000Y-82500000D03*
X186250000Y-82500000D03*
X185250000Y-82500000D03*
X196250000Y-81500000D03*
X195250000Y-81500000D03*
X194250000Y-81500000D03*
X193250000Y-81500000D03*
X192250000Y-81500000D03*
X189250000Y-81500000D03*
X188250000Y-81500000D03*
X187250000Y-81500000D03*
X186250000Y-81500000D03*
X185250000Y-81500000D03*
X196250000Y-80500000D03*
X195250000Y-80500000D03*
X194250000Y-80500000D03*
X193250000Y-80500000D03*
X188250000Y-80500000D03*
X187250000Y-80500000D03*
X186250000Y-80500000D03*
X185250000Y-80500000D03*
X196250000Y-79500000D03*
X195250000Y-79500000D03*
X194250000Y-79500000D03*
X193250000Y-79500000D03*
X188250000Y-79500000D03*
X187250000Y-79500000D03*
X186250000Y-79500000D03*
X185250000Y-79500000D03*
X196250000Y-78500000D03*
X195250000Y-78500000D03*
X194250000Y-78500000D03*
X193250000Y-78500000D03*
X188250000Y-78500000D03*
X187250000Y-78500000D03*
X186250000Y-78500000D03*
X185250000Y-78500000D03*
X196250000Y-77500000D03*
X195250000Y-77500000D03*
X194250000Y-77500000D03*
X193250000Y-77500000D03*
X189200000Y-77950000D03*
X188250000Y-77500000D03*
X187250000Y-77500000D03*
X186250000Y-77500000D03*
X185250000Y-77500000D03*
X196250000Y-76500000D03*
X195250000Y-76500000D03*
X194250000Y-76500000D03*
X193250000Y-76500000D03*
X196250000Y-75500000D03*
X195250000Y-75500000D03*
X194250000Y-75500000D03*
X193250000Y-75500000D03*
X192200000Y-77950000D03*
X196250000Y-74500000D03*
X195250000Y-74500000D03*
X194250000Y-74500000D03*
X193250000Y-74500000D03*
X192250000Y-74500000D03*
X196250000Y-73500000D03*
X195250000Y-73500000D03*
X194250000Y-73500000D03*
X193250000Y-73500000D03*
X192250000Y-73500000D03*
X183700000Y-84500000D03*
X182700000Y-84500000D03*
X181700000Y-84500000D03*
X180700000Y-84500000D03*
X175700000Y-84500000D03*
X174700000Y-84500000D03*
X173700000Y-84500000D03*
X172700000Y-84500000D03*
X183700000Y-83500000D03*
X182700000Y-83500000D03*
X181700000Y-83500000D03*
X180700000Y-83500000D03*
X175700000Y-83500000D03*
X174700000Y-83500000D03*
X173700000Y-83500000D03*
X172700000Y-83500000D03*
X183700000Y-82500000D03*
X182700000Y-82500000D03*
X181700000Y-82500000D03*
X180700000Y-82500000D03*
X179700000Y-82500000D03*
X176700000Y-82500000D03*
X175700000Y-82500000D03*
X174700000Y-82500000D03*
X173700000Y-82500000D03*
X172700000Y-82500000D03*
X183700000Y-81500000D03*
X182700000Y-81500000D03*
X181700000Y-81500000D03*
X180700000Y-81500000D03*
X179700000Y-81500000D03*
X176700000Y-81500000D03*
X175700000Y-81500000D03*
X174700000Y-81500000D03*
X173700000Y-81500000D03*
X172700000Y-81500000D03*
X183700000Y-80500000D03*
X182700000Y-80500000D03*
X181700000Y-80500000D03*
X180700000Y-80500000D03*
X175700000Y-80500000D03*
X174700000Y-80500000D03*
X173700000Y-80500000D03*
X172700000Y-80500000D03*
X183700000Y-79500000D03*
X182700000Y-79500000D03*
X181700000Y-79500000D03*
X180700000Y-79500000D03*
X175700000Y-79500000D03*
X174700000Y-79500000D03*
X173700000Y-79500000D03*
X172700000Y-79500000D03*
X183700000Y-78500000D03*
X182700000Y-78500000D03*
X181700000Y-78500000D03*
X180700000Y-78500000D03*
X179700000Y-77900000D03*
X176700000Y-77900000D03*
X175700000Y-78500000D03*
X174700000Y-78500000D03*
X173700000Y-78500000D03*
X172700000Y-78500000D03*
X183700000Y-77500000D03*
X182700000Y-77500000D03*
X181700000Y-77500000D03*
X180700000Y-77500000D03*
X175700000Y-77500000D03*
X174700000Y-77500000D03*
X173700000Y-77500000D03*
X172700000Y-77500000D03*
X176700000Y-76100000D03*
X175700000Y-76500000D03*
X174700000Y-76500000D03*
X173700000Y-76500000D03*
X172700000Y-76500000D03*
X175700000Y-75500000D03*
X174700000Y-75500000D03*
X173700000Y-75500000D03*
X172700000Y-75500000D03*
X176700000Y-74500000D03*
X175700000Y-74500000D03*
X174700000Y-74500000D03*
X173700000Y-74500000D03*
X172700000Y-74500000D03*
X176700000Y-73500000D03*
X175700000Y-73500000D03*
X174700000Y-73500000D03*
X173700000Y-73500000D03*
X172700000Y-73500000D03*
X171150000Y-84500000D03*
X170150000Y-84500000D03*
X169150000Y-84500000D03*
X168150000Y-84500000D03*
X163150000Y-84500000D03*
X162150000Y-84500000D03*
X161150000Y-84500000D03*
X160150000Y-84500000D03*
X171150000Y-83500000D03*
X170150000Y-83500000D03*
X169150000Y-83500000D03*
X168150000Y-83500000D03*
X163150000Y-83500000D03*
X162150000Y-83500000D03*
X161150000Y-83500000D03*
X160150000Y-83500000D03*
X171150000Y-82500000D03*
X170150000Y-82500000D03*
X169150000Y-82500000D03*
X168150000Y-82500000D03*
X167150000Y-82500000D03*
X164150000Y-82500000D03*
X163150000Y-82500000D03*
X162150000Y-82500000D03*
X161150000Y-82500000D03*
X160150000Y-82500000D03*
X171150000Y-81500000D03*
X170150000Y-81500000D03*
X169150000Y-81500000D03*
X168150000Y-81500000D03*
X167150000Y-81500000D03*
X164150000Y-81500000D03*
X163150000Y-81500000D03*
X162150000Y-81500000D03*
X161150000Y-81500000D03*
X160150000Y-81500000D03*
X171150000Y-80500000D03*
X170150000Y-80500000D03*
X169150000Y-80500000D03*
X168150000Y-80500000D03*
X163150000Y-80500000D03*
X162150000Y-80500000D03*
X161150000Y-80500000D03*
X160150000Y-80500000D03*
X171150000Y-79500000D03*
X170150000Y-79500000D03*
X169150000Y-79500000D03*
X168150000Y-79500000D03*
X163150000Y-79500000D03*
X162150000Y-79500000D03*
X161150000Y-79500000D03*
X160150000Y-79500000D03*
X171150000Y-78500000D03*
X170150000Y-78500000D03*
X169150000Y-78500000D03*
X168150000Y-78500000D03*
X167100000Y-77900000D03*
X164100000Y-77900000D03*
X163150000Y-78500000D03*
X162150000Y-78500000D03*
X161150000Y-78500000D03*
X160150000Y-78500000D03*
X171150000Y-77500000D03*
X170150000Y-77500000D03*
X169150000Y-77500000D03*
X168150000Y-77500000D03*
X163150000Y-77500000D03*
X162150000Y-77500000D03*
X161150000Y-77500000D03*
X160150000Y-77500000D03*
X171150000Y-76500000D03*
X170150000Y-76500000D03*
X169150000Y-76500000D03*
X168150000Y-76500000D03*
X167100000Y-76100000D03*
X171150000Y-75500000D03*
X170150000Y-75500000D03*
X169150000Y-75500000D03*
X168150000Y-75500000D03*
X171150000Y-74500000D03*
X170150000Y-74500000D03*
X169150000Y-74500000D03*
X168150000Y-74500000D03*
X167150000Y-74500000D03*
X171150000Y-73500000D03*
X170150000Y-73500000D03*
X169150000Y-73500000D03*
X168150000Y-73500000D03*
X167150000Y-73500000D03*
X158750000Y-84500000D03*
X157750000Y-84500000D03*
X156750000Y-84500000D03*
X155750000Y-84500000D03*
X150750000Y-84500000D03*
X149750000Y-84500000D03*
X148750000Y-84500000D03*
X147750000Y-84500000D03*
X158750000Y-83500000D03*
X157750000Y-83500000D03*
X156750000Y-83500000D03*
X155750000Y-83500000D03*
X150750000Y-83500000D03*
X149750000Y-83500000D03*
X148750000Y-83500000D03*
X147750000Y-83500000D03*
X158750000Y-82500000D03*
X157750000Y-82500000D03*
X156750000Y-82500000D03*
X155750000Y-82500000D03*
X154750000Y-82500000D03*
X151750000Y-82500000D03*
X150750000Y-82500000D03*
X149750000Y-82500000D03*
X148750000Y-82500000D03*
X147750000Y-82500000D03*
X158750000Y-81500000D03*
X157750000Y-81500000D03*
X156750000Y-81500000D03*
X155750000Y-81500000D03*
X154750000Y-81500000D03*
X151750000Y-81500000D03*
X150750000Y-81500000D03*
X149750000Y-81500000D03*
X148750000Y-81500000D03*
X147750000Y-81500000D03*
X158750000Y-80500000D03*
X157750000Y-80500000D03*
X156750000Y-80500000D03*
X155750000Y-80500000D03*
X150750000Y-80500000D03*
X149750000Y-80500000D03*
X148750000Y-80500000D03*
X147750000Y-80500000D03*
X158750000Y-79500000D03*
X157750000Y-79500000D03*
X156750000Y-79500000D03*
X155750000Y-79500000D03*
X150750000Y-79500000D03*
X149750000Y-79500000D03*
X148750000Y-79500000D03*
X147750000Y-79500000D03*
X158750000Y-78500000D03*
X157750000Y-78500000D03*
X156750000Y-78500000D03*
X155750000Y-78500000D03*
X150750000Y-78500000D03*
X149750000Y-78500000D03*
X148750000Y-78500000D03*
X147750000Y-78500000D03*
X158750000Y-77500000D03*
X157750000Y-77500000D03*
X156750000Y-77500000D03*
X155750000Y-77500000D03*
X154700000Y-77900000D03*
X151700000Y-77900000D03*
X150750000Y-77500000D03*
X149750000Y-77500000D03*
X148750000Y-77500000D03*
X147750000Y-77500000D03*
X151700000Y-76100000D03*
X150750000Y-76500000D03*
X149750000Y-76500000D03*
X148750000Y-76500000D03*
X147750000Y-76500000D03*
X150750000Y-75500000D03*
X149750000Y-75500000D03*
X148750000Y-75500000D03*
X147750000Y-75500000D03*
X151750000Y-74500000D03*
X150750000Y-74500000D03*
X149750000Y-74500000D03*
X148750000Y-74500000D03*
X147750000Y-74500000D03*
X151750000Y-73500000D03*
X150750000Y-73500000D03*
X149750000Y-73500000D03*
X148750000Y-73500000D03*
D12*
X153250000Y-79500000D03*
X153250000Y-73500000D03*
D13*
X153250000Y-76180000D03*
D11*
X147750000Y-73500000D03*
D12*
X140750000Y-79500000D03*
X140750000Y-73500000D03*
D13*
X140750000Y-76180000D03*
D11*
X146350000Y-84500000D03*
X145350000Y-84500000D03*
X144350000Y-84500000D03*
X143350000Y-84500000D03*
X138350000Y-84500000D03*
X137350000Y-84500000D03*
X136350000Y-84500000D03*
X135350000Y-84500000D03*
X146350000Y-83500000D03*
X145350000Y-83500000D03*
X144350000Y-83500000D03*
X143350000Y-83500000D03*
X138350000Y-83500000D03*
X137350000Y-83500000D03*
X136350000Y-83500000D03*
X135350000Y-83500000D03*
X146350000Y-82500000D03*
X145350000Y-82500000D03*
X144350000Y-82500000D03*
X143350000Y-82500000D03*
X142350000Y-82500000D03*
X139350000Y-82500000D03*
X138350000Y-82500000D03*
X137350000Y-82500000D03*
X136350000Y-82500000D03*
X135350000Y-82500000D03*
X146350000Y-81500000D03*
X145350000Y-81500000D03*
X144350000Y-81500000D03*
X143350000Y-81500000D03*
X142350000Y-81500000D03*
X139350000Y-81500000D03*
X138350000Y-81500000D03*
X137350000Y-81500000D03*
X136350000Y-81500000D03*
X135350000Y-81500000D03*
X146350000Y-80500000D03*
X145350000Y-80500000D03*
X144350000Y-80500000D03*
X143350000Y-80500000D03*
X138350000Y-80500000D03*
X137350000Y-80500000D03*
X136350000Y-80500000D03*
X135350000Y-80500000D03*
X146350000Y-79500000D03*
X145350000Y-79500000D03*
X144350000Y-79500000D03*
X143350000Y-79500000D03*
X138350000Y-79500000D03*
X137350000Y-79500000D03*
X136350000Y-79500000D03*
X135350000Y-79500000D03*
X146350000Y-78500000D03*
X145350000Y-78500000D03*
X144350000Y-78500000D03*
X143350000Y-78500000D03*
X138350000Y-78500000D03*
X137350000Y-78500000D03*
X136350000Y-78500000D03*
X135350000Y-78500000D03*
X146350000Y-77500000D03*
X145350000Y-77500000D03*
X144350000Y-77500000D03*
X143350000Y-77500000D03*
X142300000Y-77900000D03*
X139300000Y-77900000D03*
X138350000Y-77500000D03*
X137350000Y-77500000D03*
X136350000Y-77500000D03*
X135350000Y-77500000D03*
X146350000Y-76500000D03*
X145350000Y-76500000D03*
X144350000Y-76500000D03*
X143350000Y-76500000D03*
X142300000Y-76100000D03*
X146350000Y-75500000D03*
X145350000Y-75500000D03*
X144350000Y-75500000D03*
X143350000Y-75500000D03*
X146350000Y-74500000D03*
X145350000Y-74500000D03*
X144350000Y-74500000D03*
X143350000Y-74500000D03*
X142350000Y-74500000D03*
X146350000Y-73500000D03*
X145350000Y-73500000D03*
X144350000Y-73500000D03*
X143350000Y-73500000D03*
X142350000Y-73500000D03*
D14*
X139800000Y-84250000D03*
X141700000Y-84250000D03*
X140750000Y-82250000D03*
D11*
X130750000Y-84500000D03*
X130750000Y-83500000D03*
X126750000Y-74500000D03*
X126750000Y-73500000D03*
X126750000Y-77900000D03*
X129750000Y-77900000D03*
X126750000Y-82500000D03*
X129750000Y-82500000D03*
X129750000Y-81500000D03*
X126750000Y-81500000D03*
X126700000Y-76100000D03*
D15*
X141500000Y-86250000D03*
X140000000Y-86250000D03*
D14*
X127300000Y-84250000D03*
X129200000Y-84250000D03*
X128250000Y-82250000D03*
D11*
X133750000Y-84500000D03*
X132750000Y-84500000D03*
X131750000Y-84500000D03*
X125750000Y-84500000D03*
X124750000Y-84500000D03*
X123750000Y-84500000D03*
X122750000Y-84500000D03*
X133750000Y-83500000D03*
X132750000Y-83500000D03*
X131750000Y-83500000D03*
X125750000Y-83500000D03*
X124750000Y-83500000D03*
X123750000Y-83500000D03*
X122750000Y-83500000D03*
X133750000Y-82500000D03*
X132750000Y-82500000D03*
X131750000Y-82500000D03*
X130750000Y-82500000D03*
X125750000Y-82500000D03*
X124750000Y-82500000D03*
X123750000Y-82500000D03*
X122750000Y-82500000D03*
X133750000Y-81500000D03*
X132750000Y-81500000D03*
X131750000Y-81500000D03*
X130750000Y-81500000D03*
X125750000Y-81500000D03*
X124750000Y-81500000D03*
X123750000Y-81500000D03*
X122750000Y-81500000D03*
X133750000Y-80500000D03*
X132750000Y-80500000D03*
X131750000Y-80500000D03*
X130750000Y-80500000D03*
X125750000Y-80500000D03*
X124750000Y-80500000D03*
X123750000Y-80500000D03*
X122750000Y-80500000D03*
X133750000Y-79500000D03*
X132750000Y-79500000D03*
X131750000Y-79500000D03*
X130750000Y-79500000D03*
X125750000Y-79500000D03*
X124750000Y-79500000D03*
X123750000Y-79500000D03*
X122750000Y-79500000D03*
X133750000Y-78500000D03*
X132750000Y-78500000D03*
X131750000Y-78500000D03*
X130750000Y-78500000D03*
X125750000Y-78500000D03*
X124750000Y-78500000D03*
X123750000Y-78500000D03*
X122750000Y-78500000D03*
X133750000Y-77500000D03*
X132750000Y-77500000D03*
X131750000Y-77500000D03*
X130750000Y-77500000D03*
X125750000Y-77500000D03*
X124750000Y-77500000D03*
X123750000Y-77500000D03*
X122750000Y-77500000D03*
X125750000Y-76500000D03*
X124750000Y-76500000D03*
X123750000Y-76500000D03*
X122750000Y-76500000D03*
X125750000Y-75500000D03*
X124750000Y-75500000D03*
X123750000Y-75500000D03*
X122750000Y-75500000D03*
X125750000Y-74500000D03*
X124750000Y-74500000D03*
X123750000Y-74500000D03*
X122750000Y-74500000D03*
X125750000Y-73500000D03*
X124750000Y-73500000D03*
X123750000Y-73500000D03*
X122750000Y-73500000D03*
X158500000Y-59250000D03*
X158500000Y-56250000D03*
X126750000Y-53000000D03*
X126750000Y-51250000D03*
X126750000Y-48250000D03*
X129750000Y-48500000D03*
D12*
X128250000Y-54500000D03*
X128250000Y-48500000D03*
D13*
X128250000Y-51180000D03*
D11*
X125750000Y-54750000D03*
X124750000Y-54750000D03*
X123750000Y-54750000D03*
X122750000Y-54750000D03*
X125750000Y-53750000D03*
X124750000Y-53750000D03*
X123750000Y-53750000D03*
X122750000Y-53750000D03*
X125750000Y-52750000D03*
X124750000Y-52750000D03*
X123750000Y-52750000D03*
X122750000Y-52750000D03*
X125750000Y-51750000D03*
X124750000Y-51750000D03*
X123750000Y-51750000D03*
X122750000Y-51750000D03*
X133750000Y-50750000D03*
X132750000Y-50750000D03*
X131750000Y-50750000D03*
X130750000Y-50750000D03*
X125750000Y-50750000D03*
X124750000Y-50750000D03*
X123750000Y-50750000D03*
X122750000Y-50750000D03*
X133750000Y-49750000D03*
X132750000Y-49750000D03*
X131750000Y-49750000D03*
X130750000Y-49750000D03*
X125750000Y-49750000D03*
X124750000Y-49750000D03*
X123750000Y-49750000D03*
X122750000Y-49750000D03*
X133750000Y-48750000D03*
X132750000Y-48750000D03*
X131750000Y-48750000D03*
X130750000Y-48750000D03*
X125750000Y-48750000D03*
X124750000Y-48750000D03*
X123750000Y-48750000D03*
X122750000Y-48750000D03*
X133750000Y-47750000D03*
X132750000Y-47750000D03*
X131750000Y-47750000D03*
X130750000Y-47750000D03*
X125750000Y-47750000D03*
X124750000Y-47750000D03*
X123750000Y-47750000D03*
X122750000Y-47750000D03*
X133750000Y-46750000D03*
X132750000Y-46750000D03*
X131750000Y-46750000D03*
X130750000Y-46750000D03*
X129750000Y-46750000D03*
X128750000Y-46750000D03*
X127750000Y-46750000D03*
X126750000Y-46750000D03*
X125750000Y-46750000D03*
X124750000Y-46750000D03*
X123750000Y-46750000D03*
X122750000Y-46750000D03*
X133750000Y-45750000D03*
X132750000Y-45750000D03*
X131750000Y-45750000D03*
X130750000Y-45750000D03*
X125750000Y-45750000D03*
X124750000Y-45750000D03*
X123750000Y-45750000D03*
X122750000Y-45750000D03*
X133750000Y-44750000D03*
X132750000Y-44750000D03*
X131750000Y-44750000D03*
X130750000Y-44750000D03*
X125750000Y-44750000D03*
X124750000Y-44750000D03*
X123750000Y-44750000D03*
X122750000Y-44750000D03*
X133750000Y-43750000D03*
X132750000Y-43750000D03*
X131750000Y-43750000D03*
X130750000Y-43750000D03*
X129750000Y-43750000D03*
X128750000Y-43750000D03*
X127750000Y-43750000D03*
X126750000Y-43750000D03*
X125750000Y-43750000D03*
X124750000Y-43750000D03*
X123750000Y-43750000D03*
X192250000Y-53000000D03*
X176750000Y-53000000D03*
X167250000Y-53000000D03*
X151750000Y-53000000D03*
X142250000Y-53000000D03*
X142250000Y-51250000D03*
X142250000Y-48500000D03*
X139250000Y-48500000D03*
X146250000Y-54750000D03*
X145250000Y-54750000D03*
X144250000Y-54750000D03*
X143250000Y-54750000D03*
X146250000Y-53750000D03*
X145250000Y-53750000D03*
X144250000Y-53750000D03*
X143250000Y-53750000D03*
X146250000Y-52750000D03*
X145250000Y-52750000D03*
X144250000Y-52750000D03*
X143250000Y-52750000D03*
X146250000Y-51750000D03*
X145250000Y-51750000D03*
X144250000Y-51750000D03*
X143250000Y-51750000D03*
X146250000Y-50750000D03*
X145250000Y-50750000D03*
X144250000Y-50750000D03*
X143250000Y-50750000D03*
X138250000Y-50750000D03*
X137250000Y-50750000D03*
X136250000Y-50750000D03*
X135250000Y-50750000D03*
X146250000Y-49750000D03*
X145250000Y-49750000D03*
X144250000Y-49750000D03*
X143250000Y-49750000D03*
X138250000Y-49750000D03*
X137250000Y-49750000D03*
X136250000Y-49750000D03*
X135250000Y-49750000D03*
X146250000Y-48750000D03*
X145250000Y-48750000D03*
X144250000Y-48750000D03*
X143250000Y-48750000D03*
X138250000Y-48750000D03*
X137250000Y-48750000D03*
X136250000Y-48750000D03*
X135250000Y-48750000D03*
X146250000Y-47750000D03*
X145250000Y-47750000D03*
X144250000Y-47750000D03*
X143250000Y-47750000D03*
X138250000Y-47750000D03*
X137250000Y-47750000D03*
X136250000Y-47750000D03*
X135250000Y-47750000D03*
X146250000Y-46750000D03*
X145250000Y-46750000D03*
X144250000Y-46750000D03*
X143250000Y-46750000D03*
X142250000Y-46750000D03*
X141250000Y-46750000D03*
X140250000Y-46750000D03*
X139250000Y-46750000D03*
X138250000Y-46750000D03*
X137250000Y-46750000D03*
X136250000Y-46750000D03*
X135250000Y-46750000D03*
X146250000Y-45750000D03*
X145250000Y-45750000D03*
X144250000Y-45750000D03*
X143250000Y-45750000D03*
X138250000Y-45750000D03*
X137250000Y-45750000D03*
X136250000Y-45750000D03*
X135250000Y-45750000D03*
X146250000Y-44750000D03*
X145250000Y-44750000D03*
X144250000Y-44750000D03*
X143250000Y-44750000D03*
X138250000Y-44750000D03*
X137250000Y-44750000D03*
X136250000Y-44750000D03*
X135250000Y-44750000D03*
X146250000Y-43750000D03*
X145250000Y-43750000D03*
X144250000Y-43750000D03*
X143250000Y-43750000D03*
X142250000Y-43750000D03*
X141250000Y-43750000D03*
X140250000Y-43750000D03*
X139250000Y-43750000D03*
X138250000Y-43750000D03*
X137250000Y-43750000D03*
X136250000Y-43750000D03*
X192250000Y-51250000D03*
X176750000Y-51250000D03*
X167250000Y-51250000D03*
X151750000Y-51250000D03*
X176750000Y-48500000D03*
X179750000Y-48500000D03*
X192250000Y-48500000D03*
X196250000Y-54750000D03*
X195250000Y-54750000D03*
X194250000Y-54750000D03*
X193250000Y-54750000D03*
X196250000Y-53750000D03*
X195250000Y-53750000D03*
X194250000Y-53750000D03*
X193250000Y-53750000D03*
X196250000Y-52750000D03*
X195250000Y-52750000D03*
X194250000Y-52750000D03*
X193250000Y-52750000D03*
X196250000Y-51750000D03*
X195250000Y-51750000D03*
X194250000Y-51750000D03*
X193250000Y-51750000D03*
X196250000Y-50750000D03*
X195250000Y-50750000D03*
X194250000Y-50750000D03*
X193250000Y-50750000D03*
X188250000Y-50750000D03*
X187250000Y-50750000D03*
X186250000Y-50750000D03*
X185250000Y-50750000D03*
X196250000Y-49750000D03*
X195250000Y-49750000D03*
X194250000Y-49750000D03*
X193250000Y-49750000D03*
X188250000Y-49750000D03*
X187250000Y-49750000D03*
X186250000Y-49750000D03*
X185250000Y-49750000D03*
X196250000Y-48750000D03*
X195250000Y-48750000D03*
X194250000Y-48750000D03*
X193250000Y-48750000D03*
X189250000Y-48500000D03*
X188250000Y-48750000D03*
X187250000Y-48750000D03*
X186250000Y-48750000D03*
X185250000Y-48750000D03*
X196250000Y-47750000D03*
X195250000Y-47750000D03*
X194250000Y-47750000D03*
X193250000Y-47750000D03*
X188250000Y-47750000D03*
X187250000Y-47750000D03*
X186250000Y-47750000D03*
X185250000Y-47750000D03*
X196250000Y-46750000D03*
X195250000Y-46750000D03*
X194250000Y-46750000D03*
X193250000Y-46750000D03*
X192250000Y-46750000D03*
X191250000Y-46750000D03*
X190250000Y-46750000D03*
X189250000Y-46750000D03*
X188250000Y-46750000D03*
X187250000Y-46750000D03*
X186250000Y-46750000D03*
X185250000Y-46750000D03*
X196250000Y-45750000D03*
X195250000Y-45750000D03*
X194250000Y-45750000D03*
X193250000Y-45750000D03*
X188250000Y-45750000D03*
X187250000Y-45750000D03*
X186250000Y-45750000D03*
X185250000Y-45750000D03*
X196250000Y-44750000D03*
X195250000Y-44750000D03*
X194250000Y-44750000D03*
X193250000Y-44750000D03*
X188250000Y-44750000D03*
X187250000Y-44750000D03*
X186250000Y-44750000D03*
X185250000Y-44750000D03*
X196250000Y-43750000D03*
X195250000Y-43750000D03*
X194250000Y-43750000D03*
X193250000Y-43750000D03*
X192250000Y-43750000D03*
X191250000Y-43750000D03*
X190250000Y-43750000D03*
X189250000Y-43750000D03*
X188250000Y-43750000D03*
X187250000Y-43750000D03*
X186250000Y-43750000D03*
X167250000Y-48750000D03*
X164250000Y-48750000D03*
D12*
X178250000Y-54500000D03*
X178250000Y-48500000D03*
D13*
X178250000Y-51180000D03*
D11*
X175750000Y-54750000D03*
X174750000Y-54750000D03*
X173750000Y-54750000D03*
X172750000Y-54750000D03*
X175750000Y-53750000D03*
X174750000Y-53750000D03*
X173750000Y-53750000D03*
X172750000Y-53750000D03*
X175750000Y-52750000D03*
X174750000Y-52750000D03*
X173750000Y-52750000D03*
X172750000Y-52750000D03*
X175750000Y-51750000D03*
X174750000Y-51750000D03*
X173750000Y-51750000D03*
X172750000Y-51750000D03*
X183750000Y-50750000D03*
X182750000Y-50750000D03*
X181750000Y-50750000D03*
X180750000Y-50750000D03*
X175750000Y-50750000D03*
X174750000Y-50750000D03*
X173750000Y-50750000D03*
X172750000Y-50750000D03*
X183750000Y-49750000D03*
X182750000Y-49750000D03*
X181750000Y-49750000D03*
X180750000Y-49750000D03*
X175750000Y-49750000D03*
X174750000Y-49750000D03*
X173750000Y-49750000D03*
X172750000Y-49750000D03*
X183750000Y-48750000D03*
X182750000Y-48750000D03*
X181750000Y-48750000D03*
X180750000Y-48750000D03*
X175750000Y-48750000D03*
X174750000Y-48750000D03*
X173750000Y-48750000D03*
X172750000Y-48750000D03*
X183750000Y-47750000D03*
X182750000Y-47750000D03*
X181750000Y-47750000D03*
X180750000Y-47750000D03*
X175750000Y-47750000D03*
X174750000Y-47750000D03*
X173750000Y-47750000D03*
X172750000Y-47750000D03*
X183750000Y-46750000D03*
X182750000Y-46750000D03*
X181750000Y-46750000D03*
X180750000Y-46750000D03*
X179750000Y-46750000D03*
X178750000Y-46750000D03*
X177750000Y-46750000D03*
X176750000Y-46750000D03*
X175750000Y-46750000D03*
X174750000Y-46750000D03*
X173750000Y-46750000D03*
X172750000Y-46750000D03*
X183750000Y-45750000D03*
X182750000Y-45750000D03*
X181750000Y-45750000D03*
X180750000Y-45750000D03*
X175750000Y-45750000D03*
X174750000Y-45750000D03*
X173750000Y-45750000D03*
X172750000Y-45750000D03*
X183750000Y-44750000D03*
X182750000Y-44750000D03*
X181750000Y-44750000D03*
X180750000Y-44750000D03*
X175750000Y-44750000D03*
X174750000Y-44750000D03*
X173750000Y-44750000D03*
X172750000Y-44750000D03*
X183750000Y-43750000D03*
X182750000Y-43750000D03*
X181750000Y-43750000D03*
X180750000Y-43750000D03*
X179750000Y-43750000D03*
X178750000Y-43750000D03*
X177750000Y-43750000D03*
X176750000Y-43750000D03*
X175750000Y-43750000D03*
X174750000Y-43750000D03*
X173750000Y-43750000D03*
X122750000Y-43750000D03*
X135250000Y-43750000D03*
X185250000Y-43750000D03*
X172750000Y-43750000D03*
D12*
X165750000Y-54500000D03*
X165750000Y-48500000D03*
D13*
X165750000Y-51180000D03*
D11*
X171250000Y-54750000D03*
X170250000Y-54750000D03*
X169250000Y-54750000D03*
X168250000Y-54750000D03*
X171250000Y-53750000D03*
X170250000Y-53750000D03*
X169250000Y-53750000D03*
X168250000Y-53750000D03*
X171250000Y-52750000D03*
X170250000Y-52750000D03*
X169250000Y-52750000D03*
X168250000Y-52750000D03*
X171250000Y-51750000D03*
X170250000Y-51750000D03*
X169250000Y-51750000D03*
X168250000Y-51750000D03*
X171250000Y-50750000D03*
X170250000Y-50750000D03*
X169250000Y-50750000D03*
X168250000Y-50750000D03*
X163250000Y-50750000D03*
X162250000Y-50750000D03*
X161250000Y-50750000D03*
X160250000Y-50750000D03*
X171250000Y-49750000D03*
X170250000Y-49750000D03*
X169250000Y-49750000D03*
X168250000Y-49750000D03*
X163250000Y-49750000D03*
X162250000Y-49750000D03*
X161250000Y-49750000D03*
X160250000Y-49750000D03*
X171250000Y-48750000D03*
X170250000Y-48750000D03*
X169250000Y-48750000D03*
X168250000Y-48750000D03*
X163250000Y-48750000D03*
X162250000Y-48750000D03*
X161250000Y-48750000D03*
X160250000Y-48750000D03*
X171250000Y-47750000D03*
X170250000Y-47750000D03*
X169250000Y-47750000D03*
X168250000Y-47750000D03*
X163250000Y-47750000D03*
X162250000Y-47750000D03*
X161250000Y-47750000D03*
X160250000Y-47750000D03*
X171250000Y-46750000D03*
X170250000Y-46750000D03*
X169250000Y-46750000D03*
X168250000Y-46750000D03*
X167250000Y-46750000D03*
X166250000Y-46750000D03*
X165250000Y-46750000D03*
X164250000Y-46750000D03*
X163250000Y-46750000D03*
X162250000Y-46750000D03*
X161250000Y-46750000D03*
X160250000Y-46750000D03*
X171250000Y-45750000D03*
X170250000Y-45750000D03*
X169250000Y-45750000D03*
X168250000Y-45750000D03*
X163250000Y-45750000D03*
X162250000Y-45750000D03*
X161250000Y-45750000D03*
X160250000Y-45750000D03*
X171250000Y-44750000D03*
X170250000Y-44750000D03*
X169250000Y-44750000D03*
X168250000Y-44750000D03*
X163250000Y-44750000D03*
X162250000Y-44750000D03*
X161250000Y-44750000D03*
X160250000Y-44750000D03*
X171250000Y-43750000D03*
X170250000Y-43750000D03*
X169250000Y-43750000D03*
X168250000Y-43750000D03*
X167250000Y-43750000D03*
X166250000Y-43750000D03*
X165250000Y-43750000D03*
X164250000Y-43750000D03*
X163250000Y-43750000D03*
X162250000Y-43750000D03*
X161250000Y-43750000D03*
X160250000Y-43750000D03*
X150750000Y-54750000D03*
X149750000Y-54750000D03*
X148750000Y-54750000D03*
X147750000Y-54750000D03*
X150750000Y-53750000D03*
X149750000Y-53750000D03*
X148750000Y-53750000D03*
X147750000Y-53750000D03*
X150750000Y-52750000D03*
X149750000Y-52750000D03*
X148750000Y-52750000D03*
X147750000Y-52750000D03*
X150750000Y-51750000D03*
X149750000Y-51750000D03*
X148750000Y-51750000D03*
X147750000Y-51750000D03*
X158750000Y-50750000D03*
X157750000Y-50750000D03*
X156750000Y-50750000D03*
X155750000Y-50750000D03*
X150750000Y-50750000D03*
X149750000Y-50750000D03*
X148750000Y-50750000D03*
X147750000Y-50750000D03*
X158750000Y-49750000D03*
X157750000Y-49750000D03*
X156750000Y-49750000D03*
X155750000Y-49750000D03*
X150750000Y-49750000D03*
X149750000Y-49750000D03*
X148750000Y-49750000D03*
X147750000Y-49750000D03*
X158750000Y-48750000D03*
X157750000Y-48750000D03*
X156750000Y-48750000D03*
X155750000Y-48750000D03*
X154750000Y-48500000D03*
X151750000Y-48500000D03*
X150750000Y-48750000D03*
X149750000Y-48750000D03*
X148750000Y-48750000D03*
X147750000Y-48750000D03*
X158750000Y-47750000D03*
X157750000Y-47750000D03*
X156750000Y-47750000D03*
X155750000Y-47750000D03*
X150750000Y-47750000D03*
X149750000Y-47750000D03*
X148750000Y-47750000D03*
X147750000Y-47750000D03*
X158750000Y-46750000D03*
X157750000Y-46750000D03*
X156750000Y-46750000D03*
X155750000Y-46750000D03*
X154750000Y-46750000D03*
X153750000Y-46750000D03*
X152750000Y-46750000D03*
X151750000Y-46750000D03*
X150750000Y-46750000D03*
X149750000Y-46750000D03*
X148750000Y-46750000D03*
X147750000Y-46750000D03*
X158750000Y-45750000D03*
X157750000Y-45750000D03*
X156750000Y-45750000D03*
X155750000Y-45750000D03*
X150750000Y-45750000D03*
X149750000Y-45750000D03*
X148750000Y-45750000D03*
X147750000Y-45750000D03*
X158750000Y-44750000D03*
X157750000Y-44750000D03*
X156750000Y-44750000D03*
X155750000Y-44750000D03*
X150750000Y-44750000D03*
X149750000Y-44750000D03*
X148750000Y-44750000D03*
X147750000Y-44750000D03*
X158750000Y-43750000D03*
X157750000Y-43750000D03*
X156750000Y-43750000D03*
X155750000Y-43750000D03*
X153750000Y-43750000D03*
X152750000Y-43750000D03*
X151750000Y-43750000D03*
X150750000Y-43750000D03*
X149750000Y-43750000D03*
X148750000Y-43750000D03*
X155500000Y-64750000D03*
X147750000Y-43750000D03*
D16*
X161000000Y-57750000D03*
D17*
X158525000Y-57750000D03*
D11*
X163500000Y-63250000D03*
X162500000Y-63250000D03*
X161500000Y-63250000D03*
X160500000Y-63250000D03*
X159500000Y-63250000D03*
X158500000Y-63250000D03*
X157500000Y-63250000D03*
X156500000Y-63250000D03*
X155500000Y-63250000D03*
X163500000Y-62250000D03*
X162500000Y-62250000D03*
X161500000Y-62250000D03*
X160500000Y-62250000D03*
X159500000Y-62250000D03*
X158500000Y-62250000D03*
X157500000Y-62250000D03*
X156500000Y-62250000D03*
X155500000Y-62250000D03*
X163500000Y-61250000D03*
X162500000Y-61250000D03*
X161500000Y-61250000D03*
X160500000Y-61250000D03*
X159500000Y-61250000D03*
X158500000Y-61250000D03*
X157500000Y-61250000D03*
X156500000Y-61250000D03*
X155500000Y-61250000D03*
X163500000Y-60250000D03*
X162500000Y-60250000D03*
X161500000Y-60250000D03*
X160500000Y-60250000D03*
X159500000Y-60250000D03*
X158500000Y-60250000D03*
X157500000Y-60250000D03*
X156500000Y-60250000D03*
X155500000Y-60250000D03*
X163500000Y-59250000D03*
X162500000Y-59250000D03*
X156500000Y-59250000D03*
X155500000Y-59250000D03*
X163500000Y-56250000D03*
X162500000Y-56250000D03*
X156500000Y-56250000D03*
X155500000Y-56250000D03*
X163500000Y-55250000D03*
X162500000Y-55250000D03*
X161500000Y-55250000D03*
X160500000Y-55250000D03*
X159500000Y-55250000D03*
X158500000Y-55250000D03*
X157500000Y-55250000D03*
X156500000Y-55250000D03*
X155500000Y-55250000D03*
X163500000Y-54250000D03*
X162500000Y-54250000D03*
X161500000Y-54250000D03*
X160500000Y-54250000D03*
X159500000Y-54250000D03*
X158500000Y-54250000D03*
X157500000Y-54250000D03*
X156500000Y-54250000D03*
X155500000Y-54250000D03*
X163500000Y-53250000D03*
X162500000Y-53250000D03*
X161500000Y-53250000D03*
X160500000Y-53250000D03*
X159500000Y-53250000D03*
X158500000Y-53250000D03*
X157500000Y-53250000D03*
X156500000Y-53250000D03*
X155500000Y-53250000D03*
X163500000Y-52250000D03*
X162500000Y-52250000D03*
X161500000Y-52250000D03*
X160500000Y-52250000D03*
X159500000Y-52250000D03*
X158500000Y-52250000D03*
X157500000Y-52250000D03*
X156500000Y-52250000D03*
D14*
X177300000Y-84250000D03*
X179200000Y-84250000D03*
X178250000Y-82250000D03*
D15*
X179000000Y-86250000D03*
X177500000Y-86250000D03*
D14*
X152300000Y-84250000D03*
X154200000Y-84250000D03*
X153250000Y-82250000D03*
X189800000Y-84250000D03*
X191700000Y-84250000D03*
X190750000Y-82250000D03*
X164800000Y-84250000D03*
X166700000Y-84250000D03*
X165750000Y-82250000D03*
D18*
X178250000Y-42050000D03*
X178250000Y-44950000D03*
X140750000Y-42050000D03*
X140750000Y-44950000D03*
D15*
X191500000Y-86250000D03*
X190000000Y-86250000D03*
X129000000Y-86250000D03*
X127500000Y-86250000D03*
D18*
X153250000Y-42050000D03*
X153250000Y-44950000D03*
X128250000Y-42050000D03*
X128250000Y-44950000D03*
D15*
X154000000Y-86250000D03*
X152500000Y-86250000D03*
X166500000Y-86250000D03*
X165000000Y-86250000D03*
D18*
X190750000Y-42050000D03*
X190750000Y-44950000D03*
X165750000Y-42050000D03*
X165750000Y-44950000D03*
D12*
X178250000Y-67000000D03*
X178250000Y-61000000D03*
D13*
X178250000Y-63680000D03*
D12*
X178250000Y-79500000D03*
X178250000Y-73500000D03*
D13*
X178250000Y-76180000D03*
D12*
X140750000Y-54500000D03*
X140750000Y-48500000D03*
D13*
X140750000Y-51180000D03*
D12*
X140750000Y-67000000D03*
X140750000Y-61000000D03*
D13*
X140750000Y-63680000D03*
D12*
X153250000Y-54500000D03*
X153250000Y-48500000D03*
D13*
X153250000Y-51180000D03*
D12*
X153250000Y-67000000D03*
X153250000Y-61000000D03*
D13*
X153250000Y-63680000D03*
D12*
X128250000Y-67000000D03*
X128250000Y-61000000D03*
D13*
X128250000Y-63680000D03*
D12*
X128250000Y-79500000D03*
X128250000Y-73500000D03*
D13*
X128250000Y-76180000D03*
D12*
X190750000Y-54500000D03*
X190750000Y-48500000D03*
D13*
X190750000Y-51180000D03*
D12*
X190750000Y-67000000D03*
X190750000Y-61000000D03*
D13*
X190750000Y-63680000D03*
D12*
X190750000Y-79500000D03*
X190750000Y-73500000D03*
D13*
X190750000Y-76180000D03*
D12*
X165750000Y-67000000D03*
X165750000Y-61000000D03*
D13*
X165750000Y-63680000D03*
D12*
X165750000Y-79500000D03*
X165750000Y-73500000D03*
D13*
X165750000Y-76180000D03*
D19*
X203250000Y-50700000D03*
X203250000Y-48800000D03*
X201250000Y-49750000D03*
X203000000Y-79200000D03*
X203000000Y-77300000D03*
X201000000Y-78250000D03*
D20*
X205750000Y-49000000D03*
X205750000Y-50500000D03*
D21*
X115050000Y-50000000D03*
X117950000Y-50000000D03*
D20*
X205000000Y-77500000D03*
X205000000Y-79000000D03*
D21*
X115050000Y-78000000D03*
X117950000Y-78000000D03*
D16*
X136000000Y-57750000D03*
D17*
X133525000Y-57750000D03*
D16*
X186000000Y-57750000D03*
D17*
X183525000Y-57750000D03*
D16*
X133000000Y-70250000D03*
D17*
X135475000Y-70250000D03*
D16*
X183000000Y-70250000D03*
D17*
X185475000Y-70250000D03*
D11*
X155500000Y-52250000D03*
D16*
X158000000Y-70250000D03*
D17*
X160475000Y-70250000D03*
D22*
X116500000Y-55250000D03*
D23*
X116500000Y-57750000D03*
X116500000Y-60250000D03*
X116500000Y-62750000D03*
X116500000Y-65250000D03*
X116500000Y-67750000D03*
X116500000Y-70250000D03*
X116500000Y-72750000D03*
D22*
X202500000Y-72750000D03*
D23*
X202500000Y-70250000D03*
X202500000Y-67750000D03*
X202500000Y-65250000D03*
X202500000Y-62750000D03*
X202500000Y-60250000D03*
X202500000Y-57750000D03*
X202500000Y-55250000D03*
D11*
X192300000Y-86100000D03*
X179900000Y-86100000D03*
X167500000Y-86100000D03*
X155000000Y-86000000D03*
X142500000Y-86000000D03*
X130000000Y-86000000D03*
X199500000Y-75750000D03*
X202750000Y-46750000D03*
X205750000Y-74125000D03*
X177500000Y-89000000D03*
X139900000Y-89000000D03*
X189900000Y-88250000D03*
X152500000Y-88250000D03*
X126900000Y-88250000D03*
X196500000Y-88250000D03*
X122750000Y-88250000D03*
X165100000Y-87500000D03*
X123700000Y-87500000D03*
X204550000Y-51700000D03*
X131250000Y-57750000D03*
X120425000Y-50000000D03*
X138000000Y-57750000D03*
X156250000Y-57750000D03*
X137975000Y-70250000D03*
X156250000Y-70250000D03*
X118750000Y-78000000D03*
X131150000Y-70250000D03*
X162750000Y-70250000D03*
X181000000Y-70250000D03*
X188250000Y-70250000D03*
X198125000Y-73975000D03*
X163000000Y-57750000D03*
X181000000Y-57750000D03*
X188000000Y-57750000D03*
X198950000Y-49775000D03*
D24*
X191500000Y-86250000D02*
X192150000Y-86250000D01*
X192150000Y-86250000D02*
X192300000Y-86100000D01*
X179000000Y-86250000D02*
X179750000Y-86250000D01*
X179750000Y-86250000D02*
X179900000Y-86100000D01*
X166500000Y-86250000D02*
X167350000Y-86250000D01*
X167350000Y-86250000D02*
X167500000Y-86100000D01*
X154000000Y-86250000D02*
X154750000Y-86250000D01*
X154750000Y-86250000D02*
X155000000Y-86000000D01*
X141500000Y-86250000D02*
X142250000Y-86250000D01*
X142250000Y-86250000D02*
X142500000Y-86000000D01*
X129000000Y-86250000D02*
X129750000Y-86250000D01*
X129750000Y-86250000D02*
X130000000Y-86000000D01*
X205750000Y-49000000D02*
X206500000Y-49000000D01*
X204500000Y-55250000D02*
X202500000Y-55250000D01*
X207000000Y-52750000D02*
X204500000Y-55250000D01*
X207000000Y-49500000D02*
X207000000Y-52750000D01*
X206500000Y-49000000D02*
X207000000Y-49500000D01*
X203000000Y-77300000D02*
X201050000Y-77300000D01*
X201050000Y-77300000D02*
X199500000Y-75750000D01*
X205000000Y-77500000D02*
X204250000Y-77500000D01*
X204050000Y-77300000D02*
X203000000Y-77300000D01*
X204250000Y-77500000D02*
X204050000Y-77300000D01*
X129200000Y-84250000D02*
X129200000Y-85050000D01*
X129000000Y-85250000D02*
X129000000Y-86250000D01*
X129200000Y-85050000D02*
X129000000Y-85250000D01*
X141700000Y-84250000D02*
X141700000Y-85050000D01*
X141500000Y-85250000D02*
X141500000Y-86250000D01*
X141700000Y-85050000D02*
X141500000Y-85250000D01*
X154200000Y-84250000D02*
X154200000Y-85050000D01*
X154000000Y-85250000D02*
X154000000Y-86250000D01*
X154200000Y-85050000D02*
X154000000Y-85250000D01*
X166700000Y-84250000D02*
X166700000Y-85050000D01*
X166500000Y-85250000D02*
X166500000Y-86250000D01*
X166700000Y-85050000D02*
X166500000Y-85250000D01*
X179200000Y-84250000D02*
X179200000Y-85050000D01*
X179000000Y-85250000D02*
X179000000Y-86250000D01*
X179200000Y-85050000D02*
X179000000Y-85250000D01*
X191700000Y-84250000D02*
X191700000Y-85050000D01*
X191500000Y-85250000D02*
X191500000Y-86250000D01*
X191700000Y-85050000D02*
X191500000Y-85250000D01*
D25*
X203250000Y-48800000D02*
X203450000Y-49000000D01*
X203450000Y-49000000D02*
X205750000Y-49000000D01*
D24*
X141500000Y-84450000D02*
X141700000Y-84250000D01*
X178250000Y-48500000D02*
X178250000Y-51180000D01*
X178250000Y-44950000D02*
X178250000Y-48500000D01*
X178250000Y-54500000D02*
X178250000Y-61000000D01*
D26*
X190750000Y-42050000D02*
X198050000Y-42050000D01*
X198050000Y-42050000D02*
X202750000Y-46750000D01*
X178250000Y-42050000D02*
X190750000Y-42050000D01*
X140750000Y-42050000D02*
X153250000Y-42050000D01*
X153250000Y-42050000D02*
X165750000Y-42050000D01*
X165750000Y-42050000D02*
X178250000Y-42050000D01*
X115050000Y-50000000D02*
X115050000Y-47700000D01*
X120700000Y-42050000D02*
X128250000Y-42050000D01*
X115050000Y-47700000D02*
X120700000Y-42050000D01*
X128250000Y-42050000D02*
X140750000Y-42050000D01*
D25*
X115050000Y-78000000D02*
X113500000Y-76450000D01*
X113500000Y-58250000D02*
X116500000Y-55250000D01*
X113500000Y-76450000D02*
X113500000Y-58250000D01*
D26*
X116500000Y-55250000D02*
X115000000Y-55250000D01*
X115000000Y-55250000D02*
X115050000Y-50000000D01*
D24*
X140750000Y-48500000D02*
X140750000Y-51180000D01*
X140750000Y-48500000D02*
X140750000Y-44950000D01*
X140750000Y-61000000D02*
X140750000Y-63680000D01*
X140750000Y-61000000D02*
X140750000Y-54500000D01*
X153250000Y-48750000D02*
X153250000Y-51430000D01*
X153250000Y-44950000D02*
X153250000Y-48750000D01*
X153250000Y-61000000D02*
X153250000Y-63680000D01*
X153250000Y-54750000D02*
X153250000Y-61000000D01*
X128250000Y-48500000D02*
X128250000Y-51180000D01*
X128250000Y-44950000D02*
X128250000Y-48500000D01*
X128250000Y-61000000D02*
X128250000Y-63680000D01*
X128250000Y-54500000D02*
X128250000Y-61000000D01*
X190750000Y-48500000D02*
X190750000Y-51180000D01*
X190750000Y-44950000D02*
X190750000Y-48500000D01*
X190750000Y-61000000D02*
X190750000Y-63680000D01*
X190750000Y-61000000D02*
X190750000Y-54500000D01*
X165750000Y-48500000D02*
X165750000Y-51180000D01*
X165750000Y-44950000D02*
X165750000Y-48500000D01*
X165750000Y-61000000D02*
X165750000Y-63680000D01*
X165750000Y-61000000D02*
X165750000Y-54500000D01*
X205750000Y-72750000D02*
X202500000Y-70250000D01*
X205750000Y-72750000D02*
X205750000Y-74125000D01*
X177500000Y-89000000D02*
X177500000Y-86250000D01*
X139900000Y-89000000D02*
X139900000Y-86350000D01*
X139900000Y-86350000D02*
X140000000Y-86250000D01*
X177500000Y-86250000D02*
X177300000Y-86050000D01*
X177300000Y-86050000D02*
X177300000Y-84250000D01*
X140000000Y-86250000D02*
X140000000Y-84450000D01*
X140000000Y-84450000D02*
X139800000Y-84250000D01*
X189900000Y-88250000D02*
X189900000Y-86350000D01*
X189900000Y-86350000D02*
X190000000Y-86250000D01*
X152500000Y-88250000D02*
X152500000Y-86250000D01*
X127500000Y-86250000D02*
X126900000Y-86850000D01*
X126900000Y-86850000D02*
X126900000Y-88250000D01*
X197000000Y-87750000D02*
X196500000Y-88250000D01*
X197000000Y-87750000D02*
X204000000Y-80750000D01*
X204000000Y-80750000D02*
X206250000Y-80750000D01*
X206250000Y-80750000D02*
X207200000Y-79800000D01*
X207200000Y-79800000D02*
X207200000Y-71666667D01*
X202500000Y-67750000D02*
X207200000Y-71666667D01*
X121750000Y-88250000D02*
X121250000Y-87750000D01*
X122750000Y-88250000D02*
X121750000Y-88250000D01*
X121250000Y-87750000D02*
X121250000Y-87750000D01*
X121250000Y-87750000D02*
X121250000Y-87750000D01*
X121250000Y-87750000D02*
X121250000Y-87750000D01*
X116500000Y-60250000D02*
X114750000Y-62000000D01*
X116500000Y-83000000D02*
X121250000Y-87750000D01*
X121250000Y-87750000D02*
X121250000Y-87750000D01*
X116500000Y-76000000D02*
X116500000Y-83000000D01*
X114750000Y-74250000D02*
X116500000Y-76000000D01*
X114750000Y-73750000D02*
X114750000Y-74250000D01*
X114750000Y-62000000D02*
X114750000Y-73750000D01*
X127300000Y-84250000D02*
X127300000Y-86050000D01*
X127300000Y-86050000D02*
X127500000Y-86250000D01*
X190000000Y-86250000D02*
X190000000Y-84450000D01*
X190000000Y-84450000D02*
X189800000Y-84250000D01*
X152500000Y-86250000D02*
X152500000Y-84450000D01*
X152500000Y-84450000D02*
X152300000Y-84250000D01*
X127500000Y-84450000D02*
X127300000Y-84250000D01*
X116500000Y-62750000D02*
X118250000Y-64000000D01*
X165100000Y-87500000D02*
X165100000Y-87500000D01*
X165100000Y-87500000D02*
X165000000Y-86250000D01*
X119700000Y-85100000D02*
X122100000Y-87500000D01*
X122100000Y-87500000D02*
X123700000Y-87500000D01*
X119750000Y-76750000D02*
X119700000Y-85100000D01*
X118250000Y-75250000D02*
X119750000Y-76750000D01*
X118250000Y-64000000D02*
X118250000Y-67750000D01*
X118250000Y-67750000D02*
X118250000Y-75250000D01*
X165000000Y-86250000D02*
X164800000Y-86050000D01*
X164800000Y-86050000D02*
X164800000Y-84250000D01*
X203250000Y-50700000D02*
X203550000Y-50700000D01*
X203550000Y-50700000D02*
X204550000Y-51700000D01*
X205750000Y-50500000D02*
X204750000Y-50500000D01*
X204550000Y-50700000D02*
X203250000Y-50700000D01*
X204750000Y-50500000D02*
X204550000Y-50700000D01*
X202500000Y-60250000D02*
X201025000Y-61725000D01*
X205800000Y-79000000D02*
X205000000Y-79000000D01*
X206150000Y-78650000D02*
X205800000Y-79000000D01*
X206150000Y-76825000D02*
X206150000Y-78650000D01*
X205300000Y-75975000D02*
X206150000Y-76825000D01*
X202450000Y-75975000D02*
X205300000Y-75975000D01*
X201025000Y-74550000D02*
X202450000Y-75975000D01*
X201025000Y-61725000D02*
X201025000Y-74550000D01*
X203000000Y-79200000D02*
X202700000Y-79500000D01*
X205000000Y-79000000D02*
X204000000Y-79000000D01*
X204000000Y-79000000D02*
X203200000Y-79000000D01*
X203200000Y-79000000D02*
X203000000Y-79200000D01*
X178250000Y-73500000D02*
X178250000Y-76180000D01*
X178250000Y-67000000D02*
X178250000Y-73500000D01*
X178250000Y-79500000D02*
X178250000Y-82250000D01*
X140750000Y-73500000D02*
X140750000Y-76180000D01*
X140750000Y-73500000D02*
X140750000Y-67000000D01*
X140750000Y-82250000D02*
X140750000Y-79500000D01*
X153250000Y-73500000D02*
X153250000Y-76180000D01*
X153250000Y-67000000D02*
X153250000Y-73500000D01*
X153250000Y-79500000D02*
X153250000Y-82250000D01*
X128250000Y-73500000D02*
X128250000Y-76180000D01*
X128250000Y-67000000D02*
X128250000Y-73500000D01*
X128250000Y-79500000D02*
X128250000Y-82250000D01*
X190750000Y-73500000D02*
X190750000Y-76180000D01*
X190750000Y-73500000D02*
X190750000Y-67000000D01*
X190750000Y-82250000D02*
X190750000Y-79500000D01*
X165750000Y-73500000D02*
X165750000Y-76180000D01*
X165750000Y-73500000D02*
X165750000Y-67000000D01*
X165750000Y-79500000D02*
X165750000Y-82250000D01*
X133525000Y-57750000D02*
X131250000Y-57750000D01*
X119000000Y-50000000D02*
X117950000Y-50000000D01*
X120425000Y-50000000D02*
X119000000Y-50000000D01*
X138000000Y-57750000D02*
X136000000Y-57750000D01*
X158525000Y-57750000D02*
X156250000Y-57750000D01*
X137975000Y-70250000D02*
X135475000Y-70250000D01*
X156250000Y-70250000D02*
X158000000Y-70250000D01*
X131150000Y-70250000D02*
X133000000Y-70250000D01*
X118750000Y-78000000D02*
X118750000Y-78000000D01*
X117950000Y-78000000D02*
X118750000Y-78000000D01*
X183000000Y-70250000D02*
X181000000Y-70250000D01*
X162750000Y-70250000D02*
X160475000Y-70250000D01*
X198750000Y-77000000D02*
X200000000Y-78250000D01*
X201000000Y-78250000D02*
X200000000Y-78250000D01*
X188250000Y-70250000D02*
X185475000Y-70250000D01*
X198125000Y-76375000D02*
X198750000Y-77000000D01*
X198125000Y-73975000D02*
X198125000Y-76375000D01*
X163000000Y-57750000D02*
X161000000Y-57750000D01*
X183525000Y-57750000D02*
X181000000Y-57750000D01*
X201250000Y-49750000D02*
X198975000Y-49750000D01*
X188000000Y-57750000D02*
X186000000Y-57750000D01*
X198975000Y-49750000D02*
X198950000Y-49775000D01*
D27*
G36*
X163873000Y-57435338D02*
X163786331Y-57225583D01*
X163525789Y-56964586D01*
X163185201Y-56823161D01*
X162816417Y-56822839D01*
X162574009Y-56923000D01*
X162314283Y-56923000D01*
X162314283Y-56500000D01*
X162270563Y-56267648D01*
X162133243Y-56054247D01*
X161923717Y-55911083D01*
X161675000Y-55860717D01*
X160325000Y-55860717D01*
X160092648Y-55904437D01*
X160017444Y-55952830D01*
X159824718Y-55873000D01*
X159054750Y-55873000D01*
X158898000Y-56029750D01*
X158898000Y-57377000D01*
X158918000Y-57377000D01*
X158918000Y-58123000D01*
X158898000Y-58123000D01*
X158898000Y-59470250D01*
X159054750Y-59627000D01*
X159824718Y-59627000D01*
X160016038Y-59547753D01*
X160076283Y-59588917D01*
X160325000Y-59639283D01*
X161675000Y-59639283D01*
X161907352Y-59595563D01*
X162120753Y-59458243D01*
X162263917Y-59248717D01*
X162314283Y-59000000D01*
X162314283Y-58577000D01*
X162574361Y-58577000D01*
X162814799Y-58676839D01*
X163183583Y-58677161D01*
X163524417Y-58536331D01*
X163785414Y-58275789D01*
X163873000Y-58064859D01*
X163873000Y-63623000D01*
X155127000Y-63623000D01*
X155127000Y-58279750D01*
X156723000Y-58279750D01*
X156723000Y-59124718D01*
X156818455Y-59355167D01*
X156994833Y-59531545D01*
X157225282Y-59627000D01*
X157995250Y-59627000D01*
X158152000Y-59470250D01*
X158152000Y-58123000D01*
X156879750Y-58123000D01*
X156723000Y-58279750D01*
X155127000Y-58279750D01*
X155127000Y-56375282D01*
X156723000Y-56375282D01*
X156723000Y-57220250D01*
X156879750Y-57377000D01*
X158152000Y-57377000D01*
X158152000Y-56029750D01*
X157995250Y-55873000D01*
X157225282Y-55873000D01*
X156994833Y-55968455D01*
X156818455Y-56144833D01*
X156723000Y-56375282D01*
X155127000Y-56375282D01*
X155127000Y-51877000D01*
X163873000Y-51877000D01*
X163873000Y-57435338D01*
X163873000Y-57435338D01*
G37*
X163873000Y-57435338D02*
X163786331Y-57225583D01*
X163525789Y-56964586D01*
X163185201Y-56823161D01*
X162816417Y-56822839D01*
X162574009Y-56923000D01*
X162314283Y-56923000D01*
X162314283Y-56500000D01*
X162270563Y-56267648D01*
X162133243Y-56054247D01*
X161923717Y-55911083D01*
X161675000Y-55860717D01*
X160325000Y-55860717D01*
X160092648Y-55904437D01*
X160017444Y-55952830D01*
X159824718Y-55873000D01*
X159054750Y-55873000D01*
X158898000Y-56029750D01*
X158898000Y-57377000D01*
X158918000Y-57377000D01*
X158918000Y-58123000D01*
X158898000Y-58123000D01*
X158898000Y-59470250D01*
X159054750Y-59627000D01*
X159824718Y-59627000D01*
X160016038Y-59547753D01*
X160076283Y-59588917D01*
X160325000Y-59639283D01*
X161675000Y-59639283D01*
X161907352Y-59595563D01*
X162120753Y-59458243D01*
X162263917Y-59248717D01*
X162314283Y-59000000D01*
X162314283Y-58577000D01*
X162574361Y-58577000D01*
X162814799Y-58676839D01*
X163183583Y-58677161D01*
X163524417Y-58536331D01*
X163785414Y-58275789D01*
X163873000Y-58064859D01*
X163873000Y-63623000D01*
X155127000Y-63623000D01*
X155127000Y-58279750D01*
X156723000Y-58279750D01*
X156723000Y-59124718D01*
X156818455Y-59355167D01*
X156994833Y-59531545D01*
X157225282Y-59627000D01*
X157995250Y-59627000D01*
X158152000Y-59470250D01*
X158152000Y-58123000D01*
X156879750Y-58123000D01*
X156723000Y-58279750D01*
X155127000Y-58279750D01*
X155127000Y-56375282D01*
X156723000Y-56375282D01*
X156723000Y-57220250D01*
X156879750Y-57377000D01*
X158152000Y-57377000D01*
X158152000Y-56029750D01*
X157995250Y-55873000D01*
X157225282Y-55873000D01*
X156994833Y-55968455D01*
X156818455Y-56144833D01*
X156723000Y-56375282D01*
X155127000Y-56375282D01*
X155127000Y-51877000D01*
X163873000Y-51877000D01*
X163873000Y-57435338D01*
G36*
X159123000Y-51123000D02*
X154727000Y-51123000D01*
X154727000Y-50806998D01*
X154570252Y-50806998D01*
X154727000Y-50650250D01*
X154727000Y-49930282D01*
X154631545Y-49699833D01*
X154584212Y-49652500D01*
X154631545Y-49605167D01*
X154727000Y-49374718D01*
X154727000Y-49029750D01*
X154570250Y-48873000D01*
X153623000Y-48873000D01*
X153623000Y-50807000D01*
X153643000Y-50807000D01*
X153643000Y-51553000D01*
X153623000Y-51553000D01*
X153623000Y-52775250D01*
X153779750Y-52932000D01*
X154224718Y-52932000D01*
X154373000Y-52870580D01*
X154373000Y-53177675D01*
X154348717Y-53161083D01*
X154100000Y-53110717D01*
X152400000Y-53110717D01*
X152167648Y-53154437D01*
X151954247Y-53291757D01*
X151811083Y-53501283D01*
X151760717Y-53750000D01*
X151760717Y-55123000D01*
X147377000Y-55123000D01*
X147377000Y-51709750D01*
X151773000Y-51709750D01*
X151773000Y-52429718D01*
X151868455Y-52660167D01*
X152044833Y-52836545D01*
X152275282Y-52932000D01*
X152720250Y-52932000D01*
X152877000Y-52775250D01*
X152877000Y-51553000D01*
X151929750Y-51553000D01*
X151773000Y-51709750D01*
X147377000Y-51709750D01*
X147377000Y-49029750D01*
X151773000Y-49029750D01*
X151773000Y-49374718D01*
X151868455Y-49605167D01*
X151915788Y-49652500D01*
X151868455Y-49699833D01*
X151773000Y-49930282D01*
X151773000Y-50650250D01*
X151929750Y-50807000D01*
X152877000Y-50807000D01*
X152877000Y-48873000D01*
X151929750Y-48873000D01*
X151773000Y-49029750D01*
X147377000Y-49029750D01*
X147377000Y-47625282D01*
X151773000Y-47625282D01*
X151773000Y-47970250D01*
X151929750Y-48127000D01*
X152877000Y-48127000D01*
X152877000Y-47279750D01*
X153623000Y-47279750D01*
X153623000Y-48127000D01*
X154570250Y-48127000D01*
X154727000Y-47970250D01*
X154727000Y-47625282D01*
X154631545Y-47394833D01*
X154455167Y-47218455D01*
X154224718Y-47123000D01*
X153779750Y-47123000D01*
X153623000Y-47279750D01*
X152877000Y-47279750D01*
X152720250Y-47123000D01*
X152275282Y-47123000D01*
X152044833Y-47218455D01*
X151868455Y-47394833D01*
X151773000Y-47625282D01*
X147377000Y-47625282D01*
X147377000Y-45331750D01*
X151373000Y-45331750D01*
X151373000Y-45524718D01*
X151468455Y-45755167D01*
X151644833Y-45931545D01*
X151875282Y-46027000D01*
X152720250Y-46027000D01*
X152877000Y-45870250D01*
X152877000Y-45175000D01*
X153623000Y-45175000D01*
X153623000Y-45870250D01*
X153779750Y-46027000D01*
X154624718Y-46027000D01*
X154855167Y-45931545D01*
X155031545Y-45755167D01*
X155127000Y-45524718D01*
X155127000Y-45331750D01*
X154970250Y-45175000D01*
X153623000Y-45175000D01*
X152877000Y-45175000D01*
X151529750Y-45175000D01*
X151373000Y-45331750D01*
X147377000Y-45331750D01*
X147377000Y-44375282D01*
X151373000Y-44375282D01*
X151373000Y-44568250D01*
X151529750Y-44725000D01*
X152877000Y-44725000D01*
X152877000Y-44029750D01*
X153623000Y-44029750D01*
X153623000Y-44725000D01*
X154970250Y-44725000D01*
X155127000Y-44568250D01*
X155127000Y-44375282D01*
X155031545Y-44144833D01*
X154855167Y-43968455D01*
X154624718Y-43873000D01*
X153779750Y-43873000D01*
X153623000Y-44029750D01*
X152877000Y-44029750D01*
X152720250Y-43873000D01*
X151875282Y-43873000D01*
X151644833Y-43968455D01*
X151468455Y-44144833D01*
X151373000Y-44375282D01*
X147377000Y-44375282D01*
X147377000Y-43427000D01*
X159123000Y-43427000D01*
X159123000Y-51123000D01*
X159123000Y-51123000D01*
G37*
X159123000Y-51123000D02*
X154727000Y-51123000D01*
X154727000Y-50806998D01*
X154570252Y-50806998D01*
X154727000Y-50650250D01*
X154727000Y-49930282D01*
X154631545Y-49699833D01*
X154584212Y-49652500D01*
X154631545Y-49605167D01*
X154727000Y-49374718D01*
X154727000Y-49029750D01*
X154570250Y-48873000D01*
X153623000Y-48873000D01*
X153623000Y-50807000D01*
X153643000Y-50807000D01*
X153643000Y-51553000D01*
X153623000Y-51553000D01*
X153623000Y-52775250D01*
X153779750Y-52932000D01*
X154224718Y-52932000D01*
X154373000Y-52870580D01*
X154373000Y-53177675D01*
X154348717Y-53161083D01*
X154100000Y-53110717D01*
X152400000Y-53110717D01*
X152167648Y-53154437D01*
X151954247Y-53291757D01*
X151811083Y-53501283D01*
X151760717Y-53750000D01*
X151760717Y-55123000D01*
X147377000Y-55123000D01*
X147377000Y-51709750D01*
X151773000Y-51709750D01*
X151773000Y-52429718D01*
X151868455Y-52660167D01*
X152044833Y-52836545D01*
X152275282Y-52932000D01*
X152720250Y-52932000D01*
X152877000Y-52775250D01*
X152877000Y-51553000D01*
X151929750Y-51553000D01*
X151773000Y-51709750D01*
X147377000Y-51709750D01*
X147377000Y-49029750D01*
X151773000Y-49029750D01*
X151773000Y-49374718D01*
X151868455Y-49605167D01*
X151915788Y-49652500D01*
X151868455Y-49699833D01*
X151773000Y-49930282D01*
X151773000Y-50650250D01*
X151929750Y-50807000D01*
X152877000Y-50807000D01*
X152877000Y-48873000D01*
X151929750Y-48873000D01*
X151773000Y-49029750D01*
X147377000Y-49029750D01*
X147377000Y-47625282D01*
X151773000Y-47625282D01*
X151773000Y-47970250D01*
X151929750Y-48127000D01*
X152877000Y-48127000D01*
X152877000Y-47279750D01*
X153623000Y-47279750D01*
X153623000Y-48127000D01*
X154570250Y-48127000D01*
X154727000Y-47970250D01*
X154727000Y-47625282D01*
X154631545Y-47394833D01*
X154455167Y-47218455D01*
X154224718Y-47123000D01*
X153779750Y-47123000D01*
X153623000Y-47279750D01*
X152877000Y-47279750D01*
X152720250Y-47123000D01*
X152275282Y-47123000D01*
X152044833Y-47218455D01*
X151868455Y-47394833D01*
X151773000Y-47625282D01*
X147377000Y-47625282D01*
X147377000Y-45331750D01*
X151373000Y-45331750D01*
X151373000Y-45524718D01*
X151468455Y-45755167D01*
X151644833Y-45931545D01*
X151875282Y-46027000D01*
X152720250Y-46027000D01*
X152877000Y-45870250D01*
X152877000Y-45175000D01*
X153623000Y-45175000D01*
X153623000Y-45870250D01*
X153779750Y-46027000D01*
X154624718Y-46027000D01*
X154855167Y-45931545D01*
X155031545Y-45755167D01*
X155127000Y-45524718D01*
X155127000Y-45331750D01*
X154970250Y-45175000D01*
X153623000Y-45175000D01*
X152877000Y-45175000D01*
X151529750Y-45175000D01*
X151373000Y-45331750D01*
X147377000Y-45331750D01*
X147377000Y-44375282D01*
X151373000Y-44375282D01*
X151373000Y-44568250D01*
X151529750Y-44725000D01*
X152877000Y-44725000D01*
X152877000Y-44029750D01*
X153623000Y-44029750D01*
X153623000Y-44725000D01*
X154970250Y-44725000D01*
X155127000Y-44568250D01*
X155127000Y-44375282D01*
X155031545Y-44144833D01*
X154855167Y-43968455D01*
X154624718Y-43873000D01*
X153779750Y-43873000D01*
X153623000Y-44029750D01*
X152877000Y-44029750D01*
X152720250Y-43873000D01*
X151875282Y-43873000D01*
X151644833Y-43968455D01*
X151468455Y-44144833D01*
X151373000Y-44375282D01*
X147377000Y-44375282D01*
X147377000Y-43427000D01*
X159123000Y-43427000D01*
X159123000Y-51123000D01*
G36*
X171623000Y-55123000D02*
X167239283Y-55123000D01*
X167239283Y-53750000D01*
X167195563Y-53517648D01*
X167058243Y-53304247D01*
X166848717Y-53161083D01*
X166600000Y-53110717D01*
X164900000Y-53110717D01*
X164667648Y-53154437D01*
X164627000Y-53180593D01*
X164627000Y-52870580D01*
X164775282Y-52932000D01*
X165220250Y-52932000D01*
X165377000Y-52775250D01*
X165377000Y-51553000D01*
X166123000Y-51553000D01*
X166123000Y-52775250D01*
X166279750Y-52932000D01*
X166724718Y-52932000D01*
X166955167Y-52836545D01*
X167131545Y-52660167D01*
X167227000Y-52429718D01*
X167227000Y-51709750D01*
X167070250Y-51553000D01*
X166123000Y-51553000D01*
X165377000Y-51553000D01*
X165357000Y-51553000D01*
X165357000Y-50807000D01*
X165377000Y-50807000D01*
X165377000Y-48873000D01*
X166123000Y-48873000D01*
X166123000Y-50807000D01*
X167070250Y-50807000D01*
X167227000Y-50650250D01*
X167227000Y-49930282D01*
X167131545Y-49699833D01*
X167084212Y-49652500D01*
X167131545Y-49605167D01*
X167227000Y-49374718D01*
X167227000Y-49029750D01*
X167070250Y-48873000D01*
X166123000Y-48873000D01*
X165377000Y-48873000D01*
X164429750Y-48873000D01*
X164273000Y-49029750D01*
X164273000Y-49374718D01*
X164368455Y-49605167D01*
X164415788Y-49652500D01*
X164368455Y-49699833D01*
X164273000Y-49930282D01*
X164273000Y-50650250D01*
X164429748Y-50806998D01*
X164273000Y-50806998D01*
X164273000Y-51123000D01*
X159877000Y-51123000D01*
X159877000Y-47625282D01*
X164273000Y-47625282D01*
X164273000Y-47970250D01*
X164429750Y-48127000D01*
X165377000Y-48127000D01*
X165377000Y-47279750D01*
X166123000Y-47279750D01*
X166123000Y-48127000D01*
X167070250Y-48127000D01*
X167227000Y-47970250D01*
X167227000Y-47625282D01*
X167131545Y-47394833D01*
X166955167Y-47218455D01*
X166724718Y-47123000D01*
X166279750Y-47123000D01*
X166123000Y-47279750D01*
X165377000Y-47279750D01*
X165220250Y-47123000D01*
X164775282Y-47123000D01*
X164544833Y-47218455D01*
X164368455Y-47394833D01*
X164273000Y-47625282D01*
X159877000Y-47625282D01*
X159877000Y-45331750D01*
X163873000Y-45331750D01*
X163873000Y-45524718D01*
X163968455Y-45755167D01*
X164144833Y-45931545D01*
X164375282Y-46027000D01*
X165220250Y-46027000D01*
X165377000Y-45870250D01*
X165377000Y-45175000D01*
X166123000Y-45175000D01*
X166123000Y-45870250D01*
X166279750Y-46027000D01*
X167124718Y-46027000D01*
X167355167Y-45931545D01*
X167531545Y-45755167D01*
X167627000Y-45524718D01*
X167627000Y-45331750D01*
X167470250Y-45175000D01*
X166123000Y-45175000D01*
X165377000Y-45175000D01*
X164029750Y-45175000D01*
X163873000Y-45331750D01*
X159877000Y-45331750D01*
X159877000Y-44375282D01*
X163873000Y-44375282D01*
X163873000Y-44568250D01*
X164029750Y-44725000D01*
X165377000Y-44725000D01*
X165377000Y-44029750D01*
X166123000Y-44029750D01*
X166123000Y-44725000D01*
X167470250Y-44725000D01*
X167627000Y-44568250D01*
X167627000Y-44375282D01*
X167531545Y-44144833D01*
X167355167Y-43968455D01*
X167124718Y-43873000D01*
X166279750Y-43873000D01*
X166123000Y-44029750D01*
X165377000Y-44029750D01*
X165220250Y-43873000D01*
X164375282Y-43873000D01*
X164144833Y-43968455D01*
X163968455Y-44144833D01*
X163873000Y-44375282D01*
X159877000Y-44375282D01*
X159877000Y-43427000D01*
X171623000Y-43427000D01*
X171623000Y-55123000D01*
X171623000Y-55123000D01*
G37*
X171623000Y-55123000D02*
X167239283Y-55123000D01*
X167239283Y-53750000D01*
X167195563Y-53517648D01*
X167058243Y-53304247D01*
X166848717Y-53161083D01*
X166600000Y-53110717D01*
X164900000Y-53110717D01*
X164667648Y-53154437D01*
X164627000Y-53180593D01*
X164627000Y-52870580D01*
X164775282Y-52932000D01*
X165220250Y-52932000D01*
X165377000Y-52775250D01*
X165377000Y-51553000D01*
X166123000Y-51553000D01*
X166123000Y-52775250D01*
X166279750Y-52932000D01*
X166724718Y-52932000D01*
X166955167Y-52836545D01*
X167131545Y-52660167D01*
X167227000Y-52429718D01*
X167227000Y-51709750D01*
X167070250Y-51553000D01*
X166123000Y-51553000D01*
X165377000Y-51553000D01*
X165357000Y-51553000D01*
X165357000Y-50807000D01*
X165377000Y-50807000D01*
X165377000Y-48873000D01*
X166123000Y-48873000D01*
X166123000Y-50807000D01*
X167070250Y-50807000D01*
X167227000Y-50650250D01*
X167227000Y-49930282D01*
X167131545Y-49699833D01*
X167084212Y-49652500D01*
X167131545Y-49605167D01*
X167227000Y-49374718D01*
X167227000Y-49029750D01*
X167070250Y-48873000D01*
X166123000Y-48873000D01*
X165377000Y-48873000D01*
X164429750Y-48873000D01*
X164273000Y-49029750D01*
X164273000Y-49374718D01*
X164368455Y-49605167D01*
X164415788Y-49652500D01*
X164368455Y-49699833D01*
X164273000Y-49930282D01*
X164273000Y-50650250D01*
X164429748Y-50806998D01*
X164273000Y-50806998D01*
X164273000Y-51123000D01*
X159877000Y-51123000D01*
X159877000Y-47625282D01*
X164273000Y-47625282D01*
X164273000Y-47970250D01*
X164429750Y-48127000D01*
X165377000Y-48127000D01*
X165377000Y-47279750D01*
X166123000Y-47279750D01*
X166123000Y-48127000D01*
X167070250Y-48127000D01*
X167227000Y-47970250D01*
X167227000Y-47625282D01*
X167131545Y-47394833D01*
X166955167Y-47218455D01*
X166724718Y-47123000D01*
X166279750Y-47123000D01*
X166123000Y-47279750D01*
X165377000Y-47279750D01*
X165220250Y-47123000D01*
X164775282Y-47123000D01*
X164544833Y-47218455D01*
X164368455Y-47394833D01*
X164273000Y-47625282D01*
X159877000Y-47625282D01*
X159877000Y-45331750D01*
X163873000Y-45331750D01*
X163873000Y-45524718D01*
X163968455Y-45755167D01*
X164144833Y-45931545D01*
X164375282Y-46027000D01*
X165220250Y-46027000D01*
X165377000Y-45870250D01*
X165377000Y-45175000D01*
X166123000Y-45175000D01*
X166123000Y-45870250D01*
X166279750Y-46027000D01*
X167124718Y-46027000D01*
X167355167Y-45931545D01*
X167531545Y-45755167D01*
X167627000Y-45524718D01*
X167627000Y-45331750D01*
X167470250Y-45175000D01*
X166123000Y-45175000D01*
X165377000Y-45175000D01*
X164029750Y-45175000D01*
X163873000Y-45331750D01*
X159877000Y-45331750D01*
X159877000Y-44375282D01*
X163873000Y-44375282D01*
X163873000Y-44568250D01*
X164029750Y-44725000D01*
X165377000Y-44725000D01*
X165377000Y-44029750D01*
X166123000Y-44029750D01*
X166123000Y-44725000D01*
X167470250Y-44725000D01*
X167627000Y-44568250D01*
X167627000Y-44375282D01*
X167531545Y-44144833D01*
X167355167Y-43968455D01*
X167124718Y-43873000D01*
X166279750Y-43873000D01*
X166123000Y-44029750D01*
X165377000Y-44029750D01*
X165220250Y-43873000D01*
X164375282Y-43873000D01*
X164144833Y-43968455D01*
X163968455Y-44144833D01*
X163873000Y-44375282D01*
X159877000Y-44375282D01*
X159877000Y-43427000D01*
X171623000Y-43427000D01*
X171623000Y-55123000D01*
G36*
X154373000Y-59792660D02*
X154204827Y-59723000D01*
X153754750Y-59723000D01*
X153623000Y-59854750D01*
X153623000Y-60627000D01*
X153643000Y-60627000D01*
X153643000Y-61373000D01*
X153623000Y-61373000D01*
X153623000Y-62145250D01*
X153630250Y-62152500D01*
X153623000Y-62159750D01*
X153623000Y-63307000D01*
X153643000Y-63307000D01*
X153643000Y-64053000D01*
X153623000Y-64053000D01*
X153623000Y-65200250D01*
X153754750Y-65332000D01*
X154204827Y-65332000D01*
X154373000Y-65262340D01*
X154373000Y-65677675D01*
X154348717Y-65661083D01*
X154100000Y-65610717D01*
X152400000Y-65610717D01*
X152167648Y-65654437D01*
X151954247Y-65791757D01*
X151811083Y-66001283D01*
X151760717Y-66250000D01*
X151760717Y-67750000D01*
X151804437Y-67982352D01*
X151941757Y-68195753D01*
X152151283Y-68338917D01*
X152400000Y-68389283D01*
X152423000Y-68389283D01*
X152423000Y-72110717D01*
X152400000Y-72110717D01*
X152167648Y-72154437D01*
X151954247Y-72291757D01*
X151898736Y-72373000D01*
X147377000Y-72373000D01*
X147377000Y-64184750D01*
X151873000Y-64184750D01*
X151873000Y-64909827D01*
X151953231Y-65103522D01*
X152101479Y-65251769D01*
X152295173Y-65332000D01*
X152745250Y-65332000D01*
X152877000Y-65200250D01*
X152877000Y-64053000D01*
X152004750Y-64053000D01*
X151873000Y-64184750D01*
X147377000Y-64184750D01*
X147377000Y-61504750D01*
X151873000Y-61504750D01*
X151873000Y-61854827D01*
X151953231Y-62048522D01*
X152057210Y-62152500D01*
X151953231Y-62256478D01*
X151873000Y-62450173D01*
X151873000Y-63175250D01*
X152004750Y-63307000D01*
X152877000Y-63307000D01*
X152877000Y-62159750D01*
X152869750Y-62152500D01*
X152877000Y-62145250D01*
X152877000Y-61373000D01*
X152004750Y-61373000D01*
X151873000Y-61504750D01*
X147377000Y-61504750D01*
X147377000Y-60145173D01*
X151873000Y-60145173D01*
X151873000Y-60495250D01*
X152004750Y-60627000D01*
X152877000Y-60627000D01*
X152877000Y-59854750D01*
X152745250Y-59723000D01*
X152295173Y-59723000D01*
X152101479Y-59803231D01*
X151953231Y-59951478D01*
X151873000Y-60145173D01*
X147377000Y-60145173D01*
X147377000Y-55877000D01*
X154373000Y-55877000D01*
X154373000Y-59792660D01*
X154373000Y-59792660D01*
G37*
X154373000Y-59792660D02*
X154204827Y-59723000D01*
X153754750Y-59723000D01*
X153623000Y-59854750D01*
X153623000Y-60627000D01*
X153643000Y-60627000D01*
X153643000Y-61373000D01*
X153623000Y-61373000D01*
X153623000Y-62145250D01*
X153630250Y-62152500D01*
X153623000Y-62159750D01*
X153623000Y-63307000D01*
X153643000Y-63307000D01*
X153643000Y-64053000D01*
X153623000Y-64053000D01*
X153623000Y-65200250D01*
X153754750Y-65332000D01*
X154204827Y-65332000D01*
X154373000Y-65262340D01*
X154373000Y-65677675D01*
X154348717Y-65661083D01*
X154100000Y-65610717D01*
X152400000Y-65610717D01*
X152167648Y-65654437D01*
X151954247Y-65791757D01*
X151811083Y-66001283D01*
X151760717Y-66250000D01*
X151760717Y-67750000D01*
X151804437Y-67982352D01*
X151941757Y-68195753D01*
X152151283Y-68338917D01*
X152400000Y-68389283D01*
X152423000Y-68389283D01*
X152423000Y-72110717D01*
X152400000Y-72110717D01*
X152167648Y-72154437D01*
X151954247Y-72291757D01*
X151898736Y-72373000D01*
X147377000Y-72373000D01*
X147377000Y-64184750D01*
X151873000Y-64184750D01*
X151873000Y-64909827D01*
X151953231Y-65103522D01*
X152101479Y-65251769D01*
X152295173Y-65332000D01*
X152745250Y-65332000D01*
X152877000Y-65200250D01*
X152877000Y-64053000D01*
X152004750Y-64053000D01*
X151873000Y-64184750D01*
X147377000Y-64184750D01*
X147377000Y-61504750D01*
X151873000Y-61504750D01*
X151873000Y-61854827D01*
X151953231Y-62048522D01*
X152057210Y-62152500D01*
X151953231Y-62256478D01*
X151873000Y-62450173D01*
X151873000Y-63175250D01*
X152004750Y-63307000D01*
X152877000Y-63307000D01*
X152877000Y-62159750D01*
X152869750Y-62152500D01*
X152877000Y-62145250D01*
X152877000Y-61373000D01*
X152004750Y-61373000D01*
X151873000Y-61504750D01*
X147377000Y-61504750D01*
X147377000Y-60145173D01*
X151873000Y-60145173D01*
X151873000Y-60495250D01*
X152004750Y-60627000D01*
X152877000Y-60627000D01*
X152877000Y-59854750D01*
X152745250Y-59723000D01*
X152295173Y-59723000D01*
X152101479Y-59803231D01*
X151953231Y-59951478D01*
X151873000Y-60145173D01*
X147377000Y-60145173D01*
X147377000Y-55877000D01*
X154373000Y-55877000D01*
X154373000Y-59792660D01*
G36*
X163873000Y-76123000D02*
X155127000Y-76123000D01*
X155127000Y-70433583D01*
X155322839Y-70433583D01*
X155463669Y-70774417D01*
X155724211Y-71035414D01*
X156064799Y-71176839D01*
X156433583Y-71177161D01*
X156675991Y-71077000D01*
X156685717Y-71077000D01*
X156685717Y-71500000D01*
X156729437Y-71732352D01*
X156866757Y-71945753D01*
X157076283Y-72088917D01*
X157325000Y-72139283D01*
X158675000Y-72139283D01*
X158907352Y-72095563D01*
X158982556Y-72047170D01*
X159175282Y-72127000D01*
X159945250Y-72127000D01*
X160102000Y-71970250D01*
X160102000Y-70623000D01*
X160848000Y-70623000D01*
X160848000Y-71970250D01*
X161004750Y-72127000D01*
X161774718Y-72127000D01*
X162005167Y-72031545D01*
X162181545Y-71855167D01*
X162277000Y-71624718D01*
X162277000Y-70779750D01*
X162120250Y-70623000D01*
X160848000Y-70623000D01*
X160102000Y-70623000D01*
X160082000Y-70623000D01*
X160082000Y-69877000D01*
X160102000Y-69877000D01*
X160102000Y-68529750D01*
X160848000Y-68529750D01*
X160848000Y-69877000D01*
X162120250Y-69877000D01*
X162277000Y-69720250D01*
X162277000Y-68875282D01*
X162181545Y-68644833D01*
X162005167Y-68468455D01*
X161774718Y-68373000D01*
X161004750Y-68373000D01*
X160848000Y-68529750D01*
X160102000Y-68529750D01*
X159945250Y-68373000D01*
X159175282Y-68373000D01*
X158983962Y-68452247D01*
X158923717Y-68411083D01*
X158675000Y-68360717D01*
X157325000Y-68360717D01*
X157092648Y-68404437D01*
X156879247Y-68541757D01*
X156736083Y-68751283D01*
X156685717Y-69000000D01*
X156685717Y-69423000D01*
X156675639Y-69423000D01*
X156435201Y-69323161D01*
X156066417Y-69322839D01*
X155725583Y-69463669D01*
X155464586Y-69724211D01*
X155323161Y-70064799D01*
X155322839Y-70433583D01*
X155127000Y-70433583D01*
X155127000Y-64377000D01*
X163873000Y-64377000D01*
X163873000Y-76123000D01*
X163873000Y-76123000D01*
G37*
X163873000Y-76123000D02*
X155127000Y-76123000D01*
X155127000Y-70433583D01*
X155322839Y-70433583D01*
X155463669Y-70774417D01*
X155724211Y-71035414D01*
X156064799Y-71176839D01*
X156433583Y-71177161D01*
X156675991Y-71077000D01*
X156685717Y-71077000D01*
X156685717Y-71500000D01*
X156729437Y-71732352D01*
X156866757Y-71945753D01*
X157076283Y-72088917D01*
X157325000Y-72139283D01*
X158675000Y-72139283D01*
X158907352Y-72095563D01*
X158982556Y-72047170D01*
X159175282Y-72127000D01*
X159945250Y-72127000D01*
X160102000Y-71970250D01*
X160102000Y-70623000D01*
X160848000Y-70623000D01*
X160848000Y-71970250D01*
X161004750Y-72127000D01*
X161774718Y-72127000D01*
X162005167Y-72031545D01*
X162181545Y-71855167D01*
X162277000Y-71624718D01*
X162277000Y-70779750D01*
X162120250Y-70623000D01*
X160848000Y-70623000D01*
X160102000Y-70623000D01*
X160082000Y-70623000D01*
X160082000Y-69877000D01*
X160102000Y-69877000D01*
X160102000Y-68529750D01*
X160848000Y-68529750D01*
X160848000Y-69877000D01*
X162120250Y-69877000D01*
X162277000Y-69720250D01*
X162277000Y-68875282D01*
X162181545Y-68644833D01*
X162005167Y-68468455D01*
X161774718Y-68373000D01*
X161004750Y-68373000D01*
X160848000Y-68529750D01*
X160102000Y-68529750D01*
X159945250Y-68373000D01*
X159175282Y-68373000D01*
X158983962Y-68452247D01*
X158923717Y-68411083D01*
X158675000Y-68360717D01*
X157325000Y-68360717D01*
X157092648Y-68404437D01*
X156879247Y-68541757D01*
X156736083Y-68751283D01*
X156685717Y-69000000D01*
X156685717Y-69423000D01*
X156675639Y-69423000D01*
X156435201Y-69323161D01*
X156066417Y-69322839D01*
X155725583Y-69463669D01*
X155464586Y-69724211D01*
X155323161Y-70064799D01*
X155322839Y-70433583D01*
X155127000Y-70433583D01*
X155127000Y-64377000D01*
X163873000Y-64377000D01*
X163873000Y-76123000D01*
G36*
X171623000Y-72373000D02*
X167102484Y-72373000D01*
X167058243Y-72304247D01*
X166848717Y-72161083D01*
X166600000Y-72110717D01*
X166577000Y-72110717D01*
X166577000Y-68389283D01*
X166600000Y-68389283D01*
X166832352Y-68345563D01*
X167045753Y-68208243D01*
X167188917Y-67998717D01*
X167239283Y-67750000D01*
X167239283Y-66250000D01*
X167195563Y-66017648D01*
X167058243Y-65804247D01*
X166848717Y-65661083D01*
X166600000Y-65610717D01*
X164900000Y-65610717D01*
X164667648Y-65654437D01*
X164627000Y-65680593D01*
X164627000Y-65262340D01*
X164795173Y-65332000D01*
X165245250Y-65332000D01*
X165377000Y-65200250D01*
X165377000Y-64053000D01*
X166123000Y-64053000D01*
X166123000Y-65200250D01*
X166254750Y-65332000D01*
X166704827Y-65332000D01*
X166898521Y-65251769D01*
X167046769Y-65103522D01*
X167127000Y-64909827D01*
X167127000Y-64184750D01*
X166995250Y-64053000D01*
X166123000Y-64053000D01*
X165377000Y-64053000D01*
X165357000Y-64053000D01*
X165357000Y-63307000D01*
X165377000Y-63307000D01*
X165377000Y-62159750D01*
X165369750Y-62152500D01*
X165377000Y-62145250D01*
X165377000Y-61373000D01*
X166123000Y-61373000D01*
X166123000Y-62145250D01*
X166130250Y-62152500D01*
X166123000Y-62159750D01*
X166123000Y-63307000D01*
X166995250Y-63307000D01*
X167127000Y-63175250D01*
X167127000Y-62450173D01*
X167046769Y-62256478D01*
X166942790Y-62152500D01*
X167046769Y-62048522D01*
X167127000Y-61854827D01*
X167127000Y-61504750D01*
X166995250Y-61373000D01*
X166123000Y-61373000D01*
X165377000Y-61373000D01*
X165357000Y-61373000D01*
X165357000Y-60627000D01*
X165377000Y-60627000D01*
X165377000Y-59854750D01*
X166123000Y-59854750D01*
X166123000Y-60627000D01*
X166995250Y-60627000D01*
X167127000Y-60495250D01*
X167127000Y-60145173D01*
X167046769Y-59951478D01*
X166898521Y-59803231D01*
X166704827Y-59723000D01*
X166254750Y-59723000D01*
X166123000Y-59854750D01*
X165377000Y-59854750D01*
X165245250Y-59723000D01*
X164795173Y-59723000D01*
X164627000Y-59792660D01*
X164627000Y-55877000D01*
X171623000Y-55877000D01*
X171623000Y-72373000D01*
X171623000Y-72373000D01*
G37*
X171623000Y-72373000D02*
X167102484Y-72373000D01*
X167058243Y-72304247D01*
X166848717Y-72161083D01*
X166600000Y-72110717D01*
X166577000Y-72110717D01*
X166577000Y-68389283D01*
X166600000Y-68389283D01*
X166832352Y-68345563D01*
X167045753Y-68208243D01*
X167188917Y-67998717D01*
X167239283Y-67750000D01*
X167239283Y-66250000D01*
X167195563Y-66017648D01*
X167058243Y-65804247D01*
X166848717Y-65661083D01*
X166600000Y-65610717D01*
X164900000Y-65610717D01*
X164667648Y-65654437D01*
X164627000Y-65680593D01*
X164627000Y-65262340D01*
X164795173Y-65332000D01*
X165245250Y-65332000D01*
X165377000Y-65200250D01*
X165377000Y-64053000D01*
X166123000Y-64053000D01*
X166123000Y-65200250D01*
X166254750Y-65332000D01*
X166704827Y-65332000D01*
X166898521Y-65251769D01*
X167046769Y-65103522D01*
X167127000Y-64909827D01*
X167127000Y-64184750D01*
X166995250Y-64053000D01*
X166123000Y-64053000D01*
X165377000Y-64053000D01*
X165357000Y-64053000D01*
X165357000Y-63307000D01*
X165377000Y-63307000D01*
X165377000Y-62159750D01*
X165369750Y-62152500D01*
X165377000Y-62145250D01*
X165377000Y-61373000D01*
X166123000Y-61373000D01*
X166123000Y-62145250D01*
X166130250Y-62152500D01*
X166123000Y-62159750D01*
X166123000Y-63307000D01*
X166995250Y-63307000D01*
X167127000Y-63175250D01*
X167127000Y-62450173D01*
X167046769Y-62256478D01*
X166942790Y-62152500D01*
X167046769Y-62048522D01*
X167127000Y-61854827D01*
X167127000Y-61504750D01*
X166995250Y-61373000D01*
X166123000Y-61373000D01*
X165377000Y-61373000D01*
X165357000Y-61373000D01*
X165357000Y-60627000D01*
X165377000Y-60627000D01*
X165377000Y-59854750D01*
X166123000Y-59854750D01*
X166123000Y-60627000D01*
X166995250Y-60627000D01*
X167127000Y-60495250D01*
X167127000Y-60145173D01*
X167046769Y-59951478D01*
X166898521Y-59803231D01*
X166704827Y-59723000D01*
X166254750Y-59723000D01*
X166123000Y-59854750D01*
X165377000Y-59854750D01*
X165245250Y-59723000D01*
X164795173Y-59723000D01*
X164627000Y-59792660D01*
X164627000Y-55877000D01*
X171623000Y-55877000D01*
X171623000Y-72373000D01*
G36*
X153643000Y-73873000D02*
X153623000Y-73873000D01*
X153623000Y-74645250D01*
X153630250Y-74652500D01*
X153623000Y-74659750D01*
X153623000Y-75807000D01*
X153643000Y-75807000D01*
X153643000Y-76553000D01*
X153623000Y-76553000D01*
X153623000Y-77700250D01*
X153754750Y-77832000D01*
X154204827Y-77832000D01*
X154398521Y-77751769D01*
X154546769Y-77603522D01*
X154627000Y-77409827D01*
X154627000Y-76877000D01*
X159123000Y-76877000D01*
X159123000Y-84873000D01*
X155204250Y-84873000D01*
X155239283Y-84700000D01*
X155239283Y-83800000D01*
X155195563Y-83567648D01*
X155058243Y-83354247D01*
X154848717Y-83211083D01*
X154600000Y-83160717D01*
X154091908Y-83160717D01*
X154095753Y-83158243D01*
X154238917Y-82948717D01*
X154289283Y-82700000D01*
X154289283Y-81800000D01*
X154245563Y-81567648D01*
X154108243Y-81354247D01*
X154077000Y-81332899D01*
X154077000Y-80889283D01*
X154100000Y-80889283D01*
X154332352Y-80845563D01*
X154545753Y-80708243D01*
X154688917Y-80498717D01*
X154739283Y-80250000D01*
X154739283Y-78750000D01*
X154695563Y-78517648D01*
X154558243Y-78304247D01*
X154348717Y-78161083D01*
X154100000Y-78110717D01*
X152400000Y-78110717D01*
X152167648Y-78154437D01*
X151954247Y-78291757D01*
X151811083Y-78501283D01*
X151760717Y-78750000D01*
X151760717Y-80250000D01*
X151804437Y-80482352D01*
X151941757Y-80695753D01*
X152151283Y-80838917D01*
X152400000Y-80889283D01*
X152423000Y-80889283D01*
X152423000Y-81329690D01*
X152404247Y-81341757D01*
X152261083Y-81551283D01*
X152210717Y-81800000D01*
X152210717Y-82700000D01*
X152254437Y-82932352D01*
X152391757Y-83145753D01*
X152413657Y-83160717D01*
X151900000Y-83160717D01*
X151667648Y-83204437D01*
X151454247Y-83341757D01*
X151311083Y-83551283D01*
X151260717Y-83800000D01*
X151260717Y-84700000D01*
X151293269Y-84873000D01*
X147377000Y-84873000D01*
X147377000Y-76684750D01*
X151873000Y-76684750D01*
X151873000Y-77409827D01*
X151953231Y-77603522D01*
X152101479Y-77751769D01*
X152295173Y-77832000D01*
X152745250Y-77832000D01*
X152877000Y-77700250D01*
X152877000Y-76553000D01*
X152004750Y-76553000D01*
X151873000Y-76684750D01*
X147377000Y-76684750D01*
X147377000Y-74004750D01*
X151873000Y-74004750D01*
X151873000Y-74354827D01*
X151953231Y-74548522D01*
X152057210Y-74652500D01*
X151953231Y-74756478D01*
X151873000Y-74950173D01*
X151873000Y-75675250D01*
X152004750Y-75807000D01*
X152877000Y-75807000D01*
X152877000Y-74659750D01*
X152869750Y-74652500D01*
X152877000Y-74645250D01*
X152877000Y-73873000D01*
X152004750Y-73873000D01*
X151873000Y-74004750D01*
X147377000Y-74004750D01*
X147377000Y-73127000D01*
X153643000Y-73127000D01*
X153643000Y-73873000D01*
X153643000Y-73873000D01*
G37*
X153643000Y-73873000D02*
X153623000Y-73873000D01*
X153623000Y-74645250D01*
X153630250Y-74652500D01*
X153623000Y-74659750D01*
X153623000Y-75807000D01*
X153643000Y-75807000D01*
X153643000Y-76553000D01*
X153623000Y-76553000D01*
X153623000Y-77700250D01*
X153754750Y-77832000D01*
X154204827Y-77832000D01*
X154398521Y-77751769D01*
X154546769Y-77603522D01*
X154627000Y-77409827D01*
X154627000Y-76877000D01*
X159123000Y-76877000D01*
X159123000Y-84873000D01*
X155204250Y-84873000D01*
X155239283Y-84700000D01*
X155239283Y-83800000D01*
X155195563Y-83567648D01*
X155058243Y-83354247D01*
X154848717Y-83211083D01*
X154600000Y-83160717D01*
X154091908Y-83160717D01*
X154095753Y-83158243D01*
X154238917Y-82948717D01*
X154289283Y-82700000D01*
X154289283Y-81800000D01*
X154245563Y-81567648D01*
X154108243Y-81354247D01*
X154077000Y-81332899D01*
X154077000Y-80889283D01*
X154100000Y-80889283D01*
X154332352Y-80845563D01*
X154545753Y-80708243D01*
X154688917Y-80498717D01*
X154739283Y-80250000D01*
X154739283Y-78750000D01*
X154695563Y-78517648D01*
X154558243Y-78304247D01*
X154348717Y-78161083D01*
X154100000Y-78110717D01*
X152400000Y-78110717D01*
X152167648Y-78154437D01*
X151954247Y-78291757D01*
X151811083Y-78501283D01*
X151760717Y-78750000D01*
X151760717Y-80250000D01*
X151804437Y-80482352D01*
X151941757Y-80695753D01*
X152151283Y-80838917D01*
X152400000Y-80889283D01*
X152423000Y-80889283D01*
X152423000Y-81329690D01*
X152404247Y-81341757D01*
X152261083Y-81551283D01*
X152210717Y-81800000D01*
X152210717Y-82700000D01*
X152254437Y-82932352D01*
X152391757Y-83145753D01*
X152413657Y-83160717D01*
X151900000Y-83160717D01*
X151667648Y-83204437D01*
X151454247Y-83341757D01*
X151311083Y-83551283D01*
X151260717Y-83800000D01*
X151260717Y-84700000D01*
X151293269Y-84873000D01*
X147377000Y-84873000D01*
X147377000Y-76684750D01*
X151873000Y-76684750D01*
X151873000Y-77409827D01*
X151953231Y-77603522D01*
X152101479Y-77751769D01*
X152295173Y-77832000D01*
X152745250Y-77832000D01*
X152877000Y-77700250D01*
X152877000Y-76553000D01*
X152004750Y-76553000D01*
X151873000Y-76684750D01*
X147377000Y-76684750D01*
X147377000Y-74004750D01*
X151873000Y-74004750D01*
X151873000Y-74354827D01*
X151953231Y-74548522D01*
X152057210Y-74652500D01*
X151953231Y-74756478D01*
X151873000Y-74950173D01*
X151873000Y-75675250D01*
X152004750Y-75807000D01*
X152877000Y-75807000D01*
X152877000Y-74659750D01*
X152869750Y-74652500D01*
X152877000Y-74645250D01*
X152877000Y-73873000D01*
X152004750Y-73873000D01*
X151873000Y-74004750D01*
X147377000Y-74004750D01*
X147377000Y-73127000D01*
X153643000Y-73127000D01*
X153643000Y-73873000D01*
G36*
X171623000Y-84873000D02*
X167704250Y-84873000D01*
X167739283Y-84700000D01*
X167739283Y-83800000D01*
X167695563Y-83567648D01*
X167558243Y-83354247D01*
X167348717Y-83211083D01*
X167100000Y-83160717D01*
X166591908Y-83160717D01*
X166595753Y-83158243D01*
X166738917Y-82948717D01*
X166789283Y-82700000D01*
X166789283Y-81800000D01*
X166745563Y-81567648D01*
X166608243Y-81354247D01*
X166577000Y-81332899D01*
X166577000Y-80889283D01*
X166600000Y-80889283D01*
X166832352Y-80845563D01*
X167045753Y-80708243D01*
X167188917Y-80498717D01*
X167239283Y-80250000D01*
X167239283Y-78750000D01*
X167195563Y-78517648D01*
X167058243Y-78304247D01*
X166848717Y-78161083D01*
X166600000Y-78110717D01*
X164900000Y-78110717D01*
X164667648Y-78154437D01*
X164454247Y-78291757D01*
X164311083Y-78501283D01*
X164260717Y-78750000D01*
X164260717Y-80250000D01*
X164304437Y-80482352D01*
X164441757Y-80695753D01*
X164651283Y-80838917D01*
X164900000Y-80889283D01*
X164923000Y-80889283D01*
X164923000Y-81329690D01*
X164904247Y-81341757D01*
X164761083Y-81551283D01*
X164710717Y-81800000D01*
X164710717Y-82700000D01*
X164754437Y-82932352D01*
X164891757Y-83145753D01*
X164913657Y-83160717D01*
X164400000Y-83160717D01*
X164167648Y-83204437D01*
X163954247Y-83341757D01*
X163811083Y-83551283D01*
X163760717Y-83800000D01*
X163760717Y-84700000D01*
X163793269Y-84873000D01*
X159877000Y-84873000D01*
X159877000Y-76877000D01*
X164373000Y-76877000D01*
X164373000Y-77409827D01*
X164453231Y-77603522D01*
X164601479Y-77751769D01*
X164795173Y-77832000D01*
X165245250Y-77832000D01*
X165377000Y-77700250D01*
X165377000Y-76553000D01*
X166123000Y-76553000D01*
X166123000Y-77700250D01*
X166254750Y-77832000D01*
X166704827Y-77832000D01*
X166898521Y-77751769D01*
X167046769Y-77603522D01*
X167127000Y-77409827D01*
X167127000Y-76684750D01*
X166995250Y-76553000D01*
X166123000Y-76553000D01*
X165377000Y-76553000D01*
X165357000Y-76553000D01*
X165357000Y-75807000D01*
X165377000Y-75807000D01*
X165377000Y-74659750D01*
X165369750Y-74652500D01*
X165377000Y-74645250D01*
X165377000Y-73873000D01*
X166123000Y-73873000D01*
X166123000Y-74645250D01*
X166130250Y-74652500D01*
X166123000Y-74659750D01*
X166123000Y-75807000D01*
X166995250Y-75807000D01*
X167127000Y-75675250D01*
X167127000Y-74950173D01*
X167046769Y-74756478D01*
X166942790Y-74652500D01*
X167046769Y-74548522D01*
X167127000Y-74354827D01*
X167127000Y-74004750D01*
X166995250Y-73873000D01*
X166123000Y-73873000D01*
X165377000Y-73873000D01*
X165357000Y-73873000D01*
X165357000Y-73127000D01*
X171623000Y-73127000D01*
X171623000Y-84873000D01*
X171623000Y-84873000D01*
G37*
X171623000Y-84873000D02*
X167704250Y-84873000D01*
X167739283Y-84700000D01*
X167739283Y-83800000D01*
X167695563Y-83567648D01*
X167558243Y-83354247D01*
X167348717Y-83211083D01*
X167100000Y-83160717D01*
X166591908Y-83160717D01*
X166595753Y-83158243D01*
X166738917Y-82948717D01*
X166789283Y-82700000D01*
X166789283Y-81800000D01*
X166745563Y-81567648D01*
X166608243Y-81354247D01*
X166577000Y-81332899D01*
X166577000Y-80889283D01*
X166600000Y-80889283D01*
X166832352Y-80845563D01*
X167045753Y-80708243D01*
X167188917Y-80498717D01*
X167239283Y-80250000D01*
X167239283Y-78750000D01*
X167195563Y-78517648D01*
X167058243Y-78304247D01*
X166848717Y-78161083D01*
X166600000Y-78110717D01*
X164900000Y-78110717D01*
X164667648Y-78154437D01*
X164454247Y-78291757D01*
X164311083Y-78501283D01*
X164260717Y-78750000D01*
X164260717Y-80250000D01*
X164304437Y-80482352D01*
X164441757Y-80695753D01*
X164651283Y-80838917D01*
X164900000Y-80889283D01*
X164923000Y-80889283D01*
X164923000Y-81329690D01*
X164904247Y-81341757D01*
X164761083Y-81551283D01*
X164710717Y-81800000D01*
X164710717Y-82700000D01*
X164754437Y-82932352D01*
X164891757Y-83145753D01*
X164913657Y-83160717D01*
X164400000Y-83160717D01*
X164167648Y-83204437D01*
X163954247Y-83341757D01*
X163811083Y-83551283D01*
X163760717Y-83800000D01*
X163760717Y-84700000D01*
X163793269Y-84873000D01*
X159877000Y-84873000D01*
X159877000Y-76877000D01*
X164373000Y-76877000D01*
X164373000Y-77409827D01*
X164453231Y-77603522D01*
X164601479Y-77751769D01*
X164795173Y-77832000D01*
X165245250Y-77832000D01*
X165377000Y-77700250D01*
X165377000Y-76553000D01*
X166123000Y-76553000D01*
X166123000Y-77700250D01*
X166254750Y-77832000D01*
X166704827Y-77832000D01*
X166898521Y-77751769D01*
X167046769Y-77603522D01*
X167127000Y-77409827D01*
X167127000Y-76684750D01*
X166995250Y-76553000D01*
X166123000Y-76553000D01*
X165377000Y-76553000D01*
X165357000Y-76553000D01*
X165357000Y-75807000D01*
X165377000Y-75807000D01*
X165377000Y-74659750D01*
X165369750Y-74652500D01*
X165377000Y-74645250D01*
X165377000Y-73873000D01*
X166123000Y-73873000D01*
X166123000Y-74645250D01*
X166130250Y-74652500D01*
X166123000Y-74659750D01*
X166123000Y-75807000D01*
X166995250Y-75807000D01*
X167127000Y-75675250D01*
X167127000Y-74950173D01*
X167046769Y-74756478D01*
X166942790Y-74652500D01*
X167046769Y-74548522D01*
X167127000Y-74354827D01*
X167127000Y-74004750D01*
X166995250Y-73873000D01*
X166123000Y-73873000D01*
X165377000Y-73873000D01*
X165357000Y-73873000D01*
X165357000Y-73127000D01*
X171623000Y-73127000D01*
X171623000Y-84873000D01*
G36*
X188873000Y-57435338D02*
X188786331Y-57225583D01*
X188525789Y-56964586D01*
X188185201Y-56823161D01*
X187816417Y-56822839D01*
X187574009Y-56923000D01*
X187314283Y-56923000D01*
X187314283Y-56500000D01*
X187270563Y-56267648D01*
X187133243Y-56054247D01*
X186923717Y-55911083D01*
X186675000Y-55860717D01*
X185325000Y-55860717D01*
X185092648Y-55904437D01*
X185017444Y-55952830D01*
X184824718Y-55873000D01*
X184054750Y-55873000D01*
X183898000Y-56029750D01*
X183898000Y-57377000D01*
X183918000Y-57377000D01*
X183918000Y-58123000D01*
X183898000Y-58123000D01*
X183898000Y-59470250D01*
X184054750Y-59627000D01*
X184824718Y-59627000D01*
X185016038Y-59547753D01*
X185076283Y-59588917D01*
X185325000Y-59639283D01*
X186675000Y-59639283D01*
X186907352Y-59595563D01*
X187120753Y-59458243D01*
X187263917Y-59248717D01*
X187314283Y-59000000D01*
X187314283Y-58577000D01*
X187574361Y-58577000D01*
X187814799Y-58676839D01*
X188183583Y-58677161D01*
X188524417Y-58536331D01*
X188785414Y-58275789D01*
X188873000Y-58064859D01*
X188873000Y-63623000D01*
X180127000Y-63623000D01*
X180127000Y-58279750D01*
X181723000Y-58279750D01*
X181723000Y-59124718D01*
X181818455Y-59355167D01*
X181994833Y-59531545D01*
X182225282Y-59627000D01*
X182995250Y-59627000D01*
X183152000Y-59470250D01*
X183152000Y-58123000D01*
X181879750Y-58123000D01*
X181723000Y-58279750D01*
X180127000Y-58279750D01*
X180127000Y-56375282D01*
X181723000Y-56375282D01*
X181723000Y-57220250D01*
X181879750Y-57377000D01*
X183152000Y-57377000D01*
X183152000Y-56029750D01*
X182995250Y-55873000D01*
X182225282Y-55873000D01*
X181994833Y-55968455D01*
X181818455Y-56144833D01*
X181723000Y-56375282D01*
X180127000Y-56375282D01*
X180127000Y-51877000D01*
X188873000Y-51877000D01*
X188873000Y-57435338D01*
X188873000Y-57435338D01*
G37*
X188873000Y-57435338D02*
X188786331Y-57225583D01*
X188525789Y-56964586D01*
X188185201Y-56823161D01*
X187816417Y-56822839D01*
X187574009Y-56923000D01*
X187314283Y-56923000D01*
X187314283Y-56500000D01*
X187270563Y-56267648D01*
X187133243Y-56054247D01*
X186923717Y-55911083D01*
X186675000Y-55860717D01*
X185325000Y-55860717D01*
X185092648Y-55904437D01*
X185017444Y-55952830D01*
X184824718Y-55873000D01*
X184054750Y-55873000D01*
X183898000Y-56029750D01*
X183898000Y-57377000D01*
X183918000Y-57377000D01*
X183918000Y-58123000D01*
X183898000Y-58123000D01*
X183898000Y-59470250D01*
X184054750Y-59627000D01*
X184824718Y-59627000D01*
X185016038Y-59547753D01*
X185076283Y-59588917D01*
X185325000Y-59639283D01*
X186675000Y-59639283D01*
X186907352Y-59595563D01*
X187120753Y-59458243D01*
X187263917Y-59248717D01*
X187314283Y-59000000D01*
X187314283Y-58577000D01*
X187574361Y-58577000D01*
X187814799Y-58676839D01*
X188183583Y-58677161D01*
X188524417Y-58536331D01*
X188785414Y-58275789D01*
X188873000Y-58064859D01*
X188873000Y-63623000D01*
X180127000Y-63623000D01*
X180127000Y-58279750D01*
X181723000Y-58279750D01*
X181723000Y-59124718D01*
X181818455Y-59355167D01*
X181994833Y-59531545D01*
X182225282Y-59627000D01*
X182995250Y-59627000D01*
X183152000Y-59470250D01*
X183152000Y-58123000D01*
X181879750Y-58123000D01*
X181723000Y-58279750D01*
X180127000Y-58279750D01*
X180127000Y-56375282D01*
X181723000Y-56375282D01*
X181723000Y-57220250D01*
X181879750Y-57377000D01*
X183152000Y-57377000D01*
X183152000Y-56029750D01*
X182995250Y-55873000D01*
X182225282Y-55873000D01*
X181994833Y-55968455D01*
X181818455Y-56144833D01*
X181723000Y-56375282D01*
X180127000Y-56375282D01*
X180127000Y-51877000D01*
X188873000Y-51877000D01*
X188873000Y-57435338D01*
G36*
X184123000Y-51123000D02*
X179727000Y-51123000D01*
X179727000Y-50806998D01*
X179570252Y-50806998D01*
X179727000Y-50650250D01*
X179727000Y-49930282D01*
X179631545Y-49699833D01*
X179584212Y-49652500D01*
X179631545Y-49605167D01*
X179727000Y-49374718D01*
X179727000Y-49029750D01*
X179570250Y-48873000D01*
X178623000Y-48873000D01*
X178623000Y-50807000D01*
X178643000Y-50807000D01*
X178643000Y-51553000D01*
X178623000Y-51553000D01*
X178623000Y-52775250D01*
X178779750Y-52932000D01*
X179224718Y-52932000D01*
X179373000Y-52870580D01*
X179373000Y-53177675D01*
X179348717Y-53161083D01*
X179100000Y-53110717D01*
X177400000Y-53110717D01*
X177167648Y-53154437D01*
X176954247Y-53291757D01*
X176811083Y-53501283D01*
X176760717Y-53750000D01*
X176760717Y-55123000D01*
X172377000Y-55123000D01*
X172377000Y-51709750D01*
X176773000Y-51709750D01*
X176773000Y-52429718D01*
X176868455Y-52660167D01*
X177044833Y-52836545D01*
X177275282Y-52932000D01*
X177720250Y-52932000D01*
X177877000Y-52775250D01*
X177877000Y-51553000D01*
X176929750Y-51553000D01*
X176773000Y-51709750D01*
X172377000Y-51709750D01*
X172377000Y-49029750D01*
X176773000Y-49029750D01*
X176773000Y-49374718D01*
X176868455Y-49605167D01*
X176915788Y-49652500D01*
X176868455Y-49699833D01*
X176773000Y-49930282D01*
X176773000Y-50650250D01*
X176929750Y-50807000D01*
X177877000Y-50807000D01*
X177877000Y-48873000D01*
X176929750Y-48873000D01*
X176773000Y-49029750D01*
X172377000Y-49029750D01*
X172377000Y-47625282D01*
X176773000Y-47625282D01*
X176773000Y-47970250D01*
X176929750Y-48127000D01*
X177877000Y-48127000D01*
X177877000Y-47279750D01*
X178623000Y-47279750D01*
X178623000Y-48127000D01*
X179570250Y-48127000D01*
X179727000Y-47970250D01*
X179727000Y-47625282D01*
X179631545Y-47394833D01*
X179455167Y-47218455D01*
X179224718Y-47123000D01*
X178779750Y-47123000D01*
X178623000Y-47279750D01*
X177877000Y-47279750D01*
X177720250Y-47123000D01*
X177275282Y-47123000D01*
X177044833Y-47218455D01*
X176868455Y-47394833D01*
X176773000Y-47625282D01*
X172377000Y-47625282D01*
X172377000Y-45331750D01*
X176373000Y-45331750D01*
X176373000Y-45524718D01*
X176468455Y-45755167D01*
X176644833Y-45931545D01*
X176875282Y-46027000D01*
X177720250Y-46027000D01*
X177877000Y-45870250D01*
X177877000Y-45175000D01*
X178623000Y-45175000D01*
X178623000Y-45870250D01*
X178779750Y-46027000D01*
X179624718Y-46027000D01*
X179855167Y-45931545D01*
X180031545Y-45755167D01*
X180127000Y-45524718D01*
X180127000Y-45331750D01*
X179970250Y-45175000D01*
X178623000Y-45175000D01*
X177877000Y-45175000D01*
X176529750Y-45175000D01*
X176373000Y-45331750D01*
X172377000Y-45331750D01*
X172377000Y-44375282D01*
X176373000Y-44375282D01*
X176373000Y-44568250D01*
X176529750Y-44725000D01*
X177877000Y-44725000D01*
X177877000Y-44029750D01*
X178623000Y-44029750D01*
X178623000Y-44725000D01*
X179970250Y-44725000D01*
X180127000Y-44568250D01*
X180127000Y-44375282D01*
X180031545Y-44144833D01*
X179855167Y-43968455D01*
X179624718Y-43873000D01*
X178779750Y-43873000D01*
X178623000Y-44029750D01*
X177877000Y-44029750D01*
X177720250Y-43873000D01*
X176875282Y-43873000D01*
X176644833Y-43968455D01*
X176468455Y-44144833D01*
X176373000Y-44375282D01*
X172377000Y-44375282D01*
X172377000Y-43427000D01*
X184123000Y-43427000D01*
X184123000Y-51123000D01*
X184123000Y-51123000D01*
G37*
X184123000Y-51123000D02*
X179727000Y-51123000D01*
X179727000Y-50806998D01*
X179570252Y-50806998D01*
X179727000Y-50650250D01*
X179727000Y-49930282D01*
X179631545Y-49699833D01*
X179584212Y-49652500D01*
X179631545Y-49605167D01*
X179727000Y-49374718D01*
X179727000Y-49029750D01*
X179570250Y-48873000D01*
X178623000Y-48873000D01*
X178623000Y-50807000D01*
X178643000Y-50807000D01*
X178643000Y-51553000D01*
X178623000Y-51553000D01*
X178623000Y-52775250D01*
X178779750Y-52932000D01*
X179224718Y-52932000D01*
X179373000Y-52870580D01*
X179373000Y-53177675D01*
X179348717Y-53161083D01*
X179100000Y-53110717D01*
X177400000Y-53110717D01*
X177167648Y-53154437D01*
X176954247Y-53291757D01*
X176811083Y-53501283D01*
X176760717Y-53750000D01*
X176760717Y-55123000D01*
X172377000Y-55123000D01*
X172377000Y-51709750D01*
X176773000Y-51709750D01*
X176773000Y-52429718D01*
X176868455Y-52660167D01*
X177044833Y-52836545D01*
X177275282Y-52932000D01*
X177720250Y-52932000D01*
X177877000Y-52775250D01*
X177877000Y-51553000D01*
X176929750Y-51553000D01*
X176773000Y-51709750D01*
X172377000Y-51709750D01*
X172377000Y-49029750D01*
X176773000Y-49029750D01*
X176773000Y-49374718D01*
X176868455Y-49605167D01*
X176915788Y-49652500D01*
X176868455Y-49699833D01*
X176773000Y-49930282D01*
X176773000Y-50650250D01*
X176929750Y-50807000D01*
X177877000Y-50807000D01*
X177877000Y-48873000D01*
X176929750Y-48873000D01*
X176773000Y-49029750D01*
X172377000Y-49029750D01*
X172377000Y-47625282D01*
X176773000Y-47625282D01*
X176773000Y-47970250D01*
X176929750Y-48127000D01*
X177877000Y-48127000D01*
X177877000Y-47279750D01*
X178623000Y-47279750D01*
X178623000Y-48127000D01*
X179570250Y-48127000D01*
X179727000Y-47970250D01*
X179727000Y-47625282D01*
X179631545Y-47394833D01*
X179455167Y-47218455D01*
X179224718Y-47123000D01*
X178779750Y-47123000D01*
X178623000Y-47279750D01*
X177877000Y-47279750D01*
X177720250Y-47123000D01*
X177275282Y-47123000D01*
X177044833Y-47218455D01*
X176868455Y-47394833D01*
X176773000Y-47625282D01*
X172377000Y-47625282D01*
X172377000Y-45331750D01*
X176373000Y-45331750D01*
X176373000Y-45524718D01*
X176468455Y-45755167D01*
X176644833Y-45931545D01*
X176875282Y-46027000D01*
X177720250Y-46027000D01*
X177877000Y-45870250D01*
X177877000Y-45175000D01*
X178623000Y-45175000D01*
X178623000Y-45870250D01*
X178779750Y-46027000D01*
X179624718Y-46027000D01*
X179855167Y-45931545D01*
X180031545Y-45755167D01*
X180127000Y-45524718D01*
X180127000Y-45331750D01*
X179970250Y-45175000D01*
X178623000Y-45175000D01*
X177877000Y-45175000D01*
X176529750Y-45175000D01*
X176373000Y-45331750D01*
X172377000Y-45331750D01*
X172377000Y-44375282D01*
X176373000Y-44375282D01*
X176373000Y-44568250D01*
X176529750Y-44725000D01*
X177877000Y-44725000D01*
X177877000Y-44029750D01*
X178623000Y-44029750D01*
X178623000Y-44725000D01*
X179970250Y-44725000D01*
X180127000Y-44568250D01*
X180127000Y-44375282D01*
X180031545Y-44144833D01*
X179855167Y-43968455D01*
X179624718Y-43873000D01*
X178779750Y-43873000D01*
X178623000Y-44029750D01*
X177877000Y-44029750D01*
X177720250Y-43873000D01*
X176875282Y-43873000D01*
X176644833Y-43968455D01*
X176468455Y-44144833D01*
X176373000Y-44375282D01*
X172377000Y-44375282D01*
X172377000Y-43427000D01*
X184123000Y-43427000D01*
X184123000Y-51123000D01*
G36*
X196623000Y-55123000D02*
X192239283Y-55123000D01*
X192239283Y-53750000D01*
X192195563Y-53517648D01*
X192058243Y-53304247D01*
X191848717Y-53161083D01*
X191600000Y-53110717D01*
X189900000Y-53110717D01*
X189667648Y-53154437D01*
X189627000Y-53180593D01*
X189627000Y-52870580D01*
X189775282Y-52932000D01*
X190220250Y-52932000D01*
X190377000Y-52775250D01*
X190377000Y-51553000D01*
X191123000Y-51553000D01*
X191123000Y-52775250D01*
X191279750Y-52932000D01*
X191724718Y-52932000D01*
X191955167Y-52836545D01*
X192131545Y-52660167D01*
X192227000Y-52429718D01*
X192227000Y-51709750D01*
X192070250Y-51553000D01*
X191123000Y-51553000D01*
X190377000Y-51553000D01*
X190357000Y-51553000D01*
X190357000Y-50807000D01*
X190377000Y-50807000D01*
X190377000Y-48873000D01*
X191123000Y-48873000D01*
X191123000Y-50807000D01*
X192070250Y-50807000D01*
X192227000Y-50650250D01*
X192227000Y-49930282D01*
X192131545Y-49699833D01*
X192084212Y-49652500D01*
X192131545Y-49605167D01*
X192227000Y-49374718D01*
X192227000Y-49029750D01*
X192070250Y-48873000D01*
X191123000Y-48873000D01*
X190377000Y-48873000D01*
X189429750Y-48873000D01*
X189273000Y-49029750D01*
X189273000Y-49374718D01*
X189368455Y-49605167D01*
X189415788Y-49652500D01*
X189368455Y-49699833D01*
X189273000Y-49930282D01*
X189273000Y-50650250D01*
X189429748Y-50806998D01*
X189273000Y-50806998D01*
X189273000Y-51123000D01*
X184877000Y-51123000D01*
X184877000Y-47625282D01*
X189273000Y-47625282D01*
X189273000Y-47970250D01*
X189429750Y-48127000D01*
X190377000Y-48127000D01*
X190377000Y-47279750D01*
X191123000Y-47279750D01*
X191123000Y-48127000D01*
X192070250Y-48127000D01*
X192227000Y-47970250D01*
X192227000Y-47625282D01*
X192131545Y-47394833D01*
X191955167Y-47218455D01*
X191724718Y-47123000D01*
X191279750Y-47123000D01*
X191123000Y-47279750D01*
X190377000Y-47279750D01*
X190220250Y-47123000D01*
X189775282Y-47123000D01*
X189544833Y-47218455D01*
X189368455Y-47394833D01*
X189273000Y-47625282D01*
X184877000Y-47625282D01*
X184877000Y-45331750D01*
X188873000Y-45331750D01*
X188873000Y-45524718D01*
X188968455Y-45755167D01*
X189144833Y-45931545D01*
X189375282Y-46027000D01*
X190220250Y-46027000D01*
X190377000Y-45870250D01*
X190377000Y-45175000D01*
X191123000Y-45175000D01*
X191123000Y-45870250D01*
X191279750Y-46027000D01*
X192124718Y-46027000D01*
X192355167Y-45931545D01*
X192531545Y-45755167D01*
X192627000Y-45524718D01*
X192627000Y-45331750D01*
X192470250Y-45175000D01*
X191123000Y-45175000D01*
X190377000Y-45175000D01*
X189029750Y-45175000D01*
X188873000Y-45331750D01*
X184877000Y-45331750D01*
X184877000Y-44375282D01*
X188873000Y-44375282D01*
X188873000Y-44568250D01*
X189029750Y-44725000D01*
X190377000Y-44725000D01*
X190377000Y-44029750D01*
X191123000Y-44029750D01*
X191123000Y-44725000D01*
X192470250Y-44725000D01*
X192627000Y-44568250D01*
X192627000Y-44375282D01*
X192531545Y-44144833D01*
X192355167Y-43968455D01*
X192124718Y-43873000D01*
X191279750Y-43873000D01*
X191123000Y-44029750D01*
X190377000Y-44029750D01*
X190220250Y-43873000D01*
X189375282Y-43873000D01*
X189144833Y-43968455D01*
X188968455Y-44144833D01*
X188873000Y-44375282D01*
X184877000Y-44375282D01*
X184877000Y-43427000D01*
X196623000Y-43427000D01*
X196623000Y-55123000D01*
X196623000Y-55123000D01*
G37*
X196623000Y-55123000D02*
X192239283Y-55123000D01*
X192239283Y-53750000D01*
X192195563Y-53517648D01*
X192058243Y-53304247D01*
X191848717Y-53161083D01*
X191600000Y-53110717D01*
X189900000Y-53110717D01*
X189667648Y-53154437D01*
X189627000Y-53180593D01*
X189627000Y-52870580D01*
X189775282Y-52932000D01*
X190220250Y-52932000D01*
X190377000Y-52775250D01*
X190377000Y-51553000D01*
X191123000Y-51553000D01*
X191123000Y-52775250D01*
X191279750Y-52932000D01*
X191724718Y-52932000D01*
X191955167Y-52836545D01*
X192131545Y-52660167D01*
X192227000Y-52429718D01*
X192227000Y-51709750D01*
X192070250Y-51553000D01*
X191123000Y-51553000D01*
X190377000Y-51553000D01*
X190357000Y-51553000D01*
X190357000Y-50807000D01*
X190377000Y-50807000D01*
X190377000Y-48873000D01*
X191123000Y-48873000D01*
X191123000Y-50807000D01*
X192070250Y-50807000D01*
X192227000Y-50650250D01*
X192227000Y-49930282D01*
X192131545Y-49699833D01*
X192084212Y-49652500D01*
X192131545Y-49605167D01*
X192227000Y-49374718D01*
X192227000Y-49029750D01*
X192070250Y-48873000D01*
X191123000Y-48873000D01*
X190377000Y-48873000D01*
X189429750Y-48873000D01*
X189273000Y-49029750D01*
X189273000Y-49374718D01*
X189368455Y-49605167D01*
X189415788Y-49652500D01*
X189368455Y-49699833D01*
X189273000Y-49930282D01*
X189273000Y-50650250D01*
X189429748Y-50806998D01*
X189273000Y-50806998D01*
X189273000Y-51123000D01*
X184877000Y-51123000D01*
X184877000Y-47625282D01*
X189273000Y-47625282D01*
X189273000Y-47970250D01*
X189429750Y-48127000D01*
X190377000Y-48127000D01*
X190377000Y-47279750D01*
X191123000Y-47279750D01*
X191123000Y-48127000D01*
X192070250Y-48127000D01*
X192227000Y-47970250D01*
X192227000Y-47625282D01*
X192131545Y-47394833D01*
X191955167Y-47218455D01*
X191724718Y-47123000D01*
X191279750Y-47123000D01*
X191123000Y-47279750D01*
X190377000Y-47279750D01*
X190220250Y-47123000D01*
X189775282Y-47123000D01*
X189544833Y-47218455D01*
X189368455Y-47394833D01*
X189273000Y-47625282D01*
X184877000Y-47625282D01*
X184877000Y-45331750D01*
X188873000Y-45331750D01*
X188873000Y-45524718D01*
X188968455Y-45755167D01*
X189144833Y-45931545D01*
X189375282Y-46027000D01*
X190220250Y-46027000D01*
X190377000Y-45870250D01*
X190377000Y-45175000D01*
X191123000Y-45175000D01*
X191123000Y-45870250D01*
X191279750Y-46027000D01*
X192124718Y-46027000D01*
X192355167Y-45931545D01*
X192531545Y-45755167D01*
X192627000Y-45524718D01*
X192627000Y-45331750D01*
X192470250Y-45175000D01*
X191123000Y-45175000D01*
X190377000Y-45175000D01*
X189029750Y-45175000D01*
X188873000Y-45331750D01*
X184877000Y-45331750D01*
X184877000Y-44375282D01*
X188873000Y-44375282D01*
X188873000Y-44568250D01*
X189029750Y-44725000D01*
X190377000Y-44725000D01*
X190377000Y-44029750D01*
X191123000Y-44029750D01*
X191123000Y-44725000D01*
X192470250Y-44725000D01*
X192627000Y-44568250D01*
X192627000Y-44375282D01*
X192531545Y-44144833D01*
X192355167Y-43968455D01*
X192124718Y-43873000D01*
X191279750Y-43873000D01*
X191123000Y-44029750D01*
X190377000Y-44029750D01*
X190220250Y-43873000D01*
X189375282Y-43873000D01*
X189144833Y-43968455D01*
X188968455Y-44144833D01*
X188873000Y-44375282D01*
X184877000Y-44375282D01*
X184877000Y-43427000D01*
X196623000Y-43427000D01*
X196623000Y-55123000D01*
G36*
X179373000Y-59792660D02*
X179204827Y-59723000D01*
X178754750Y-59723000D01*
X178623000Y-59854750D01*
X178623000Y-60627000D01*
X178643000Y-60627000D01*
X178643000Y-61373000D01*
X178623000Y-61373000D01*
X178623000Y-62145250D01*
X178630250Y-62152500D01*
X178623000Y-62159750D01*
X178623000Y-63307000D01*
X178643000Y-63307000D01*
X178643000Y-64053000D01*
X178623000Y-64053000D01*
X178623000Y-65200250D01*
X178754750Y-65332000D01*
X179204827Y-65332000D01*
X179373000Y-65262340D01*
X179373000Y-65677675D01*
X179348717Y-65661083D01*
X179100000Y-65610717D01*
X177400000Y-65610717D01*
X177167648Y-65654437D01*
X176954247Y-65791757D01*
X176811083Y-66001283D01*
X176760717Y-66250000D01*
X176760717Y-67750000D01*
X176804437Y-67982352D01*
X176941757Y-68195753D01*
X177151283Y-68338917D01*
X177400000Y-68389283D01*
X177423000Y-68389283D01*
X177423000Y-72110717D01*
X177400000Y-72110717D01*
X177167648Y-72154437D01*
X176954247Y-72291757D01*
X176898736Y-72373000D01*
X172377000Y-72373000D01*
X172377000Y-64184750D01*
X176873000Y-64184750D01*
X176873000Y-64909827D01*
X176953231Y-65103522D01*
X177101479Y-65251769D01*
X177295173Y-65332000D01*
X177745250Y-65332000D01*
X177877000Y-65200250D01*
X177877000Y-64053000D01*
X177004750Y-64053000D01*
X176873000Y-64184750D01*
X172377000Y-64184750D01*
X172377000Y-61504750D01*
X176873000Y-61504750D01*
X176873000Y-61854827D01*
X176953231Y-62048522D01*
X177057210Y-62152500D01*
X176953231Y-62256478D01*
X176873000Y-62450173D01*
X176873000Y-63175250D01*
X177004750Y-63307000D01*
X177877000Y-63307000D01*
X177877000Y-62159750D01*
X177869750Y-62152500D01*
X177877000Y-62145250D01*
X177877000Y-61373000D01*
X177004750Y-61373000D01*
X176873000Y-61504750D01*
X172377000Y-61504750D01*
X172377000Y-60145173D01*
X176873000Y-60145173D01*
X176873000Y-60495250D01*
X177004750Y-60627000D01*
X177877000Y-60627000D01*
X177877000Y-59854750D01*
X177745250Y-59723000D01*
X177295173Y-59723000D01*
X177101479Y-59803231D01*
X176953231Y-59951478D01*
X176873000Y-60145173D01*
X172377000Y-60145173D01*
X172377000Y-55877000D01*
X179373000Y-55877000D01*
X179373000Y-59792660D01*
X179373000Y-59792660D01*
G37*
X179373000Y-59792660D02*
X179204827Y-59723000D01*
X178754750Y-59723000D01*
X178623000Y-59854750D01*
X178623000Y-60627000D01*
X178643000Y-60627000D01*
X178643000Y-61373000D01*
X178623000Y-61373000D01*
X178623000Y-62145250D01*
X178630250Y-62152500D01*
X178623000Y-62159750D01*
X178623000Y-63307000D01*
X178643000Y-63307000D01*
X178643000Y-64053000D01*
X178623000Y-64053000D01*
X178623000Y-65200250D01*
X178754750Y-65332000D01*
X179204827Y-65332000D01*
X179373000Y-65262340D01*
X179373000Y-65677675D01*
X179348717Y-65661083D01*
X179100000Y-65610717D01*
X177400000Y-65610717D01*
X177167648Y-65654437D01*
X176954247Y-65791757D01*
X176811083Y-66001283D01*
X176760717Y-66250000D01*
X176760717Y-67750000D01*
X176804437Y-67982352D01*
X176941757Y-68195753D01*
X177151283Y-68338917D01*
X177400000Y-68389283D01*
X177423000Y-68389283D01*
X177423000Y-72110717D01*
X177400000Y-72110717D01*
X177167648Y-72154437D01*
X176954247Y-72291757D01*
X176898736Y-72373000D01*
X172377000Y-72373000D01*
X172377000Y-64184750D01*
X176873000Y-64184750D01*
X176873000Y-64909827D01*
X176953231Y-65103522D01*
X177101479Y-65251769D01*
X177295173Y-65332000D01*
X177745250Y-65332000D01*
X177877000Y-65200250D01*
X177877000Y-64053000D01*
X177004750Y-64053000D01*
X176873000Y-64184750D01*
X172377000Y-64184750D01*
X172377000Y-61504750D01*
X176873000Y-61504750D01*
X176873000Y-61854827D01*
X176953231Y-62048522D01*
X177057210Y-62152500D01*
X176953231Y-62256478D01*
X176873000Y-62450173D01*
X176873000Y-63175250D01*
X177004750Y-63307000D01*
X177877000Y-63307000D01*
X177877000Y-62159750D01*
X177869750Y-62152500D01*
X177877000Y-62145250D01*
X177877000Y-61373000D01*
X177004750Y-61373000D01*
X176873000Y-61504750D01*
X172377000Y-61504750D01*
X172377000Y-60145173D01*
X176873000Y-60145173D01*
X176873000Y-60495250D01*
X177004750Y-60627000D01*
X177877000Y-60627000D01*
X177877000Y-59854750D01*
X177745250Y-59723000D01*
X177295173Y-59723000D01*
X177101479Y-59803231D01*
X176953231Y-59951478D01*
X176873000Y-60145173D01*
X172377000Y-60145173D01*
X172377000Y-55877000D01*
X179373000Y-55877000D01*
X179373000Y-59792660D01*
G36*
X188873000Y-76123000D02*
X180127000Y-76123000D01*
X180127000Y-70564662D01*
X180213669Y-70774417D01*
X180474211Y-71035414D01*
X180814799Y-71176839D01*
X181183583Y-71177161D01*
X181425991Y-71077000D01*
X181685717Y-71077000D01*
X181685717Y-71500000D01*
X181729437Y-71732352D01*
X181866757Y-71945753D01*
X182076283Y-72088917D01*
X182325000Y-72139283D01*
X183675000Y-72139283D01*
X183907352Y-72095563D01*
X183982556Y-72047170D01*
X184175282Y-72127000D01*
X184945250Y-72127000D01*
X185102000Y-71970250D01*
X185102000Y-70623000D01*
X185848000Y-70623000D01*
X185848000Y-71970250D01*
X186004750Y-72127000D01*
X186774718Y-72127000D01*
X187005167Y-72031545D01*
X187181545Y-71855167D01*
X187277000Y-71624718D01*
X187277000Y-70779750D01*
X187120250Y-70623000D01*
X185848000Y-70623000D01*
X185102000Y-70623000D01*
X185082000Y-70623000D01*
X185082000Y-69877000D01*
X185102000Y-69877000D01*
X185102000Y-68529750D01*
X185848000Y-68529750D01*
X185848000Y-69877000D01*
X187120250Y-69877000D01*
X187277000Y-69720250D01*
X187277000Y-68875282D01*
X187181545Y-68644833D01*
X187005167Y-68468455D01*
X186774718Y-68373000D01*
X186004750Y-68373000D01*
X185848000Y-68529750D01*
X185102000Y-68529750D01*
X184945250Y-68373000D01*
X184175282Y-68373000D01*
X183983962Y-68452247D01*
X183923717Y-68411083D01*
X183675000Y-68360717D01*
X182325000Y-68360717D01*
X182092648Y-68404437D01*
X181879247Y-68541757D01*
X181736083Y-68751283D01*
X181685717Y-69000000D01*
X181685717Y-69423000D01*
X181425639Y-69423000D01*
X181185201Y-69323161D01*
X180816417Y-69322839D01*
X180475583Y-69463669D01*
X180214586Y-69724211D01*
X180127000Y-69935141D01*
X180127000Y-64377000D01*
X188873000Y-64377000D01*
X188873000Y-76123000D01*
X188873000Y-76123000D01*
G37*
X188873000Y-76123000D02*
X180127000Y-76123000D01*
X180127000Y-70564662D01*
X180213669Y-70774417D01*
X180474211Y-71035414D01*
X180814799Y-71176839D01*
X181183583Y-71177161D01*
X181425991Y-71077000D01*
X181685717Y-71077000D01*
X181685717Y-71500000D01*
X181729437Y-71732352D01*
X181866757Y-71945753D01*
X182076283Y-72088917D01*
X182325000Y-72139283D01*
X183675000Y-72139283D01*
X183907352Y-72095563D01*
X183982556Y-72047170D01*
X184175282Y-72127000D01*
X184945250Y-72127000D01*
X185102000Y-71970250D01*
X185102000Y-70623000D01*
X185848000Y-70623000D01*
X185848000Y-71970250D01*
X186004750Y-72127000D01*
X186774718Y-72127000D01*
X187005167Y-72031545D01*
X187181545Y-71855167D01*
X187277000Y-71624718D01*
X187277000Y-70779750D01*
X187120250Y-70623000D01*
X185848000Y-70623000D01*
X185102000Y-70623000D01*
X185082000Y-70623000D01*
X185082000Y-69877000D01*
X185102000Y-69877000D01*
X185102000Y-68529750D01*
X185848000Y-68529750D01*
X185848000Y-69877000D01*
X187120250Y-69877000D01*
X187277000Y-69720250D01*
X187277000Y-68875282D01*
X187181545Y-68644833D01*
X187005167Y-68468455D01*
X186774718Y-68373000D01*
X186004750Y-68373000D01*
X185848000Y-68529750D01*
X185102000Y-68529750D01*
X184945250Y-68373000D01*
X184175282Y-68373000D01*
X183983962Y-68452247D01*
X183923717Y-68411083D01*
X183675000Y-68360717D01*
X182325000Y-68360717D01*
X182092648Y-68404437D01*
X181879247Y-68541757D01*
X181736083Y-68751283D01*
X181685717Y-69000000D01*
X181685717Y-69423000D01*
X181425639Y-69423000D01*
X181185201Y-69323161D01*
X180816417Y-69322839D01*
X180475583Y-69463669D01*
X180214586Y-69724211D01*
X180127000Y-69935141D01*
X180127000Y-64377000D01*
X188873000Y-64377000D01*
X188873000Y-76123000D01*
G36*
X196623000Y-72373000D02*
X192102484Y-72373000D01*
X192058243Y-72304247D01*
X191848717Y-72161083D01*
X191600000Y-72110717D01*
X191577000Y-72110717D01*
X191577000Y-68389283D01*
X191600000Y-68389283D01*
X191832352Y-68345563D01*
X192045753Y-68208243D01*
X192188917Y-67998717D01*
X192239283Y-67750000D01*
X192239283Y-66250000D01*
X192195563Y-66017648D01*
X192058243Y-65804247D01*
X191848717Y-65661083D01*
X191600000Y-65610717D01*
X189900000Y-65610717D01*
X189667648Y-65654437D01*
X189627000Y-65680593D01*
X189627000Y-65262340D01*
X189795173Y-65332000D01*
X190245250Y-65332000D01*
X190377000Y-65200250D01*
X190377000Y-64053000D01*
X191123000Y-64053000D01*
X191123000Y-65200250D01*
X191254750Y-65332000D01*
X191704827Y-65332000D01*
X191898521Y-65251769D01*
X192046769Y-65103522D01*
X192127000Y-64909827D01*
X192127000Y-64184750D01*
X191995250Y-64053000D01*
X191123000Y-64053000D01*
X190377000Y-64053000D01*
X190357000Y-64053000D01*
X190357000Y-63307000D01*
X190377000Y-63307000D01*
X190377000Y-62159750D01*
X190369750Y-62152500D01*
X190377000Y-62145250D01*
X190377000Y-61373000D01*
X191123000Y-61373000D01*
X191123000Y-62145250D01*
X191130250Y-62152500D01*
X191123000Y-62159750D01*
X191123000Y-63307000D01*
X191995250Y-63307000D01*
X192127000Y-63175250D01*
X192127000Y-62450173D01*
X192046769Y-62256478D01*
X191942790Y-62152500D01*
X192046769Y-62048522D01*
X192127000Y-61854827D01*
X192127000Y-61504750D01*
X191995250Y-61373000D01*
X191123000Y-61373000D01*
X190377000Y-61373000D01*
X190357000Y-61373000D01*
X190357000Y-60627000D01*
X190377000Y-60627000D01*
X190377000Y-59854750D01*
X191123000Y-59854750D01*
X191123000Y-60627000D01*
X191995250Y-60627000D01*
X192127000Y-60495250D01*
X192127000Y-60145173D01*
X192046769Y-59951478D01*
X191898521Y-59803231D01*
X191704827Y-59723000D01*
X191254750Y-59723000D01*
X191123000Y-59854750D01*
X190377000Y-59854750D01*
X190245250Y-59723000D01*
X189795173Y-59723000D01*
X189627000Y-59792660D01*
X189627000Y-55877000D01*
X196623000Y-55877000D01*
X196623000Y-72373000D01*
X196623000Y-72373000D01*
G37*
X196623000Y-72373000D02*
X192102484Y-72373000D01*
X192058243Y-72304247D01*
X191848717Y-72161083D01*
X191600000Y-72110717D01*
X191577000Y-72110717D01*
X191577000Y-68389283D01*
X191600000Y-68389283D01*
X191832352Y-68345563D01*
X192045753Y-68208243D01*
X192188917Y-67998717D01*
X192239283Y-67750000D01*
X192239283Y-66250000D01*
X192195563Y-66017648D01*
X192058243Y-65804247D01*
X191848717Y-65661083D01*
X191600000Y-65610717D01*
X189900000Y-65610717D01*
X189667648Y-65654437D01*
X189627000Y-65680593D01*
X189627000Y-65262340D01*
X189795173Y-65332000D01*
X190245250Y-65332000D01*
X190377000Y-65200250D01*
X190377000Y-64053000D01*
X191123000Y-64053000D01*
X191123000Y-65200250D01*
X191254750Y-65332000D01*
X191704827Y-65332000D01*
X191898521Y-65251769D01*
X192046769Y-65103522D01*
X192127000Y-64909827D01*
X192127000Y-64184750D01*
X191995250Y-64053000D01*
X191123000Y-64053000D01*
X190377000Y-64053000D01*
X190357000Y-64053000D01*
X190357000Y-63307000D01*
X190377000Y-63307000D01*
X190377000Y-62159750D01*
X190369750Y-62152500D01*
X190377000Y-62145250D01*
X190377000Y-61373000D01*
X191123000Y-61373000D01*
X191123000Y-62145250D01*
X191130250Y-62152500D01*
X191123000Y-62159750D01*
X191123000Y-63307000D01*
X191995250Y-63307000D01*
X192127000Y-63175250D01*
X192127000Y-62450173D01*
X192046769Y-62256478D01*
X191942790Y-62152500D01*
X192046769Y-62048522D01*
X192127000Y-61854827D01*
X192127000Y-61504750D01*
X191995250Y-61373000D01*
X191123000Y-61373000D01*
X190377000Y-61373000D01*
X190357000Y-61373000D01*
X190357000Y-60627000D01*
X190377000Y-60627000D01*
X190377000Y-59854750D01*
X191123000Y-59854750D01*
X191123000Y-60627000D01*
X191995250Y-60627000D01*
X192127000Y-60495250D01*
X192127000Y-60145173D01*
X192046769Y-59951478D01*
X191898521Y-59803231D01*
X191704827Y-59723000D01*
X191254750Y-59723000D01*
X191123000Y-59854750D01*
X190377000Y-59854750D01*
X190245250Y-59723000D01*
X189795173Y-59723000D01*
X189627000Y-59792660D01*
X189627000Y-55877000D01*
X196623000Y-55877000D01*
X196623000Y-72373000D01*
G36*
X178643000Y-73873000D02*
X178623000Y-73873000D01*
X178623000Y-74645250D01*
X178630250Y-74652500D01*
X178623000Y-74659750D01*
X178623000Y-75807000D01*
X178643000Y-75807000D01*
X178643000Y-76553000D01*
X178623000Y-76553000D01*
X178623000Y-77700250D01*
X178754750Y-77832000D01*
X179204827Y-77832000D01*
X179398521Y-77751769D01*
X179546769Y-77603522D01*
X179627000Y-77409827D01*
X179627000Y-76877000D01*
X184123000Y-76877000D01*
X184123000Y-84873000D01*
X180204250Y-84873000D01*
X180239283Y-84700000D01*
X180239283Y-83800000D01*
X180195563Y-83567648D01*
X180058243Y-83354247D01*
X179848717Y-83211083D01*
X179600000Y-83160717D01*
X179091908Y-83160717D01*
X179095753Y-83158243D01*
X179238917Y-82948717D01*
X179289283Y-82700000D01*
X179289283Y-81800000D01*
X179245563Y-81567648D01*
X179108243Y-81354247D01*
X179077000Y-81332899D01*
X179077000Y-80889283D01*
X179100000Y-80889283D01*
X179332352Y-80845563D01*
X179545753Y-80708243D01*
X179688917Y-80498717D01*
X179739283Y-80250000D01*
X179739283Y-78750000D01*
X179695563Y-78517648D01*
X179558243Y-78304247D01*
X179348717Y-78161083D01*
X179100000Y-78110717D01*
X177400000Y-78110717D01*
X177167648Y-78154437D01*
X176954247Y-78291757D01*
X176811083Y-78501283D01*
X176760717Y-78750000D01*
X176760717Y-80250000D01*
X176804437Y-80482352D01*
X176941757Y-80695753D01*
X177151283Y-80838917D01*
X177400000Y-80889283D01*
X177423000Y-80889283D01*
X177423000Y-81329690D01*
X177404247Y-81341757D01*
X177261083Y-81551283D01*
X177210717Y-81800000D01*
X177210717Y-82700000D01*
X177254437Y-82932352D01*
X177391757Y-83145753D01*
X177413657Y-83160717D01*
X176900000Y-83160717D01*
X176667648Y-83204437D01*
X176454247Y-83341757D01*
X176311083Y-83551283D01*
X176260717Y-83800000D01*
X176260717Y-84700000D01*
X176293269Y-84873000D01*
X172377000Y-84873000D01*
X172377000Y-76684750D01*
X176873000Y-76684750D01*
X176873000Y-77409827D01*
X176953231Y-77603522D01*
X177101479Y-77751769D01*
X177295173Y-77832000D01*
X177745250Y-77832000D01*
X177877000Y-77700250D01*
X177877000Y-76553000D01*
X177004750Y-76553000D01*
X176873000Y-76684750D01*
X172377000Y-76684750D01*
X172377000Y-74004750D01*
X176873000Y-74004750D01*
X176873000Y-74354827D01*
X176953231Y-74548522D01*
X177057210Y-74652500D01*
X176953231Y-74756478D01*
X176873000Y-74950173D01*
X176873000Y-75675250D01*
X177004750Y-75807000D01*
X177877000Y-75807000D01*
X177877000Y-74659750D01*
X177869750Y-74652500D01*
X177877000Y-74645250D01*
X177877000Y-73873000D01*
X177004750Y-73873000D01*
X176873000Y-74004750D01*
X172377000Y-74004750D01*
X172377000Y-73127000D01*
X178643000Y-73127000D01*
X178643000Y-73873000D01*
X178643000Y-73873000D01*
G37*
X178643000Y-73873000D02*
X178623000Y-73873000D01*
X178623000Y-74645250D01*
X178630250Y-74652500D01*
X178623000Y-74659750D01*
X178623000Y-75807000D01*
X178643000Y-75807000D01*
X178643000Y-76553000D01*
X178623000Y-76553000D01*
X178623000Y-77700250D01*
X178754750Y-77832000D01*
X179204827Y-77832000D01*
X179398521Y-77751769D01*
X179546769Y-77603522D01*
X179627000Y-77409827D01*
X179627000Y-76877000D01*
X184123000Y-76877000D01*
X184123000Y-84873000D01*
X180204250Y-84873000D01*
X180239283Y-84700000D01*
X180239283Y-83800000D01*
X180195563Y-83567648D01*
X180058243Y-83354247D01*
X179848717Y-83211083D01*
X179600000Y-83160717D01*
X179091908Y-83160717D01*
X179095753Y-83158243D01*
X179238917Y-82948717D01*
X179289283Y-82700000D01*
X179289283Y-81800000D01*
X179245563Y-81567648D01*
X179108243Y-81354247D01*
X179077000Y-81332899D01*
X179077000Y-80889283D01*
X179100000Y-80889283D01*
X179332352Y-80845563D01*
X179545753Y-80708243D01*
X179688917Y-80498717D01*
X179739283Y-80250000D01*
X179739283Y-78750000D01*
X179695563Y-78517648D01*
X179558243Y-78304247D01*
X179348717Y-78161083D01*
X179100000Y-78110717D01*
X177400000Y-78110717D01*
X177167648Y-78154437D01*
X176954247Y-78291757D01*
X176811083Y-78501283D01*
X176760717Y-78750000D01*
X176760717Y-80250000D01*
X176804437Y-80482352D01*
X176941757Y-80695753D01*
X177151283Y-80838917D01*
X177400000Y-80889283D01*
X177423000Y-80889283D01*
X177423000Y-81329690D01*
X177404247Y-81341757D01*
X177261083Y-81551283D01*
X177210717Y-81800000D01*
X177210717Y-82700000D01*
X177254437Y-82932352D01*
X177391757Y-83145753D01*
X177413657Y-83160717D01*
X176900000Y-83160717D01*
X176667648Y-83204437D01*
X176454247Y-83341757D01*
X176311083Y-83551283D01*
X176260717Y-83800000D01*
X176260717Y-84700000D01*
X176293269Y-84873000D01*
X172377000Y-84873000D01*
X172377000Y-76684750D01*
X176873000Y-76684750D01*
X176873000Y-77409827D01*
X176953231Y-77603522D01*
X177101479Y-77751769D01*
X177295173Y-77832000D01*
X177745250Y-77832000D01*
X177877000Y-77700250D01*
X177877000Y-76553000D01*
X177004750Y-76553000D01*
X176873000Y-76684750D01*
X172377000Y-76684750D01*
X172377000Y-74004750D01*
X176873000Y-74004750D01*
X176873000Y-74354827D01*
X176953231Y-74548522D01*
X177057210Y-74652500D01*
X176953231Y-74756478D01*
X176873000Y-74950173D01*
X176873000Y-75675250D01*
X177004750Y-75807000D01*
X177877000Y-75807000D01*
X177877000Y-74659750D01*
X177869750Y-74652500D01*
X177877000Y-74645250D01*
X177877000Y-73873000D01*
X177004750Y-73873000D01*
X176873000Y-74004750D01*
X172377000Y-74004750D01*
X172377000Y-73127000D01*
X178643000Y-73127000D01*
X178643000Y-73873000D01*
G36*
X196623000Y-84873000D02*
X192704250Y-84873000D01*
X192739283Y-84700000D01*
X192739283Y-83800000D01*
X192695563Y-83567648D01*
X192558243Y-83354247D01*
X192348717Y-83211083D01*
X192100000Y-83160717D01*
X191591908Y-83160717D01*
X191595753Y-83158243D01*
X191738917Y-82948717D01*
X191789283Y-82700000D01*
X191789283Y-81800000D01*
X191745563Y-81567648D01*
X191608243Y-81354247D01*
X191577000Y-81332899D01*
X191577000Y-80889283D01*
X191600000Y-80889283D01*
X191832352Y-80845563D01*
X192045753Y-80708243D01*
X192188917Y-80498717D01*
X192239283Y-80250000D01*
X192239283Y-78750000D01*
X192195563Y-78517648D01*
X192058243Y-78304247D01*
X191848717Y-78161083D01*
X191600000Y-78110717D01*
X189900000Y-78110717D01*
X189667648Y-78154437D01*
X189454247Y-78291757D01*
X189311083Y-78501283D01*
X189260717Y-78750000D01*
X189260717Y-80250000D01*
X189304437Y-80482352D01*
X189441757Y-80695753D01*
X189651283Y-80838917D01*
X189900000Y-80889283D01*
X189923000Y-80889283D01*
X189923000Y-81329690D01*
X189904247Y-81341757D01*
X189761083Y-81551283D01*
X189710717Y-81800000D01*
X189710717Y-82700000D01*
X189754437Y-82932352D01*
X189891757Y-83145753D01*
X189913657Y-83160717D01*
X189400000Y-83160717D01*
X189167648Y-83204437D01*
X188954247Y-83341757D01*
X188811083Y-83551283D01*
X188760717Y-83800000D01*
X188760717Y-84700000D01*
X188793269Y-84873000D01*
X184877000Y-84873000D01*
X184877000Y-76877000D01*
X189373000Y-76877000D01*
X189373000Y-77409827D01*
X189453231Y-77603522D01*
X189601479Y-77751769D01*
X189795173Y-77832000D01*
X190245250Y-77832000D01*
X190377000Y-77700250D01*
X190377000Y-76553000D01*
X191123000Y-76553000D01*
X191123000Y-77700250D01*
X191254750Y-77832000D01*
X191704827Y-77832000D01*
X191898521Y-77751769D01*
X192046769Y-77603522D01*
X192127000Y-77409827D01*
X192127000Y-76684750D01*
X191995250Y-76553000D01*
X191123000Y-76553000D01*
X190377000Y-76553000D01*
X190357000Y-76553000D01*
X190357000Y-75807000D01*
X190377000Y-75807000D01*
X190377000Y-74659750D01*
X190369750Y-74652500D01*
X190377000Y-74645250D01*
X190377000Y-73873000D01*
X191123000Y-73873000D01*
X191123000Y-74645250D01*
X191130250Y-74652500D01*
X191123000Y-74659750D01*
X191123000Y-75807000D01*
X191995250Y-75807000D01*
X192127000Y-75675250D01*
X192127000Y-74950173D01*
X192046769Y-74756478D01*
X191942790Y-74652500D01*
X192046769Y-74548522D01*
X192127000Y-74354827D01*
X192127000Y-74004750D01*
X191995250Y-73873000D01*
X191123000Y-73873000D01*
X190377000Y-73873000D01*
X190357000Y-73873000D01*
X190357000Y-73127000D01*
X196623000Y-73127000D01*
X196623000Y-84873000D01*
X196623000Y-84873000D01*
G37*
X196623000Y-84873000D02*
X192704250Y-84873000D01*
X192739283Y-84700000D01*
X192739283Y-83800000D01*
X192695563Y-83567648D01*
X192558243Y-83354247D01*
X192348717Y-83211083D01*
X192100000Y-83160717D01*
X191591908Y-83160717D01*
X191595753Y-83158243D01*
X191738917Y-82948717D01*
X191789283Y-82700000D01*
X191789283Y-81800000D01*
X191745563Y-81567648D01*
X191608243Y-81354247D01*
X191577000Y-81332899D01*
X191577000Y-80889283D01*
X191600000Y-80889283D01*
X191832352Y-80845563D01*
X192045753Y-80708243D01*
X192188917Y-80498717D01*
X192239283Y-80250000D01*
X192239283Y-78750000D01*
X192195563Y-78517648D01*
X192058243Y-78304247D01*
X191848717Y-78161083D01*
X191600000Y-78110717D01*
X189900000Y-78110717D01*
X189667648Y-78154437D01*
X189454247Y-78291757D01*
X189311083Y-78501283D01*
X189260717Y-78750000D01*
X189260717Y-80250000D01*
X189304437Y-80482352D01*
X189441757Y-80695753D01*
X189651283Y-80838917D01*
X189900000Y-80889283D01*
X189923000Y-80889283D01*
X189923000Y-81329690D01*
X189904247Y-81341757D01*
X189761083Y-81551283D01*
X189710717Y-81800000D01*
X189710717Y-82700000D01*
X189754437Y-82932352D01*
X189891757Y-83145753D01*
X189913657Y-83160717D01*
X189400000Y-83160717D01*
X189167648Y-83204437D01*
X188954247Y-83341757D01*
X188811083Y-83551283D01*
X188760717Y-83800000D01*
X188760717Y-84700000D01*
X188793269Y-84873000D01*
X184877000Y-84873000D01*
X184877000Y-76877000D01*
X189373000Y-76877000D01*
X189373000Y-77409827D01*
X189453231Y-77603522D01*
X189601479Y-77751769D01*
X189795173Y-77832000D01*
X190245250Y-77832000D01*
X190377000Y-77700250D01*
X190377000Y-76553000D01*
X191123000Y-76553000D01*
X191123000Y-77700250D01*
X191254750Y-77832000D01*
X191704827Y-77832000D01*
X191898521Y-77751769D01*
X192046769Y-77603522D01*
X192127000Y-77409827D01*
X192127000Y-76684750D01*
X191995250Y-76553000D01*
X191123000Y-76553000D01*
X190377000Y-76553000D01*
X190357000Y-76553000D01*
X190357000Y-75807000D01*
X190377000Y-75807000D01*
X190377000Y-74659750D01*
X190369750Y-74652500D01*
X190377000Y-74645250D01*
X190377000Y-73873000D01*
X191123000Y-73873000D01*
X191123000Y-74645250D01*
X191130250Y-74652500D01*
X191123000Y-74659750D01*
X191123000Y-75807000D01*
X191995250Y-75807000D01*
X192127000Y-75675250D01*
X192127000Y-74950173D01*
X192046769Y-74756478D01*
X191942790Y-74652500D01*
X192046769Y-74548522D01*
X192127000Y-74354827D01*
X192127000Y-74004750D01*
X191995250Y-73873000D01*
X191123000Y-73873000D01*
X190377000Y-73873000D01*
X190357000Y-73873000D01*
X190357000Y-73127000D01*
X196623000Y-73127000D01*
X196623000Y-84873000D01*
G36*
X138873000Y-57435338D02*
X138786331Y-57225583D01*
X138525789Y-56964586D01*
X138185201Y-56823161D01*
X137816417Y-56822839D01*
X137574009Y-56923000D01*
X137314283Y-56923000D01*
X137314283Y-56500000D01*
X137270563Y-56267648D01*
X137133243Y-56054247D01*
X136923717Y-55911083D01*
X136675000Y-55860717D01*
X135325000Y-55860717D01*
X135092648Y-55904437D01*
X135017444Y-55952830D01*
X134824718Y-55873000D01*
X134054750Y-55873000D01*
X133898000Y-56029750D01*
X133898000Y-57377000D01*
X133918000Y-57377000D01*
X133918000Y-58123000D01*
X133898000Y-58123000D01*
X133898000Y-59470250D01*
X134054750Y-59627000D01*
X134824718Y-59627000D01*
X135016038Y-59547753D01*
X135076283Y-59588917D01*
X135325000Y-59639283D01*
X136675000Y-59639283D01*
X136907352Y-59595563D01*
X137120753Y-59458243D01*
X137263917Y-59248717D01*
X137314283Y-59000000D01*
X137314283Y-58577000D01*
X137574361Y-58577000D01*
X137814799Y-58676839D01*
X138183583Y-58677161D01*
X138524417Y-58536331D01*
X138785414Y-58275789D01*
X138873000Y-58064859D01*
X138873000Y-63623000D01*
X130127000Y-63623000D01*
X130127000Y-58279750D01*
X131723000Y-58279750D01*
X131723000Y-59124718D01*
X131818455Y-59355167D01*
X131994833Y-59531545D01*
X132225282Y-59627000D01*
X132995250Y-59627000D01*
X133152000Y-59470250D01*
X133152000Y-58123000D01*
X131879750Y-58123000D01*
X131723000Y-58279750D01*
X130127000Y-58279750D01*
X130127000Y-56375282D01*
X131723000Y-56375282D01*
X131723000Y-57220250D01*
X131879750Y-57377000D01*
X133152000Y-57377000D01*
X133152000Y-56029750D01*
X132995250Y-55873000D01*
X132225282Y-55873000D01*
X131994833Y-55968455D01*
X131818455Y-56144833D01*
X131723000Y-56375282D01*
X130127000Y-56375282D01*
X130127000Y-51877000D01*
X138873000Y-51877000D01*
X138873000Y-57435338D01*
X138873000Y-57435338D01*
G37*
X138873000Y-57435338D02*
X138786331Y-57225583D01*
X138525789Y-56964586D01*
X138185201Y-56823161D01*
X137816417Y-56822839D01*
X137574009Y-56923000D01*
X137314283Y-56923000D01*
X137314283Y-56500000D01*
X137270563Y-56267648D01*
X137133243Y-56054247D01*
X136923717Y-55911083D01*
X136675000Y-55860717D01*
X135325000Y-55860717D01*
X135092648Y-55904437D01*
X135017444Y-55952830D01*
X134824718Y-55873000D01*
X134054750Y-55873000D01*
X133898000Y-56029750D01*
X133898000Y-57377000D01*
X133918000Y-57377000D01*
X133918000Y-58123000D01*
X133898000Y-58123000D01*
X133898000Y-59470250D01*
X134054750Y-59627000D01*
X134824718Y-59627000D01*
X135016038Y-59547753D01*
X135076283Y-59588917D01*
X135325000Y-59639283D01*
X136675000Y-59639283D01*
X136907352Y-59595563D01*
X137120753Y-59458243D01*
X137263917Y-59248717D01*
X137314283Y-59000000D01*
X137314283Y-58577000D01*
X137574361Y-58577000D01*
X137814799Y-58676839D01*
X138183583Y-58677161D01*
X138524417Y-58536331D01*
X138785414Y-58275789D01*
X138873000Y-58064859D01*
X138873000Y-63623000D01*
X130127000Y-63623000D01*
X130127000Y-58279750D01*
X131723000Y-58279750D01*
X131723000Y-59124718D01*
X131818455Y-59355167D01*
X131994833Y-59531545D01*
X132225282Y-59627000D01*
X132995250Y-59627000D01*
X133152000Y-59470250D01*
X133152000Y-58123000D01*
X131879750Y-58123000D01*
X131723000Y-58279750D01*
X130127000Y-58279750D01*
X130127000Y-56375282D01*
X131723000Y-56375282D01*
X131723000Y-57220250D01*
X131879750Y-57377000D01*
X133152000Y-57377000D01*
X133152000Y-56029750D01*
X132995250Y-55873000D01*
X132225282Y-55873000D01*
X131994833Y-55968455D01*
X131818455Y-56144833D01*
X131723000Y-56375282D01*
X130127000Y-56375282D01*
X130127000Y-51877000D01*
X138873000Y-51877000D01*
X138873000Y-57435338D01*
G36*
X134123000Y-51123000D02*
X129727000Y-51123000D01*
X129727000Y-50806998D01*
X129570252Y-50806998D01*
X129727000Y-50650250D01*
X129727000Y-49930282D01*
X129631545Y-49699833D01*
X129584212Y-49652500D01*
X129631545Y-49605167D01*
X129727000Y-49374718D01*
X129727000Y-49029750D01*
X129570250Y-48873000D01*
X128623000Y-48873000D01*
X128623000Y-50807000D01*
X128643000Y-50807000D01*
X128643000Y-51553000D01*
X128623000Y-51553000D01*
X128623000Y-52775250D01*
X128779750Y-52932000D01*
X129224718Y-52932000D01*
X129373000Y-52870580D01*
X129373000Y-53177675D01*
X129348717Y-53161083D01*
X129100000Y-53110717D01*
X127400000Y-53110717D01*
X127167648Y-53154437D01*
X126954247Y-53291757D01*
X126811083Y-53501283D01*
X126760717Y-53750000D01*
X126760717Y-55123000D01*
X122377000Y-55123000D01*
X122377000Y-51709750D01*
X126773000Y-51709750D01*
X126773000Y-52429718D01*
X126868455Y-52660167D01*
X127044833Y-52836545D01*
X127275282Y-52932000D01*
X127720250Y-52932000D01*
X127877000Y-52775250D01*
X127877000Y-51553000D01*
X126929750Y-51553000D01*
X126773000Y-51709750D01*
X122377000Y-51709750D01*
X122377000Y-49029750D01*
X126773000Y-49029750D01*
X126773000Y-49374718D01*
X126868455Y-49605167D01*
X126915788Y-49652500D01*
X126868455Y-49699833D01*
X126773000Y-49930282D01*
X126773000Y-50650250D01*
X126929750Y-50807000D01*
X127877000Y-50807000D01*
X127877000Y-48873000D01*
X126929750Y-48873000D01*
X126773000Y-49029750D01*
X122377000Y-49029750D01*
X122377000Y-47625282D01*
X126773000Y-47625282D01*
X126773000Y-47970250D01*
X126929750Y-48127000D01*
X127877000Y-48127000D01*
X127877000Y-47279750D01*
X128623000Y-47279750D01*
X128623000Y-48127000D01*
X129570250Y-48127000D01*
X129727000Y-47970250D01*
X129727000Y-47625282D01*
X129631545Y-47394833D01*
X129455167Y-47218455D01*
X129224718Y-47123000D01*
X128779750Y-47123000D01*
X128623000Y-47279750D01*
X127877000Y-47279750D01*
X127720250Y-47123000D01*
X127275282Y-47123000D01*
X127044833Y-47218455D01*
X126868455Y-47394833D01*
X126773000Y-47625282D01*
X122377000Y-47625282D01*
X122377000Y-45331750D01*
X126373000Y-45331750D01*
X126373000Y-45524718D01*
X126468455Y-45755167D01*
X126644833Y-45931545D01*
X126875282Y-46027000D01*
X127720250Y-46027000D01*
X127877000Y-45870250D01*
X127877000Y-45175000D01*
X128623000Y-45175000D01*
X128623000Y-45870250D01*
X128779750Y-46027000D01*
X129624718Y-46027000D01*
X129855167Y-45931545D01*
X130031545Y-45755167D01*
X130127000Y-45524718D01*
X130127000Y-45331750D01*
X129970250Y-45175000D01*
X128623000Y-45175000D01*
X127877000Y-45175000D01*
X126529750Y-45175000D01*
X126373000Y-45331750D01*
X122377000Y-45331750D01*
X122377000Y-44375282D01*
X126373000Y-44375282D01*
X126373000Y-44568250D01*
X126529750Y-44725000D01*
X127877000Y-44725000D01*
X127877000Y-44029750D01*
X128623000Y-44029750D01*
X128623000Y-44725000D01*
X129970250Y-44725000D01*
X130127000Y-44568250D01*
X130127000Y-44375282D01*
X130031545Y-44144833D01*
X129855167Y-43968455D01*
X129624718Y-43873000D01*
X128779750Y-43873000D01*
X128623000Y-44029750D01*
X127877000Y-44029750D01*
X127720250Y-43873000D01*
X126875282Y-43873000D01*
X126644833Y-43968455D01*
X126468455Y-44144833D01*
X126373000Y-44375282D01*
X122377000Y-44375282D01*
X122377000Y-43427000D01*
X134123000Y-43427000D01*
X134123000Y-51123000D01*
X134123000Y-51123000D01*
G37*
X134123000Y-51123000D02*
X129727000Y-51123000D01*
X129727000Y-50806998D01*
X129570252Y-50806998D01*
X129727000Y-50650250D01*
X129727000Y-49930282D01*
X129631545Y-49699833D01*
X129584212Y-49652500D01*
X129631545Y-49605167D01*
X129727000Y-49374718D01*
X129727000Y-49029750D01*
X129570250Y-48873000D01*
X128623000Y-48873000D01*
X128623000Y-50807000D01*
X128643000Y-50807000D01*
X128643000Y-51553000D01*
X128623000Y-51553000D01*
X128623000Y-52775250D01*
X128779750Y-52932000D01*
X129224718Y-52932000D01*
X129373000Y-52870580D01*
X129373000Y-53177675D01*
X129348717Y-53161083D01*
X129100000Y-53110717D01*
X127400000Y-53110717D01*
X127167648Y-53154437D01*
X126954247Y-53291757D01*
X126811083Y-53501283D01*
X126760717Y-53750000D01*
X126760717Y-55123000D01*
X122377000Y-55123000D01*
X122377000Y-51709750D01*
X126773000Y-51709750D01*
X126773000Y-52429718D01*
X126868455Y-52660167D01*
X127044833Y-52836545D01*
X127275282Y-52932000D01*
X127720250Y-52932000D01*
X127877000Y-52775250D01*
X127877000Y-51553000D01*
X126929750Y-51553000D01*
X126773000Y-51709750D01*
X122377000Y-51709750D01*
X122377000Y-49029750D01*
X126773000Y-49029750D01*
X126773000Y-49374718D01*
X126868455Y-49605167D01*
X126915788Y-49652500D01*
X126868455Y-49699833D01*
X126773000Y-49930282D01*
X126773000Y-50650250D01*
X126929750Y-50807000D01*
X127877000Y-50807000D01*
X127877000Y-48873000D01*
X126929750Y-48873000D01*
X126773000Y-49029750D01*
X122377000Y-49029750D01*
X122377000Y-47625282D01*
X126773000Y-47625282D01*
X126773000Y-47970250D01*
X126929750Y-48127000D01*
X127877000Y-48127000D01*
X127877000Y-47279750D01*
X128623000Y-47279750D01*
X128623000Y-48127000D01*
X129570250Y-48127000D01*
X129727000Y-47970250D01*
X129727000Y-47625282D01*
X129631545Y-47394833D01*
X129455167Y-47218455D01*
X129224718Y-47123000D01*
X128779750Y-47123000D01*
X128623000Y-47279750D01*
X127877000Y-47279750D01*
X127720250Y-47123000D01*
X127275282Y-47123000D01*
X127044833Y-47218455D01*
X126868455Y-47394833D01*
X126773000Y-47625282D01*
X122377000Y-47625282D01*
X122377000Y-45331750D01*
X126373000Y-45331750D01*
X126373000Y-45524718D01*
X126468455Y-45755167D01*
X126644833Y-45931545D01*
X126875282Y-46027000D01*
X127720250Y-46027000D01*
X127877000Y-45870250D01*
X127877000Y-45175000D01*
X128623000Y-45175000D01*
X128623000Y-45870250D01*
X128779750Y-46027000D01*
X129624718Y-46027000D01*
X129855167Y-45931545D01*
X130031545Y-45755167D01*
X130127000Y-45524718D01*
X130127000Y-45331750D01*
X129970250Y-45175000D01*
X128623000Y-45175000D01*
X127877000Y-45175000D01*
X126529750Y-45175000D01*
X126373000Y-45331750D01*
X122377000Y-45331750D01*
X122377000Y-44375282D01*
X126373000Y-44375282D01*
X126373000Y-44568250D01*
X126529750Y-44725000D01*
X127877000Y-44725000D01*
X127877000Y-44029750D01*
X128623000Y-44029750D01*
X128623000Y-44725000D01*
X129970250Y-44725000D01*
X130127000Y-44568250D01*
X130127000Y-44375282D01*
X130031545Y-44144833D01*
X129855167Y-43968455D01*
X129624718Y-43873000D01*
X128779750Y-43873000D01*
X128623000Y-44029750D01*
X127877000Y-44029750D01*
X127720250Y-43873000D01*
X126875282Y-43873000D01*
X126644833Y-43968455D01*
X126468455Y-44144833D01*
X126373000Y-44375282D01*
X122377000Y-44375282D01*
X122377000Y-43427000D01*
X134123000Y-43427000D01*
X134123000Y-51123000D01*
G36*
X146623000Y-55123000D02*
X142239283Y-55123000D01*
X142239283Y-53750000D01*
X142195563Y-53517648D01*
X142058243Y-53304247D01*
X141848717Y-53161083D01*
X141600000Y-53110717D01*
X139900000Y-53110717D01*
X139667648Y-53154437D01*
X139627000Y-53180593D01*
X139627000Y-52870580D01*
X139775282Y-52932000D01*
X140220250Y-52932000D01*
X140377000Y-52775250D01*
X140377000Y-51553000D01*
X141123000Y-51553000D01*
X141123000Y-52775250D01*
X141279750Y-52932000D01*
X141724718Y-52932000D01*
X141955167Y-52836545D01*
X142131545Y-52660167D01*
X142227000Y-52429718D01*
X142227000Y-51709750D01*
X142070250Y-51553000D01*
X141123000Y-51553000D01*
X140377000Y-51553000D01*
X140357000Y-51553000D01*
X140357000Y-50807000D01*
X140377000Y-50807000D01*
X140377000Y-48873000D01*
X141123000Y-48873000D01*
X141123000Y-50807000D01*
X142070250Y-50807000D01*
X142227000Y-50650250D01*
X142227000Y-49930282D01*
X142131545Y-49699833D01*
X142084212Y-49652500D01*
X142131545Y-49605167D01*
X142227000Y-49374718D01*
X142227000Y-49029750D01*
X142070250Y-48873000D01*
X141123000Y-48873000D01*
X140377000Y-48873000D01*
X139429750Y-48873000D01*
X139273000Y-49029750D01*
X139273000Y-49374718D01*
X139368455Y-49605167D01*
X139415788Y-49652500D01*
X139368455Y-49699833D01*
X139273000Y-49930282D01*
X139273000Y-50650250D01*
X139429748Y-50806998D01*
X139273000Y-50806998D01*
X139273000Y-51123000D01*
X134877000Y-51123000D01*
X134877000Y-47625282D01*
X139273000Y-47625282D01*
X139273000Y-47970250D01*
X139429750Y-48127000D01*
X140377000Y-48127000D01*
X140377000Y-47279750D01*
X141123000Y-47279750D01*
X141123000Y-48127000D01*
X142070250Y-48127000D01*
X142227000Y-47970250D01*
X142227000Y-47625282D01*
X142131545Y-47394833D01*
X141955167Y-47218455D01*
X141724718Y-47123000D01*
X141279750Y-47123000D01*
X141123000Y-47279750D01*
X140377000Y-47279750D01*
X140220250Y-47123000D01*
X139775282Y-47123000D01*
X139544833Y-47218455D01*
X139368455Y-47394833D01*
X139273000Y-47625282D01*
X134877000Y-47625282D01*
X134877000Y-45331750D01*
X138873000Y-45331750D01*
X138873000Y-45524718D01*
X138968455Y-45755167D01*
X139144833Y-45931545D01*
X139375282Y-46027000D01*
X140220250Y-46027000D01*
X140377000Y-45870250D01*
X140377000Y-45175000D01*
X141123000Y-45175000D01*
X141123000Y-45870250D01*
X141279750Y-46027000D01*
X142124718Y-46027000D01*
X142355167Y-45931545D01*
X142531545Y-45755167D01*
X142627000Y-45524718D01*
X142627000Y-45331750D01*
X142470250Y-45175000D01*
X141123000Y-45175000D01*
X140377000Y-45175000D01*
X139029750Y-45175000D01*
X138873000Y-45331750D01*
X134877000Y-45331750D01*
X134877000Y-44375282D01*
X138873000Y-44375282D01*
X138873000Y-44568250D01*
X139029750Y-44725000D01*
X140377000Y-44725000D01*
X140377000Y-44029750D01*
X141123000Y-44029750D01*
X141123000Y-44725000D01*
X142470250Y-44725000D01*
X142627000Y-44568250D01*
X142627000Y-44375282D01*
X142531545Y-44144833D01*
X142355167Y-43968455D01*
X142124718Y-43873000D01*
X141279750Y-43873000D01*
X141123000Y-44029750D01*
X140377000Y-44029750D01*
X140220250Y-43873000D01*
X139375282Y-43873000D01*
X139144833Y-43968455D01*
X138968455Y-44144833D01*
X138873000Y-44375282D01*
X134877000Y-44375282D01*
X134877000Y-43427000D01*
X146623000Y-43427000D01*
X146623000Y-55123000D01*
X146623000Y-55123000D01*
G37*
X146623000Y-55123000D02*
X142239283Y-55123000D01*
X142239283Y-53750000D01*
X142195563Y-53517648D01*
X142058243Y-53304247D01*
X141848717Y-53161083D01*
X141600000Y-53110717D01*
X139900000Y-53110717D01*
X139667648Y-53154437D01*
X139627000Y-53180593D01*
X139627000Y-52870580D01*
X139775282Y-52932000D01*
X140220250Y-52932000D01*
X140377000Y-52775250D01*
X140377000Y-51553000D01*
X141123000Y-51553000D01*
X141123000Y-52775250D01*
X141279750Y-52932000D01*
X141724718Y-52932000D01*
X141955167Y-52836545D01*
X142131545Y-52660167D01*
X142227000Y-52429718D01*
X142227000Y-51709750D01*
X142070250Y-51553000D01*
X141123000Y-51553000D01*
X140377000Y-51553000D01*
X140357000Y-51553000D01*
X140357000Y-50807000D01*
X140377000Y-50807000D01*
X140377000Y-48873000D01*
X141123000Y-48873000D01*
X141123000Y-50807000D01*
X142070250Y-50807000D01*
X142227000Y-50650250D01*
X142227000Y-49930282D01*
X142131545Y-49699833D01*
X142084212Y-49652500D01*
X142131545Y-49605167D01*
X142227000Y-49374718D01*
X142227000Y-49029750D01*
X142070250Y-48873000D01*
X141123000Y-48873000D01*
X140377000Y-48873000D01*
X139429750Y-48873000D01*
X139273000Y-49029750D01*
X139273000Y-49374718D01*
X139368455Y-49605167D01*
X139415788Y-49652500D01*
X139368455Y-49699833D01*
X139273000Y-49930282D01*
X139273000Y-50650250D01*
X139429748Y-50806998D01*
X139273000Y-50806998D01*
X139273000Y-51123000D01*
X134877000Y-51123000D01*
X134877000Y-47625282D01*
X139273000Y-47625282D01*
X139273000Y-47970250D01*
X139429750Y-48127000D01*
X140377000Y-48127000D01*
X140377000Y-47279750D01*
X141123000Y-47279750D01*
X141123000Y-48127000D01*
X142070250Y-48127000D01*
X142227000Y-47970250D01*
X142227000Y-47625282D01*
X142131545Y-47394833D01*
X141955167Y-47218455D01*
X141724718Y-47123000D01*
X141279750Y-47123000D01*
X141123000Y-47279750D01*
X140377000Y-47279750D01*
X140220250Y-47123000D01*
X139775282Y-47123000D01*
X139544833Y-47218455D01*
X139368455Y-47394833D01*
X139273000Y-47625282D01*
X134877000Y-47625282D01*
X134877000Y-45331750D01*
X138873000Y-45331750D01*
X138873000Y-45524718D01*
X138968455Y-45755167D01*
X139144833Y-45931545D01*
X139375282Y-46027000D01*
X140220250Y-46027000D01*
X140377000Y-45870250D01*
X140377000Y-45175000D01*
X141123000Y-45175000D01*
X141123000Y-45870250D01*
X141279750Y-46027000D01*
X142124718Y-46027000D01*
X142355167Y-45931545D01*
X142531545Y-45755167D01*
X142627000Y-45524718D01*
X142627000Y-45331750D01*
X142470250Y-45175000D01*
X141123000Y-45175000D01*
X140377000Y-45175000D01*
X139029750Y-45175000D01*
X138873000Y-45331750D01*
X134877000Y-45331750D01*
X134877000Y-44375282D01*
X138873000Y-44375282D01*
X138873000Y-44568250D01*
X139029750Y-44725000D01*
X140377000Y-44725000D01*
X140377000Y-44029750D01*
X141123000Y-44029750D01*
X141123000Y-44725000D01*
X142470250Y-44725000D01*
X142627000Y-44568250D01*
X142627000Y-44375282D01*
X142531545Y-44144833D01*
X142355167Y-43968455D01*
X142124718Y-43873000D01*
X141279750Y-43873000D01*
X141123000Y-44029750D01*
X140377000Y-44029750D01*
X140220250Y-43873000D01*
X139375282Y-43873000D01*
X139144833Y-43968455D01*
X138968455Y-44144833D01*
X138873000Y-44375282D01*
X134877000Y-44375282D01*
X134877000Y-43427000D01*
X146623000Y-43427000D01*
X146623000Y-55123000D01*
G36*
X129373000Y-59792660D02*
X129204827Y-59723000D01*
X128754750Y-59723000D01*
X128623000Y-59854750D01*
X128623000Y-60627000D01*
X128643000Y-60627000D01*
X128643000Y-61373000D01*
X128623000Y-61373000D01*
X128623000Y-62145250D01*
X128630250Y-62152500D01*
X128623000Y-62159750D01*
X128623000Y-63307000D01*
X128643000Y-63307000D01*
X128643000Y-64053000D01*
X128623000Y-64053000D01*
X128623000Y-65200250D01*
X128754750Y-65332000D01*
X129204827Y-65332000D01*
X129373000Y-65262340D01*
X129373000Y-65677675D01*
X129348717Y-65661083D01*
X129100000Y-65610717D01*
X127400000Y-65610717D01*
X127167648Y-65654437D01*
X126954247Y-65791757D01*
X126811083Y-66001283D01*
X126760717Y-66250000D01*
X126760717Y-67750000D01*
X126804437Y-67982352D01*
X126941757Y-68195753D01*
X127151283Y-68338917D01*
X127400000Y-68389283D01*
X127423000Y-68389283D01*
X127423000Y-72110717D01*
X127400000Y-72110717D01*
X127167648Y-72154437D01*
X126954247Y-72291757D01*
X126898736Y-72373000D01*
X122377000Y-72373000D01*
X122377000Y-64184750D01*
X126873000Y-64184750D01*
X126873000Y-64909827D01*
X126953231Y-65103522D01*
X127101479Y-65251769D01*
X127295173Y-65332000D01*
X127745250Y-65332000D01*
X127877000Y-65200250D01*
X127877000Y-64053000D01*
X127004750Y-64053000D01*
X126873000Y-64184750D01*
X122377000Y-64184750D01*
X122377000Y-61504750D01*
X126873000Y-61504750D01*
X126873000Y-61854827D01*
X126953231Y-62048522D01*
X127057210Y-62152500D01*
X126953231Y-62256478D01*
X126873000Y-62450173D01*
X126873000Y-63175250D01*
X127004750Y-63307000D01*
X127877000Y-63307000D01*
X127877000Y-62159750D01*
X127869750Y-62152500D01*
X127877000Y-62145250D01*
X127877000Y-61373000D01*
X127004750Y-61373000D01*
X126873000Y-61504750D01*
X122377000Y-61504750D01*
X122377000Y-60145173D01*
X126873000Y-60145173D01*
X126873000Y-60495250D01*
X127004750Y-60627000D01*
X127877000Y-60627000D01*
X127877000Y-59854750D01*
X127745250Y-59723000D01*
X127295173Y-59723000D01*
X127101479Y-59803231D01*
X126953231Y-59951478D01*
X126873000Y-60145173D01*
X122377000Y-60145173D01*
X122377000Y-55877000D01*
X129373000Y-55877000D01*
X129373000Y-59792660D01*
X129373000Y-59792660D01*
G37*
X129373000Y-59792660D02*
X129204827Y-59723000D01*
X128754750Y-59723000D01*
X128623000Y-59854750D01*
X128623000Y-60627000D01*
X128643000Y-60627000D01*
X128643000Y-61373000D01*
X128623000Y-61373000D01*
X128623000Y-62145250D01*
X128630250Y-62152500D01*
X128623000Y-62159750D01*
X128623000Y-63307000D01*
X128643000Y-63307000D01*
X128643000Y-64053000D01*
X128623000Y-64053000D01*
X128623000Y-65200250D01*
X128754750Y-65332000D01*
X129204827Y-65332000D01*
X129373000Y-65262340D01*
X129373000Y-65677675D01*
X129348717Y-65661083D01*
X129100000Y-65610717D01*
X127400000Y-65610717D01*
X127167648Y-65654437D01*
X126954247Y-65791757D01*
X126811083Y-66001283D01*
X126760717Y-66250000D01*
X126760717Y-67750000D01*
X126804437Y-67982352D01*
X126941757Y-68195753D01*
X127151283Y-68338917D01*
X127400000Y-68389283D01*
X127423000Y-68389283D01*
X127423000Y-72110717D01*
X127400000Y-72110717D01*
X127167648Y-72154437D01*
X126954247Y-72291757D01*
X126898736Y-72373000D01*
X122377000Y-72373000D01*
X122377000Y-64184750D01*
X126873000Y-64184750D01*
X126873000Y-64909827D01*
X126953231Y-65103522D01*
X127101479Y-65251769D01*
X127295173Y-65332000D01*
X127745250Y-65332000D01*
X127877000Y-65200250D01*
X127877000Y-64053000D01*
X127004750Y-64053000D01*
X126873000Y-64184750D01*
X122377000Y-64184750D01*
X122377000Y-61504750D01*
X126873000Y-61504750D01*
X126873000Y-61854827D01*
X126953231Y-62048522D01*
X127057210Y-62152500D01*
X126953231Y-62256478D01*
X126873000Y-62450173D01*
X126873000Y-63175250D01*
X127004750Y-63307000D01*
X127877000Y-63307000D01*
X127877000Y-62159750D01*
X127869750Y-62152500D01*
X127877000Y-62145250D01*
X127877000Y-61373000D01*
X127004750Y-61373000D01*
X126873000Y-61504750D01*
X122377000Y-61504750D01*
X122377000Y-60145173D01*
X126873000Y-60145173D01*
X126873000Y-60495250D01*
X127004750Y-60627000D01*
X127877000Y-60627000D01*
X127877000Y-59854750D01*
X127745250Y-59723000D01*
X127295173Y-59723000D01*
X127101479Y-59803231D01*
X126953231Y-59951478D01*
X126873000Y-60145173D01*
X122377000Y-60145173D01*
X122377000Y-55877000D01*
X129373000Y-55877000D01*
X129373000Y-59792660D01*
G36*
X138873000Y-76123000D02*
X130127000Y-76123000D01*
X130127000Y-70433583D01*
X130222839Y-70433583D01*
X130363669Y-70774417D01*
X130624211Y-71035414D01*
X130964799Y-71176839D01*
X131333583Y-71177161D01*
X131575991Y-71077000D01*
X131685717Y-71077000D01*
X131685717Y-71500000D01*
X131729437Y-71732352D01*
X131866757Y-71945753D01*
X132076283Y-72088917D01*
X132325000Y-72139283D01*
X133675000Y-72139283D01*
X133907352Y-72095563D01*
X133982556Y-72047170D01*
X134175282Y-72127000D01*
X134945250Y-72127000D01*
X135102000Y-71970250D01*
X135102000Y-70623000D01*
X135848000Y-70623000D01*
X135848000Y-71970250D01*
X136004750Y-72127000D01*
X136774718Y-72127000D01*
X137005167Y-72031545D01*
X137181545Y-71855167D01*
X137277000Y-71624718D01*
X137277000Y-70779750D01*
X137120250Y-70623000D01*
X135848000Y-70623000D01*
X135102000Y-70623000D01*
X135082000Y-70623000D01*
X135082000Y-69877000D01*
X135102000Y-69877000D01*
X135102000Y-68529750D01*
X135848000Y-68529750D01*
X135848000Y-69877000D01*
X137120250Y-69877000D01*
X137277000Y-69720250D01*
X137277000Y-68875282D01*
X137181545Y-68644833D01*
X137005167Y-68468455D01*
X136774718Y-68373000D01*
X136004750Y-68373000D01*
X135848000Y-68529750D01*
X135102000Y-68529750D01*
X134945250Y-68373000D01*
X134175282Y-68373000D01*
X133983962Y-68452247D01*
X133923717Y-68411083D01*
X133675000Y-68360717D01*
X132325000Y-68360717D01*
X132092648Y-68404437D01*
X131879247Y-68541757D01*
X131736083Y-68751283D01*
X131685717Y-69000000D01*
X131685717Y-69423000D01*
X131575639Y-69423000D01*
X131335201Y-69323161D01*
X130966417Y-69322839D01*
X130625583Y-69463669D01*
X130364586Y-69724211D01*
X130223161Y-70064799D01*
X130222839Y-70433583D01*
X130127000Y-70433583D01*
X130127000Y-64377000D01*
X138873000Y-64377000D01*
X138873000Y-76123000D01*
X138873000Y-76123000D01*
G37*
X138873000Y-76123000D02*
X130127000Y-76123000D01*
X130127000Y-70433583D01*
X130222839Y-70433583D01*
X130363669Y-70774417D01*
X130624211Y-71035414D01*
X130964799Y-71176839D01*
X131333583Y-71177161D01*
X131575991Y-71077000D01*
X131685717Y-71077000D01*
X131685717Y-71500000D01*
X131729437Y-71732352D01*
X131866757Y-71945753D01*
X132076283Y-72088917D01*
X132325000Y-72139283D01*
X133675000Y-72139283D01*
X133907352Y-72095563D01*
X133982556Y-72047170D01*
X134175282Y-72127000D01*
X134945250Y-72127000D01*
X135102000Y-71970250D01*
X135102000Y-70623000D01*
X135848000Y-70623000D01*
X135848000Y-71970250D01*
X136004750Y-72127000D01*
X136774718Y-72127000D01*
X137005167Y-72031545D01*
X137181545Y-71855167D01*
X137277000Y-71624718D01*
X137277000Y-70779750D01*
X137120250Y-70623000D01*
X135848000Y-70623000D01*
X135102000Y-70623000D01*
X135082000Y-70623000D01*
X135082000Y-69877000D01*
X135102000Y-69877000D01*
X135102000Y-68529750D01*
X135848000Y-68529750D01*
X135848000Y-69877000D01*
X137120250Y-69877000D01*
X137277000Y-69720250D01*
X137277000Y-68875282D01*
X137181545Y-68644833D01*
X137005167Y-68468455D01*
X136774718Y-68373000D01*
X136004750Y-68373000D01*
X135848000Y-68529750D01*
X135102000Y-68529750D01*
X134945250Y-68373000D01*
X134175282Y-68373000D01*
X133983962Y-68452247D01*
X133923717Y-68411083D01*
X133675000Y-68360717D01*
X132325000Y-68360717D01*
X132092648Y-68404437D01*
X131879247Y-68541757D01*
X131736083Y-68751283D01*
X131685717Y-69000000D01*
X131685717Y-69423000D01*
X131575639Y-69423000D01*
X131335201Y-69323161D01*
X130966417Y-69322839D01*
X130625583Y-69463669D01*
X130364586Y-69724211D01*
X130223161Y-70064799D01*
X130222839Y-70433583D01*
X130127000Y-70433583D01*
X130127000Y-64377000D01*
X138873000Y-64377000D01*
X138873000Y-76123000D01*
G36*
X146623000Y-72373000D02*
X142102484Y-72373000D01*
X142058243Y-72304247D01*
X141848717Y-72161083D01*
X141600000Y-72110717D01*
X141577000Y-72110717D01*
X141577000Y-68389283D01*
X141600000Y-68389283D01*
X141832352Y-68345563D01*
X142045753Y-68208243D01*
X142188917Y-67998717D01*
X142239283Y-67750000D01*
X142239283Y-66250000D01*
X142195563Y-66017648D01*
X142058243Y-65804247D01*
X141848717Y-65661083D01*
X141600000Y-65610717D01*
X139900000Y-65610717D01*
X139667648Y-65654437D01*
X139627000Y-65680593D01*
X139627000Y-65262340D01*
X139795173Y-65332000D01*
X140245250Y-65332000D01*
X140377000Y-65200250D01*
X140377000Y-64053000D01*
X141123000Y-64053000D01*
X141123000Y-65200250D01*
X141254750Y-65332000D01*
X141704827Y-65332000D01*
X141898521Y-65251769D01*
X142046769Y-65103522D01*
X142127000Y-64909827D01*
X142127000Y-64184750D01*
X141995250Y-64053000D01*
X141123000Y-64053000D01*
X140377000Y-64053000D01*
X140357000Y-64053000D01*
X140357000Y-63307000D01*
X140377000Y-63307000D01*
X140377000Y-62159750D01*
X140369750Y-62152500D01*
X140377000Y-62145250D01*
X140377000Y-61373000D01*
X141123000Y-61373000D01*
X141123000Y-62145250D01*
X141130250Y-62152500D01*
X141123000Y-62159750D01*
X141123000Y-63307000D01*
X141995250Y-63307000D01*
X142127000Y-63175250D01*
X142127000Y-62450173D01*
X142046769Y-62256478D01*
X141942790Y-62152500D01*
X142046769Y-62048522D01*
X142127000Y-61854827D01*
X142127000Y-61504750D01*
X141995250Y-61373000D01*
X141123000Y-61373000D01*
X140377000Y-61373000D01*
X140357000Y-61373000D01*
X140357000Y-60627000D01*
X140377000Y-60627000D01*
X140377000Y-59854750D01*
X141123000Y-59854750D01*
X141123000Y-60627000D01*
X141995250Y-60627000D01*
X142127000Y-60495250D01*
X142127000Y-60145173D01*
X142046769Y-59951478D01*
X141898521Y-59803231D01*
X141704827Y-59723000D01*
X141254750Y-59723000D01*
X141123000Y-59854750D01*
X140377000Y-59854750D01*
X140245250Y-59723000D01*
X139795173Y-59723000D01*
X139627000Y-59792660D01*
X139627000Y-55877000D01*
X146623000Y-55877000D01*
X146623000Y-72373000D01*
X146623000Y-72373000D01*
G37*
X146623000Y-72373000D02*
X142102484Y-72373000D01*
X142058243Y-72304247D01*
X141848717Y-72161083D01*
X141600000Y-72110717D01*
X141577000Y-72110717D01*
X141577000Y-68389283D01*
X141600000Y-68389283D01*
X141832352Y-68345563D01*
X142045753Y-68208243D01*
X142188917Y-67998717D01*
X142239283Y-67750000D01*
X142239283Y-66250000D01*
X142195563Y-66017648D01*
X142058243Y-65804247D01*
X141848717Y-65661083D01*
X141600000Y-65610717D01*
X139900000Y-65610717D01*
X139667648Y-65654437D01*
X139627000Y-65680593D01*
X139627000Y-65262340D01*
X139795173Y-65332000D01*
X140245250Y-65332000D01*
X140377000Y-65200250D01*
X140377000Y-64053000D01*
X141123000Y-64053000D01*
X141123000Y-65200250D01*
X141254750Y-65332000D01*
X141704827Y-65332000D01*
X141898521Y-65251769D01*
X142046769Y-65103522D01*
X142127000Y-64909827D01*
X142127000Y-64184750D01*
X141995250Y-64053000D01*
X141123000Y-64053000D01*
X140377000Y-64053000D01*
X140357000Y-64053000D01*
X140357000Y-63307000D01*
X140377000Y-63307000D01*
X140377000Y-62159750D01*
X140369750Y-62152500D01*
X140377000Y-62145250D01*
X140377000Y-61373000D01*
X141123000Y-61373000D01*
X141123000Y-62145250D01*
X141130250Y-62152500D01*
X141123000Y-62159750D01*
X141123000Y-63307000D01*
X141995250Y-63307000D01*
X142127000Y-63175250D01*
X142127000Y-62450173D01*
X142046769Y-62256478D01*
X141942790Y-62152500D01*
X142046769Y-62048522D01*
X142127000Y-61854827D01*
X142127000Y-61504750D01*
X141995250Y-61373000D01*
X141123000Y-61373000D01*
X140377000Y-61373000D01*
X140357000Y-61373000D01*
X140357000Y-60627000D01*
X140377000Y-60627000D01*
X140377000Y-59854750D01*
X141123000Y-59854750D01*
X141123000Y-60627000D01*
X141995250Y-60627000D01*
X142127000Y-60495250D01*
X142127000Y-60145173D01*
X142046769Y-59951478D01*
X141898521Y-59803231D01*
X141704827Y-59723000D01*
X141254750Y-59723000D01*
X141123000Y-59854750D01*
X140377000Y-59854750D01*
X140245250Y-59723000D01*
X139795173Y-59723000D01*
X139627000Y-59792660D01*
X139627000Y-55877000D01*
X146623000Y-55877000D01*
X146623000Y-72373000D01*
G36*
X128643000Y-73873000D02*
X128623000Y-73873000D01*
X128623000Y-74645250D01*
X128630250Y-74652500D01*
X128623000Y-74659750D01*
X128623000Y-75807000D01*
X128643000Y-75807000D01*
X128643000Y-76553000D01*
X128623000Y-76553000D01*
X128623000Y-77700250D01*
X128754750Y-77832000D01*
X129204827Y-77832000D01*
X129398521Y-77751769D01*
X129546769Y-77603522D01*
X129627000Y-77409827D01*
X129627000Y-76877000D01*
X134123000Y-76877000D01*
X134123000Y-84873000D01*
X130204250Y-84873000D01*
X130239283Y-84700000D01*
X130239283Y-83800000D01*
X130195563Y-83567648D01*
X130058243Y-83354247D01*
X129848717Y-83211083D01*
X129600000Y-83160717D01*
X129091908Y-83160717D01*
X129095753Y-83158243D01*
X129238917Y-82948717D01*
X129289283Y-82700000D01*
X129289283Y-81800000D01*
X129245563Y-81567648D01*
X129108243Y-81354247D01*
X129077000Y-81332899D01*
X129077000Y-80889283D01*
X129100000Y-80889283D01*
X129332352Y-80845563D01*
X129545753Y-80708243D01*
X129688917Y-80498717D01*
X129739283Y-80250000D01*
X129739283Y-78750000D01*
X129695563Y-78517648D01*
X129558243Y-78304247D01*
X129348717Y-78161083D01*
X129100000Y-78110717D01*
X127400000Y-78110717D01*
X127167648Y-78154437D01*
X126954247Y-78291757D01*
X126811083Y-78501283D01*
X126760717Y-78750000D01*
X126760717Y-80250000D01*
X126804437Y-80482352D01*
X126941757Y-80695753D01*
X127151283Y-80838917D01*
X127400000Y-80889283D01*
X127423000Y-80889283D01*
X127423000Y-81329690D01*
X127404247Y-81341757D01*
X127261083Y-81551283D01*
X127210717Y-81800000D01*
X127210717Y-82700000D01*
X127254437Y-82932352D01*
X127391757Y-83145753D01*
X127413657Y-83160717D01*
X126900000Y-83160717D01*
X126667648Y-83204437D01*
X126454247Y-83341757D01*
X126311083Y-83551283D01*
X126260717Y-83800000D01*
X126260717Y-84700000D01*
X126293269Y-84873000D01*
X122377000Y-84873000D01*
X122377000Y-76684750D01*
X126873000Y-76684750D01*
X126873000Y-77409827D01*
X126953231Y-77603522D01*
X127101479Y-77751769D01*
X127295173Y-77832000D01*
X127745250Y-77832000D01*
X127877000Y-77700250D01*
X127877000Y-76553000D01*
X127004750Y-76553000D01*
X126873000Y-76684750D01*
X122377000Y-76684750D01*
X122377000Y-74004750D01*
X126873000Y-74004750D01*
X126873000Y-74354827D01*
X126953231Y-74548522D01*
X127057210Y-74652500D01*
X126953231Y-74756478D01*
X126873000Y-74950173D01*
X126873000Y-75675250D01*
X127004750Y-75807000D01*
X127877000Y-75807000D01*
X127877000Y-74659750D01*
X127869750Y-74652500D01*
X127877000Y-74645250D01*
X127877000Y-73873000D01*
X127004750Y-73873000D01*
X126873000Y-74004750D01*
X122377000Y-74004750D01*
X122377000Y-73127000D01*
X128643000Y-73127000D01*
X128643000Y-73873000D01*
X128643000Y-73873000D01*
G37*
X128643000Y-73873000D02*
X128623000Y-73873000D01*
X128623000Y-74645250D01*
X128630250Y-74652500D01*
X128623000Y-74659750D01*
X128623000Y-75807000D01*
X128643000Y-75807000D01*
X128643000Y-76553000D01*
X128623000Y-76553000D01*
X128623000Y-77700250D01*
X128754750Y-77832000D01*
X129204827Y-77832000D01*
X129398521Y-77751769D01*
X129546769Y-77603522D01*
X129627000Y-77409827D01*
X129627000Y-76877000D01*
X134123000Y-76877000D01*
X134123000Y-84873000D01*
X130204250Y-84873000D01*
X130239283Y-84700000D01*
X130239283Y-83800000D01*
X130195563Y-83567648D01*
X130058243Y-83354247D01*
X129848717Y-83211083D01*
X129600000Y-83160717D01*
X129091908Y-83160717D01*
X129095753Y-83158243D01*
X129238917Y-82948717D01*
X129289283Y-82700000D01*
X129289283Y-81800000D01*
X129245563Y-81567648D01*
X129108243Y-81354247D01*
X129077000Y-81332899D01*
X129077000Y-80889283D01*
X129100000Y-80889283D01*
X129332352Y-80845563D01*
X129545753Y-80708243D01*
X129688917Y-80498717D01*
X129739283Y-80250000D01*
X129739283Y-78750000D01*
X129695563Y-78517648D01*
X129558243Y-78304247D01*
X129348717Y-78161083D01*
X129100000Y-78110717D01*
X127400000Y-78110717D01*
X127167648Y-78154437D01*
X126954247Y-78291757D01*
X126811083Y-78501283D01*
X126760717Y-78750000D01*
X126760717Y-80250000D01*
X126804437Y-80482352D01*
X126941757Y-80695753D01*
X127151283Y-80838917D01*
X127400000Y-80889283D01*
X127423000Y-80889283D01*
X127423000Y-81329690D01*
X127404247Y-81341757D01*
X127261083Y-81551283D01*
X127210717Y-81800000D01*
X127210717Y-82700000D01*
X127254437Y-82932352D01*
X127391757Y-83145753D01*
X127413657Y-83160717D01*
X126900000Y-83160717D01*
X126667648Y-83204437D01*
X126454247Y-83341757D01*
X126311083Y-83551283D01*
X126260717Y-83800000D01*
X126260717Y-84700000D01*
X126293269Y-84873000D01*
X122377000Y-84873000D01*
X122377000Y-76684750D01*
X126873000Y-76684750D01*
X126873000Y-77409827D01*
X126953231Y-77603522D01*
X127101479Y-77751769D01*
X127295173Y-77832000D01*
X127745250Y-77832000D01*
X127877000Y-77700250D01*
X127877000Y-76553000D01*
X127004750Y-76553000D01*
X126873000Y-76684750D01*
X122377000Y-76684750D01*
X122377000Y-74004750D01*
X126873000Y-74004750D01*
X126873000Y-74354827D01*
X126953231Y-74548522D01*
X127057210Y-74652500D01*
X126953231Y-74756478D01*
X126873000Y-74950173D01*
X126873000Y-75675250D01*
X127004750Y-75807000D01*
X127877000Y-75807000D01*
X127877000Y-74659750D01*
X127869750Y-74652500D01*
X127877000Y-74645250D01*
X127877000Y-73873000D01*
X127004750Y-73873000D01*
X126873000Y-74004750D01*
X122377000Y-74004750D01*
X122377000Y-73127000D01*
X128643000Y-73127000D01*
X128643000Y-73873000D01*
G36*
X146623000Y-84873000D02*
X142704250Y-84873000D01*
X142739283Y-84700000D01*
X142739283Y-83800000D01*
X142695563Y-83567648D01*
X142558243Y-83354247D01*
X142348717Y-83211083D01*
X142100000Y-83160717D01*
X141591908Y-83160717D01*
X141595753Y-83158243D01*
X141738917Y-82948717D01*
X141789283Y-82700000D01*
X141789283Y-81800000D01*
X141745563Y-81567648D01*
X141608243Y-81354247D01*
X141577000Y-81332899D01*
X141577000Y-80889283D01*
X141600000Y-80889283D01*
X141832352Y-80845563D01*
X142045753Y-80708243D01*
X142188917Y-80498717D01*
X142239283Y-80250000D01*
X142239283Y-78750000D01*
X142195563Y-78517648D01*
X142058243Y-78304247D01*
X141848717Y-78161083D01*
X141600000Y-78110717D01*
X139900000Y-78110717D01*
X139667648Y-78154437D01*
X139454247Y-78291757D01*
X139311083Y-78501283D01*
X139260717Y-78750000D01*
X139260717Y-80250000D01*
X139304437Y-80482352D01*
X139441757Y-80695753D01*
X139651283Y-80838917D01*
X139900000Y-80889283D01*
X139923000Y-80889283D01*
X139923000Y-81329690D01*
X139904247Y-81341757D01*
X139761083Y-81551283D01*
X139710717Y-81800000D01*
X139710717Y-82700000D01*
X139754437Y-82932352D01*
X139891757Y-83145753D01*
X139913657Y-83160717D01*
X139400000Y-83160717D01*
X139167648Y-83204437D01*
X138954247Y-83341757D01*
X138811083Y-83551283D01*
X138760717Y-83800000D01*
X138760717Y-84700000D01*
X138793269Y-84873000D01*
X134877000Y-84873000D01*
X134877000Y-76877000D01*
X139373000Y-76877000D01*
X139373000Y-77409827D01*
X139453231Y-77603522D01*
X139601479Y-77751769D01*
X139795173Y-77832000D01*
X140245250Y-77832000D01*
X140377000Y-77700250D01*
X140377000Y-76553000D01*
X141123000Y-76553000D01*
X141123000Y-77700250D01*
X141254750Y-77832000D01*
X141704827Y-77832000D01*
X141898521Y-77751769D01*
X142046769Y-77603522D01*
X142127000Y-77409827D01*
X142127000Y-76684750D01*
X141995250Y-76553000D01*
X141123000Y-76553000D01*
X140377000Y-76553000D01*
X140357000Y-76553000D01*
X140357000Y-75807000D01*
X140377000Y-75807000D01*
X140377000Y-74659750D01*
X140369750Y-74652500D01*
X140377000Y-74645250D01*
X140377000Y-73873000D01*
X141123000Y-73873000D01*
X141123000Y-74645250D01*
X141130250Y-74652500D01*
X141123000Y-74659750D01*
X141123000Y-75807000D01*
X141995250Y-75807000D01*
X142127000Y-75675250D01*
X142127000Y-74950173D01*
X142046769Y-74756478D01*
X141942790Y-74652500D01*
X142046769Y-74548522D01*
X142127000Y-74354827D01*
X142127000Y-74004750D01*
X141995250Y-73873000D01*
X141123000Y-73873000D01*
X140377000Y-73873000D01*
X140357000Y-73873000D01*
X140357000Y-73127000D01*
X146623000Y-73127000D01*
X146623000Y-84873000D01*
X146623000Y-84873000D01*
G37*
X146623000Y-84873000D02*
X142704250Y-84873000D01*
X142739283Y-84700000D01*
X142739283Y-83800000D01*
X142695563Y-83567648D01*
X142558243Y-83354247D01*
X142348717Y-83211083D01*
X142100000Y-83160717D01*
X141591908Y-83160717D01*
X141595753Y-83158243D01*
X141738917Y-82948717D01*
X141789283Y-82700000D01*
X141789283Y-81800000D01*
X141745563Y-81567648D01*
X141608243Y-81354247D01*
X141577000Y-81332899D01*
X141577000Y-80889283D01*
X141600000Y-80889283D01*
X141832352Y-80845563D01*
X142045753Y-80708243D01*
X142188917Y-80498717D01*
X142239283Y-80250000D01*
X142239283Y-78750000D01*
X142195563Y-78517648D01*
X142058243Y-78304247D01*
X141848717Y-78161083D01*
X141600000Y-78110717D01*
X139900000Y-78110717D01*
X139667648Y-78154437D01*
X139454247Y-78291757D01*
X139311083Y-78501283D01*
X139260717Y-78750000D01*
X139260717Y-80250000D01*
X139304437Y-80482352D01*
X139441757Y-80695753D01*
X139651283Y-80838917D01*
X139900000Y-80889283D01*
X139923000Y-80889283D01*
X139923000Y-81329690D01*
X139904247Y-81341757D01*
X139761083Y-81551283D01*
X139710717Y-81800000D01*
X139710717Y-82700000D01*
X139754437Y-82932352D01*
X139891757Y-83145753D01*
X139913657Y-83160717D01*
X139400000Y-83160717D01*
X139167648Y-83204437D01*
X138954247Y-83341757D01*
X138811083Y-83551283D01*
X138760717Y-83800000D01*
X138760717Y-84700000D01*
X138793269Y-84873000D01*
X134877000Y-84873000D01*
X134877000Y-76877000D01*
X139373000Y-76877000D01*
X139373000Y-77409827D01*
X139453231Y-77603522D01*
X139601479Y-77751769D01*
X139795173Y-77832000D01*
X140245250Y-77832000D01*
X140377000Y-77700250D01*
X140377000Y-76553000D01*
X141123000Y-76553000D01*
X141123000Y-77700250D01*
X141254750Y-77832000D01*
X141704827Y-77832000D01*
X141898521Y-77751769D01*
X142046769Y-77603522D01*
X142127000Y-77409827D01*
X142127000Y-76684750D01*
X141995250Y-76553000D01*
X141123000Y-76553000D01*
X140377000Y-76553000D01*
X140357000Y-76553000D01*
X140357000Y-75807000D01*
X140377000Y-75807000D01*
X140377000Y-74659750D01*
X140369750Y-74652500D01*
X140377000Y-74645250D01*
X140377000Y-73873000D01*
X141123000Y-73873000D01*
X141123000Y-74645250D01*
X141130250Y-74652500D01*
X141123000Y-74659750D01*
X141123000Y-75807000D01*
X141995250Y-75807000D01*
X142127000Y-75675250D01*
X142127000Y-74950173D01*
X142046769Y-74756478D01*
X141942790Y-74652500D01*
X142046769Y-74548522D01*
X142127000Y-74354827D01*
X142127000Y-74004750D01*
X141995250Y-73873000D01*
X141123000Y-73873000D01*
X140377000Y-73873000D01*
X140357000Y-73873000D01*
X140357000Y-73127000D01*
X146623000Y-73127000D01*
X146623000Y-84873000D01*
M02*
