<?xml version="1.0" standalone="no"?>
<!DOCTYPE svg PUBLIC "-//W3C//DTD SVG 1.1//EN" "http://www.w3.org/Graphics/SVG/1.1/DTD/svg11.dtd">
<svg width="100mm" height="50mm" viewBox="-50 -25 100 50" xmlns="http://www.w3.org/2000/svg" version="1.1">
<title>OpenSCAD Model</title>
<path d="
M 46.7495,24.9291 L 47.2361,24.8042 L 47.7031,24.6193 L 48.1433,24.3773 L 48.5497,24.082 L 48.9159,23.7382
 L 49.2361,23.3511 L 49.5052,22.927 L 49.7191,22.4725 L 49.8743,21.9948 L 49.9685,21.5013 L 50,21
 L 50,-21 L 49.9685,-21.5013 L 49.8743,-21.9948 L 49.7191,-22.4725 L 49.5052,-22.927 L 49.2361,-23.3511
 L 48.9159,-23.7382 L 48.5497,-24.082 L 48.1433,-24.3773 L 47.7031,-24.6193 L 47.2361,-24.8042 L 46.7495,-24.9291
 L 46.2512,-24.9921 L -46.2512,-24.9921 L -46.7495,-24.9291 L -47.2361,-24.8042 L -47.7031,-24.6193 L -48.1433,-24.3773
 L -48.5497,-24.082 L -48.9159,-23.7382 L -49.2361,-23.3511 L -49.5052,-22.927 L -49.7191,-22.4725 L -49.8743,-21.9948
 L -49.9685,-21.5013 L -50,-21 L -50,21 L -49.9685,21.5013 L -49.8743,21.9948 L -49.7191,22.4725
 L -49.5052,22.927 L -49.2361,23.3511 L -48.9159,23.7382 L -48.5497,24.082 L -48.1433,24.3773 L -47.7031,24.6193
 L -47.2361,24.8042 L -46.7495,24.9291 L -46.2512,24.9921 L 46.2512,24.9921 z
M -37.5,23 L -37.5,-23 L 37.5,-23 L 37.5,23 z
M 45.9058,-19.503 L 45.7189,-19.5266 L 45.5365,-19.5734 L 45.3613,-19.6427 L 45.1963,-19.7335 L 45.0439,-19.8442
 L 44.9065,-19.9732 L 44.7865,-20.1183 L 44.6855,-20.2774 L 44.6053,-20.4478 L 44.5471,-20.627 L 44.5118,-20.812
 L 44.5,-21 L 44.5118,-21.188 L 44.5471,-21.373 L 44.6053,-21.5522 L 44.6855,-21.7226 L 44.7865,-21.8817
 L 44.9065,-22.0268 L 45.0439,-22.1558 L 45.1963,-22.2665 L 45.3613,-22.3572 L 45.5365,-22.4266 L 45.7189,-22.4734
 L 45.9058,-22.497 L 46.0942,-22.497 L 46.2811,-22.4734 L 46.4635,-22.4266 L 46.6387,-22.3572 L 46.8037,-22.2665
 L 46.9561,-22.1558 L 47.0934,-22.0268 L 47.2135,-21.8817 L 47.3145,-21.7226 L 47.3947,-21.5522 L 47.4529,-21.373
 L 47.4882,-21.188 L 47.5,-21 L 47.4882,-20.812 L 47.4529,-20.627 L 47.3947,-20.4478 L 47.3145,-20.2774
 L 47.2135,-20.1183 L 47.0934,-19.9732 L 46.9561,-19.8442 L 46.8037,-19.7335 L 46.6387,-19.6427 L 46.4635,-19.5734
 L 46.2811,-19.5266 L 46.0942,-19.503 z
M -46.0942,-19.503 L -46.2811,-19.5266 L -46.4635,-19.5734 L -46.6387,-19.6427 L -46.8037,-19.7335 L -46.9561,-19.8442
 L -47.0934,-19.9732 L -47.2135,-20.1183 L -47.3145,-20.2774 L -47.3947,-20.4478 L -47.4529,-20.627 L -47.4882,-20.812
 L -47.5,-21 L -47.4882,-21.188 L -47.4529,-21.373 L -47.3947,-21.5522 L -47.3145,-21.7226 L -47.2135,-21.8817
 L -47.0934,-22.0268 L -46.9561,-22.1558 L -46.8037,-22.2665 L -46.6387,-22.3572 L -46.4635,-22.4266 L -46.2811,-22.4734
 L -46.0942,-22.497 L -45.9058,-22.497 L -45.7189,-22.4734 L -45.5365,-22.4266 L -45.3613,-22.3572 L -45.1963,-22.2665
 L -45.0439,-22.1558 L -44.9065,-22.0268 L -44.7865,-21.8817 L -44.6855,-21.7226 L -44.6053,-21.5522 L -44.5471,-21.373
 L -44.5118,-21.188 L -44.5,-21 L -44.5118,-20.812 L -44.5471,-20.627 L -44.6053,-20.4478 L -44.6855,-20.2774
 L -44.7865,-20.1183 L -44.9065,-19.9732 L -45.0439,-19.8442 L -45.1963,-19.7335 L -45.3613,-19.6427 L -45.5365,-19.5734
 L -45.7189,-19.5266 L -45.9058,-19.503 z
M 39.5,16 L 39.5,-16 L 46.5,-16 L 46.5,16 z
M -46.5,16 L -46.5,-16 L -39.5,-16 L -39.5,16 z
M 45.9058,22.497 L 45.7189,22.4734 L 45.5365,22.4266 L 45.3613,22.3572 L 45.1963,22.2665 L 45.0439,22.1558
 L 44.9065,22.0268 L 44.7865,21.8817 L 44.6855,21.7226 L 44.6053,21.5522 L 44.5471,21.373 L 44.5118,21.188
 L 44.5,21 L 44.5118,20.812 L 44.5471,20.627 L 44.6053,20.4478 L 44.6855,20.2774 L 44.7865,20.1183
 L 44.9065,19.9732 L 45.0439,19.8442 L 45.1963,19.7335 L 45.3613,19.6427 L 45.5365,19.5734 L 45.7189,19.5266
 L 45.9058,19.503 L 46.0942,19.503 L 46.2811,19.5266 L 46.4635,19.5734 L 46.6387,19.6427 L 46.8037,19.7335
 L 46.9561,19.8442 L 47.0934,19.9732 L 47.2135,20.1183 L 47.3145,20.2774 L 47.3947,20.4478 L 47.4529,20.627
 L 47.4882,20.812 L 47.5,21 L 47.4882,21.188 L 47.4529,21.373 L 47.3947,21.5522 L 47.3145,21.7226
 L 47.2135,21.8817 L 47.0934,22.0268 L 46.9561,22.1558 L 46.8037,22.2665 L 46.6387,22.3572 L 46.4635,22.4266
 L 46.2811,22.4734 L 46.0942,22.497 z
M -46.0942,22.497 L -46.2811,22.4734 L -46.4635,22.4266 L -46.6387,22.3572 L -46.8037,22.2665 L -46.9561,22.1558
 L -47.0934,22.0268 L -47.2135,21.8817 L -47.3145,21.7226 L -47.3947,21.5522 L -47.4529,21.373 L -47.4882,21.188
 L -47.5,21 L -47.4882,20.812 L -47.4529,20.627 L -47.3947,20.4478 L -47.3145,20.2774 L -47.2135,20.1183
 L -47.0934,19.9732 L -46.9561,19.8442 L -46.8037,19.7335 L -46.6387,19.6427 L -46.4635,19.5734 L -46.2811,19.5266
 L -46.0942,19.503 L -45.9058,19.503 L -45.7189,19.5266 L -45.5365,19.5734 L -45.3613,19.6427 L -45.1963,19.7335
 L -45.0439,19.8442 L -44.9065,19.9732 L -44.7865,20.1183 L -44.6855,20.2774 L -44.6053,20.4478 L -44.5471,20.627
 L -44.5118,20.812 L -44.5,21 L -44.5118,21.188 L -44.5471,21.373 L -44.6053,21.5522 L -44.6855,21.7226
 L -44.7865,21.8817 L -44.9065,22.0268 L -45.0439,22.1558 L -45.1963,22.2665 L -45.3613,22.3572 L -45.5365,22.4266
 L -45.7189,22.4734 L -45.9058,22.497 z
" stroke="black" fill="lightgray" stroke-width="0.5"/>
</svg>
